M48
;DRILL file {KiCad 4.0.7} date 11/25/18 15:19:15
;FORMAT={-:-/ absolute / inch / decimal}
FMAT,2
INCH,TZ
T1C0.016
T2C0.028
T3C0.030
T4C0.031
T5C0.039
%
G90
G05
M72
T1
X0.402Y1.5162
X0.46Y1.2522
X0.4784Y1.3812
X0.5654Y1.4616
X0.6301Y1.2824
X0.6591Y1.355
X0.6652Y1.2554
X0.6901Y1.3305
X0.7488Y1.4092
X0.7826Y1.2352
X0.8084Y1.2732
X1.1028Y1.8218
X1.3048Y1.3804
X1.3806Y1.5876
X1.3942Y1.3828
X1.3952Y1.9856
X1.5058Y1.5684
X1.516Y0.9872
X1.5526Y1.1464
X1.6291Y1.0978
X2.0436Y1.4356
X2.0946Y1.154
X2.2364Y1.147
X2.293Y0.9778
T2
X0.0977Y3.0348
X0.0977Y2.964
X0.2551Y3.0348
X0.2551Y2.964
X1.8111Y2.2608
X1.8111Y2.19
X1.9685Y2.2608
X1.9685Y2.19
X3.5279Y3.0348
X3.5279Y2.964
X3.6853Y3.0348
X3.6853Y2.964
T3
X3.1264Y1.5802
X3.1264Y1.2204
X3.7264Y1.5802
X3.7264Y1.2202
T4
X2.9134Y1.5038
X2.9134Y1.3069
T5
X0.0876Y1.6414
X0.0884Y2.3936
X1.5212Y1.3434
X1.5212Y1.2434
X1.7214Y1.1734
X1.8264Y1.6394
X1.8278Y2.3908
X1.9749Y2.0228
X2.0906Y1.728
X2.1906Y1.728
X2.2702Y2.0228
X2.2784Y1.3434
X2.2784Y1.2434
X2.6642Y1.5042
X2.6642Y1.4042
X2.6642Y1.3042
T0
M30
