G04 #@! TF.FileFunction,Legend,Bot*
%FSLAX46Y46*%
G04 Gerber Fmt 4.6, Leading zero omitted, Abs format (unit mm)*
G04 Created by KiCad (PCBNEW 4.0.7) date 11/25/18 15:18:32*
%MOMM*%
%LPD*%
G01*
G04 APERTURE LIST*
%ADD10C,0.100000*%
%ADD11C,0.750000*%
%ADD12C,0.010000*%
%ADD13C,0.120000*%
%ADD14C,0.150000*%
%ADD15R,4.900000X10.400000*%
%ADD16C,3.600000*%
%ADD17R,2.400000X2.400000*%
%ADD18C,2.400000*%
%ADD19R,2.000000X2.000000*%
%ADD20C,2.000000*%
%ADD21R,2.100000X2.100000*%
%ADD22O,2.100000X2.100000*%
%ADD23R,1.700000X1.100000*%
%ADD24C,1.924000*%
%ADD25C,1.455599*%
G04 APERTURE END LIST*
D10*
D11*
X56271393Y13925840D02*
X54842822Y13925840D01*
X56557108Y13068697D02*
X55557108Y16068697D01*
X54557108Y13068697D01*
X51557108Y15068697D02*
X50842822Y13068697D01*
X50128536Y15068697D01*
X47842822Y13211554D02*
X48128536Y13068697D01*
X48699965Y13068697D01*
X48985679Y13211554D01*
X49128536Y13497269D01*
X49128536Y14640126D01*
X48985679Y14925840D01*
X48699965Y15068697D01*
X48128536Y15068697D01*
X47842822Y14925840D01*
X47699965Y14640126D01*
X47699965Y14354411D01*
X49128536Y14068697D01*
X46414250Y13068697D02*
X46414250Y15068697D01*
X46414250Y14497269D02*
X46271393Y14782983D01*
X46128536Y14925840D01*
X45842822Y15068697D01*
X45557107Y15068697D01*
X42414250Y13211554D02*
X42128536Y13068697D01*
X41557108Y13068697D01*
X41271393Y13211554D01*
X41128536Y13497269D01*
X41128536Y13640126D01*
X41271393Y13925840D01*
X41557108Y14068697D01*
X41985679Y14068697D01*
X42271393Y14211554D01*
X42414250Y14497269D01*
X42414250Y14640126D01*
X42271393Y14925840D01*
X41985679Y15068697D01*
X41557108Y15068697D01*
X41271393Y14925840D01*
X39842822Y13068697D02*
X39842822Y15068697D01*
X39842822Y16068697D02*
X39985679Y15925840D01*
X39842822Y15782983D01*
X39699965Y15925840D01*
X39842822Y16068697D01*
X39842822Y15782983D01*
X56057109Y9818697D02*
X56057109Y7818697D01*
X56057109Y9532983D02*
X55914252Y9675840D01*
X55628538Y9818697D01*
X55199966Y9818697D01*
X54914252Y9675840D01*
X54771395Y9390126D01*
X54771395Y7818697D01*
X52914252Y7818697D02*
X53199966Y7961554D01*
X53342823Y8104411D01*
X53485680Y8390126D01*
X53485680Y9247269D01*
X53342823Y9532983D01*
X53199966Y9675840D01*
X52914252Y9818697D01*
X52485680Y9818697D01*
X52199966Y9675840D01*
X52057109Y9532983D01*
X51914252Y9247269D01*
X51914252Y8390126D01*
X52057109Y8104411D01*
X52199966Y7961554D01*
X52485680Y7818697D01*
X52914252Y7818697D01*
X47057109Y7818697D02*
X47057109Y9390126D01*
X47199966Y9675840D01*
X47485680Y9818697D01*
X48057109Y9818697D01*
X48342823Y9675840D01*
X47057109Y7961554D02*
X47342823Y7818697D01*
X48057109Y7818697D01*
X48342823Y7961554D01*
X48485680Y8247269D01*
X48485680Y8532983D01*
X48342823Y8818697D01*
X48057109Y8961554D01*
X47342823Y8961554D01*
X47057109Y9104411D01*
X45628537Y7818697D02*
X45628537Y9818697D01*
X45628537Y9247269D02*
X45485680Y9532983D01*
X45342823Y9675840D01*
X45057109Y9818697D01*
X44771394Y9818697D01*
X42485680Y7818697D02*
X42485680Y10818697D01*
X42485680Y7961554D02*
X42771394Y7818697D01*
X43342823Y7818697D01*
X43628537Y7961554D01*
X43771394Y8104411D01*
X43914251Y8390126D01*
X43914251Y9247269D01*
X43771394Y9532983D01*
X43628537Y9675840D01*
X43342823Y9818697D01*
X42771394Y9818697D01*
X42485680Y9675840D01*
X39914251Y7961554D02*
X40199965Y7818697D01*
X40771394Y7818697D01*
X41057108Y7961554D01*
X41199965Y8247269D01*
X41199965Y9390126D01*
X41057108Y9675840D01*
X40771394Y9818697D01*
X40199965Y9818697D01*
X39914251Y9675840D01*
X39771394Y9390126D01*
X39771394Y9104411D01*
X41199965Y8818697D01*
D10*
X51540916Y63004441D02*
X88040916Y63004441D01*
X88040916Y63004441D02*
X88040916Y78004441D01*
X40916Y63004441D02*
X1040916Y63004441D01*
X50317400Y20081240D02*
X50317473Y21080131D01*
X8040916Y78004441D02*
X8040916Y63004441D01*
X44540916Y70004441D02*
X51540916Y70004441D01*
X50317473Y20083891D02*
X76793969Y20083891D01*
X40916Y25504441D02*
X18840977Y25504441D01*
X96040916Y25504441D02*
X76793969Y25504441D01*
X88040916Y78004441D02*
X95040916Y78004441D01*
X18840977Y21080131D02*
X18840977Y25504441D01*
X95040916Y78004441D02*
X95040916Y63004441D01*
X18840977Y20083891D02*
X45317473Y20083891D01*
X18840977Y-316109D02*
X18840977Y20083891D01*
X45317473Y21080131D02*
X18840977Y21080131D01*
X40916Y25504441D02*
X40916Y63004441D01*
X1040916Y63004441D02*
X1040916Y78004441D01*
X95040916Y63004441D02*
X96040916Y63004441D01*
X45313600Y20086320D02*
X45317473Y21080131D01*
X44540916Y63004441D02*
X44540916Y70004441D01*
X18840977Y-316109D02*
X76793969Y-316109D01*
X51540916Y63004441D02*
X51540916Y70004441D01*
X76793969Y25504441D02*
X76793969Y21080131D01*
X8040916Y63004441D02*
X44540916Y63004441D01*
X96040916Y63004441D02*
X96040916Y25504441D01*
X76793969Y-316109D02*
X76793969Y20083891D01*
X1040916Y78004441D02*
X8040916Y78004441D01*
X76793969Y21080131D02*
X50317473Y21080131D01*
D12*
G36*
X25143541Y61019351D02*
X24768471Y60992315D01*
X24542931Y60964674D01*
X24233517Y60910848D01*
X23887058Y60837688D01*
X23526589Y60750971D01*
X23175141Y60656478D01*
X22855751Y60559985D01*
X22653709Y60490737D01*
X22412320Y60394740D01*
X22130218Y60270517D01*
X21827104Y60127753D01*
X21522677Y59976132D01*
X21236640Y59825339D01*
X20988691Y59685057D01*
X20881267Y59619427D01*
X20252470Y59179996D01*
X19657357Y58680908D01*
X19104043Y58130422D01*
X18600648Y57536801D01*
X18155286Y56908304D01*
X18046323Y56734165D01*
X17714232Y56135832D01*
X17424271Y55505548D01*
X17179091Y54853532D01*
X16981342Y54190002D01*
X16833677Y53525176D01*
X16738745Y52869272D01*
X16699198Y52232508D01*
X16717688Y51625102D01*
X16718439Y51616043D01*
X16821479Y50797018D01*
X16990265Y50001168D01*
X17222786Y49231883D01*
X17517033Y48492552D01*
X17870997Y47786564D01*
X18282667Y47117306D01*
X18750036Y46488168D01*
X19271092Y45902539D01*
X19843827Y45363808D01*
X20466231Y44875362D01*
X20881267Y44596046D01*
X21101599Y44465067D01*
X21370272Y44318536D01*
X21667587Y44166137D01*
X21973842Y44017554D01*
X22269338Y43882474D01*
X22534375Y43770579D01*
X22653709Y43724737D01*
X22933482Y43630846D01*
X23261624Y43534808D01*
X23614383Y43442574D01*
X23968012Y43360097D01*
X24298761Y43293328D01*
X24522570Y43256412D01*
X24819493Y43221918D01*
X25149524Y43197205D01*
X25490327Y43182966D01*
X25819565Y43179893D01*
X26114902Y43188679D01*
X26284645Y43201747D01*
X27101796Y43322742D01*
X27902207Y43513655D01*
X28682091Y43772998D01*
X29437660Y44099282D01*
X30165125Y44491018D01*
X30860698Y44946718D01*
X31016738Y45061144D01*
X31251808Y45250420D01*
X31514018Y45484028D01*
X31788591Y45747057D01*
X32060750Y46024598D01*
X32315718Y46301741D01*
X32538718Y46563577D01*
X32660129Y46719308D01*
X33131388Y47409594D01*
X33533779Y48121935D01*
X33868004Y48858187D01*
X34134762Y49620206D01*
X34334753Y50409846D01*
X34468677Y51228962D01*
X34505890Y51592689D01*
X34091085Y51592689D01*
X34088309Y51468721D01*
X34028840Y51356148D01*
X33927059Y51281051D01*
X33917233Y51277343D01*
X33871570Y51268646D01*
X33815116Y51276684D01*
X33736494Y51306157D01*
X33624327Y51361769D01*
X33467236Y51448224D01*
X33369754Y51503649D01*
X33206743Y51596027D01*
X33066467Y51673890D01*
X32960750Y51730802D01*
X32901415Y51760324D01*
X32893400Y51763022D01*
X32882208Y51729748D01*
X32873859Y51641951D01*
X32869967Y51517670D01*
X32869872Y51499951D01*
X32839009Y51134721D01*
X32752597Y50754500D01*
X32617385Y50381519D01*
X32440125Y50038009D01*
X32412648Y49994022D01*
X32256263Y49781589D01*
X32057450Y49558771D01*
X31838447Y49348129D01*
X31621488Y49172220D01*
X31561533Y49130530D01*
X31305282Y48982674D01*
X31010175Y48848548D01*
X30709927Y48742394D01*
X30533714Y48696377D01*
X30327192Y48665665D01*
X30077681Y48649996D01*
X29813190Y48649406D01*
X29561734Y48663930D01*
X29351323Y48693605D01*
X29345290Y48694867D01*
X29069871Y48770209D01*
X28779320Y48878510D01*
X28506164Y49006600D01*
X28343788Y49100305D01*
X28051909Y49319588D01*
X27775622Y49588604D01*
X27530166Y49889451D01*
X27330780Y50204228D01*
X27235398Y50402308D01*
X27148479Y50620062D01*
X27087005Y50804706D01*
X27046750Y50978442D01*
X27023488Y51163468D01*
X27012995Y51381987D01*
X27010962Y51581594D01*
X27017034Y51876987D01*
X27039637Y52124022D01*
X27084367Y52345888D01*
X27156818Y52565774D01*
X27262588Y52806870D01*
X27348082Y52978594D01*
X27443100Y53150515D01*
X27543832Y53300283D01*
X27666805Y53449833D01*
X27828545Y53621106D01*
X27843592Y53636340D01*
X27997258Y53783458D01*
X28153428Y53919089D01*
X28293838Y54028000D01*
X28381719Y54085192D01*
X28486250Y54150319D01*
X28556992Y54207239D01*
X28578519Y54243117D01*
X28543466Y54276063D01*
X28457976Y54335954D01*
X28334919Y54414257D01*
X28188210Y54501837D01*
X28157151Y54520737D01*
X26784611Y54520737D01*
X26762310Y54332435D01*
X26696254Y54069655D01*
X26567384Y53820252D01*
X26385456Y53597359D01*
X26160228Y53414110D01*
X26021190Y53334861D01*
X25952189Y53301900D01*
X25889548Y53276673D01*
X25822191Y53257884D01*
X25739043Y53244242D01*
X25629030Y53234452D01*
X25481076Y53227222D01*
X25284107Y53221259D01*
X25027047Y53215270D01*
X24989967Y53214451D01*
X24722443Y53208121D01*
X24517543Y53201785D01*
X24365326Y53194445D01*
X24255850Y53185101D01*
X24179174Y53172752D01*
X24125358Y53156399D01*
X24084461Y53135043D01*
X24064681Y53121395D01*
X23935110Y52987858D01*
X23864346Y52828988D01*
X23854910Y52660071D01*
X23909323Y52496390D01*
X23951263Y52433592D01*
X23993545Y52383210D01*
X24038306Y52342134D01*
X24093032Y52309417D01*
X24165212Y52284110D01*
X24262333Y52265264D01*
X24391884Y52251932D01*
X24561351Y52243165D01*
X24778223Y52238015D01*
X25049987Y52235533D01*
X25384131Y52234772D01*
X25521480Y52234737D01*
X26774503Y52234737D01*
X26774503Y50988647D01*
X26774072Y50624860D01*
X26772044Y50325317D01*
X26767316Y50081691D01*
X26758784Y49885656D01*
X26745345Y49728885D01*
X26725897Y49603052D01*
X26699335Y49499831D01*
X26664557Y49410895D01*
X26620459Y49327919D01*
X26565938Y49242575D01*
X26537655Y49201100D01*
X26372644Y49010549D01*
X26167626Y48849316D01*
X25941053Y48728195D01*
X25711377Y48657978D01*
X25586662Y48644878D01*
X25469251Y48642451D01*
X25459662Y49776380D01*
X25450074Y50910308D01*
X24688074Y50931295D01*
X24452604Y50939480D01*
X24235229Y50950215D01*
X24048812Y50962611D01*
X23906220Y50975784D01*
X23820316Y50988847D01*
X23809791Y50991790D01*
X23529875Y51117408D01*
X23259842Y51294865D01*
X23018486Y51509032D01*
X22824602Y51744781D01*
X22773578Y51825881D01*
X22637420Y52124599D01*
X22614012Y52216594D01*
X22365788Y52216594D01*
X22365788Y50964737D01*
X22365373Y50601408D01*
X22363289Y50302271D01*
X22358277Y50058948D01*
X22349079Y49863061D01*
X22334436Y49706232D01*
X22313091Y49580083D01*
X22283784Y49476235D01*
X22245258Y49386310D01*
X22196254Y49301930D01*
X22135513Y49214718D01*
X22094701Y49159922D01*
X21938712Y48991618D01*
X21749035Y48847055D01*
X21543638Y48736059D01*
X21340485Y48668460D01*
X21168360Y48653215D01*
X21059503Y48660594D01*
X21049866Y49685665D01*
X21046508Y49949959D01*
X21041795Y50188985D01*
X21036042Y50393605D01*
X21029565Y50554679D01*
X21022678Y50663066D01*
X21015698Y50709626D01*
X21014487Y50710737D01*
X20983756Y50685996D01*
X20907708Y50615598D01*
X20792258Y50505284D01*
X20643324Y50360794D01*
X20466824Y50187866D01*
X20268675Y49992240D01*
X20062552Y49787391D01*
X19790019Y49516559D01*
X19561681Y49292953D01*
X19370847Y49112056D01*
X19210825Y48969353D01*
X19074921Y48860330D01*
X18956443Y48780470D01*
X18848701Y48725259D01*
X18745001Y48690181D01*
X18638651Y48670721D01*
X18522959Y48662364D01*
X18392503Y48660594D01*
X18220404Y48666961D01*
X18068176Y48684104D01*
X17961348Y48709082D01*
X17957074Y48710713D01*
X17849701Y48760990D01*
X17731584Y48828168D01*
X17620263Y48900606D01*
X17533280Y48966663D01*
X17488174Y49014699D01*
X17485430Y49023718D01*
X17510232Y49056921D01*
X17580830Y49135214D01*
X17691466Y49252610D01*
X17836378Y49403127D01*
X18009807Y49580778D01*
X18205993Y49779579D01*
X18410645Y49985023D01*
X18623346Y50198730D01*
X18818816Y50397300D01*
X18991289Y50574708D01*
X19134999Y50724929D01*
X19244180Y50841937D01*
X19313064Y50919708D01*
X19335931Y50951849D01*
X19305294Y50991804D01*
X19231236Y51030399D01*
X19227847Y51031602D01*
X19162964Y51047725D01*
X19103711Y51039044D01*
X19029017Y50998121D01*
X18929466Y50926294D01*
X18823123Y50852431D01*
X18733452Y50800819D01*
X18683765Y50783406D01*
X18627687Y50805892D01*
X18540332Y50863905D01*
X18466888Y50922745D01*
X18305417Y51061985D01*
X18385245Y51270590D01*
X18438920Y51423959D01*
X18459683Y51529146D01*
X18447243Y51602796D01*
X18401307Y51661556D01*
X18378051Y51681064D01*
X18314004Y51719976D01*
X18237400Y51734958D01*
X18122754Y51729751D01*
X18078694Y51724992D01*
X17956665Y51717066D01*
X17861890Y51722086D01*
X17823648Y51733993D01*
X17786695Y51788515D01*
X17742862Y51886666D01*
X17702040Y52001469D01*
X17674125Y52105947D01*
X17667571Y52159558D01*
X17695722Y52208307D01*
X17768708Y52280913D01*
X17868874Y52360265D01*
X17976966Y52441854D01*
X18036063Y52501835D01*
X18058729Y52557032D01*
X18058592Y52614265D01*
X18043646Y52678503D01*
X18003558Y52731554D01*
X17923532Y52787756D01*
X17821002Y52844524D01*
X17708640Y52911152D01*
X17627520Y52973001D01*
X17594321Y53017243D01*
X17594217Y53018956D01*
X17604402Y53103612D01*
X17629864Y53219033D01*
X17662958Y53336820D01*
X17696040Y53428574D01*
X17712754Y53459380D01*
X17769705Y53486512D01*
X17876782Y53502373D01*
X17945760Y53504737D01*
X18125138Y53516105D01*
X18238468Y53553991D01*
X18289048Y53624062D01*
X18280176Y53731988D01*
X18215150Y53883438D01*
X18191456Y53927069D01*
X18061790Y54158934D01*
X18244418Y54348907D01*
X18427045Y54538880D01*
X18643063Y54420951D01*
X18778257Y54350194D01*
X18868738Y54314447D01*
X18931803Y54311023D01*
X18984753Y54337233D01*
X19015574Y54363075D01*
X19055647Y54419974D01*
X19076271Y54510698D01*
X19081931Y54648918D01*
X19089410Y54789780D01*
X19110040Y54883418D01*
X19127288Y54910200D01*
X19189676Y54939590D01*
X19295193Y54973592D01*
X19415440Y55004564D01*
X19522019Y55024862D01*
X19567712Y55028737D01*
X19610578Y54998746D01*
X19671777Y54919894D01*
X19738479Y54808859D01*
X19742144Y54801977D01*
X19815352Y54674380D01*
X19876209Y54599210D01*
X19938657Y54561252D01*
X19970931Y54552270D01*
X20033601Y54546424D01*
X20158973Y54540849D01*
X20337175Y54535761D01*
X20558338Y54531379D01*
X20812592Y54527919D01*
X21090065Y54525599D01*
X21207669Y54525030D01*
X21486512Y54523392D01*
X21741469Y54520787D01*
X21963632Y54517394D01*
X22144094Y54513391D01*
X22273948Y54508957D01*
X22344288Y54504271D01*
X22354236Y54502051D01*
X22363381Y54450677D01*
X22352424Y54351754D01*
X22325836Y54226017D01*
X22288092Y54094199D01*
X22243666Y53977037D01*
X22238567Y53965942D01*
X22079368Y53710858D01*
X21864804Y53499114D01*
X21630007Y53351856D01*
X21387902Y53232594D01*
X20570560Y53214451D01*
X20281629Y53207121D01*
X20055972Y53198011D01*
X19884290Y53184890D01*
X19757287Y53165527D01*
X19665666Y53137691D01*
X19600129Y53099149D01*
X19551380Y53047670D01*
X19510121Y52981023D01*
X19497362Y52956865D01*
X19447139Y52787914D01*
X19457997Y52613227D01*
X19525028Y52453020D01*
X19643323Y52327505D01*
X19651576Y52321768D01*
X19682857Y52303545D01*
X19722615Y52288620D01*
X19778368Y52276526D01*
X19857633Y52266801D01*
X19967928Y52258979D01*
X20116770Y52252595D01*
X20311678Y52247186D01*
X20560168Y52242285D01*
X20869757Y52237428D01*
X21059503Y52234737D01*
X22365788Y52216594D01*
X22614012Y52216594D01*
X22555062Y52448267D01*
X22529256Y52777881D01*
X22562759Y53094434D01*
X22579516Y53164798D01*
X22697166Y53475935D01*
X22874097Y53767524D01*
X23098695Y54024819D01*
X23359345Y54233074D01*
X23474419Y54301116D01*
X23576997Y54354488D01*
X23671041Y54398398D01*
X23764791Y54433771D01*
X23866485Y54461530D01*
X23984360Y54482601D01*
X24126654Y54497907D01*
X24301607Y54508373D01*
X24517456Y54514923D01*
X24782439Y54518482D01*
X25104795Y54519974D01*
X25427914Y54520306D01*
X26784611Y54520737D01*
X28157151Y54520737D01*
X27986965Y54624298D01*
X27846695Y54725428D01*
X27761554Y54812209D01*
X27725699Y54891628D01*
X27733285Y54970669D01*
X27755339Y55019186D01*
X27826638Y55102617D01*
X27906706Y55152189D01*
X27952447Y55161373D01*
X28007898Y55154350D01*
X28084517Y55126426D01*
X28193760Y55072906D01*
X28347085Y54989095D01*
X28458075Y54926268D01*
X28913628Y54666651D01*
X29159423Y54911565D01*
X29473108Y55174170D01*
X29824229Y55375117D01*
X30210258Y55513328D01*
X30628668Y55587723D01*
X30765931Y55597727D01*
X31178316Y55589637D01*
X31559946Y55520825D01*
X31920980Y55388005D01*
X32271574Y55187889D01*
X32462569Y55048783D01*
X32761436Y54774131D01*
X33000605Y54462693D01*
X33183696Y54108809D01*
X33310289Y53723011D01*
X33359847Y53440047D01*
X33375569Y53136386D01*
X33358249Y52836365D01*
X33308682Y52564320D01*
X33268269Y52436245D01*
X33234610Y52350514D01*
X33214067Y52286782D01*
X33213922Y52235985D01*
X33241454Y52189062D01*
X33303944Y52136950D01*
X33408672Y52070588D01*
X33562918Y51980912D01*
X33695434Y51904524D01*
X33866275Y51802219D01*
X33981768Y51723842D01*
X34051827Y51661579D01*
X34086368Y51607616D01*
X34091085Y51592689D01*
X34505890Y51592689D01*
X34508280Y51616043D01*
X34527683Y52222918D01*
X34489009Y52859307D01*
X34394909Y53514994D01*
X34248034Y54179761D01*
X34051036Y54843388D01*
X33806565Y55495658D01*
X33517273Y56126354D01*
X33185810Y56725256D01*
X33180396Y56734165D01*
X32752050Y57370642D01*
X32263483Y57974467D01*
X31722814Y58537381D01*
X31138158Y59051123D01*
X30517633Y59507432D01*
X30345452Y59619427D01*
X30125121Y59750407D01*
X29856447Y59896938D01*
X29559133Y60049337D01*
X29252877Y60197919D01*
X28957381Y60333000D01*
X28692345Y60444895D01*
X28573010Y60490737D01*
X28292139Y60584992D01*
X27962179Y60681520D01*
X27606163Y60774545D01*
X27247124Y60858286D01*
X26908097Y60926966D01*
X26683788Y60964674D01*
X26342544Y61002766D01*
X25955484Y61024576D01*
X25547514Y61030104D01*
X25143541Y61019351D01*
X25143541Y61019351D01*
G37*
X25143541Y61019351D02*
X24768471Y60992315D01*
X24542931Y60964674D01*
X24233517Y60910848D01*
X23887058Y60837688D01*
X23526589Y60750971D01*
X23175141Y60656478D01*
X22855751Y60559985D01*
X22653709Y60490737D01*
X22412320Y60394740D01*
X22130218Y60270517D01*
X21827104Y60127753D01*
X21522677Y59976132D01*
X21236640Y59825339D01*
X20988691Y59685057D01*
X20881267Y59619427D01*
X20252470Y59179996D01*
X19657357Y58680908D01*
X19104043Y58130422D01*
X18600648Y57536801D01*
X18155286Y56908304D01*
X18046323Y56734165D01*
X17714232Y56135832D01*
X17424271Y55505548D01*
X17179091Y54853532D01*
X16981342Y54190002D01*
X16833677Y53525176D01*
X16738745Y52869272D01*
X16699198Y52232508D01*
X16717688Y51625102D01*
X16718439Y51616043D01*
X16821479Y50797018D01*
X16990265Y50001168D01*
X17222786Y49231883D01*
X17517033Y48492552D01*
X17870997Y47786564D01*
X18282667Y47117306D01*
X18750036Y46488168D01*
X19271092Y45902539D01*
X19843827Y45363808D01*
X20466231Y44875362D01*
X20881267Y44596046D01*
X21101599Y44465067D01*
X21370272Y44318536D01*
X21667587Y44166137D01*
X21973842Y44017554D01*
X22269338Y43882474D01*
X22534375Y43770579D01*
X22653709Y43724737D01*
X22933482Y43630846D01*
X23261624Y43534808D01*
X23614383Y43442574D01*
X23968012Y43360097D01*
X24298761Y43293328D01*
X24522570Y43256412D01*
X24819493Y43221918D01*
X25149524Y43197205D01*
X25490327Y43182966D01*
X25819565Y43179893D01*
X26114902Y43188679D01*
X26284645Y43201747D01*
X27101796Y43322742D01*
X27902207Y43513655D01*
X28682091Y43772998D01*
X29437660Y44099282D01*
X30165125Y44491018D01*
X30860698Y44946718D01*
X31016738Y45061144D01*
X31251808Y45250420D01*
X31514018Y45484028D01*
X31788591Y45747057D01*
X32060750Y46024598D01*
X32315718Y46301741D01*
X32538718Y46563577D01*
X32660129Y46719308D01*
X33131388Y47409594D01*
X33533779Y48121935D01*
X33868004Y48858187D01*
X34134762Y49620206D01*
X34334753Y50409846D01*
X34468677Y51228962D01*
X34505890Y51592689D01*
X34091085Y51592689D01*
X34088309Y51468721D01*
X34028840Y51356148D01*
X33927059Y51281051D01*
X33917233Y51277343D01*
X33871570Y51268646D01*
X33815116Y51276684D01*
X33736494Y51306157D01*
X33624327Y51361769D01*
X33467236Y51448224D01*
X33369754Y51503649D01*
X33206743Y51596027D01*
X33066467Y51673890D01*
X32960750Y51730802D01*
X32901415Y51760324D01*
X32893400Y51763022D01*
X32882208Y51729748D01*
X32873859Y51641951D01*
X32869967Y51517670D01*
X32869872Y51499951D01*
X32839009Y51134721D01*
X32752597Y50754500D01*
X32617385Y50381519D01*
X32440125Y50038009D01*
X32412648Y49994022D01*
X32256263Y49781589D01*
X32057450Y49558771D01*
X31838447Y49348129D01*
X31621488Y49172220D01*
X31561533Y49130530D01*
X31305282Y48982674D01*
X31010175Y48848548D01*
X30709927Y48742394D01*
X30533714Y48696377D01*
X30327192Y48665665D01*
X30077681Y48649996D01*
X29813190Y48649406D01*
X29561734Y48663930D01*
X29351323Y48693605D01*
X29345290Y48694867D01*
X29069871Y48770209D01*
X28779320Y48878510D01*
X28506164Y49006600D01*
X28343788Y49100305D01*
X28051909Y49319588D01*
X27775622Y49588604D01*
X27530166Y49889451D01*
X27330780Y50204228D01*
X27235398Y50402308D01*
X27148479Y50620062D01*
X27087005Y50804706D01*
X27046750Y50978442D01*
X27023488Y51163468D01*
X27012995Y51381987D01*
X27010962Y51581594D01*
X27017034Y51876987D01*
X27039637Y52124022D01*
X27084367Y52345888D01*
X27156818Y52565774D01*
X27262588Y52806870D01*
X27348082Y52978594D01*
X27443100Y53150515D01*
X27543832Y53300283D01*
X27666805Y53449833D01*
X27828545Y53621106D01*
X27843592Y53636340D01*
X27997258Y53783458D01*
X28153428Y53919089D01*
X28293838Y54028000D01*
X28381719Y54085192D01*
X28486250Y54150319D01*
X28556992Y54207239D01*
X28578519Y54243117D01*
X28543466Y54276063D01*
X28457976Y54335954D01*
X28334919Y54414257D01*
X28188210Y54501837D01*
X28157151Y54520737D01*
X26784611Y54520737D01*
X26762310Y54332435D01*
X26696254Y54069655D01*
X26567384Y53820252D01*
X26385456Y53597359D01*
X26160228Y53414110D01*
X26021190Y53334861D01*
X25952189Y53301900D01*
X25889548Y53276673D01*
X25822191Y53257884D01*
X25739043Y53244242D01*
X25629030Y53234452D01*
X25481076Y53227222D01*
X25284107Y53221259D01*
X25027047Y53215270D01*
X24989967Y53214451D01*
X24722443Y53208121D01*
X24517543Y53201785D01*
X24365326Y53194445D01*
X24255850Y53185101D01*
X24179174Y53172752D01*
X24125358Y53156399D01*
X24084461Y53135043D01*
X24064681Y53121395D01*
X23935110Y52987858D01*
X23864346Y52828988D01*
X23854910Y52660071D01*
X23909323Y52496390D01*
X23951263Y52433592D01*
X23993545Y52383210D01*
X24038306Y52342134D01*
X24093032Y52309417D01*
X24165212Y52284110D01*
X24262333Y52265264D01*
X24391884Y52251932D01*
X24561351Y52243165D01*
X24778223Y52238015D01*
X25049987Y52235533D01*
X25384131Y52234772D01*
X25521480Y52234737D01*
X26774503Y52234737D01*
X26774503Y50988647D01*
X26774072Y50624860D01*
X26772044Y50325317D01*
X26767316Y50081691D01*
X26758784Y49885656D01*
X26745345Y49728885D01*
X26725897Y49603052D01*
X26699335Y49499831D01*
X26664557Y49410895D01*
X26620459Y49327919D01*
X26565938Y49242575D01*
X26537655Y49201100D01*
X26372644Y49010549D01*
X26167626Y48849316D01*
X25941053Y48728195D01*
X25711377Y48657978D01*
X25586662Y48644878D01*
X25469251Y48642451D01*
X25459662Y49776380D01*
X25450074Y50910308D01*
X24688074Y50931295D01*
X24452604Y50939480D01*
X24235229Y50950215D01*
X24048812Y50962611D01*
X23906220Y50975784D01*
X23820316Y50988847D01*
X23809791Y50991790D01*
X23529875Y51117408D01*
X23259842Y51294865D01*
X23018486Y51509032D01*
X22824602Y51744781D01*
X22773578Y51825881D01*
X22637420Y52124599D01*
X22614012Y52216594D01*
X22365788Y52216594D01*
X22365788Y50964737D01*
X22365373Y50601408D01*
X22363289Y50302271D01*
X22358277Y50058948D01*
X22349079Y49863061D01*
X22334436Y49706232D01*
X22313091Y49580083D01*
X22283784Y49476235D01*
X22245258Y49386310D01*
X22196254Y49301930D01*
X22135513Y49214718D01*
X22094701Y49159922D01*
X21938712Y48991618D01*
X21749035Y48847055D01*
X21543638Y48736059D01*
X21340485Y48668460D01*
X21168360Y48653215D01*
X21059503Y48660594D01*
X21049866Y49685665D01*
X21046508Y49949959D01*
X21041795Y50188985D01*
X21036042Y50393605D01*
X21029565Y50554679D01*
X21022678Y50663066D01*
X21015698Y50709626D01*
X21014487Y50710737D01*
X20983756Y50685996D01*
X20907708Y50615598D01*
X20792258Y50505284D01*
X20643324Y50360794D01*
X20466824Y50187866D01*
X20268675Y49992240D01*
X20062552Y49787391D01*
X19790019Y49516559D01*
X19561681Y49292953D01*
X19370847Y49112056D01*
X19210825Y48969353D01*
X19074921Y48860330D01*
X18956443Y48780470D01*
X18848701Y48725259D01*
X18745001Y48690181D01*
X18638651Y48670721D01*
X18522959Y48662364D01*
X18392503Y48660594D01*
X18220404Y48666961D01*
X18068176Y48684104D01*
X17961348Y48709082D01*
X17957074Y48710713D01*
X17849701Y48760990D01*
X17731584Y48828168D01*
X17620263Y48900606D01*
X17533280Y48966663D01*
X17488174Y49014699D01*
X17485430Y49023718D01*
X17510232Y49056921D01*
X17580830Y49135214D01*
X17691466Y49252610D01*
X17836378Y49403127D01*
X18009807Y49580778D01*
X18205993Y49779579D01*
X18410645Y49985023D01*
X18623346Y50198730D01*
X18818816Y50397300D01*
X18991289Y50574708D01*
X19134999Y50724929D01*
X19244180Y50841937D01*
X19313064Y50919708D01*
X19335931Y50951849D01*
X19305294Y50991804D01*
X19231236Y51030399D01*
X19227847Y51031602D01*
X19162964Y51047725D01*
X19103711Y51039044D01*
X19029017Y50998121D01*
X18929466Y50926294D01*
X18823123Y50852431D01*
X18733452Y50800819D01*
X18683765Y50783406D01*
X18627687Y50805892D01*
X18540332Y50863905D01*
X18466888Y50922745D01*
X18305417Y51061985D01*
X18385245Y51270590D01*
X18438920Y51423959D01*
X18459683Y51529146D01*
X18447243Y51602796D01*
X18401307Y51661556D01*
X18378051Y51681064D01*
X18314004Y51719976D01*
X18237400Y51734958D01*
X18122754Y51729751D01*
X18078694Y51724992D01*
X17956665Y51717066D01*
X17861890Y51722086D01*
X17823648Y51733993D01*
X17786695Y51788515D01*
X17742862Y51886666D01*
X17702040Y52001469D01*
X17674125Y52105947D01*
X17667571Y52159558D01*
X17695722Y52208307D01*
X17768708Y52280913D01*
X17868874Y52360265D01*
X17976966Y52441854D01*
X18036063Y52501835D01*
X18058729Y52557032D01*
X18058592Y52614265D01*
X18043646Y52678503D01*
X18003558Y52731554D01*
X17923532Y52787756D01*
X17821002Y52844524D01*
X17708640Y52911152D01*
X17627520Y52973001D01*
X17594321Y53017243D01*
X17594217Y53018956D01*
X17604402Y53103612D01*
X17629864Y53219033D01*
X17662958Y53336820D01*
X17696040Y53428574D01*
X17712754Y53459380D01*
X17769705Y53486512D01*
X17876782Y53502373D01*
X17945760Y53504737D01*
X18125138Y53516105D01*
X18238468Y53553991D01*
X18289048Y53624062D01*
X18280176Y53731988D01*
X18215150Y53883438D01*
X18191456Y53927069D01*
X18061790Y54158934D01*
X18244418Y54348907D01*
X18427045Y54538880D01*
X18643063Y54420951D01*
X18778257Y54350194D01*
X18868738Y54314447D01*
X18931803Y54311023D01*
X18984753Y54337233D01*
X19015574Y54363075D01*
X19055647Y54419974D01*
X19076271Y54510698D01*
X19081931Y54648918D01*
X19089410Y54789780D01*
X19110040Y54883418D01*
X19127288Y54910200D01*
X19189676Y54939590D01*
X19295193Y54973592D01*
X19415440Y55004564D01*
X19522019Y55024862D01*
X19567712Y55028737D01*
X19610578Y54998746D01*
X19671777Y54919894D01*
X19738479Y54808859D01*
X19742144Y54801977D01*
X19815352Y54674380D01*
X19876209Y54599210D01*
X19938657Y54561252D01*
X19970931Y54552270D01*
X20033601Y54546424D01*
X20158973Y54540849D01*
X20337175Y54535761D01*
X20558338Y54531379D01*
X20812592Y54527919D01*
X21090065Y54525599D01*
X21207669Y54525030D01*
X21486512Y54523392D01*
X21741469Y54520787D01*
X21963632Y54517394D01*
X22144094Y54513391D01*
X22273948Y54508957D01*
X22344288Y54504271D01*
X22354236Y54502051D01*
X22363381Y54450677D01*
X22352424Y54351754D01*
X22325836Y54226017D01*
X22288092Y54094199D01*
X22243666Y53977037D01*
X22238567Y53965942D01*
X22079368Y53710858D01*
X21864804Y53499114D01*
X21630007Y53351856D01*
X21387902Y53232594D01*
X20570560Y53214451D01*
X20281629Y53207121D01*
X20055972Y53198011D01*
X19884290Y53184890D01*
X19757287Y53165527D01*
X19665666Y53137691D01*
X19600129Y53099149D01*
X19551380Y53047670D01*
X19510121Y52981023D01*
X19497362Y52956865D01*
X19447139Y52787914D01*
X19457997Y52613227D01*
X19525028Y52453020D01*
X19643323Y52327505D01*
X19651576Y52321768D01*
X19682857Y52303545D01*
X19722615Y52288620D01*
X19778368Y52276526D01*
X19857633Y52266801D01*
X19967928Y52258979D01*
X20116770Y52252595D01*
X20311678Y52247186D01*
X20560168Y52242285D01*
X20869757Y52237428D01*
X21059503Y52234737D01*
X22365788Y52216594D01*
X22614012Y52216594D01*
X22555062Y52448267D01*
X22529256Y52777881D01*
X22562759Y53094434D01*
X22579516Y53164798D01*
X22697166Y53475935D01*
X22874097Y53767524D01*
X23098695Y54024819D01*
X23359345Y54233074D01*
X23474419Y54301116D01*
X23576997Y54354488D01*
X23671041Y54398398D01*
X23764791Y54433771D01*
X23866485Y54461530D01*
X23984360Y54482601D01*
X24126654Y54497907D01*
X24301607Y54508373D01*
X24517456Y54514923D01*
X24782439Y54518482D01*
X25104795Y54519974D01*
X25427914Y54520306D01*
X26784611Y54520737D01*
X28157151Y54520737D01*
X27986965Y54624298D01*
X27846695Y54725428D01*
X27761554Y54812209D01*
X27725699Y54891628D01*
X27733285Y54970669D01*
X27755339Y55019186D01*
X27826638Y55102617D01*
X27906706Y55152189D01*
X27952447Y55161373D01*
X28007898Y55154350D01*
X28084517Y55126426D01*
X28193760Y55072906D01*
X28347085Y54989095D01*
X28458075Y54926268D01*
X28913628Y54666651D01*
X29159423Y54911565D01*
X29473108Y55174170D01*
X29824229Y55375117D01*
X30210258Y55513328D01*
X30628668Y55587723D01*
X30765931Y55597727D01*
X31178316Y55589637D01*
X31559946Y55520825D01*
X31920980Y55388005D01*
X32271574Y55187889D01*
X32462569Y55048783D01*
X32761436Y54774131D01*
X33000605Y54462693D01*
X33183696Y54108809D01*
X33310289Y53723011D01*
X33359847Y53440047D01*
X33375569Y53136386D01*
X33358249Y52836365D01*
X33308682Y52564320D01*
X33268269Y52436245D01*
X33234610Y52350514D01*
X33214067Y52286782D01*
X33213922Y52235985D01*
X33241454Y52189062D01*
X33303944Y52136950D01*
X33408672Y52070588D01*
X33562918Y51980912D01*
X33695434Y51904524D01*
X33866275Y51802219D01*
X33981768Y51723842D01*
X34051827Y51661579D01*
X34086368Y51607616D01*
X34091085Y51592689D01*
X34505890Y51592689D01*
X34508280Y51616043D01*
X34527683Y52222918D01*
X34489009Y52859307D01*
X34394909Y53514994D01*
X34248034Y54179761D01*
X34051036Y54843388D01*
X33806565Y55495658D01*
X33517273Y56126354D01*
X33185810Y56725256D01*
X33180396Y56734165D01*
X32752050Y57370642D01*
X32263483Y57974467D01*
X31722814Y58537381D01*
X31138158Y59051123D01*
X30517633Y59507432D01*
X30345452Y59619427D01*
X30125121Y59750407D01*
X29856447Y59896938D01*
X29559133Y60049337D01*
X29252877Y60197919D01*
X28957381Y60333000D01*
X28692345Y60444895D01*
X28573010Y60490737D01*
X28292139Y60584992D01*
X27962179Y60681520D01*
X27606163Y60774545D01*
X27247124Y60858286D01*
X26908097Y60926966D01*
X26683788Y60964674D01*
X26342544Y61002766D01*
X25955484Y61024576D01*
X25547514Y61030104D01*
X25143541Y61019351D01*
G36*
X29686431Y53180680D02*
X29365346Y53092775D01*
X29076013Y52947169D01*
X28824323Y52751886D01*
X28616171Y52514950D01*
X28457448Y52244387D01*
X28354047Y51948221D01*
X28311862Y51634476D01*
X28332274Y51336665D01*
X28422548Y51004967D01*
X28572526Y50707491D01*
X28775933Y50450868D01*
X29026498Y50241730D01*
X29317945Y50086709D01*
X29594614Y50002131D01*
X29780780Y49967626D01*
X29930935Y49955330D01*
X30078168Y49965268D01*
X30255565Y49997464D01*
X30279637Y50002648D01*
X30601946Y50108067D01*
X30886955Y50272720D01*
X31128915Y50490489D01*
X31322079Y50755252D01*
X31460698Y51060892D01*
X31528747Y51332430D01*
X31548809Y51654552D01*
X31503491Y51963988D01*
X31399590Y52253917D01*
X31243905Y52517518D01*
X31043236Y52747972D01*
X30804380Y52938457D01*
X30534137Y53082153D01*
X30239304Y53172239D01*
X29926682Y53201894D01*
X29686431Y53180680D01*
X29686431Y53180680D01*
G37*
X29686431Y53180680D02*
X29365346Y53092775D01*
X29076013Y52947169D01*
X28824323Y52751886D01*
X28616171Y52514950D01*
X28457448Y52244387D01*
X28354047Y51948221D01*
X28311862Y51634476D01*
X28332274Y51336665D01*
X28422548Y51004967D01*
X28572526Y50707491D01*
X28775933Y50450868D01*
X29026498Y50241730D01*
X29317945Y50086709D01*
X29594614Y50002131D01*
X29780780Y49967626D01*
X29930935Y49955330D01*
X30078168Y49965268D01*
X30255565Y49997464D01*
X30279637Y50002648D01*
X30601946Y50108067D01*
X30886955Y50272720D01*
X31128915Y50490489D01*
X31322079Y50755252D01*
X31460698Y51060892D01*
X31528747Y51332430D01*
X31548809Y51654552D01*
X31503491Y51963988D01*
X31399590Y52253917D01*
X31243905Y52517518D01*
X31043236Y52747972D01*
X30804380Y52938457D01*
X30534137Y53082153D01*
X30239304Y53172239D01*
X29926682Y53201894D01*
X29686431Y53180680D01*
G36*
X27923720Y54944054D02*
X27907623Y54901366D01*
X27914116Y54884165D01*
X27939529Y54857628D01*
X27987336Y54819659D01*
X28061010Y54768159D01*
X28164024Y54701032D01*
X28299850Y54616179D01*
X28471963Y54511504D01*
X28683834Y54384909D01*
X28938936Y54234297D01*
X29240743Y54057571D01*
X29592727Y53852632D01*
X29998362Y53617384D01*
X30461120Y53349729D01*
X30821047Y53141880D01*
X31244895Y52897416D01*
X31651297Y52663355D01*
X32035802Y52442242D01*
X32393954Y52236622D01*
X32721302Y52049041D01*
X33013392Y51882044D01*
X33265772Y51738177D01*
X33473987Y51619984D01*
X33633584Y51530012D01*
X33740112Y51470805D01*
X33789115Y51444909D01*
X33791549Y51443966D01*
X33850913Y51460111D01*
X33886722Y51491145D01*
X33916054Y51546711D01*
X33885822Y51597317D01*
X33883385Y51599749D01*
X33839573Y51630287D01*
X33738900Y51692932D01*
X33586727Y51784612D01*
X33388414Y51902254D01*
X33149323Y52042786D01*
X32874811Y52203134D01*
X32570242Y52380227D01*
X32240973Y52570991D01*
X31892366Y52772354D01*
X31529781Y52981244D01*
X31158577Y53194588D01*
X30784117Y53409313D01*
X30411758Y53622346D01*
X30046863Y53830616D01*
X29694790Y54031049D01*
X29360901Y54220573D01*
X29050556Y54396115D01*
X28769114Y54554603D01*
X28521936Y54692964D01*
X28314383Y54808125D01*
X28151814Y54897015D01*
X28039590Y54956559D01*
X27983071Y54983686D01*
X27977666Y54985027D01*
X27923720Y54944054D01*
X27923720Y54944054D01*
G37*
X27923720Y54944054D02*
X27907623Y54901366D01*
X27914116Y54884165D01*
X27939529Y54857628D01*
X27987336Y54819659D01*
X28061010Y54768159D01*
X28164024Y54701032D01*
X28299850Y54616179D01*
X28471963Y54511504D01*
X28683834Y54384909D01*
X28938936Y54234297D01*
X29240743Y54057571D01*
X29592727Y53852632D01*
X29998362Y53617384D01*
X30461120Y53349729D01*
X30821047Y53141880D01*
X31244895Y52897416D01*
X31651297Y52663355D01*
X32035802Y52442242D01*
X32393954Y52236622D01*
X32721302Y52049041D01*
X33013392Y51882044D01*
X33265772Y51738177D01*
X33473987Y51619984D01*
X33633584Y51530012D01*
X33740112Y51470805D01*
X33789115Y51444909D01*
X33791549Y51443966D01*
X33850913Y51460111D01*
X33886722Y51491145D01*
X33916054Y51546711D01*
X33885822Y51597317D01*
X33883385Y51599749D01*
X33839573Y51630287D01*
X33738900Y51692932D01*
X33586727Y51784612D01*
X33388414Y51902254D01*
X33149323Y52042786D01*
X32874811Y52203134D01*
X32570242Y52380227D01*
X32240973Y52570991D01*
X31892366Y52772354D01*
X31529781Y52981244D01*
X31158577Y53194588D01*
X30784117Y53409313D01*
X30411758Y53622346D01*
X30046863Y53830616D01*
X29694790Y54031049D01*
X29360901Y54220573D01*
X29050556Y54396115D01*
X28769114Y54554603D01*
X28521936Y54692964D01*
X28314383Y54808125D01*
X28151814Y54897015D01*
X28039590Y54956559D01*
X27983071Y54983686D01*
X27977666Y54985027D01*
X27923720Y54944054D01*
G36*
X30679736Y55416565D02*
X30458234Y55388500D01*
X30383483Y55372052D01*
X30267361Y55336809D01*
X30131089Y55287685D01*
X29991305Y55231758D01*
X29864651Y55176106D01*
X29767764Y55127806D01*
X29717284Y55093937D01*
X29713645Y55087128D01*
X29741950Y55059768D01*
X29813972Y55010334D01*
X29863832Y54979575D01*
X30014019Y54890015D01*
X30096399Y54987918D01*
X30179291Y55062034D01*
X30293048Y55134288D01*
X30415817Y55194086D01*
X30525745Y55230832D01*
X30600981Y55233933D01*
X30602604Y55233345D01*
X30651481Y55191032D01*
X30634223Y55130495D01*
X30553729Y55055893D01*
X30423961Y54977164D01*
X30312907Y54914268D01*
X30230936Y54859730D01*
X30196504Y54826313D01*
X30217545Y54787799D01*
X30285171Y54733920D01*
X30325701Y54709224D01*
X30429461Y54653574D01*
X30485618Y54633874D01*
X30508329Y54647964D01*
X30511931Y54680797D01*
X30539673Y54737999D01*
X30607070Y54809963D01*
X30690385Y54876129D01*
X30765877Y54915938D01*
X30787997Y54919880D01*
X30852157Y54897837D01*
X30863731Y54839636D01*
X30824522Y54757164D01*
X30750911Y54675295D01*
X30676061Y54602872D01*
X30632219Y54552891D01*
X30626959Y54540071D01*
X30660289Y54519832D01*
X30748255Y54468128D01*
X30882623Y54389751D01*
X31055162Y54289492D01*
X31257641Y54172141D01*
X31481828Y54042490D01*
X31491645Y54036819D01*
X32344360Y53544224D01*
X32354954Y53793326D01*
X32368106Y53922344D01*
X32253645Y53922344D01*
X32233232Y53841709D01*
X32185969Y53777362D01*
X32144788Y53758737D01*
X32103445Y53781081D01*
X32079474Y53802280D01*
X32041665Y53883804D01*
X32042616Y53987274D01*
X32080355Y54074572D01*
X32094286Y54088567D01*
X32145834Y54116216D01*
X32189449Y54085809D01*
X32203143Y54067932D01*
X32244268Y53979451D01*
X32253645Y53922344D01*
X32368106Y53922344D01*
X32371273Y53953411D01*
X32403057Y54047500D01*
X32449100Y54073724D01*
X32507731Y54030776D01*
X32535524Y53959053D01*
X32550445Y53844943D01*
X32552140Y53716725D01*
X32540259Y53602680D01*
X32514448Y53531086D01*
X32513958Y53530486D01*
X32501297Y53499391D01*
X32521801Y53463345D01*
X32584801Y53413743D01*
X32699625Y53341978D01*
X32751510Y53311362D01*
X32918838Y53213657D01*
X33033014Y53151479D01*
X33104152Y53124803D01*
X33142368Y53133604D01*
X33157777Y53177857D01*
X33160492Y53257537D01*
X33160252Y53310355D01*
X33132748Y53583856D01*
X32906586Y53583856D01*
X32904119Y53472313D01*
X32891538Y53416572D01*
X32861531Y53399920D01*
X32827211Y53402427D01*
X32786638Y53416396D01*
X32757129Y53453926D01*
X32732726Y53529475D01*
X32707469Y53657504D01*
X32697272Y53717698D01*
X32673169Y53895895D01*
X32672072Y54011597D01*
X32695469Y54071617D01*
X32744848Y54082770D01*
X32775090Y54073989D01*
X32825749Y54019890D01*
X32867462Y53909640D01*
X32895862Y53759513D01*
X32906583Y53585784D01*
X32906586Y53583856D01*
X33132748Y53583856D01*
X33124027Y53670565D01*
X33020905Y54018543D01*
X32856462Y54345838D01*
X32636272Y54643999D01*
X32365911Y54904575D01*
X32050955Y55119114D01*
X31922997Y55185728D01*
X31755580Y55260767D01*
X31588315Y55326809D01*
X31446556Y55374204D01*
X31390074Y55388538D01*
X31175955Y55417081D01*
X30929077Y55426258D01*
X30679736Y55416565D01*
X30679736Y55416565D01*
G37*
X30679736Y55416565D02*
X30458234Y55388500D01*
X30383483Y55372052D01*
X30267361Y55336809D01*
X30131089Y55287685D01*
X29991305Y55231758D01*
X29864651Y55176106D01*
X29767764Y55127806D01*
X29717284Y55093937D01*
X29713645Y55087128D01*
X29741950Y55059768D01*
X29813972Y55010334D01*
X29863832Y54979575D01*
X30014019Y54890015D01*
X30096399Y54987918D01*
X30179291Y55062034D01*
X30293048Y55134288D01*
X30415817Y55194086D01*
X30525745Y55230832D01*
X30600981Y55233933D01*
X30602604Y55233345D01*
X30651481Y55191032D01*
X30634223Y55130495D01*
X30553729Y55055893D01*
X30423961Y54977164D01*
X30312907Y54914268D01*
X30230936Y54859730D01*
X30196504Y54826313D01*
X30217545Y54787799D01*
X30285171Y54733920D01*
X30325701Y54709224D01*
X30429461Y54653574D01*
X30485618Y54633874D01*
X30508329Y54647964D01*
X30511931Y54680797D01*
X30539673Y54737999D01*
X30607070Y54809963D01*
X30690385Y54876129D01*
X30765877Y54915938D01*
X30787997Y54919880D01*
X30852157Y54897837D01*
X30863731Y54839636D01*
X30824522Y54757164D01*
X30750911Y54675295D01*
X30676061Y54602872D01*
X30632219Y54552891D01*
X30626959Y54540071D01*
X30660289Y54519832D01*
X30748255Y54468128D01*
X30882623Y54389751D01*
X31055162Y54289492D01*
X31257641Y54172141D01*
X31481828Y54042490D01*
X31491645Y54036819D01*
X32344360Y53544224D01*
X32354954Y53793326D01*
X32368106Y53922344D01*
X32253645Y53922344D01*
X32233232Y53841709D01*
X32185969Y53777362D01*
X32144788Y53758737D01*
X32103445Y53781081D01*
X32079474Y53802280D01*
X32041665Y53883804D01*
X32042616Y53987274D01*
X32080355Y54074572D01*
X32094286Y54088567D01*
X32145834Y54116216D01*
X32189449Y54085809D01*
X32203143Y54067932D01*
X32244268Y53979451D01*
X32253645Y53922344D01*
X32368106Y53922344D01*
X32371273Y53953411D01*
X32403057Y54047500D01*
X32449100Y54073724D01*
X32507731Y54030776D01*
X32535524Y53959053D01*
X32550445Y53844943D01*
X32552140Y53716725D01*
X32540259Y53602680D01*
X32514448Y53531086D01*
X32513958Y53530486D01*
X32501297Y53499391D01*
X32521801Y53463345D01*
X32584801Y53413743D01*
X32699625Y53341978D01*
X32751510Y53311362D01*
X32918838Y53213657D01*
X33033014Y53151479D01*
X33104152Y53124803D01*
X33142368Y53133604D01*
X33157777Y53177857D01*
X33160492Y53257537D01*
X33160252Y53310355D01*
X33132748Y53583856D01*
X32906586Y53583856D01*
X32904119Y53472313D01*
X32891538Y53416572D01*
X32861531Y53399920D01*
X32827211Y53402427D01*
X32786638Y53416396D01*
X32757129Y53453926D01*
X32732726Y53529475D01*
X32707469Y53657504D01*
X32697272Y53717698D01*
X32673169Y53895895D01*
X32672072Y54011597D01*
X32695469Y54071617D01*
X32744848Y54082770D01*
X32775090Y54073989D01*
X32825749Y54019890D01*
X32867462Y53909640D01*
X32895862Y53759513D01*
X32906583Y53585784D01*
X32906586Y53583856D01*
X33132748Y53583856D01*
X33124027Y53670565D01*
X33020905Y54018543D01*
X32856462Y54345838D01*
X32636272Y54643999D01*
X32365911Y54904575D01*
X32050955Y55119114D01*
X31922997Y55185728D01*
X31755580Y55260767D01*
X31588315Y55326809D01*
X31446556Y55374204D01*
X31390074Y55388538D01*
X31175955Y55417081D01*
X30929077Y55426258D01*
X30679736Y55416565D01*
D13*
X39386400Y25424840D02*
X39386400Y26624840D01*
X37626400Y26624840D02*
X37626400Y25424840D01*
X59122200Y25186080D02*
X59122200Y26386080D01*
X57362200Y26386080D02*
X57362200Y25186080D01*
X44745800Y55818480D02*
X44745800Y57018480D01*
X42985800Y57018480D02*
X42985800Y55818480D01*
X53122720Y55854040D02*
X53122720Y57054040D01*
X51362720Y57054040D02*
X51362720Y55854040D01*
X94463760Y65135200D02*
X94463760Y66335200D01*
X92703760Y66335200D02*
X92703760Y65135200D01*
X90552160Y65165640D02*
X90552160Y66365640D01*
X88792160Y66365640D02*
X88792160Y65165640D01*
X7362080Y65318080D02*
X7362080Y66518080D01*
X5602080Y66518080D02*
X5602080Y65318080D01*
X3623200Y65379040D02*
X3623200Y66579040D01*
X1863200Y66579040D02*
X1863200Y65379040D01*
D14*
X47238920Y58303160D02*
X46603920Y57668160D01*
X46550920Y57625160D02*
X46550920Y54725160D01*
X49450920Y58325160D02*
X47260920Y58325160D01*
X49450920Y54725160D02*
X49450920Y58325160D01*
X46550920Y54725160D02*
X49450920Y54725160D01*
X92369640Y74406760D02*
X93004640Y75041760D01*
X93057640Y75084760D02*
X93057640Y77984760D01*
X90157640Y74384760D02*
X92347640Y74384760D01*
X90157640Y77984760D02*
X90157640Y74384760D01*
X93057640Y77984760D02*
X90157640Y77984760D01*
X5242560Y74406760D02*
X5877560Y75041760D01*
X5930560Y75084760D02*
X5930560Y77984760D01*
X3030560Y74384760D02*
X5220560Y74384760D01*
X3030560Y77984760D02*
X3030560Y74384760D01*
X5930560Y77984760D02*
X3030560Y77984760D01*
D12*
G36*
X71092141Y60551991D02*
X70717071Y60524955D01*
X70491531Y60497314D01*
X70182117Y60443488D01*
X69835658Y60370328D01*
X69475189Y60283611D01*
X69123741Y60189118D01*
X68804351Y60092625D01*
X68602309Y60023377D01*
X68360920Y59927380D01*
X68078818Y59803157D01*
X67775704Y59660393D01*
X67471277Y59508772D01*
X67185240Y59357979D01*
X66937291Y59217697D01*
X66829867Y59152067D01*
X66201070Y58712636D01*
X65605957Y58213548D01*
X65052643Y57663062D01*
X64549248Y57069441D01*
X64103886Y56440944D01*
X63994923Y56266805D01*
X63662832Y55668472D01*
X63372871Y55038188D01*
X63127691Y54386172D01*
X62929942Y53722642D01*
X62782277Y53057816D01*
X62687345Y52401912D01*
X62647798Y51765148D01*
X62666288Y51157742D01*
X62667039Y51148683D01*
X62770079Y50329658D01*
X62938865Y49533808D01*
X63171386Y48764523D01*
X63465633Y48025192D01*
X63819597Y47319204D01*
X64231267Y46649946D01*
X64698636Y46020808D01*
X65219692Y45435179D01*
X65792427Y44896448D01*
X66414831Y44408002D01*
X66829867Y44128686D01*
X67050199Y43997707D01*
X67318872Y43851176D01*
X67616187Y43698777D01*
X67922442Y43550194D01*
X68217938Y43415114D01*
X68482975Y43303219D01*
X68602309Y43257377D01*
X68882082Y43163486D01*
X69210224Y43067448D01*
X69562983Y42975214D01*
X69916612Y42892737D01*
X70247361Y42825968D01*
X70471170Y42789052D01*
X70768093Y42754558D01*
X71098124Y42729845D01*
X71438927Y42715606D01*
X71768165Y42712533D01*
X72063502Y42721319D01*
X72233245Y42734387D01*
X73050396Y42855382D01*
X73850807Y43046295D01*
X74630691Y43305638D01*
X75386260Y43631922D01*
X76113725Y44023658D01*
X76809298Y44479358D01*
X76965338Y44593784D01*
X77200408Y44783060D01*
X77462618Y45016668D01*
X77737191Y45279697D01*
X78009350Y45557238D01*
X78264318Y45834381D01*
X78487318Y46096217D01*
X78608729Y46251948D01*
X79079988Y46942234D01*
X79482379Y47654575D01*
X79816604Y48390827D01*
X80083362Y49152846D01*
X80283353Y49942486D01*
X80417277Y50761602D01*
X80454490Y51125329D01*
X80039685Y51125329D01*
X80036909Y51001361D01*
X79977440Y50888788D01*
X79875659Y50813691D01*
X79865833Y50809983D01*
X79820170Y50801286D01*
X79763716Y50809324D01*
X79685094Y50838797D01*
X79572927Y50894409D01*
X79415836Y50980864D01*
X79318354Y51036289D01*
X79155343Y51128667D01*
X79015067Y51206530D01*
X78909350Y51263442D01*
X78850015Y51292964D01*
X78842000Y51295662D01*
X78830808Y51262388D01*
X78822459Y51174591D01*
X78818567Y51050310D01*
X78818472Y51032591D01*
X78787609Y50667361D01*
X78701197Y50287140D01*
X78565985Y49914159D01*
X78388725Y49570649D01*
X78361248Y49526662D01*
X78204863Y49314229D01*
X78006050Y49091411D01*
X77787047Y48880769D01*
X77570088Y48704860D01*
X77510133Y48663170D01*
X77253882Y48515314D01*
X76958775Y48381188D01*
X76658527Y48275034D01*
X76482314Y48229017D01*
X76275792Y48198305D01*
X76026281Y48182636D01*
X75761790Y48182046D01*
X75510334Y48196570D01*
X75299923Y48226245D01*
X75293890Y48227507D01*
X75018471Y48302849D01*
X74727920Y48411150D01*
X74454764Y48539240D01*
X74292388Y48632945D01*
X74000509Y48852228D01*
X73724222Y49121244D01*
X73478766Y49422091D01*
X73279380Y49736868D01*
X73183998Y49934948D01*
X73097079Y50152702D01*
X73035605Y50337346D01*
X72995350Y50511082D01*
X72972088Y50696108D01*
X72961595Y50914627D01*
X72959562Y51114234D01*
X72965634Y51409627D01*
X72988237Y51656662D01*
X73032967Y51878528D01*
X73105418Y52098414D01*
X73211188Y52339510D01*
X73296682Y52511234D01*
X73391700Y52683155D01*
X73492432Y52832923D01*
X73615405Y52982473D01*
X73777145Y53153746D01*
X73792192Y53168980D01*
X73945858Y53316098D01*
X74102028Y53451729D01*
X74242438Y53560640D01*
X74330319Y53617832D01*
X74434850Y53682959D01*
X74505592Y53739879D01*
X74527119Y53775757D01*
X74492066Y53808703D01*
X74406576Y53868594D01*
X74283519Y53946897D01*
X74136810Y54034477D01*
X74105751Y54053377D01*
X72733211Y54053377D01*
X72710910Y53865075D01*
X72644854Y53602295D01*
X72515984Y53352892D01*
X72334056Y53129999D01*
X72108828Y52946750D01*
X71969790Y52867501D01*
X71900789Y52834540D01*
X71838148Y52809313D01*
X71770791Y52790524D01*
X71687643Y52776882D01*
X71577630Y52767092D01*
X71429676Y52759862D01*
X71232707Y52753899D01*
X70975647Y52747910D01*
X70938567Y52747091D01*
X70671043Y52740761D01*
X70466143Y52734425D01*
X70313926Y52727085D01*
X70204450Y52717741D01*
X70127774Y52705392D01*
X70073958Y52689039D01*
X70033061Y52667683D01*
X70013281Y52654035D01*
X69883710Y52520498D01*
X69812946Y52361628D01*
X69803510Y52192711D01*
X69857923Y52029030D01*
X69899863Y51966232D01*
X69942145Y51915850D01*
X69986906Y51874774D01*
X70041632Y51842057D01*
X70113812Y51816750D01*
X70210933Y51797904D01*
X70340484Y51784572D01*
X70509951Y51775805D01*
X70726823Y51770655D01*
X70998587Y51768173D01*
X71332731Y51767412D01*
X71470080Y51767377D01*
X72723103Y51767377D01*
X72723103Y50521287D01*
X72722672Y50157500D01*
X72720644Y49857957D01*
X72715916Y49614331D01*
X72707384Y49418296D01*
X72693945Y49261525D01*
X72674497Y49135692D01*
X72647935Y49032471D01*
X72613157Y48943535D01*
X72569059Y48860559D01*
X72514538Y48775215D01*
X72486255Y48733740D01*
X72321244Y48543189D01*
X72116226Y48381956D01*
X71889653Y48260835D01*
X71659977Y48190618D01*
X71535262Y48177518D01*
X71417851Y48175091D01*
X71408262Y49309020D01*
X71398674Y50442948D01*
X70636674Y50463935D01*
X70401204Y50472120D01*
X70183829Y50482855D01*
X69997412Y50495251D01*
X69854820Y50508424D01*
X69768916Y50521487D01*
X69758391Y50524430D01*
X69478475Y50650048D01*
X69208442Y50827505D01*
X68967086Y51041672D01*
X68773202Y51277421D01*
X68722178Y51358521D01*
X68586020Y51657239D01*
X68562612Y51749234D01*
X68314388Y51749234D01*
X68314388Y50497377D01*
X68313973Y50134048D01*
X68311889Y49834911D01*
X68306877Y49591588D01*
X68297679Y49395701D01*
X68283036Y49238872D01*
X68261691Y49112723D01*
X68232384Y49008875D01*
X68193858Y48918950D01*
X68144854Y48834570D01*
X68084113Y48747358D01*
X68043301Y48692562D01*
X67887312Y48524258D01*
X67697635Y48379695D01*
X67492238Y48268699D01*
X67289085Y48201100D01*
X67116960Y48185855D01*
X67008103Y48193234D01*
X66998466Y49218305D01*
X66995108Y49482599D01*
X66990395Y49721625D01*
X66984642Y49926245D01*
X66978165Y50087319D01*
X66971278Y50195706D01*
X66964298Y50242266D01*
X66963087Y50243377D01*
X66932356Y50218636D01*
X66856308Y50148238D01*
X66740858Y50037924D01*
X66591924Y49893434D01*
X66415424Y49720506D01*
X66217275Y49524880D01*
X66011152Y49320031D01*
X65738619Y49049199D01*
X65510281Y48825593D01*
X65319447Y48644696D01*
X65159425Y48501993D01*
X65023521Y48392970D01*
X64905043Y48313110D01*
X64797301Y48257899D01*
X64693601Y48222821D01*
X64587251Y48203361D01*
X64471559Y48195004D01*
X64341103Y48193234D01*
X64169004Y48199601D01*
X64016776Y48216744D01*
X63909948Y48241722D01*
X63905674Y48243353D01*
X63798301Y48293630D01*
X63680184Y48360808D01*
X63568863Y48433246D01*
X63481880Y48499303D01*
X63436774Y48547339D01*
X63434030Y48556358D01*
X63458832Y48589561D01*
X63529430Y48667854D01*
X63640066Y48785250D01*
X63784978Y48935767D01*
X63958407Y49113418D01*
X64154593Y49312219D01*
X64359245Y49517663D01*
X64571946Y49731370D01*
X64767416Y49929940D01*
X64939889Y50107348D01*
X65083599Y50257569D01*
X65192780Y50374577D01*
X65261664Y50452348D01*
X65284531Y50484489D01*
X65253894Y50524444D01*
X65179836Y50563039D01*
X65176447Y50564242D01*
X65111564Y50580365D01*
X65052311Y50571684D01*
X64977617Y50530761D01*
X64878066Y50458934D01*
X64771723Y50385071D01*
X64682052Y50333459D01*
X64632365Y50316046D01*
X64576287Y50338532D01*
X64488932Y50396545D01*
X64415488Y50455385D01*
X64254017Y50594625D01*
X64333845Y50803230D01*
X64387520Y50956599D01*
X64408283Y51061786D01*
X64395843Y51135436D01*
X64349907Y51194196D01*
X64326651Y51213704D01*
X64262604Y51252616D01*
X64186000Y51267598D01*
X64071354Y51262391D01*
X64027294Y51257632D01*
X63905265Y51249706D01*
X63810490Y51254726D01*
X63772248Y51266633D01*
X63735295Y51321155D01*
X63691462Y51419306D01*
X63650640Y51534109D01*
X63622725Y51638587D01*
X63616171Y51692198D01*
X63644322Y51740947D01*
X63717308Y51813553D01*
X63817474Y51892905D01*
X63925566Y51974494D01*
X63984663Y52034475D01*
X64007329Y52089672D01*
X64007192Y52146905D01*
X63992246Y52211143D01*
X63952158Y52264194D01*
X63872132Y52320396D01*
X63769602Y52377164D01*
X63657240Y52443792D01*
X63576120Y52505641D01*
X63542921Y52549883D01*
X63542817Y52551596D01*
X63553002Y52636252D01*
X63578464Y52751673D01*
X63611558Y52869460D01*
X63644640Y52961214D01*
X63661354Y52992020D01*
X63718305Y53019152D01*
X63825382Y53035013D01*
X63894360Y53037377D01*
X64073738Y53048745D01*
X64187068Y53086631D01*
X64237648Y53156702D01*
X64228776Y53264628D01*
X64163750Y53416078D01*
X64140056Y53459709D01*
X64010390Y53691574D01*
X64193018Y53881547D01*
X64375645Y54071520D01*
X64591663Y53953591D01*
X64726857Y53882834D01*
X64817338Y53847087D01*
X64880403Y53843663D01*
X64933353Y53869873D01*
X64964174Y53895715D01*
X65004247Y53952614D01*
X65024871Y54043338D01*
X65030531Y54181558D01*
X65038010Y54322420D01*
X65058640Y54416058D01*
X65075888Y54442840D01*
X65138276Y54472230D01*
X65243793Y54506232D01*
X65364040Y54537204D01*
X65470619Y54557502D01*
X65516312Y54561377D01*
X65559178Y54531386D01*
X65620377Y54452534D01*
X65687079Y54341499D01*
X65690744Y54334617D01*
X65763952Y54207020D01*
X65824809Y54131850D01*
X65887257Y54093892D01*
X65919531Y54084910D01*
X65982201Y54079064D01*
X66107573Y54073489D01*
X66285775Y54068401D01*
X66506938Y54064019D01*
X66761192Y54060559D01*
X67038665Y54058239D01*
X67156269Y54057670D01*
X67435112Y54056032D01*
X67690069Y54053427D01*
X67912232Y54050034D01*
X68092694Y54046031D01*
X68222548Y54041597D01*
X68292888Y54036911D01*
X68302836Y54034691D01*
X68311981Y53983317D01*
X68301024Y53884394D01*
X68274436Y53758657D01*
X68236692Y53626839D01*
X68192266Y53509677D01*
X68187167Y53498582D01*
X68027968Y53243498D01*
X67813404Y53031754D01*
X67578607Y52884496D01*
X67336502Y52765234D01*
X66519160Y52747091D01*
X66230229Y52739761D01*
X66004572Y52730651D01*
X65832890Y52717530D01*
X65705887Y52698167D01*
X65614266Y52670331D01*
X65548729Y52631789D01*
X65499980Y52580310D01*
X65458721Y52513663D01*
X65445962Y52489505D01*
X65395739Y52320554D01*
X65406597Y52145867D01*
X65473628Y51985660D01*
X65591923Y51860145D01*
X65600176Y51854408D01*
X65631457Y51836185D01*
X65671215Y51821260D01*
X65726968Y51809166D01*
X65806233Y51799441D01*
X65916528Y51791619D01*
X66065370Y51785235D01*
X66260278Y51779826D01*
X66508768Y51774925D01*
X66818357Y51770068D01*
X67008103Y51767377D01*
X68314388Y51749234D01*
X68562612Y51749234D01*
X68503662Y51980907D01*
X68477856Y52310521D01*
X68511359Y52627074D01*
X68528116Y52697438D01*
X68645766Y53008575D01*
X68822697Y53300164D01*
X69047295Y53557459D01*
X69307945Y53765714D01*
X69423019Y53833756D01*
X69525597Y53887128D01*
X69619641Y53931038D01*
X69713391Y53966411D01*
X69815085Y53994170D01*
X69932960Y54015241D01*
X70075254Y54030547D01*
X70250207Y54041013D01*
X70466056Y54047563D01*
X70731039Y54051122D01*
X71053395Y54052614D01*
X71376514Y54052946D01*
X72733211Y54053377D01*
X74105751Y54053377D01*
X73935565Y54156938D01*
X73795295Y54258068D01*
X73710154Y54344849D01*
X73674299Y54424268D01*
X73681885Y54503309D01*
X73703939Y54551826D01*
X73775238Y54635257D01*
X73855306Y54684829D01*
X73901047Y54694013D01*
X73956498Y54686990D01*
X74033117Y54659066D01*
X74142360Y54605546D01*
X74295685Y54521735D01*
X74406675Y54458908D01*
X74862228Y54199291D01*
X75108023Y54444205D01*
X75421708Y54706810D01*
X75772829Y54907757D01*
X76158858Y55045968D01*
X76577268Y55120363D01*
X76714531Y55130367D01*
X77126916Y55122277D01*
X77508546Y55053465D01*
X77869580Y54920645D01*
X78220174Y54720529D01*
X78411169Y54581423D01*
X78710036Y54306771D01*
X78949205Y53995333D01*
X79132296Y53641449D01*
X79258889Y53255651D01*
X79308447Y52972687D01*
X79324169Y52669026D01*
X79306849Y52369005D01*
X79257282Y52096960D01*
X79216869Y51968885D01*
X79183210Y51883154D01*
X79162667Y51819422D01*
X79162522Y51768625D01*
X79190054Y51721702D01*
X79252544Y51669590D01*
X79357272Y51603228D01*
X79511518Y51513552D01*
X79644034Y51437164D01*
X79814875Y51334859D01*
X79930368Y51256482D01*
X80000427Y51194219D01*
X80034968Y51140256D01*
X80039685Y51125329D01*
X80454490Y51125329D01*
X80456880Y51148683D01*
X80476283Y51755558D01*
X80437609Y52391947D01*
X80343509Y53047634D01*
X80196634Y53712401D01*
X79999636Y54376028D01*
X79755165Y55028298D01*
X79465873Y55658994D01*
X79134410Y56257896D01*
X79128996Y56266805D01*
X78700650Y56903282D01*
X78212083Y57507107D01*
X77671414Y58070021D01*
X77086758Y58583763D01*
X76466233Y59040072D01*
X76294052Y59152067D01*
X76073721Y59283047D01*
X75805047Y59429578D01*
X75507733Y59581977D01*
X75201477Y59730559D01*
X74905981Y59865640D01*
X74640945Y59977535D01*
X74521610Y60023377D01*
X74240739Y60117632D01*
X73910779Y60214160D01*
X73554763Y60307185D01*
X73195724Y60390926D01*
X72856697Y60459606D01*
X72632388Y60497314D01*
X72291144Y60535406D01*
X71904084Y60557216D01*
X71496114Y60562744D01*
X71092141Y60551991D01*
X71092141Y60551991D01*
G37*
X71092141Y60551991D02*
X70717071Y60524955D01*
X70491531Y60497314D01*
X70182117Y60443488D01*
X69835658Y60370328D01*
X69475189Y60283611D01*
X69123741Y60189118D01*
X68804351Y60092625D01*
X68602309Y60023377D01*
X68360920Y59927380D01*
X68078818Y59803157D01*
X67775704Y59660393D01*
X67471277Y59508772D01*
X67185240Y59357979D01*
X66937291Y59217697D01*
X66829867Y59152067D01*
X66201070Y58712636D01*
X65605957Y58213548D01*
X65052643Y57663062D01*
X64549248Y57069441D01*
X64103886Y56440944D01*
X63994923Y56266805D01*
X63662832Y55668472D01*
X63372871Y55038188D01*
X63127691Y54386172D01*
X62929942Y53722642D01*
X62782277Y53057816D01*
X62687345Y52401912D01*
X62647798Y51765148D01*
X62666288Y51157742D01*
X62667039Y51148683D01*
X62770079Y50329658D01*
X62938865Y49533808D01*
X63171386Y48764523D01*
X63465633Y48025192D01*
X63819597Y47319204D01*
X64231267Y46649946D01*
X64698636Y46020808D01*
X65219692Y45435179D01*
X65792427Y44896448D01*
X66414831Y44408002D01*
X66829867Y44128686D01*
X67050199Y43997707D01*
X67318872Y43851176D01*
X67616187Y43698777D01*
X67922442Y43550194D01*
X68217938Y43415114D01*
X68482975Y43303219D01*
X68602309Y43257377D01*
X68882082Y43163486D01*
X69210224Y43067448D01*
X69562983Y42975214D01*
X69916612Y42892737D01*
X70247361Y42825968D01*
X70471170Y42789052D01*
X70768093Y42754558D01*
X71098124Y42729845D01*
X71438927Y42715606D01*
X71768165Y42712533D01*
X72063502Y42721319D01*
X72233245Y42734387D01*
X73050396Y42855382D01*
X73850807Y43046295D01*
X74630691Y43305638D01*
X75386260Y43631922D01*
X76113725Y44023658D01*
X76809298Y44479358D01*
X76965338Y44593784D01*
X77200408Y44783060D01*
X77462618Y45016668D01*
X77737191Y45279697D01*
X78009350Y45557238D01*
X78264318Y45834381D01*
X78487318Y46096217D01*
X78608729Y46251948D01*
X79079988Y46942234D01*
X79482379Y47654575D01*
X79816604Y48390827D01*
X80083362Y49152846D01*
X80283353Y49942486D01*
X80417277Y50761602D01*
X80454490Y51125329D01*
X80039685Y51125329D01*
X80036909Y51001361D01*
X79977440Y50888788D01*
X79875659Y50813691D01*
X79865833Y50809983D01*
X79820170Y50801286D01*
X79763716Y50809324D01*
X79685094Y50838797D01*
X79572927Y50894409D01*
X79415836Y50980864D01*
X79318354Y51036289D01*
X79155343Y51128667D01*
X79015067Y51206530D01*
X78909350Y51263442D01*
X78850015Y51292964D01*
X78842000Y51295662D01*
X78830808Y51262388D01*
X78822459Y51174591D01*
X78818567Y51050310D01*
X78818472Y51032591D01*
X78787609Y50667361D01*
X78701197Y50287140D01*
X78565985Y49914159D01*
X78388725Y49570649D01*
X78361248Y49526662D01*
X78204863Y49314229D01*
X78006050Y49091411D01*
X77787047Y48880769D01*
X77570088Y48704860D01*
X77510133Y48663170D01*
X77253882Y48515314D01*
X76958775Y48381188D01*
X76658527Y48275034D01*
X76482314Y48229017D01*
X76275792Y48198305D01*
X76026281Y48182636D01*
X75761790Y48182046D01*
X75510334Y48196570D01*
X75299923Y48226245D01*
X75293890Y48227507D01*
X75018471Y48302849D01*
X74727920Y48411150D01*
X74454764Y48539240D01*
X74292388Y48632945D01*
X74000509Y48852228D01*
X73724222Y49121244D01*
X73478766Y49422091D01*
X73279380Y49736868D01*
X73183998Y49934948D01*
X73097079Y50152702D01*
X73035605Y50337346D01*
X72995350Y50511082D01*
X72972088Y50696108D01*
X72961595Y50914627D01*
X72959562Y51114234D01*
X72965634Y51409627D01*
X72988237Y51656662D01*
X73032967Y51878528D01*
X73105418Y52098414D01*
X73211188Y52339510D01*
X73296682Y52511234D01*
X73391700Y52683155D01*
X73492432Y52832923D01*
X73615405Y52982473D01*
X73777145Y53153746D01*
X73792192Y53168980D01*
X73945858Y53316098D01*
X74102028Y53451729D01*
X74242438Y53560640D01*
X74330319Y53617832D01*
X74434850Y53682959D01*
X74505592Y53739879D01*
X74527119Y53775757D01*
X74492066Y53808703D01*
X74406576Y53868594D01*
X74283519Y53946897D01*
X74136810Y54034477D01*
X74105751Y54053377D01*
X72733211Y54053377D01*
X72710910Y53865075D01*
X72644854Y53602295D01*
X72515984Y53352892D01*
X72334056Y53129999D01*
X72108828Y52946750D01*
X71969790Y52867501D01*
X71900789Y52834540D01*
X71838148Y52809313D01*
X71770791Y52790524D01*
X71687643Y52776882D01*
X71577630Y52767092D01*
X71429676Y52759862D01*
X71232707Y52753899D01*
X70975647Y52747910D01*
X70938567Y52747091D01*
X70671043Y52740761D01*
X70466143Y52734425D01*
X70313926Y52727085D01*
X70204450Y52717741D01*
X70127774Y52705392D01*
X70073958Y52689039D01*
X70033061Y52667683D01*
X70013281Y52654035D01*
X69883710Y52520498D01*
X69812946Y52361628D01*
X69803510Y52192711D01*
X69857923Y52029030D01*
X69899863Y51966232D01*
X69942145Y51915850D01*
X69986906Y51874774D01*
X70041632Y51842057D01*
X70113812Y51816750D01*
X70210933Y51797904D01*
X70340484Y51784572D01*
X70509951Y51775805D01*
X70726823Y51770655D01*
X70998587Y51768173D01*
X71332731Y51767412D01*
X71470080Y51767377D01*
X72723103Y51767377D01*
X72723103Y50521287D01*
X72722672Y50157500D01*
X72720644Y49857957D01*
X72715916Y49614331D01*
X72707384Y49418296D01*
X72693945Y49261525D01*
X72674497Y49135692D01*
X72647935Y49032471D01*
X72613157Y48943535D01*
X72569059Y48860559D01*
X72514538Y48775215D01*
X72486255Y48733740D01*
X72321244Y48543189D01*
X72116226Y48381956D01*
X71889653Y48260835D01*
X71659977Y48190618D01*
X71535262Y48177518D01*
X71417851Y48175091D01*
X71408262Y49309020D01*
X71398674Y50442948D01*
X70636674Y50463935D01*
X70401204Y50472120D01*
X70183829Y50482855D01*
X69997412Y50495251D01*
X69854820Y50508424D01*
X69768916Y50521487D01*
X69758391Y50524430D01*
X69478475Y50650048D01*
X69208442Y50827505D01*
X68967086Y51041672D01*
X68773202Y51277421D01*
X68722178Y51358521D01*
X68586020Y51657239D01*
X68562612Y51749234D01*
X68314388Y51749234D01*
X68314388Y50497377D01*
X68313973Y50134048D01*
X68311889Y49834911D01*
X68306877Y49591588D01*
X68297679Y49395701D01*
X68283036Y49238872D01*
X68261691Y49112723D01*
X68232384Y49008875D01*
X68193858Y48918950D01*
X68144854Y48834570D01*
X68084113Y48747358D01*
X68043301Y48692562D01*
X67887312Y48524258D01*
X67697635Y48379695D01*
X67492238Y48268699D01*
X67289085Y48201100D01*
X67116960Y48185855D01*
X67008103Y48193234D01*
X66998466Y49218305D01*
X66995108Y49482599D01*
X66990395Y49721625D01*
X66984642Y49926245D01*
X66978165Y50087319D01*
X66971278Y50195706D01*
X66964298Y50242266D01*
X66963087Y50243377D01*
X66932356Y50218636D01*
X66856308Y50148238D01*
X66740858Y50037924D01*
X66591924Y49893434D01*
X66415424Y49720506D01*
X66217275Y49524880D01*
X66011152Y49320031D01*
X65738619Y49049199D01*
X65510281Y48825593D01*
X65319447Y48644696D01*
X65159425Y48501993D01*
X65023521Y48392970D01*
X64905043Y48313110D01*
X64797301Y48257899D01*
X64693601Y48222821D01*
X64587251Y48203361D01*
X64471559Y48195004D01*
X64341103Y48193234D01*
X64169004Y48199601D01*
X64016776Y48216744D01*
X63909948Y48241722D01*
X63905674Y48243353D01*
X63798301Y48293630D01*
X63680184Y48360808D01*
X63568863Y48433246D01*
X63481880Y48499303D01*
X63436774Y48547339D01*
X63434030Y48556358D01*
X63458832Y48589561D01*
X63529430Y48667854D01*
X63640066Y48785250D01*
X63784978Y48935767D01*
X63958407Y49113418D01*
X64154593Y49312219D01*
X64359245Y49517663D01*
X64571946Y49731370D01*
X64767416Y49929940D01*
X64939889Y50107348D01*
X65083599Y50257569D01*
X65192780Y50374577D01*
X65261664Y50452348D01*
X65284531Y50484489D01*
X65253894Y50524444D01*
X65179836Y50563039D01*
X65176447Y50564242D01*
X65111564Y50580365D01*
X65052311Y50571684D01*
X64977617Y50530761D01*
X64878066Y50458934D01*
X64771723Y50385071D01*
X64682052Y50333459D01*
X64632365Y50316046D01*
X64576287Y50338532D01*
X64488932Y50396545D01*
X64415488Y50455385D01*
X64254017Y50594625D01*
X64333845Y50803230D01*
X64387520Y50956599D01*
X64408283Y51061786D01*
X64395843Y51135436D01*
X64349907Y51194196D01*
X64326651Y51213704D01*
X64262604Y51252616D01*
X64186000Y51267598D01*
X64071354Y51262391D01*
X64027294Y51257632D01*
X63905265Y51249706D01*
X63810490Y51254726D01*
X63772248Y51266633D01*
X63735295Y51321155D01*
X63691462Y51419306D01*
X63650640Y51534109D01*
X63622725Y51638587D01*
X63616171Y51692198D01*
X63644322Y51740947D01*
X63717308Y51813553D01*
X63817474Y51892905D01*
X63925566Y51974494D01*
X63984663Y52034475D01*
X64007329Y52089672D01*
X64007192Y52146905D01*
X63992246Y52211143D01*
X63952158Y52264194D01*
X63872132Y52320396D01*
X63769602Y52377164D01*
X63657240Y52443792D01*
X63576120Y52505641D01*
X63542921Y52549883D01*
X63542817Y52551596D01*
X63553002Y52636252D01*
X63578464Y52751673D01*
X63611558Y52869460D01*
X63644640Y52961214D01*
X63661354Y52992020D01*
X63718305Y53019152D01*
X63825382Y53035013D01*
X63894360Y53037377D01*
X64073738Y53048745D01*
X64187068Y53086631D01*
X64237648Y53156702D01*
X64228776Y53264628D01*
X64163750Y53416078D01*
X64140056Y53459709D01*
X64010390Y53691574D01*
X64193018Y53881547D01*
X64375645Y54071520D01*
X64591663Y53953591D01*
X64726857Y53882834D01*
X64817338Y53847087D01*
X64880403Y53843663D01*
X64933353Y53869873D01*
X64964174Y53895715D01*
X65004247Y53952614D01*
X65024871Y54043338D01*
X65030531Y54181558D01*
X65038010Y54322420D01*
X65058640Y54416058D01*
X65075888Y54442840D01*
X65138276Y54472230D01*
X65243793Y54506232D01*
X65364040Y54537204D01*
X65470619Y54557502D01*
X65516312Y54561377D01*
X65559178Y54531386D01*
X65620377Y54452534D01*
X65687079Y54341499D01*
X65690744Y54334617D01*
X65763952Y54207020D01*
X65824809Y54131850D01*
X65887257Y54093892D01*
X65919531Y54084910D01*
X65982201Y54079064D01*
X66107573Y54073489D01*
X66285775Y54068401D01*
X66506938Y54064019D01*
X66761192Y54060559D01*
X67038665Y54058239D01*
X67156269Y54057670D01*
X67435112Y54056032D01*
X67690069Y54053427D01*
X67912232Y54050034D01*
X68092694Y54046031D01*
X68222548Y54041597D01*
X68292888Y54036911D01*
X68302836Y54034691D01*
X68311981Y53983317D01*
X68301024Y53884394D01*
X68274436Y53758657D01*
X68236692Y53626839D01*
X68192266Y53509677D01*
X68187167Y53498582D01*
X68027968Y53243498D01*
X67813404Y53031754D01*
X67578607Y52884496D01*
X67336502Y52765234D01*
X66519160Y52747091D01*
X66230229Y52739761D01*
X66004572Y52730651D01*
X65832890Y52717530D01*
X65705887Y52698167D01*
X65614266Y52670331D01*
X65548729Y52631789D01*
X65499980Y52580310D01*
X65458721Y52513663D01*
X65445962Y52489505D01*
X65395739Y52320554D01*
X65406597Y52145867D01*
X65473628Y51985660D01*
X65591923Y51860145D01*
X65600176Y51854408D01*
X65631457Y51836185D01*
X65671215Y51821260D01*
X65726968Y51809166D01*
X65806233Y51799441D01*
X65916528Y51791619D01*
X66065370Y51785235D01*
X66260278Y51779826D01*
X66508768Y51774925D01*
X66818357Y51770068D01*
X67008103Y51767377D01*
X68314388Y51749234D01*
X68562612Y51749234D01*
X68503662Y51980907D01*
X68477856Y52310521D01*
X68511359Y52627074D01*
X68528116Y52697438D01*
X68645766Y53008575D01*
X68822697Y53300164D01*
X69047295Y53557459D01*
X69307945Y53765714D01*
X69423019Y53833756D01*
X69525597Y53887128D01*
X69619641Y53931038D01*
X69713391Y53966411D01*
X69815085Y53994170D01*
X69932960Y54015241D01*
X70075254Y54030547D01*
X70250207Y54041013D01*
X70466056Y54047563D01*
X70731039Y54051122D01*
X71053395Y54052614D01*
X71376514Y54052946D01*
X72733211Y54053377D01*
X74105751Y54053377D01*
X73935565Y54156938D01*
X73795295Y54258068D01*
X73710154Y54344849D01*
X73674299Y54424268D01*
X73681885Y54503309D01*
X73703939Y54551826D01*
X73775238Y54635257D01*
X73855306Y54684829D01*
X73901047Y54694013D01*
X73956498Y54686990D01*
X74033117Y54659066D01*
X74142360Y54605546D01*
X74295685Y54521735D01*
X74406675Y54458908D01*
X74862228Y54199291D01*
X75108023Y54444205D01*
X75421708Y54706810D01*
X75772829Y54907757D01*
X76158858Y55045968D01*
X76577268Y55120363D01*
X76714531Y55130367D01*
X77126916Y55122277D01*
X77508546Y55053465D01*
X77869580Y54920645D01*
X78220174Y54720529D01*
X78411169Y54581423D01*
X78710036Y54306771D01*
X78949205Y53995333D01*
X79132296Y53641449D01*
X79258889Y53255651D01*
X79308447Y52972687D01*
X79324169Y52669026D01*
X79306849Y52369005D01*
X79257282Y52096960D01*
X79216869Y51968885D01*
X79183210Y51883154D01*
X79162667Y51819422D01*
X79162522Y51768625D01*
X79190054Y51721702D01*
X79252544Y51669590D01*
X79357272Y51603228D01*
X79511518Y51513552D01*
X79644034Y51437164D01*
X79814875Y51334859D01*
X79930368Y51256482D01*
X80000427Y51194219D01*
X80034968Y51140256D01*
X80039685Y51125329D01*
X80454490Y51125329D01*
X80456880Y51148683D01*
X80476283Y51755558D01*
X80437609Y52391947D01*
X80343509Y53047634D01*
X80196634Y53712401D01*
X79999636Y54376028D01*
X79755165Y55028298D01*
X79465873Y55658994D01*
X79134410Y56257896D01*
X79128996Y56266805D01*
X78700650Y56903282D01*
X78212083Y57507107D01*
X77671414Y58070021D01*
X77086758Y58583763D01*
X76466233Y59040072D01*
X76294052Y59152067D01*
X76073721Y59283047D01*
X75805047Y59429578D01*
X75507733Y59581977D01*
X75201477Y59730559D01*
X74905981Y59865640D01*
X74640945Y59977535D01*
X74521610Y60023377D01*
X74240739Y60117632D01*
X73910779Y60214160D01*
X73554763Y60307185D01*
X73195724Y60390926D01*
X72856697Y60459606D01*
X72632388Y60497314D01*
X72291144Y60535406D01*
X71904084Y60557216D01*
X71496114Y60562744D01*
X71092141Y60551991D01*
G36*
X75635031Y52713320D02*
X75313946Y52625415D01*
X75024613Y52479809D01*
X74772923Y52284526D01*
X74564771Y52047590D01*
X74406048Y51777027D01*
X74302647Y51480861D01*
X74260462Y51167116D01*
X74280874Y50869305D01*
X74371148Y50537607D01*
X74521126Y50240131D01*
X74724533Y49983508D01*
X74975098Y49774370D01*
X75266545Y49619349D01*
X75543214Y49534771D01*
X75729380Y49500266D01*
X75879535Y49487970D01*
X76026768Y49497908D01*
X76204165Y49530104D01*
X76228237Y49535288D01*
X76550546Y49640707D01*
X76835555Y49805360D01*
X77077515Y50023129D01*
X77270679Y50287892D01*
X77409298Y50593532D01*
X77477347Y50865070D01*
X77497409Y51187192D01*
X77452091Y51496628D01*
X77348190Y51786557D01*
X77192505Y52050158D01*
X76991836Y52280612D01*
X76752980Y52471097D01*
X76482737Y52614793D01*
X76187904Y52704879D01*
X75875282Y52734534D01*
X75635031Y52713320D01*
X75635031Y52713320D01*
G37*
X75635031Y52713320D02*
X75313946Y52625415D01*
X75024613Y52479809D01*
X74772923Y52284526D01*
X74564771Y52047590D01*
X74406048Y51777027D01*
X74302647Y51480861D01*
X74260462Y51167116D01*
X74280874Y50869305D01*
X74371148Y50537607D01*
X74521126Y50240131D01*
X74724533Y49983508D01*
X74975098Y49774370D01*
X75266545Y49619349D01*
X75543214Y49534771D01*
X75729380Y49500266D01*
X75879535Y49487970D01*
X76026768Y49497908D01*
X76204165Y49530104D01*
X76228237Y49535288D01*
X76550546Y49640707D01*
X76835555Y49805360D01*
X77077515Y50023129D01*
X77270679Y50287892D01*
X77409298Y50593532D01*
X77477347Y50865070D01*
X77497409Y51187192D01*
X77452091Y51496628D01*
X77348190Y51786557D01*
X77192505Y52050158D01*
X76991836Y52280612D01*
X76752980Y52471097D01*
X76482737Y52614793D01*
X76187904Y52704879D01*
X75875282Y52734534D01*
X75635031Y52713320D01*
G36*
X73872320Y54476694D02*
X73856223Y54434006D01*
X73862716Y54416805D01*
X73888129Y54390268D01*
X73935936Y54352299D01*
X74009610Y54300799D01*
X74112624Y54233672D01*
X74248450Y54148819D01*
X74420563Y54044144D01*
X74632434Y53917549D01*
X74887536Y53766937D01*
X75189343Y53590211D01*
X75541327Y53385272D01*
X75946962Y53150024D01*
X76409720Y52882369D01*
X76769647Y52674520D01*
X77193495Y52430056D01*
X77599897Y52195995D01*
X77984402Y51974882D01*
X78342554Y51769262D01*
X78669902Y51581681D01*
X78961992Y51414684D01*
X79214372Y51270817D01*
X79422587Y51152624D01*
X79582184Y51062652D01*
X79688712Y51003445D01*
X79737715Y50977549D01*
X79740149Y50976606D01*
X79799513Y50992751D01*
X79835322Y51023785D01*
X79864654Y51079351D01*
X79834422Y51129957D01*
X79831985Y51132389D01*
X79788173Y51162927D01*
X79687500Y51225572D01*
X79535327Y51317252D01*
X79337014Y51434894D01*
X79097923Y51575426D01*
X78823411Y51735774D01*
X78518842Y51912867D01*
X78189573Y52103631D01*
X77840966Y52304994D01*
X77478381Y52513884D01*
X77107177Y52727228D01*
X76732717Y52941953D01*
X76360358Y53154986D01*
X75995463Y53363256D01*
X75643390Y53563689D01*
X75309501Y53753213D01*
X74999156Y53928755D01*
X74717714Y54087243D01*
X74470536Y54225604D01*
X74262983Y54340765D01*
X74100414Y54429655D01*
X73988190Y54489199D01*
X73931671Y54516326D01*
X73926266Y54517667D01*
X73872320Y54476694D01*
X73872320Y54476694D01*
G37*
X73872320Y54476694D02*
X73856223Y54434006D01*
X73862716Y54416805D01*
X73888129Y54390268D01*
X73935936Y54352299D01*
X74009610Y54300799D01*
X74112624Y54233672D01*
X74248450Y54148819D01*
X74420563Y54044144D01*
X74632434Y53917549D01*
X74887536Y53766937D01*
X75189343Y53590211D01*
X75541327Y53385272D01*
X75946962Y53150024D01*
X76409720Y52882369D01*
X76769647Y52674520D01*
X77193495Y52430056D01*
X77599897Y52195995D01*
X77984402Y51974882D01*
X78342554Y51769262D01*
X78669902Y51581681D01*
X78961992Y51414684D01*
X79214372Y51270817D01*
X79422587Y51152624D01*
X79582184Y51062652D01*
X79688712Y51003445D01*
X79737715Y50977549D01*
X79740149Y50976606D01*
X79799513Y50992751D01*
X79835322Y51023785D01*
X79864654Y51079351D01*
X79834422Y51129957D01*
X79831985Y51132389D01*
X79788173Y51162927D01*
X79687500Y51225572D01*
X79535327Y51317252D01*
X79337014Y51434894D01*
X79097923Y51575426D01*
X78823411Y51735774D01*
X78518842Y51912867D01*
X78189573Y52103631D01*
X77840966Y52304994D01*
X77478381Y52513884D01*
X77107177Y52727228D01*
X76732717Y52941953D01*
X76360358Y53154986D01*
X75995463Y53363256D01*
X75643390Y53563689D01*
X75309501Y53753213D01*
X74999156Y53928755D01*
X74717714Y54087243D01*
X74470536Y54225604D01*
X74262983Y54340765D01*
X74100414Y54429655D01*
X73988190Y54489199D01*
X73931671Y54516326D01*
X73926266Y54517667D01*
X73872320Y54476694D01*
G36*
X76628336Y54949205D02*
X76406834Y54921140D01*
X76332083Y54904692D01*
X76215961Y54869449D01*
X76079689Y54820325D01*
X75939905Y54764398D01*
X75813251Y54708746D01*
X75716364Y54660446D01*
X75665884Y54626577D01*
X75662245Y54619768D01*
X75690550Y54592408D01*
X75762572Y54542974D01*
X75812432Y54512215D01*
X75962619Y54422655D01*
X76044999Y54520558D01*
X76127891Y54594674D01*
X76241648Y54666928D01*
X76364417Y54726726D01*
X76474345Y54763472D01*
X76549581Y54766573D01*
X76551204Y54765985D01*
X76600081Y54723672D01*
X76582823Y54663135D01*
X76502329Y54588533D01*
X76372561Y54509804D01*
X76261507Y54446908D01*
X76179536Y54392370D01*
X76145104Y54358953D01*
X76166145Y54320439D01*
X76233771Y54266560D01*
X76274301Y54241864D01*
X76378061Y54186214D01*
X76434218Y54166514D01*
X76456929Y54180604D01*
X76460531Y54213437D01*
X76488273Y54270639D01*
X76555670Y54342603D01*
X76638985Y54408769D01*
X76714477Y54448578D01*
X76736597Y54452520D01*
X76800757Y54430477D01*
X76812331Y54372276D01*
X76773122Y54289804D01*
X76699511Y54207935D01*
X76624661Y54135512D01*
X76580819Y54085531D01*
X76575559Y54072711D01*
X76608889Y54052472D01*
X76696855Y54000768D01*
X76831223Y53922391D01*
X77003762Y53822132D01*
X77206241Y53704781D01*
X77430428Y53575130D01*
X77440245Y53569459D01*
X78292960Y53076864D01*
X78303554Y53325966D01*
X78316706Y53454984D01*
X78202245Y53454984D01*
X78181832Y53374349D01*
X78134569Y53310002D01*
X78093388Y53291377D01*
X78052045Y53313721D01*
X78028074Y53334920D01*
X77990265Y53416444D01*
X77991216Y53519914D01*
X78028955Y53607212D01*
X78042886Y53621207D01*
X78094434Y53648856D01*
X78138049Y53618449D01*
X78151743Y53600572D01*
X78192868Y53512091D01*
X78202245Y53454984D01*
X78316706Y53454984D01*
X78319873Y53486051D01*
X78351657Y53580140D01*
X78397700Y53606364D01*
X78456331Y53563416D01*
X78484124Y53491693D01*
X78499045Y53377583D01*
X78500740Y53249365D01*
X78488859Y53135320D01*
X78463048Y53063726D01*
X78462558Y53063126D01*
X78449897Y53032031D01*
X78470401Y52995985D01*
X78533401Y52946383D01*
X78648225Y52874618D01*
X78700110Y52844002D01*
X78867438Y52746297D01*
X78981614Y52684119D01*
X79052752Y52657443D01*
X79090968Y52666244D01*
X79106377Y52710497D01*
X79109092Y52790177D01*
X79108852Y52842995D01*
X79081348Y53116496D01*
X78855186Y53116496D01*
X78852719Y53004953D01*
X78840138Y52949212D01*
X78810131Y52932560D01*
X78775811Y52935067D01*
X78735238Y52949036D01*
X78705729Y52986566D01*
X78681326Y53062115D01*
X78656069Y53190144D01*
X78645872Y53250338D01*
X78621769Y53428535D01*
X78620672Y53544237D01*
X78644069Y53604257D01*
X78693448Y53615410D01*
X78723690Y53606629D01*
X78774349Y53552530D01*
X78816062Y53442280D01*
X78844462Y53292153D01*
X78855183Y53118424D01*
X78855186Y53116496D01*
X79081348Y53116496D01*
X79072627Y53203205D01*
X78969505Y53551183D01*
X78805062Y53878478D01*
X78584872Y54176639D01*
X78314511Y54437215D01*
X77999555Y54651754D01*
X77871597Y54718368D01*
X77704180Y54793407D01*
X77536915Y54859449D01*
X77395156Y54906844D01*
X77338674Y54921178D01*
X77124555Y54949721D01*
X76877677Y54958898D01*
X76628336Y54949205D01*
X76628336Y54949205D01*
G37*
X76628336Y54949205D02*
X76406834Y54921140D01*
X76332083Y54904692D01*
X76215961Y54869449D01*
X76079689Y54820325D01*
X75939905Y54764398D01*
X75813251Y54708746D01*
X75716364Y54660446D01*
X75665884Y54626577D01*
X75662245Y54619768D01*
X75690550Y54592408D01*
X75762572Y54542974D01*
X75812432Y54512215D01*
X75962619Y54422655D01*
X76044999Y54520558D01*
X76127891Y54594674D01*
X76241648Y54666928D01*
X76364417Y54726726D01*
X76474345Y54763472D01*
X76549581Y54766573D01*
X76551204Y54765985D01*
X76600081Y54723672D01*
X76582823Y54663135D01*
X76502329Y54588533D01*
X76372561Y54509804D01*
X76261507Y54446908D01*
X76179536Y54392370D01*
X76145104Y54358953D01*
X76166145Y54320439D01*
X76233771Y54266560D01*
X76274301Y54241864D01*
X76378061Y54186214D01*
X76434218Y54166514D01*
X76456929Y54180604D01*
X76460531Y54213437D01*
X76488273Y54270639D01*
X76555670Y54342603D01*
X76638985Y54408769D01*
X76714477Y54448578D01*
X76736597Y54452520D01*
X76800757Y54430477D01*
X76812331Y54372276D01*
X76773122Y54289804D01*
X76699511Y54207935D01*
X76624661Y54135512D01*
X76580819Y54085531D01*
X76575559Y54072711D01*
X76608889Y54052472D01*
X76696855Y54000768D01*
X76831223Y53922391D01*
X77003762Y53822132D01*
X77206241Y53704781D01*
X77430428Y53575130D01*
X77440245Y53569459D01*
X78292960Y53076864D01*
X78303554Y53325966D01*
X78316706Y53454984D01*
X78202245Y53454984D01*
X78181832Y53374349D01*
X78134569Y53310002D01*
X78093388Y53291377D01*
X78052045Y53313721D01*
X78028074Y53334920D01*
X77990265Y53416444D01*
X77991216Y53519914D01*
X78028955Y53607212D01*
X78042886Y53621207D01*
X78094434Y53648856D01*
X78138049Y53618449D01*
X78151743Y53600572D01*
X78192868Y53512091D01*
X78202245Y53454984D01*
X78316706Y53454984D01*
X78319873Y53486051D01*
X78351657Y53580140D01*
X78397700Y53606364D01*
X78456331Y53563416D01*
X78484124Y53491693D01*
X78499045Y53377583D01*
X78500740Y53249365D01*
X78488859Y53135320D01*
X78463048Y53063726D01*
X78462558Y53063126D01*
X78449897Y53032031D01*
X78470401Y52995985D01*
X78533401Y52946383D01*
X78648225Y52874618D01*
X78700110Y52844002D01*
X78867438Y52746297D01*
X78981614Y52684119D01*
X79052752Y52657443D01*
X79090968Y52666244D01*
X79106377Y52710497D01*
X79109092Y52790177D01*
X79108852Y52842995D01*
X79081348Y53116496D01*
X78855186Y53116496D01*
X78852719Y53004953D01*
X78840138Y52949212D01*
X78810131Y52932560D01*
X78775811Y52935067D01*
X78735238Y52949036D01*
X78705729Y52986566D01*
X78681326Y53062115D01*
X78656069Y53190144D01*
X78645872Y53250338D01*
X78621769Y53428535D01*
X78620672Y53544237D01*
X78644069Y53604257D01*
X78693448Y53615410D01*
X78723690Y53606629D01*
X78774349Y53552530D01*
X78816062Y53442280D01*
X78844462Y53292153D01*
X78855183Y53118424D01*
X78855186Y53116496D01*
X79081348Y53116496D01*
X79072627Y53203205D01*
X78969505Y53551183D01*
X78805062Y53878478D01*
X78584872Y54176639D01*
X78314511Y54437215D01*
X77999555Y54651754D01*
X77871597Y54718368D01*
X77704180Y54793407D01*
X77536915Y54859449D01*
X77395156Y54906844D01*
X77338674Y54921178D01*
X77124555Y54949721D01*
X76877677Y54958898D01*
X76628336Y54949205D01*
D14*
X74485737Y21305259D02*
X74819071Y21781450D01*
X75057166Y21305259D02*
X75057166Y22305259D01*
X74676213Y22305259D01*
X74580975Y22257640D01*
X74533356Y22210021D01*
X74485737Y22114783D01*
X74485737Y21971926D01*
X74533356Y21876688D01*
X74580975Y21829069D01*
X74676213Y21781450D01*
X75057166Y21781450D01*
X73533356Y21305259D02*
X74104785Y21305259D01*
X73819071Y21305259D02*
X73819071Y22305259D01*
X73914309Y22162402D01*
X74009547Y22067164D01*
X74104785Y22019545D01*
X72914309Y22305259D02*
X72819070Y22305259D01*
X72723832Y22257640D01*
X72676213Y22210021D01*
X72628594Y22114783D01*
X72580975Y21924307D01*
X72580975Y21686211D01*
X72628594Y21495735D01*
X72676213Y21400497D01*
X72723832Y21352878D01*
X72819070Y21305259D01*
X72914309Y21305259D01*
X73009547Y21352878D01*
X73057166Y21400497D01*
X73104785Y21495735D01*
X73152404Y21686211D01*
X73152404Y21924307D01*
X73104785Y22114783D01*
X73057166Y22210021D01*
X73009547Y22257640D01*
X72914309Y22305259D01*
X21592777Y21300179D02*
X21926111Y21776370D01*
X22164206Y21300179D02*
X22164206Y22300179D01*
X21783253Y22300179D01*
X21688015Y22252560D01*
X21640396Y22204941D01*
X21592777Y22109703D01*
X21592777Y21966846D01*
X21640396Y21871608D01*
X21688015Y21823989D01*
X21783253Y21776370D01*
X22164206Y21776370D01*
X20640396Y21300179D02*
X21211825Y21300179D01*
X20926111Y21300179D02*
X20926111Y22300179D01*
X21021349Y22157322D01*
X21116587Y22062084D01*
X21211825Y22014465D01*
X20021349Y22300179D02*
X19926110Y22300179D01*
X19830872Y22252560D01*
X19783253Y22204941D01*
X19735634Y22109703D01*
X19688015Y21919227D01*
X19688015Y21681131D01*
X19735634Y21490655D01*
X19783253Y21395417D01*
X19830872Y21347798D01*
X19926110Y21300179D01*
X20021349Y21300179D01*
X20116587Y21347798D01*
X20164206Y21395417D01*
X20211825Y21490655D01*
X20259444Y21681131D01*
X20259444Y21919227D01*
X20211825Y22109703D01*
X20164206Y22204941D01*
X20116587Y22252560D01*
X20021349Y22300179D01*
X37308781Y26191506D02*
X36832590Y26524840D01*
X37308781Y26762935D02*
X36308781Y26762935D01*
X36308781Y26381982D01*
X36356400Y26286744D01*
X36404019Y26239125D01*
X36499257Y26191506D01*
X36642114Y26191506D01*
X36737352Y26239125D01*
X36784971Y26286744D01*
X36832590Y26381982D01*
X36832590Y26762935D01*
X36308781Y25334363D02*
X36308781Y25524840D01*
X36356400Y25620078D01*
X36404019Y25667697D01*
X36546876Y25762935D01*
X36737352Y25810554D01*
X37118305Y25810554D01*
X37213543Y25762935D01*
X37261162Y25715316D01*
X37308781Y25620078D01*
X37308781Y25429601D01*
X37261162Y25334363D01*
X37213543Y25286744D01*
X37118305Y25239125D01*
X36880210Y25239125D01*
X36784971Y25286744D01*
X36737352Y25334363D01*
X36689733Y25429601D01*
X36689733Y25620078D01*
X36737352Y25715316D01*
X36784971Y25762935D01*
X36880210Y25810554D01*
X56723541Y25978146D02*
X56247350Y26311480D01*
X56723541Y26549575D02*
X55723541Y26549575D01*
X55723541Y26168622D01*
X55771160Y26073384D01*
X55818779Y26025765D01*
X55914017Y25978146D01*
X56056874Y25978146D01*
X56152112Y26025765D01*
X56199731Y26073384D01*
X56247350Y26168622D01*
X56247350Y26549575D01*
X55723541Y25644813D02*
X55723541Y24978146D01*
X56723541Y25406718D01*
X42668181Y56585146D02*
X42191990Y56918480D01*
X42668181Y57156575D02*
X41668181Y57156575D01*
X41668181Y56775622D01*
X41715800Y56680384D01*
X41763419Y56632765D01*
X41858657Y56585146D01*
X42001514Y56585146D01*
X42096752Y56632765D01*
X42144371Y56680384D01*
X42191990Y56775622D01*
X42191990Y57156575D01*
X42096752Y56013718D02*
X42049133Y56108956D01*
X42001514Y56156575D01*
X41906276Y56204194D01*
X41858657Y56204194D01*
X41763419Y56156575D01*
X41715800Y56108956D01*
X41668181Y56013718D01*
X41668181Y55823241D01*
X41715800Y55728003D01*
X41763419Y55680384D01*
X41858657Y55632765D01*
X41906276Y55632765D01*
X42001514Y55680384D01*
X42049133Y55728003D01*
X42096752Y55823241D01*
X42096752Y56013718D01*
X42144371Y56108956D01*
X42191990Y56156575D01*
X42287229Y56204194D01*
X42477705Y56204194D01*
X42572943Y56156575D01*
X42620562Y56108956D01*
X42668181Y56013718D01*
X42668181Y55823241D01*
X42620562Y55728003D01*
X42572943Y55680384D01*
X42477705Y55632765D01*
X42287229Y55632765D01*
X42191990Y55680384D01*
X42144371Y55728003D01*
X42096752Y55823241D01*
X51045101Y56620706D02*
X50568910Y56954040D01*
X51045101Y57192135D02*
X50045101Y57192135D01*
X50045101Y56811182D01*
X50092720Y56715944D01*
X50140339Y56668325D01*
X50235577Y56620706D01*
X50378434Y56620706D01*
X50473672Y56668325D01*
X50521291Y56715944D01*
X50568910Y56811182D01*
X50568910Y57192135D01*
X51045101Y56144516D02*
X51045101Y55954040D01*
X50997482Y55858801D01*
X50949863Y55811182D01*
X50807006Y55715944D01*
X50616530Y55668325D01*
X50235577Y55668325D01*
X50140339Y55715944D01*
X50092720Y55763563D01*
X50045101Y55858801D01*
X50045101Y56049278D01*
X50092720Y56144516D01*
X50140339Y56192135D01*
X50235577Y56239754D01*
X50473672Y56239754D01*
X50568910Y56192135D01*
X50616530Y56144516D01*
X50664149Y56049278D01*
X50664149Y55858801D01*
X50616530Y55763563D01*
X50568910Y55715944D01*
X50473672Y55668325D01*
X94216457Y62925699D02*
X94549791Y63401890D01*
X94787886Y62925699D02*
X94787886Y63925699D01*
X94406933Y63925699D01*
X94311695Y63878080D01*
X94264076Y63830461D01*
X94216457Y63735223D01*
X94216457Y63592366D01*
X94264076Y63497128D01*
X94311695Y63449509D01*
X94406933Y63401890D01*
X94787886Y63401890D01*
X93264076Y62925699D02*
X93835505Y62925699D01*
X93549791Y62925699D02*
X93549791Y63925699D01*
X93645029Y63782842D01*
X93740267Y63687604D01*
X93835505Y63639985D01*
X92883124Y63830461D02*
X92835505Y63878080D01*
X92740267Y63925699D01*
X92502171Y63925699D01*
X92406933Y63878080D01*
X92359314Y63830461D01*
X92311695Y63735223D01*
X92311695Y63639985D01*
X92359314Y63497128D01*
X92930743Y62925699D01*
X92311695Y62925699D01*
X90330257Y62956179D02*
X90663591Y63432370D01*
X90901686Y62956179D02*
X90901686Y63956179D01*
X90520733Y63956179D01*
X90425495Y63908560D01*
X90377876Y63860941D01*
X90330257Y63765703D01*
X90330257Y63622846D01*
X90377876Y63527608D01*
X90425495Y63479989D01*
X90520733Y63432370D01*
X90901686Y63432370D01*
X89377876Y62956179D02*
X89949305Y62956179D01*
X89663591Y62956179D02*
X89663591Y63956179D01*
X89758829Y63813322D01*
X89854067Y63718084D01*
X89949305Y63670465D01*
X89044543Y63956179D02*
X88425495Y63956179D01*
X88758829Y63575227D01*
X88615971Y63575227D01*
X88520733Y63527608D01*
X88473114Y63479989D01*
X88425495Y63384750D01*
X88425495Y63146655D01*
X88473114Y63051417D01*
X88520733Y63003798D01*
X88615971Y62956179D01*
X88901686Y62956179D01*
X88996924Y63003798D01*
X89044543Y63051417D01*
X7140177Y63098419D02*
X7473511Y63574610D01*
X7711606Y63098419D02*
X7711606Y64098419D01*
X7330653Y64098419D01*
X7235415Y64050800D01*
X7187796Y64003181D01*
X7140177Y63907943D01*
X7140177Y63765086D01*
X7187796Y63669848D01*
X7235415Y63622229D01*
X7330653Y63574610D01*
X7711606Y63574610D01*
X6187796Y63098419D02*
X6759225Y63098419D01*
X6473511Y63098419D02*
X6473511Y64098419D01*
X6568749Y63955562D01*
X6663987Y63860324D01*
X6759225Y63812705D01*
X5330653Y63765086D02*
X5330653Y63098419D01*
X5568749Y64146038D02*
X5806844Y63431752D01*
X5187796Y63431752D01*
X3355577Y63184779D02*
X3688911Y63660970D01*
X3927006Y63184779D02*
X3927006Y64184779D01*
X3546053Y64184779D01*
X3450815Y64137160D01*
X3403196Y64089541D01*
X3355577Y63994303D01*
X3355577Y63851446D01*
X3403196Y63756208D01*
X3450815Y63708589D01*
X3546053Y63660970D01*
X3927006Y63660970D01*
X2403196Y63184779D02*
X2974625Y63184779D01*
X2688911Y63184779D02*
X2688911Y64184779D01*
X2784149Y64041922D01*
X2879387Y63946684D01*
X2974625Y63899065D01*
X1498434Y64184779D02*
X1974625Y64184779D01*
X2022244Y63708589D01*
X1974625Y63756208D01*
X1879387Y63803827D01*
X1641291Y63803827D01*
X1546053Y63756208D01*
X1498434Y63708589D01*
X1450815Y63613350D01*
X1450815Y63375255D01*
X1498434Y63280017D01*
X1546053Y63232398D01*
X1641291Y63184779D01*
X1879387Y63184779D01*
X1974625Y63232398D01*
X2022244Y63280017D01*
D10*
X48458063Y54567731D02*
X48458063Y54082017D01*
X48429491Y54024874D01*
X48400920Y53996303D01*
X48343777Y53967731D01*
X48229491Y53967731D01*
X48172349Y53996303D01*
X48143777Y54024874D01*
X48115206Y54082017D01*
X48115206Y54567731D01*
X47858063Y54510589D02*
X47829492Y54539160D01*
X47772349Y54567731D01*
X47629492Y54567731D01*
X47572349Y54539160D01*
X47543778Y54510589D01*
X47515206Y54453446D01*
X47515206Y54396303D01*
X47543778Y54310589D01*
X47886635Y53967731D01*
X47515206Y53967731D01*
X92074943Y76508251D02*
X92074943Y76022537D01*
X92046371Y75965394D01*
X92017800Y75936823D01*
X91960657Y75908251D01*
X91846371Y75908251D01*
X91789229Y75936823D01*
X91760657Y75965394D01*
X91732086Y76022537D01*
X91732086Y76508251D01*
X91503515Y76508251D02*
X91132086Y76508251D01*
X91332086Y76279680D01*
X91246372Y76279680D01*
X91189229Y76251109D01*
X91160658Y76222537D01*
X91132086Y76165394D01*
X91132086Y76022537D01*
X91160658Y75965394D01*
X91189229Y75936823D01*
X91246372Y75908251D01*
X91417800Y75908251D01*
X91474943Y75936823D01*
X91503515Y75965394D01*
X5013903Y76528571D02*
X5013903Y76042857D01*
X4985331Y75985714D01*
X4956760Y75957143D01*
X4899617Y75928571D01*
X4785331Y75928571D01*
X4728189Y75957143D01*
X4699617Y75985714D01*
X4671046Y76042857D01*
X4671046Y76528571D01*
X4128189Y76328571D02*
X4128189Y75928571D01*
X4271046Y76557143D02*
X4413903Y76128571D01*
X4042475Y76128571D01*
%LPC*%
D15*
X74259440Y20370840D03*
X21366480Y20365760D03*
D16*
X93538040Y28016200D03*
X2555240Y28011120D03*
X25186640Y1686560D03*
X40274240Y1686560D03*
X55361840Y1681480D03*
X70449440Y1681480D03*
X70449440Y18501360D03*
X25191720Y18496280D03*
X63230760Y25689560D03*
X33314640Y25679400D03*
X48041560Y66502280D03*
X91546680Y70982840D03*
D17*
X57663080Y51379120D03*
D18*
X50163080Y51379120D03*
D19*
X74000360Y38196520D03*
D20*
X74000360Y33196520D03*
D21*
X53101240Y43891200D03*
D22*
X55641240Y43891200D03*
D21*
X2245360Y60797440D03*
X46390560Y41640760D03*
X2225040Y41691560D03*
X46426120Y60726320D03*
X57871360Y34122360D03*
D22*
X57871360Y31582360D03*
D21*
X38638480Y34122360D03*
D22*
X38638480Y31582360D03*
D23*
X38506400Y26974840D03*
X38506400Y25074840D03*
X58242200Y26736080D03*
X58242200Y24836080D03*
X43865800Y57368480D03*
X43865800Y55468480D03*
X52242720Y57404040D03*
X52242720Y55504040D03*
X93583760Y66685200D03*
X93583760Y64785200D03*
X89672160Y66715640D03*
X89672160Y64815640D03*
X6482080Y66868080D03*
X6482080Y64968080D03*
X2743200Y66929040D03*
X2743200Y65029040D03*
D21*
X67670680Y38206680D03*
D22*
X67670680Y35666680D03*
X67670680Y33126680D03*
D24*
X94650560Y40137080D03*
X94650560Y30993080D03*
X79410560Y40137080D03*
X79410560Y30997080D03*
D25*
X46000920Y57425160D03*
X50000920Y57425160D03*
X50000920Y55625160D03*
X46000920Y55625160D03*
X93607640Y75284760D03*
X89607640Y75284760D03*
X89607640Y77084760D03*
X93607640Y77084760D03*
X6480560Y75284760D03*
X2480560Y75284760D03*
X2480560Y77084760D03*
X6480560Y77084760D03*
D16*
X4546600Y70967600D03*
M02*
