G04 #@! TF.FileFunction,Soldermask,Bot*
%FSLAX46Y46*%
G04 Gerber Fmt 4.6, Leading zero omitted, Abs format (unit mm)*
G04 Created by KiCad (PCBNEW 4.0.7) date 11/25/18 15:18:33*
%MOMM*%
%LPD*%
G01*
G04 APERTURE LIST*
%ADD10C,0.100000*%
%ADD11R,4.900000X10.400000*%
%ADD12C,3.600000*%
%ADD13R,2.400000X2.400000*%
%ADD14C,2.400000*%
%ADD15R,2.000000X2.000000*%
%ADD16C,2.000000*%
%ADD17R,2.100000X2.100000*%
%ADD18O,2.100000X2.100000*%
%ADD19R,1.700000X1.100000*%
%ADD20C,1.924000*%
%ADD21C,1.455599*%
G04 APERTURE END LIST*
D10*
X51540916Y63004441D02*
X88040916Y63004441D01*
X88040916Y63004441D02*
X88040916Y78004441D01*
X40916Y63004441D02*
X1040916Y63004441D01*
X50317400Y20081240D02*
X50317473Y21080131D01*
X8040916Y78004441D02*
X8040916Y63004441D01*
X44540916Y70004441D02*
X51540916Y70004441D01*
X50317473Y20083891D02*
X76793969Y20083891D01*
X40916Y25504441D02*
X18840977Y25504441D01*
X96040916Y25504441D02*
X76793969Y25504441D01*
X88040916Y78004441D02*
X95040916Y78004441D01*
X18840977Y21080131D02*
X18840977Y25504441D01*
X95040916Y78004441D02*
X95040916Y63004441D01*
X18840977Y20083891D02*
X45317473Y20083891D01*
X18840977Y-316109D02*
X18840977Y20083891D01*
X45317473Y21080131D02*
X18840977Y21080131D01*
X40916Y25504441D02*
X40916Y63004441D01*
X1040916Y63004441D02*
X1040916Y78004441D01*
X95040916Y63004441D02*
X96040916Y63004441D01*
X45313600Y20086320D02*
X45317473Y21080131D01*
X44540916Y63004441D02*
X44540916Y70004441D01*
X18840977Y-316109D02*
X76793969Y-316109D01*
X51540916Y63004441D02*
X51540916Y70004441D01*
X76793969Y25504441D02*
X76793969Y21080131D01*
X8040916Y63004441D02*
X44540916Y63004441D01*
X96040916Y63004441D02*
X96040916Y25504441D01*
X76793969Y-316109D02*
X76793969Y20083891D01*
X1040916Y78004441D02*
X8040916Y78004441D01*
X76793969Y21080131D02*
X50317473Y21080131D01*
D11*
X74259440Y20370840D03*
X21366480Y20365760D03*
D12*
X93538040Y28016200D03*
X2555240Y28011120D03*
X25186640Y1686560D03*
X40274240Y1686560D03*
X55361840Y1681480D03*
X70449440Y1681480D03*
X70449440Y18501360D03*
X25191720Y18496280D03*
X63230760Y25689560D03*
X33314640Y25679400D03*
X48041560Y66502280D03*
X91546680Y70982840D03*
D13*
X57663080Y51379120D03*
D14*
X50163080Y51379120D03*
D15*
X74000360Y38196520D03*
D16*
X74000360Y33196520D03*
D17*
X53101240Y43891200D03*
D18*
X55641240Y43891200D03*
D17*
X2245360Y60797440D03*
X46390560Y41640760D03*
X2225040Y41691560D03*
X46426120Y60726320D03*
X57871360Y34122360D03*
D18*
X57871360Y31582360D03*
D17*
X38638480Y34122360D03*
D18*
X38638480Y31582360D03*
D19*
X38506400Y26974840D03*
X38506400Y25074840D03*
X58242200Y26736080D03*
X58242200Y24836080D03*
X43865800Y57368480D03*
X43865800Y55468480D03*
X52242720Y57404040D03*
X52242720Y55504040D03*
X93583760Y66685200D03*
X93583760Y64785200D03*
X89672160Y66715640D03*
X89672160Y64815640D03*
X6482080Y66868080D03*
X6482080Y64968080D03*
X2743200Y66929040D03*
X2743200Y65029040D03*
D17*
X67670680Y38206680D03*
D18*
X67670680Y35666680D03*
X67670680Y33126680D03*
D20*
X94650560Y40137080D03*
X94650560Y30993080D03*
X79410560Y40137080D03*
X79410560Y30997080D03*
D21*
X46000920Y57425160D03*
X50000920Y57425160D03*
X50000920Y55625160D03*
X46000920Y55625160D03*
X93607640Y75284760D03*
X89607640Y75284760D03*
X89607640Y77084760D03*
X93607640Y77084760D03*
X6480560Y75284760D03*
X2480560Y75284760D03*
X2480560Y77084760D03*
X6480560Y77084760D03*
D12*
X4546600Y70967600D03*
M02*
