G04 #@! TF.FileFunction,Legend,Top*
%FSLAX46Y46*%
G04 Gerber Fmt 4.6, Leading zero omitted, Abs format (unit mm)*
G04 Created by KiCad (PCBNEW 4.0.7) date 11/25/18 15:18:33*
%MOMM*%
%LPD*%
G01*
G04 APERTURE LIST*
%ADD10C,0.100000*%
%ADD11C,0.750000*%
%ADD12C,0.200000*%
%ADD13C,2.000000*%
%ADD14C,0.120000*%
%ADD15C,0.381000*%
%ADD16C,0.150000*%
%ADD17C,0.254000*%
%ADD18C,3.600000*%
%ADD19R,1.700000X1.100000*%
%ADD20R,2.400000X2.400000*%
%ADD21C,2.400000*%
%ADD22R,2.000000X2.000000*%
%ADD23C,2.000000*%
%ADD24R,1.800000X0.860000*%
%ADD25R,2.100000X2.100000*%
%ADD26O,2.100000X2.100000*%
%ADD27R,1.100000X1.700000*%
%ADD28C,1.924000*%
%ADD29C,1.455599*%
%ADD30R,2.600000X2.200000*%
%ADD31R,1.700000X0.700000*%
G04 APERTURE END LIST*
D10*
D11*
X33331429Y12733417D02*
X33331429Y15733417D01*
X34045714Y15733417D01*
X34474286Y15590560D01*
X34760000Y15304846D01*
X34902857Y15019131D01*
X35045714Y14447703D01*
X35045714Y14019131D01*
X34902857Y13447703D01*
X34760000Y13161989D01*
X34474286Y12876274D01*
X34045714Y12733417D01*
X33331429Y12733417D01*
X36331429Y12733417D02*
X36331429Y14733417D01*
X36331429Y15733417D02*
X36188572Y15590560D01*
X36331429Y15447703D01*
X36474286Y15590560D01*
X36331429Y15733417D01*
X36331429Y15447703D01*
X37617143Y12876274D02*
X37902857Y12733417D01*
X38474285Y12733417D01*
X38760000Y12876274D01*
X38902857Y13161989D01*
X38902857Y13304846D01*
X38760000Y13590560D01*
X38474285Y13733417D01*
X38045714Y13733417D01*
X37760000Y13876274D01*
X37617143Y14161989D01*
X37617143Y14304846D01*
X37760000Y14590560D01*
X38045714Y14733417D01*
X38474285Y14733417D01*
X38760000Y14590560D01*
X41331428Y12876274D02*
X41045714Y12733417D01*
X40474285Y12733417D01*
X40188571Y12876274D01*
X40045714Y13161989D01*
X40045714Y14304846D01*
X40188571Y14590560D01*
X40474285Y14733417D01*
X41045714Y14733417D01*
X41331428Y14590560D01*
X41474285Y14304846D01*
X41474285Y14019131D01*
X40045714Y13733417D01*
X42760000Y14733417D02*
X42760000Y12733417D01*
X42760000Y14447703D02*
X42902857Y14590560D01*
X43188571Y14733417D01*
X43617143Y14733417D01*
X43902857Y14590560D01*
X44045714Y14304846D01*
X44045714Y12733417D01*
X42617143Y15447703D02*
X42760000Y15590560D01*
X43045714Y15733417D01*
X43617143Y15447703D01*
X43902857Y15590560D01*
X44045714Y15733417D01*
X46760000Y12733417D02*
X46760000Y14304846D01*
X46617143Y14590560D01*
X46331429Y14733417D01*
X45760000Y14733417D01*
X45474286Y14590560D01*
X46760000Y12876274D02*
X46474286Y12733417D01*
X45760000Y12733417D01*
X45474286Y12876274D01*
X45331429Y13161989D01*
X45331429Y13447703D01*
X45474286Y13733417D01*
X45760000Y13876274D01*
X46474286Y13876274D01*
X46760000Y14019131D01*
X49474286Y12733417D02*
X49474286Y15733417D01*
X49474286Y12876274D02*
X49188572Y12733417D01*
X48617143Y12733417D01*
X48331429Y12876274D01*
X48188572Y13019131D01*
X48045715Y13304846D01*
X48045715Y14161989D01*
X48188572Y14447703D01*
X48331429Y14590560D01*
X48617143Y14733417D01*
X49188572Y14733417D01*
X49474286Y14590560D01*
X51331429Y12733417D02*
X51045715Y12876274D01*
X50902858Y13019131D01*
X50760001Y13304846D01*
X50760001Y14161989D01*
X50902858Y14447703D01*
X51045715Y14590560D01*
X51331429Y14733417D01*
X51760001Y14733417D01*
X52045715Y14590560D01*
X52188572Y14447703D01*
X52331429Y14161989D01*
X52331429Y13304846D01*
X52188572Y13019131D01*
X52045715Y12876274D01*
X51760001Y12733417D01*
X51331429Y12733417D01*
X55902858Y14733417D02*
X55902858Y11733417D01*
X55902858Y14590560D02*
X56188572Y14733417D01*
X56760001Y14733417D01*
X57045715Y14590560D01*
X57188572Y14447703D01*
X57331429Y14161989D01*
X57331429Y13304846D01*
X57188572Y13019131D01*
X57045715Y12876274D01*
X56760001Y12733417D01*
X56188572Y12733417D01*
X55902858Y12876274D01*
X59045715Y12733417D02*
X58760001Y12876274D01*
X58617144Y13019131D01*
X58474287Y13304846D01*
X58474287Y14161989D01*
X58617144Y14447703D01*
X58760001Y14590560D01*
X59045715Y14733417D01*
X59474287Y14733417D01*
X59760001Y14590560D01*
X59902858Y14447703D01*
X60045715Y14161989D01*
X60045715Y13304846D01*
X59902858Y13019131D01*
X59760001Y12876274D01*
X59474287Y12733417D01*
X59045715Y12733417D01*
X61331430Y12733417D02*
X61331430Y14733417D01*
X61331430Y14161989D02*
X61474287Y14447703D01*
X61617144Y14590560D01*
X61902858Y14733417D01*
X62188573Y14733417D01*
X63188573Y13019131D02*
X63331430Y12876274D01*
X63188573Y12733417D01*
X63045716Y12876274D01*
X63188573Y13019131D01*
X63188573Y12733417D01*
X63188573Y14590560D02*
X63331430Y14447703D01*
X63188573Y14304846D01*
X63045716Y14447703D01*
X63188573Y14590560D01*
X63188573Y14304846D01*
X37831428Y10197703D02*
X37974285Y10340560D01*
X38259999Y10483417D01*
X38974285Y10483417D01*
X39259999Y10340560D01*
X39402856Y10197703D01*
X39545713Y9911989D01*
X39545713Y9626274D01*
X39402856Y9197703D01*
X37688570Y7483417D01*
X39545713Y7483417D01*
X41402856Y10483417D02*
X41688571Y10483417D01*
X41974285Y10340560D01*
X42117142Y10197703D01*
X42259999Y9911989D01*
X42402856Y9340560D01*
X42402856Y8626274D01*
X42259999Y8054846D01*
X42117142Y7769131D01*
X41974285Y7626274D01*
X41688571Y7483417D01*
X41402856Y7483417D01*
X41117142Y7626274D01*
X40974285Y7769131D01*
X40831428Y8054846D01*
X40688571Y8626274D01*
X40688571Y9340560D01*
X40831428Y9911989D01*
X40974285Y10197703D01*
X41117142Y10340560D01*
X41402856Y10483417D01*
X44117142Y7483417D02*
X43831428Y7626274D01*
X43688571Y7911989D01*
X43688571Y10483417D01*
X46402857Y7626274D02*
X46117143Y7483417D01*
X45545714Y7483417D01*
X45260000Y7626274D01*
X45117143Y7911989D01*
X45117143Y9054846D01*
X45260000Y9340560D01*
X45545714Y9483417D01*
X46117143Y9483417D01*
X46402857Y9340560D01*
X46545714Y9054846D01*
X46545714Y8769131D01*
X45117143Y8483417D01*
X49117143Y9483417D02*
X49117143Y7483417D01*
X47831429Y9483417D02*
X47831429Y7911989D01*
X47974286Y7626274D01*
X48260000Y7483417D01*
X48688572Y7483417D01*
X48974286Y7626274D01*
X49117143Y7769131D01*
X50545715Y9483417D02*
X50545715Y7483417D01*
X50545715Y9197703D02*
X50688572Y9340560D01*
X50974286Y9483417D01*
X51402858Y9483417D01*
X51688572Y9340560D01*
X51831429Y9054846D01*
X51831429Y7483417D01*
X54545715Y7483417D02*
X54545715Y9054846D01*
X54402858Y9340560D01*
X54117144Y9483417D01*
X53545715Y9483417D01*
X53260001Y9340560D01*
X54545715Y7626274D02*
X54260001Y7483417D01*
X53545715Y7483417D01*
X53260001Y7626274D01*
X53117144Y7911989D01*
X53117144Y8197703D01*
X53260001Y8483417D01*
X53545715Y8626274D01*
X54260001Y8626274D01*
X54545715Y8769131D01*
X55974287Y7483417D02*
X55974287Y9483417D01*
X55974287Y9197703D02*
X56117144Y9340560D01*
X56402858Y9483417D01*
X56831430Y9483417D01*
X57117144Y9340560D01*
X57260001Y9054846D01*
X57260001Y7483417D01*
X57260001Y9054846D02*
X57402858Y9340560D01*
X57688572Y9483417D01*
X58117144Y9483417D01*
X58402858Y9340560D01*
X58545715Y9054846D01*
X58545715Y7483417D01*
D12*
X85496400Y34223960D02*
X82864960Y35788600D01*
X82864960Y35788600D02*
X85496400Y37449760D01*
X90718640Y35788600D02*
X82864960Y35788600D01*
D10*
X28697246Y28687208D02*
X28497445Y28204846D01*
X29429297Y21955157D02*
X29911659Y21755356D01*
X64893039Y26282180D02*
X64682563Y26687646D01*
X33448118Y27429057D02*
X33894243Y27330695D01*
X62506482Y24100372D02*
X62942019Y23962494D01*
X31652465Y26282180D02*
X31862941Y26687646D01*
X31712434Y24944137D02*
X31574557Y25379674D01*
X31574557Y25379674D02*
X31554102Y25836056D01*
X28429297Y23687208D02*
X28497445Y23169570D01*
X29015083Y22272994D02*
X29429297Y21955157D01*
X40047752Y21687208D02*
X40047752Y29687208D01*
X62651261Y27330695D02*
X62245796Y27120218D01*
X62121471Y24346277D02*
X62506482Y24100372D01*
X28497445Y28204846D02*
X28429297Y27687208D01*
X33147104Y23942040D02*
X33603485Y23962494D01*
X62942019Y23962494D02*
X63398400Y23942040D01*
X34942757Y25088917D02*
X34732280Y24683451D01*
X33894243Y27330695D02*
X34299708Y27120218D01*
X67530421Y22272994D02*
X67116207Y21955157D01*
X29015083Y29101422D02*
X28697246Y28687208D01*
X62245796Y27120218D02*
X61908622Y26811971D01*
X34424033Y24346277D02*
X34039022Y24100372D01*
X67848258Y28687208D02*
X68048059Y28204846D01*
X66633845Y29619060D02*
X67116207Y29419259D01*
X66633845Y21755356D02*
X66116207Y21687208D01*
X64833070Y24944137D02*
X64970947Y25379674D01*
X61504385Y25535042D02*
X61602747Y25088917D01*
X64991402Y25836056D02*
X64893039Y26282180D01*
X31862941Y26687646D02*
X32171188Y27024820D01*
X31554102Y25836056D02*
X31652465Y26282180D01*
X56497752Y21687208D02*
X56497752Y29687208D01*
X40047752Y29687208D02*
X30429297Y29687208D01*
X28697246Y22687208D02*
X29015083Y22272994D01*
X63097386Y27429057D02*
X62651261Y27330695D01*
X67530421Y29101422D02*
X67848258Y28687208D01*
X61524839Y25991423D02*
X61504385Y25535042D01*
X32991736Y27408603D02*
X33448118Y27429057D01*
X64682563Y26687646D02*
X64374316Y27024820D01*
X30429297Y29687208D02*
X29911659Y29619060D01*
X63844525Y24040403D02*
X64249990Y24250879D01*
X33147104Y23942040D02*
X32700979Y24040403D01*
X63553768Y27408603D02*
X63097386Y27429057D01*
X67116207Y29419259D02*
X67530421Y29101422D01*
X56497752Y29687208D02*
X66116207Y29687208D01*
X28429297Y23687208D02*
X28429297Y27687208D01*
X66116207Y29687208D02*
X66633845Y29619060D01*
X63989305Y27270725D02*
X63553768Y27408603D01*
X29911659Y29619060D02*
X29429297Y29419259D01*
X64374316Y27024820D02*
X63989305Y27270725D01*
X35020665Y25991423D02*
X35041119Y25535042D01*
X68116207Y23687208D02*
X68048059Y23169570D01*
X32700979Y24040403D02*
X32295514Y24250879D01*
X67848258Y22687208D02*
X67530421Y22272994D01*
X64970947Y25379674D02*
X64991402Y25836056D01*
X40047752Y21687208D02*
X30429297Y21687208D01*
X35041119Y25535042D02*
X34942757Y25088917D01*
X34299708Y27120218D02*
X34636882Y26811971D01*
X64249990Y24250879D02*
X64587165Y24559126D01*
X34636882Y26811971D02*
X34882787Y26426960D01*
X29911659Y21755356D02*
X30429297Y21687208D01*
X61602747Y25088917D02*
X61813224Y24683451D01*
X61813224Y24683451D02*
X62121471Y24346277D01*
X67116207Y21955157D02*
X66633845Y21755356D01*
X68048059Y23169570D02*
X67848258Y22687208D01*
X32171188Y27024820D02*
X32556199Y27270725D01*
X56497752Y21687208D02*
X66116207Y21687208D01*
X34039022Y24100372D02*
X33603485Y23962494D01*
X68116207Y23687208D02*
X68116207Y27687208D01*
X31958339Y24559126D02*
X31712434Y24944137D01*
X28497445Y23169570D02*
X28697246Y22687208D01*
X34732280Y24683451D02*
X34424033Y24346277D01*
X61662717Y26426960D02*
X61524839Y25991423D01*
X29429297Y29419259D02*
X29015083Y29101422D01*
X61908622Y26811971D02*
X61662717Y26426960D01*
X32295514Y24250879D02*
X31958339Y24559126D01*
X32556199Y27270725D02*
X32991736Y27408603D01*
X68048059Y28204846D02*
X68116207Y27687208D01*
X34882787Y26426960D02*
X35020665Y25991423D01*
X64587165Y24559126D02*
X64833070Y24944137D01*
X63398400Y23942040D02*
X63844525Y24040403D01*
D13*
X66701164Y52291526D02*
X68129735Y51815335D01*
X68605926Y51339145D01*
X69082116Y50386764D01*
X69082116Y48958192D01*
X68605926Y48005811D01*
X68129735Y47529621D01*
X67177354Y47053430D01*
X63367830Y47053430D01*
X63367830Y57053430D01*
X66701164Y57053430D01*
X67653545Y56577240D01*
X68129735Y56101050D01*
X68605926Y55148669D01*
X68605926Y54196288D01*
X68129735Y53243907D01*
X67653545Y52767716D01*
X66701164Y52291526D01*
X63367830Y52291526D01*
X72891640Y49910573D02*
X77653545Y49910573D01*
X71939259Y47053430D02*
X75272592Y57053430D01*
X78605926Y47053430D01*
X80510688Y57053430D02*
X86224974Y57053430D01*
X83367831Y47053430D02*
X83367831Y57053430D01*
X88129736Y57053430D02*
X93844022Y57053430D01*
X90986879Y47053430D02*
X90986879Y57053430D01*
D12*
X59984640Y41945560D02*
X59979560Y62946280D01*
X95986600Y41945560D02*
X59984640Y41945560D01*
X95986600Y62946280D02*
X95986600Y41945560D01*
X59979560Y62946280D02*
X95986600Y62946280D01*
D10*
X51540916Y63004441D02*
X88040916Y63004441D01*
X88040916Y63004441D02*
X88040916Y78004441D01*
X40916Y63004441D02*
X1040916Y63004441D01*
X50317400Y20081240D02*
X50317473Y21080131D01*
X8040916Y78004441D02*
X8040916Y63004441D01*
X44540916Y70004441D02*
X51540916Y70004441D01*
X50317473Y20083891D02*
X76793969Y20083891D01*
X40916Y25504441D02*
X18840977Y25504441D01*
X96040916Y25504441D02*
X76793969Y25504441D01*
X88040916Y78004441D02*
X95040916Y78004441D01*
X18840977Y21080131D02*
X18840977Y25504441D01*
X95040916Y78004441D02*
X95040916Y63004441D01*
X18840977Y20083891D02*
X45317473Y20083891D01*
X18840977Y-316109D02*
X18840977Y20083891D01*
X45317473Y21080131D02*
X18840977Y21080131D01*
X40916Y25504441D02*
X40916Y63004441D01*
X1040916Y63004441D02*
X1040916Y78004441D01*
X95040916Y63004441D02*
X96040916Y63004441D01*
X45313600Y20086320D02*
X45317473Y21080131D01*
X44540916Y63004441D02*
X44540916Y70004441D01*
X18840977Y-316109D02*
X76793969Y-316109D01*
X51540916Y63004441D02*
X51540916Y70004441D01*
X76793969Y25504441D02*
X76793969Y21080131D01*
X8040916Y63004441D02*
X44540916Y63004441D01*
X96040916Y63004441D02*
X96040916Y25504441D01*
X76793969Y-316109D02*
X76793969Y20083891D01*
X1040916Y78004441D02*
X8040916Y78004441D01*
X76793969Y21080131D02*
X50317473Y21080131D01*
D12*
X48315880Y62651640D02*
X289560Y62738000D01*
X48336200Y39715440D02*
X48315880Y62651640D01*
X289560Y39730680D02*
X48336200Y39715440D01*
X289560Y62738000D02*
X289560Y39730680D01*
D14*
X34021920Y34712200D02*
X34021920Y33512200D01*
X32261920Y33512200D02*
X32261920Y34712200D01*
X49014643Y49995856D02*
G75*
G03X58812437Y49999120I4898437J1383264D01*
G01*
X49014643Y52762384D02*
G75*
G02X58812437Y52759120I4898437J-1383264D01*
G01*
X49014643Y52762384D02*
G75*
G03X49013723Y49999120I4898437J-1383264D01*
G01*
X53913080Y46329120D02*
X53913080Y56429120D01*
X53873080Y46329120D02*
X53873080Y56429120D01*
X53833080Y46329120D02*
X53833080Y56429120D01*
X53793080Y46330120D02*
X53793080Y56428120D01*
X53753080Y46331120D02*
X53753080Y56427120D01*
X53713080Y46332120D02*
X53713080Y56426120D01*
X53673080Y46334120D02*
X53673080Y56424120D01*
X53633080Y46336120D02*
X53633080Y56422120D01*
X53593080Y46339120D02*
X53593080Y56419120D01*
X53553080Y46341120D02*
X53553080Y56417120D01*
X53513080Y46344120D02*
X53513080Y56414120D01*
X53473080Y46348120D02*
X53473080Y56410120D01*
X53433080Y46351120D02*
X53433080Y56407120D01*
X53393080Y46355120D02*
X53393080Y56403120D01*
X53353080Y46359120D02*
X53353080Y56399120D01*
X53313080Y46364120D02*
X53313080Y56394120D01*
X53273080Y46369120D02*
X53273080Y56389120D01*
X53233080Y46374120D02*
X53233080Y56384120D01*
X53192080Y46380120D02*
X53192080Y56378120D01*
X53152080Y46386120D02*
X53152080Y56372120D01*
X53112080Y46392120D02*
X53112080Y56366120D01*
X53072080Y46398120D02*
X53072080Y56360120D01*
X53032080Y46405120D02*
X53032080Y56353120D01*
X52992080Y46412120D02*
X52992080Y56346120D01*
X52952080Y46420120D02*
X52952080Y56338120D01*
X52912080Y46428120D02*
X52912080Y56330120D01*
X52872080Y46436120D02*
X52872080Y56322120D01*
X52832080Y46444120D02*
X52832080Y56314120D01*
X52792080Y46453120D02*
X52792080Y56305120D01*
X52752080Y46462120D02*
X52752080Y56296120D01*
X52712080Y46472120D02*
X52712080Y56286120D01*
X52672080Y46482120D02*
X52672080Y56276120D01*
X52632080Y46492120D02*
X52632080Y56266120D01*
X52592080Y46503120D02*
X52592080Y56255120D01*
X52552080Y46514120D02*
X52552080Y56244120D01*
X52512080Y46525120D02*
X52512080Y56233120D01*
X52472080Y46536120D02*
X52472080Y56222120D01*
X52432080Y46548120D02*
X52432080Y56210120D01*
X52392080Y46561120D02*
X52392080Y56197120D01*
X52352080Y46573120D02*
X52352080Y56185120D01*
X52312080Y46587120D02*
X52312080Y56171120D01*
X52272080Y46600120D02*
X52272080Y56158120D01*
X52232080Y46614120D02*
X52232080Y56144120D01*
X52192080Y46628120D02*
X52192080Y56130120D01*
X52152080Y46642120D02*
X52152080Y56116120D01*
X52112080Y46657120D02*
X52112080Y56101120D01*
X52072080Y46673120D02*
X52072080Y56085120D01*
X52032080Y46688120D02*
X52032080Y56070120D01*
X51992080Y46705120D02*
X51992080Y56053120D01*
X51952080Y46721120D02*
X51952080Y56037120D01*
X51912080Y46738120D02*
X51912080Y56020120D01*
X51872080Y46755120D02*
X51872080Y56003120D01*
X51832080Y46773120D02*
X51832080Y55985120D01*
X51792080Y46791120D02*
X51792080Y55967120D01*
X51752080Y46810120D02*
X51752080Y55948120D01*
X51712080Y46829120D02*
X51712080Y55929120D01*
X51672080Y46848120D02*
X51672080Y55910120D01*
X51632080Y46868120D02*
X51632080Y55890120D01*
X51592080Y46888120D02*
X51592080Y55870120D01*
X51552080Y46909120D02*
X51552080Y55849120D01*
X51512080Y46930120D02*
X51512080Y55828120D01*
X51472080Y46951120D02*
X51472080Y55807120D01*
X51432080Y46974120D02*
X51432080Y55784120D01*
X51392080Y46996120D02*
X51392080Y55762120D01*
X51352080Y47019120D02*
X51352080Y55739120D01*
X51312080Y47043120D02*
X51312080Y50198120D01*
X51312080Y52560120D02*
X51312080Y55715120D01*
X51272080Y47067120D02*
X51272080Y50198120D01*
X51272080Y52560120D02*
X51272080Y55691120D01*
X51232080Y47091120D02*
X51232080Y50198120D01*
X51232080Y52560120D02*
X51232080Y55667120D01*
X51192080Y47116120D02*
X51192080Y50198120D01*
X51192080Y52560120D02*
X51192080Y55642120D01*
X51152080Y47142120D02*
X51152080Y50198120D01*
X51152080Y52560120D02*
X51152080Y55616120D01*
X51112080Y47168120D02*
X51112080Y50198120D01*
X51112080Y52560120D02*
X51112080Y55590120D01*
X51072080Y47194120D02*
X51072080Y50198120D01*
X51072080Y52560120D02*
X51072080Y55564120D01*
X51032080Y47222120D02*
X51032080Y50198120D01*
X51032080Y52560120D02*
X51032080Y55536120D01*
X50992080Y47249120D02*
X50992080Y50198120D01*
X50992080Y52560120D02*
X50992080Y55509120D01*
X50952080Y47278120D02*
X50952080Y50198120D01*
X50952080Y52560120D02*
X50952080Y55480120D01*
X50912080Y47307120D02*
X50912080Y50198120D01*
X50912080Y52560120D02*
X50912080Y55451120D01*
X50872080Y47336120D02*
X50872080Y50198120D01*
X50872080Y52560120D02*
X50872080Y55422120D01*
X50832080Y47366120D02*
X50832080Y50198120D01*
X50832080Y52560120D02*
X50832080Y55392120D01*
X50792080Y47397120D02*
X50792080Y50198120D01*
X50792080Y52560120D02*
X50792080Y55361120D01*
X50752080Y47428120D02*
X50752080Y50198120D01*
X50752080Y52560120D02*
X50752080Y55330120D01*
X50712080Y47460120D02*
X50712080Y50198120D01*
X50712080Y52560120D02*
X50712080Y55298120D01*
X50672080Y47493120D02*
X50672080Y50198120D01*
X50672080Y52560120D02*
X50672080Y55265120D01*
X50632080Y47526120D02*
X50632080Y50198120D01*
X50632080Y52560120D02*
X50632080Y55232120D01*
X50592080Y47560120D02*
X50592080Y50198120D01*
X50592080Y52560120D02*
X50592080Y55198120D01*
X50552080Y47595120D02*
X50552080Y50198120D01*
X50552080Y52560120D02*
X50552080Y55163120D01*
X50512080Y47631120D02*
X50512080Y50198120D01*
X50512080Y52560120D02*
X50512080Y55127120D01*
X50472080Y47667120D02*
X50472080Y50198120D01*
X50472080Y52560120D02*
X50472080Y55091120D01*
X50432080Y47704120D02*
X50432080Y50198120D01*
X50432080Y52560120D02*
X50432080Y55054120D01*
X50392080Y47742120D02*
X50392080Y50198120D01*
X50392080Y52560120D02*
X50392080Y55016120D01*
X50352080Y47781120D02*
X50352080Y50198120D01*
X50352080Y52560120D02*
X50352080Y54977120D01*
X50312080Y47820120D02*
X50312080Y50198120D01*
X50312080Y52560120D02*
X50312080Y54938120D01*
X50272080Y47861120D02*
X50272080Y50198120D01*
X50272080Y52560120D02*
X50272080Y54897120D01*
X50232080Y47902120D02*
X50232080Y50198120D01*
X50232080Y52560120D02*
X50232080Y54856120D01*
X50192080Y47944120D02*
X50192080Y50198120D01*
X50192080Y52560120D02*
X50192080Y54814120D01*
X50152080Y47988120D02*
X50152080Y50198120D01*
X50152080Y52560120D02*
X50152080Y54770120D01*
X50112080Y48032120D02*
X50112080Y50198120D01*
X50112080Y52560120D02*
X50112080Y54726120D01*
X50072080Y48077120D02*
X50072080Y50198120D01*
X50072080Y52560120D02*
X50072080Y54681120D01*
X50032080Y48124120D02*
X50032080Y50198120D01*
X50032080Y52560120D02*
X50032080Y54634120D01*
X49992080Y48172120D02*
X49992080Y50198120D01*
X49992080Y52560120D02*
X49992080Y54586120D01*
X49952080Y48221120D02*
X49952080Y50198120D01*
X49952080Y52560120D02*
X49952080Y54537120D01*
X49912080Y48271120D02*
X49912080Y50198120D01*
X49912080Y52560120D02*
X49912080Y54487120D01*
X49872080Y48322120D02*
X49872080Y50198120D01*
X49872080Y52560120D02*
X49872080Y54436120D01*
X49832080Y48375120D02*
X49832080Y50198120D01*
X49832080Y52560120D02*
X49832080Y54383120D01*
X49792080Y48430120D02*
X49792080Y50198120D01*
X49792080Y52560120D02*
X49792080Y54328120D01*
X49752080Y48485120D02*
X49752080Y50198120D01*
X49752080Y52560120D02*
X49752080Y54273120D01*
X49712080Y48543120D02*
X49712080Y50198120D01*
X49712080Y52560120D02*
X49712080Y54215120D01*
X49672080Y48602120D02*
X49672080Y50198120D01*
X49672080Y52560120D02*
X49672080Y54156120D01*
X49632080Y48664120D02*
X49632080Y50198120D01*
X49632080Y52560120D02*
X49632080Y54094120D01*
X49592080Y48727120D02*
X49592080Y50198120D01*
X49592080Y52560120D02*
X49592080Y54031120D01*
X49552080Y48792120D02*
X49552080Y50198120D01*
X49552080Y52560120D02*
X49552080Y53966120D01*
X49512080Y48860120D02*
X49512080Y50198120D01*
X49512080Y52560120D02*
X49512080Y53898120D01*
X49472080Y48930120D02*
X49472080Y50198120D01*
X49472080Y52560120D02*
X49472080Y53828120D01*
X49432080Y49002120D02*
X49432080Y50198120D01*
X49432080Y52560120D02*
X49432080Y53756120D01*
X49392080Y49078120D02*
X49392080Y50198120D01*
X49392080Y52560120D02*
X49392080Y53680120D01*
X49352080Y49157120D02*
X49352080Y50198120D01*
X49352080Y52560120D02*
X49352080Y53601120D01*
X49312080Y49239120D02*
X49312080Y50198120D01*
X49312080Y52560120D02*
X49312080Y53519120D01*
X49272080Y49326120D02*
X49272080Y50198120D01*
X49272080Y52560120D02*
X49272080Y53432120D01*
X49232080Y49417120D02*
X49232080Y50198120D01*
X49232080Y52560120D02*
X49232080Y53341120D01*
X49192080Y49513120D02*
X49192080Y50198120D01*
X49192080Y52560120D02*
X49192080Y53245120D01*
X49152080Y49616120D02*
X49152080Y50198120D01*
X49152080Y52560120D02*
X49152080Y53142120D01*
X49112080Y49725120D02*
X49112080Y50198120D01*
X49112080Y52560120D02*
X49112080Y53033120D01*
X49072080Y49843120D02*
X49072080Y50198120D01*
X49072080Y52560120D02*
X49072080Y52915120D01*
X49032080Y49972120D02*
X49032080Y50198120D01*
X49032080Y52560120D02*
X49032080Y52786120D01*
X48992080Y50114120D02*
X48992080Y50198120D01*
X48992080Y52560120D02*
X48992080Y52644120D01*
X48952080Y50275120D02*
X48952080Y52483120D01*
X48912080Y50466120D02*
X48912080Y52292120D01*
X48872080Y50707120D02*
X48872080Y52051120D01*
X48832080Y51100120D02*
X48832080Y51658120D01*
X60363080Y51379120D02*
X58863080Y51379120D01*
X59613080Y50629120D02*
X59613080Y52129120D01*
X75177805Y31779669D02*
G75*
G03X75180360Y39612602I-1177445J3916851D01*
G01*
X72822915Y31779669D02*
G75*
G02X72820360Y39612602I1177445J3916851D01*
G01*
X72822915Y31779669D02*
G75*
G03X75180360Y31780438I1177445J3916851D01*
G01*
X78050360Y35696520D02*
X69950360Y35696520D01*
X78050360Y35656520D02*
X69950360Y35656520D01*
X78050360Y35616520D02*
X69950360Y35616520D01*
X78049360Y35576520D02*
X69951360Y35576520D01*
X78047360Y35536520D02*
X69953360Y35536520D01*
X78046360Y35496520D02*
X69954360Y35496520D01*
X78043360Y35456520D02*
X69957360Y35456520D01*
X78041360Y35416520D02*
X69959360Y35416520D01*
X78038360Y35376520D02*
X69962360Y35376520D01*
X78035360Y35336520D02*
X69965360Y35336520D01*
X78031360Y35296520D02*
X69969360Y35296520D01*
X78027360Y35256520D02*
X69973360Y35256520D01*
X78022360Y35216520D02*
X69978360Y35216520D01*
X78017360Y35176520D02*
X69983360Y35176520D01*
X78012360Y35136520D02*
X69988360Y35136520D01*
X78006360Y35096520D02*
X69994360Y35096520D01*
X78000360Y35056520D02*
X70000360Y35056520D01*
X77994360Y35016520D02*
X70006360Y35016520D01*
X77987360Y34975520D02*
X70013360Y34975520D01*
X77979360Y34935520D02*
X70021360Y34935520D01*
X77971360Y34895520D02*
X70029360Y34895520D01*
X77963360Y34855520D02*
X70037360Y34855520D01*
X77955360Y34815520D02*
X70045360Y34815520D01*
X77946360Y34775520D02*
X70054360Y34775520D01*
X77936360Y34735520D02*
X70064360Y34735520D01*
X77926360Y34695520D02*
X70074360Y34695520D01*
X77916360Y34655520D02*
X70084360Y34655520D01*
X77905360Y34615520D02*
X70095360Y34615520D01*
X77894360Y34575520D02*
X70106360Y34575520D01*
X77883360Y34535520D02*
X70117360Y34535520D01*
X77870360Y34495520D02*
X70130360Y34495520D01*
X77858360Y34455520D02*
X70142360Y34455520D01*
X77845360Y34415520D02*
X70155360Y34415520D01*
X77832360Y34375520D02*
X70168360Y34375520D01*
X77818360Y34335520D02*
X70182360Y34335520D01*
X77803360Y34295520D02*
X70197360Y34295520D01*
X77789360Y34255520D02*
X70211360Y34255520D01*
X77773360Y34215520D02*
X70227360Y34215520D01*
X77758360Y34175520D02*
X74980360Y34175520D01*
X73020360Y34175520D02*
X70242360Y34175520D01*
X77741360Y34135520D02*
X74980360Y34135520D01*
X73020360Y34135520D02*
X70259360Y34135520D01*
X77725360Y34095520D02*
X74980360Y34095520D01*
X73020360Y34095520D02*
X70275360Y34095520D01*
X77707360Y34055520D02*
X74980360Y34055520D01*
X73020360Y34055520D02*
X70293360Y34055520D01*
X77690360Y34015520D02*
X74980360Y34015520D01*
X73020360Y34015520D02*
X70310360Y34015520D01*
X77671360Y33975520D02*
X74980360Y33975520D01*
X73020360Y33975520D02*
X70329360Y33975520D01*
X77652360Y33935520D02*
X74980360Y33935520D01*
X73020360Y33935520D02*
X70348360Y33935520D01*
X77633360Y33895520D02*
X74980360Y33895520D01*
X73020360Y33895520D02*
X70367360Y33895520D01*
X77613360Y33855520D02*
X74980360Y33855520D01*
X73020360Y33855520D02*
X70387360Y33855520D01*
X77593360Y33815520D02*
X74980360Y33815520D01*
X73020360Y33815520D02*
X70407360Y33815520D01*
X77572360Y33775520D02*
X74980360Y33775520D01*
X73020360Y33775520D02*
X70428360Y33775520D01*
X77550360Y33735520D02*
X74980360Y33735520D01*
X73020360Y33735520D02*
X70450360Y33735520D01*
X77528360Y33695520D02*
X74980360Y33695520D01*
X73020360Y33695520D02*
X70472360Y33695520D01*
X77505360Y33655520D02*
X74980360Y33655520D01*
X73020360Y33655520D02*
X70495360Y33655520D01*
X77482360Y33615520D02*
X74980360Y33615520D01*
X73020360Y33615520D02*
X70518360Y33615520D01*
X77458360Y33575520D02*
X74980360Y33575520D01*
X73020360Y33575520D02*
X70542360Y33575520D01*
X77434360Y33535520D02*
X74980360Y33535520D01*
X73020360Y33535520D02*
X70566360Y33535520D01*
X77408360Y33495520D02*
X74980360Y33495520D01*
X73020360Y33495520D02*
X70592360Y33495520D01*
X77383360Y33455520D02*
X74980360Y33455520D01*
X73020360Y33455520D02*
X70617360Y33455520D01*
X77356360Y33415520D02*
X74980360Y33415520D01*
X73020360Y33415520D02*
X70644360Y33415520D01*
X77329360Y33375520D02*
X74980360Y33375520D01*
X73020360Y33375520D02*
X70671360Y33375520D01*
X77301360Y33335520D02*
X74980360Y33335520D01*
X73020360Y33335520D02*
X70699360Y33335520D01*
X77272360Y33295520D02*
X74980360Y33295520D01*
X73020360Y33295520D02*
X70728360Y33295520D01*
X77243360Y33255520D02*
X74980360Y33255520D01*
X73020360Y33255520D02*
X70757360Y33255520D01*
X77213360Y33215520D02*
X74980360Y33215520D01*
X73020360Y33215520D02*
X70787360Y33215520D01*
X77182360Y33175520D02*
X74980360Y33175520D01*
X73020360Y33175520D02*
X70818360Y33175520D01*
X77150360Y33135520D02*
X74980360Y33135520D01*
X73020360Y33135520D02*
X70850360Y33135520D01*
X77118360Y33095520D02*
X74980360Y33095520D01*
X73020360Y33095520D02*
X70882360Y33095520D01*
X77084360Y33055520D02*
X74980360Y33055520D01*
X73020360Y33055520D02*
X70916360Y33055520D01*
X77050360Y33015520D02*
X74980360Y33015520D01*
X73020360Y33015520D02*
X70950360Y33015520D01*
X77015360Y32975520D02*
X74980360Y32975520D01*
X73020360Y32975520D02*
X70985360Y32975520D01*
X76979360Y32935520D02*
X74980360Y32935520D01*
X73020360Y32935520D02*
X71021360Y32935520D01*
X76942360Y32895520D02*
X74980360Y32895520D01*
X73020360Y32895520D02*
X71058360Y32895520D01*
X76904360Y32855520D02*
X74980360Y32855520D01*
X73020360Y32855520D02*
X71096360Y32855520D01*
X76865360Y32815520D02*
X74980360Y32815520D01*
X73020360Y32815520D02*
X71135360Y32815520D01*
X76824360Y32775520D02*
X74980360Y32775520D01*
X73020360Y32775520D02*
X71176360Y32775520D01*
X76783360Y32735520D02*
X74980360Y32735520D01*
X73020360Y32735520D02*
X71217360Y32735520D01*
X76740360Y32695520D02*
X74980360Y32695520D01*
X73020360Y32695520D02*
X71260360Y32695520D01*
X76697360Y32655520D02*
X74980360Y32655520D01*
X73020360Y32655520D02*
X71303360Y32655520D01*
X76652360Y32615520D02*
X74980360Y32615520D01*
X73020360Y32615520D02*
X71348360Y32615520D01*
X76605360Y32575520D02*
X74980360Y32575520D01*
X73020360Y32575520D02*
X71395360Y32575520D01*
X76557360Y32535520D02*
X74980360Y32535520D01*
X73020360Y32535520D02*
X71443360Y32535520D01*
X76508360Y32495520D02*
X74980360Y32495520D01*
X73020360Y32495520D02*
X71492360Y32495520D01*
X76457360Y32455520D02*
X74980360Y32455520D01*
X73020360Y32455520D02*
X71543360Y32455520D01*
X76404360Y32415520D02*
X74980360Y32415520D01*
X73020360Y32415520D02*
X71596360Y32415520D01*
X76349360Y32375520D02*
X74980360Y32375520D01*
X73020360Y32375520D02*
X71651360Y32375520D01*
X76293360Y32335520D02*
X74980360Y32335520D01*
X73020360Y32335520D02*
X71707360Y32335520D01*
X76234360Y32295520D02*
X74980360Y32295520D01*
X73020360Y32295520D02*
X71766360Y32295520D01*
X76173360Y32255520D02*
X74980360Y32255520D01*
X73020360Y32255520D02*
X71827360Y32255520D01*
X76109360Y32215520D02*
X71891360Y32215520D01*
X76043360Y32175520D02*
X71957360Y32175520D01*
X75974360Y32135520D02*
X72026360Y32135520D01*
X75902360Y32095520D02*
X72098360Y32095520D01*
X75826360Y32055520D02*
X72174360Y32055520D01*
X75745360Y32015520D02*
X72255360Y32015520D01*
X75660360Y31975520D02*
X72340360Y31975520D01*
X75570360Y31935520D02*
X72430360Y31935520D01*
X75473360Y31895520D02*
X72527360Y31895520D01*
X75369360Y31855520D02*
X72631360Y31855520D01*
X75254360Y31815520D02*
X72746360Y31815520D01*
X75127360Y31775520D02*
X72873360Y31775520D01*
X74983360Y31735520D02*
X73017360Y31735520D01*
X74814360Y31695520D02*
X73186360Y31695520D01*
X74598360Y31655520D02*
X73402360Y31655520D01*
X74246360Y31615520D02*
X73754360Y31615520D01*
X74000360Y40396520D02*
X74000360Y39196520D01*
X74650360Y39796520D02*
X73350360Y39796520D01*
D15*
X53010000Y23289120D02*
G75*
G03X53010000Y23289120I-750000J0D01*
G01*
X53760000Y22789120D02*
X53760000Y37789120D01*
X53760000Y37789120D02*
X42760000Y37789120D01*
X42760000Y37789120D02*
X42760000Y21789120D01*
X42760000Y21789120D02*
X52760000Y21789120D01*
X52760000Y21789120D02*
X53760000Y22789120D01*
D14*
X56971240Y42561200D02*
X56971240Y45221200D01*
X54371240Y42561200D02*
X56971240Y42561200D01*
X54371240Y45221200D02*
X56971240Y45221200D01*
X54371240Y42561200D02*
X54371240Y45221200D01*
X53101240Y42561200D02*
X51771240Y42561200D01*
X51771240Y42561200D02*
X51771240Y43891200D01*
X915360Y59527440D02*
X915360Y59467440D01*
X915360Y59467440D02*
X3575360Y59467440D01*
X3575360Y59467440D02*
X3575360Y59527440D01*
X3575360Y59527440D02*
X915360Y59527440D01*
X915360Y60797440D02*
X915360Y62127440D01*
X915360Y62127440D02*
X2245360Y62127440D01*
X45060560Y40370760D02*
X45060560Y40310760D01*
X45060560Y40310760D02*
X47720560Y40310760D01*
X47720560Y40310760D02*
X47720560Y40370760D01*
X47720560Y40370760D02*
X45060560Y40370760D01*
X45060560Y41640760D02*
X45060560Y42970760D01*
X45060560Y42970760D02*
X46390560Y42970760D01*
X895040Y40421560D02*
X895040Y40361560D01*
X895040Y40361560D02*
X3555040Y40361560D01*
X3555040Y40361560D02*
X3555040Y40421560D01*
X3555040Y40421560D02*
X895040Y40421560D01*
X895040Y41691560D02*
X895040Y43021560D01*
X895040Y43021560D02*
X2225040Y43021560D01*
X45096120Y59456320D02*
X45096120Y59396320D01*
X45096120Y59396320D02*
X47756120Y59396320D01*
X47756120Y59396320D02*
X47756120Y59456320D01*
X47756120Y59456320D02*
X45096120Y59456320D01*
X45096120Y60726320D02*
X45096120Y62056320D01*
X45096120Y62056320D02*
X46426120Y62056320D01*
X56541360Y32852360D02*
X56541360Y30252360D01*
X56541360Y30252360D02*
X59201360Y30252360D01*
X59201360Y30252360D02*
X59201360Y32852360D01*
X59201360Y32852360D02*
X56541360Y32852360D01*
X56541360Y34122360D02*
X56541360Y35452360D01*
X56541360Y35452360D02*
X57871360Y35452360D01*
X37308480Y32852360D02*
X37308480Y30252360D01*
X37308480Y30252360D02*
X39968480Y30252360D01*
X39968480Y30252360D02*
X39968480Y32852360D01*
X39968480Y32852360D02*
X37308480Y32852360D01*
X37308480Y34122360D02*
X37308480Y35452360D01*
X37308480Y35452360D02*
X38638480Y35452360D01*
X54492600Y41464120D02*
X55692600Y41464120D01*
X55692600Y39704120D02*
X54492600Y39704120D01*
X51185520Y41464120D02*
X52385520Y41464120D01*
X52385520Y39704120D02*
X51185520Y39704120D01*
X36292680Y34773160D02*
X36292680Y33573160D01*
X34532680Y33573160D02*
X34532680Y34773160D01*
X66340680Y36936680D02*
X66340680Y31796680D01*
X66340680Y31796680D02*
X69000680Y31796680D01*
X69000680Y31796680D02*
X69000680Y36936680D01*
X69000680Y36936680D02*
X66340680Y36936680D01*
X66340680Y38206680D02*
X66340680Y39536680D01*
X66340680Y39536680D02*
X67670680Y39536680D01*
D16*
X93380560Y40137080D02*
G75*
G03X94650560Y38867080I1270000J0D01*
G01*
X94650560Y32517080D02*
G75*
G03X93380560Y31247080I0J-1270000D01*
G01*
X80680560Y31247080D02*
G75*
G03X79410560Y32517080I-1270000J0D01*
G01*
X79410560Y38867080D02*
G75*
G03X80680560Y40137080I0J1270000D01*
G01*
X93380560Y40137080D02*
X80680560Y40137080D01*
X79410560Y32517080D02*
X79410560Y38867080D01*
X93380560Y31247080D02*
X80680560Y31247080D01*
X94650560Y32517080D02*
X94650560Y38867080D01*
D14*
X14811680Y29734800D02*
X14811680Y28244800D01*
X14811680Y28244800D02*
X16151680Y28244800D01*
X14811680Y36054800D02*
X14811680Y37544800D01*
X14811680Y37544800D02*
X16151680Y37544800D01*
X18871680Y28244800D02*
X20611680Y28244800D01*
X20611680Y28244800D02*
X20611680Y37544800D01*
X20611680Y37544800D02*
X18871680Y37544800D01*
X14811680Y29734800D02*
X13611680Y29734800D01*
D16*
X32082503Y31323019D02*
X31749169Y31799210D01*
X31511074Y31323019D02*
X31511074Y32323019D01*
X31892027Y32323019D01*
X31987265Y32275400D01*
X32034884Y32227781D01*
X32082503Y32132543D01*
X32082503Y31989686D01*
X32034884Y31894448D01*
X31987265Y31846829D01*
X31892027Y31799210D01*
X31511074Y31799210D01*
X33034884Y31323019D02*
X32463455Y31323019D01*
X32749169Y31323019D02*
X32749169Y32323019D01*
X32653931Y32180162D01*
X32558693Y32084924D01*
X32463455Y32037305D01*
X33653931Y32323019D02*
X33749170Y32323019D01*
X33844408Y32275400D01*
X33892027Y32227781D01*
X33939646Y32132543D01*
X33987265Y31942067D01*
X33987265Y31703971D01*
X33939646Y31513495D01*
X33892027Y31418257D01*
X33844408Y31370638D01*
X33749170Y31323019D01*
X33653931Y31323019D01*
X33558693Y31370638D01*
X33511074Y31418257D01*
X33463455Y31513495D01*
X33415836Y31703971D01*
X33415836Y31942067D01*
X33463455Y32132543D01*
X33511074Y32227781D01*
X33558693Y32275400D01*
X33653931Y32323019D01*
X55301854Y47928257D02*
X55254235Y47880638D01*
X55111378Y47833019D01*
X55016140Y47833019D01*
X54873282Y47880638D01*
X54778044Y47975876D01*
X54730425Y48071114D01*
X54682806Y48261590D01*
X54682806Y48404448D01*
X54730425Y48594924D01*
X54778044Y48690162D01*
X54873282Y48785400D01*
X55016140Y48833019D01*
X55111378Y48833019D01*
X55254235Y48785400D01*
X55301854Y48737781D01*
X56254235Y47833019D02*
X55682806Y47833019D01*
X55968520Y47833019D02*
X55968520Y48833019D01*
X55873282Y48690162D01*
X55778044Y48594924D01*
X55682806Y48547305D01*
X76190814Y36432217D02*
X76143195Y36384598D01*
X76000338Y36336979D01*
X75905100Y36336979D01*
X75762242Y36384598D01*
X75667004Y36479836D01*
X75619385Y36575074D01*
X75571766Y36765550D01*
X75571766Y36908408D01*
X75619385Y37098884D01*
X75667004Y37194122D01*
X75762242Y37289360D01*
X75905100Y37336979D01*
X76000338Y37336979D01*
X76143195Y37289360D01*
X76190814Y37241741D01*
X76571766Y37241741D02*
X76619385Y37289360D01*
X76714623Y37336979D01*
X76952719Y37336979D01*
X77047957Y37289360D01*
X77095576Y37241741D01*
X77143195Y37146503D01*
X77143195Y37051265D01*
X77095576Y36908408D01*
X76524147Y36336979D01*
X77143195Y36336979D01*
D17*
X54018191Y22579501D02*
X54018191Y23595501D01*
X55082572Y22676263D02*
X55034191Y22627882D01*
X54889048Y22579501D01*
X54792286Y22579501D01*
X54647144Y22627882D01*
X54550382Y22724644D01*
X54502001Y22821406D01*
X54453620Y23014930D01*
X54453620Y23160072D01*
X54502001Y23353596D01*
X54550382Y23450358D01*
X54647144Y23547120D01*
X54792286Y23595501D01*
X54889048Y23595501D01*
X55034191Y23547120D01*
X55082572Y23498739D01*
X56050191Y22579501D02*
X55469620Y22579501D01*
X55759906Y22579501D02*
X55759906Y23595501D01*
X55663144Y23450358D01*
X55566382Y23353596D01*
X55469620Y23305215D01*
X48978699Y27904198D02*
X48978699Y27420389D01*
X47962699Y27420389D01*
X47962699Y28678293D02*
X47962699Y28484770D01*
X48011080Y28388008D01*
X48059461Y28339627D01*
X48204604Y28242865D01*
X48398128Y28194484D01*
X48785175Y28194484D01*
X48881937Y28242865D01*
X48930318Y28291246D01*
X48978699Y28388008D01*
X48978699Y28581531D01*
X48930318Y28678293D01*
X48881937Y28726674D01*
X48785175Y28775055D01*
X48543270Y28775055D01*
X48446509Y28726674D01*
X48398128Y28678293D01*
X48349747Y28581531D01*
X48349747Y28388008D01*
X48398128Y28291246D01*
X48446509Y28242865D01*
X48543270Y28194484D01*
X48059461Y29162103D02*
X48011080Y29210484D01*
X47962699Y29307246D01*
X47962699Y29549150D01*
X48011080Y29645912D01*
X48059461Y29694293D01*
X48156223Y29742674D01*
X48252985Y29742674D01*
X48398128Y29694293D01*
X48978699Y29113722D01*
X48978699Y29742674D01*
X47962699Y30371627D02*
X47962699Y30468388D01*
X48011080Y30565150D01*
X48059461Y30613531D01*
X48156223Y30661912D01*
X48349747Y30710293D01*
X48591651Y30710293D01*
X48785175Y30661912D01*
X48881937Y30613531D01*
X48930318Y30565150D01*
X48978699Y30468388D01*
X48978699Y30371627D01*
X48930318Y30274865D01*
X48881937Y30226484D01*
X48785175Y30178103D01*
X48591651Y30129722D01*
X48349747Y30129722D01*
X48156223Y30178103D01*
X48059461Y30226484D01*
X48011080Y30274865D01*
X47962699Y30371627D01*
X47962699Y31629531D02*
X47962699Y31145722D01*
X48446509Y31097341D01*
X48398128Y31145722D01*
X48349747Y31242484D01*
X48349747Y31484388D01*
X48398128Y31581150D01*
X48446509Y31629531D01*
X48543270Y31677912D01*
X48785175Y31677912D01*
X48881937Y31629531D01*
X48930318Y31581150D01*
X48978699Y31484388D01*
X48978699Y31242484D01*
X48930318Y31145722D01*
X48881937Y31097341D01*
X48978699Y32113341D02*
X47962699Y32113341D01*
X47962699Y32500388D01*
X48011080Y32597150D01*
X48059461Y32645531D01*
X48156223Y32693912D01*
X48301366Y32693912D01*
X48398128Y32645531D01*
X48446509Y32597150D01*
X48494890Y32500388D01*
X48494890Y32113341D01*
X48978699Y33129341D02*
X47962699Y33129341D01*
X47962699Y33371246D01*
X48011080Y33516388D01*
X48107842Y33613150D01*
X48204604Y33661531D01*
X48398128Y33709912D01*
X48543270Y33709912D01*
X48736794Y33661531D01*
X48833556Y33613150D01*
X48930318Y33516388D01*
X48978699Y33371246D01*
X48978699Y33129341D01*
D16*
X50223621Y43557867D02*
X50937907Y43557867D01*
X51080764Y43510247D01*
X51176002Y43415009D01*
X51223621Y43272152D01*
X51223621Y43176914D01*
X50223621Y43938819D02*
X50223621Y44557867D01*
X50604573Y44224533D01*
X50604573Y44367391D01*
X50652192Y44462629D01*
X50699811Y44510248D01*
X50795050Y44557867D01*
X51033145Y44557867D01*
X51128383Y44510248D01*
X51176002Y44462629D01*
X51223621Y44367391D01*
X51223621Y44081676D01*
X51176002Y43986438D01*
X51128383Y43938819D01*
X4664913Y60329819D02*
X4664913Y61329819D01*
X5141103Y60329819D02*
X5141103Y61329819D01*
X5712532Y60329819D01*
X5712532Y61329819D01*
X6188722Y60710771D02*
X6950627Y60710771D01*
X6569675Y60329819D02*
X6569675Y61091724D01*
X7950627Y60329819D02*
X7379198Y60329819D01*
X7664912Y60329819D02*
X7664912Y61329819D01*
X7569674Y61186962D01*
X7474436Y61091724D01*
X7379198Y61044105D01*
X46057227Y44518379D02*
X46057227Y43804093D01*
X46009607Y43661236D01*
X45914369Y43565998D01*
X45771512Y43518379D01*
X45676274Y43518379D01*
X46961989Y44518379D02*
X46771512Y44518379D01*
X46676274Y44470760D01*
X46628655Y44423141D01*
X46533417Y44280284D01*
X46485798Y44089808D01*
X46485798Y43708855D01*
X46533417Y43613617D01*
X46581036Y43565998D01*
X46676274Y43518379D01*
X46866751Y43518379D01*
X46961989Y43565998D01*
X47009608Y43613617D01*
X47057227Y43708855D01*
X47057227Y43946950D01*
X47009608Y44042189D01*
X46961989Y44089808D01*
X46866751Y44137427D01*
X46676274Y44137427D01*
X46581036Y44089808D01*
X46533417Y44042189D01*
X46485798Y43946950D01*
X1891707Y44569179D02*
X1891707Y43854893D01*
X1844087Y43712036D01*
X1748849Y43616798D01*
X1605992Y43569179D01*
X1510754Y43569179D01*
X2272659Y44569179D02*
X2939326Y44569179D01*
X2510754Y43569179D01*
X39890962Y61273939D02*
X40081439Y61273939D01*
X40176677Y61226320D01*
X40271915Y61131082D01*
X40319534Y60940606D01*
X40319534Y60607272D01*
X40271915Y60416796D01*
X40176677Y60321558D01*
X40081439Y60273939D01*
X39890962Y60273939D01*
X39795724Y60321558D01*
X39700486Y60416796D01*
X39652867Y60607272D01*
X39652867Y60940606D01*
X39700486Y61131082D01*
X39795724Y61226320D01*
X39890962Y61273939D01*
X40748105Y61273939D02*
X40748105Y60464415D01*
X40795724Y60369177D01*
X40843343Y60321558D01*
X40938581Y60273939D01*
X41129058Y60273939D01*
X41224296Y60321558D01*
X41271915Y60369177D01*
X41319534Y60464415D01*
X41319534Y61273939D01*
X41652867Y61273939D02*
X42224296Y61273939D01*
X41938581Y60273939D02*
X41938581Y61273939D01*
X42557629Y60654891D02*
X43319534Y60654891D01*
X42938582Y60273939D02*
X42938582Y61035844D01*
X44319534Y60273939D02*
X43748105Y60273939D01*
X44033819Y60273939D02*
X44033819Y61273939D01*
X43938581Y61131082D01*
X43843343Y61035844D01*
X43748105Y60988225D01*
X57538027Y36999979D02*
X57538027Y36285693D01*
X57490407Y36142836D01*
X57395169Y36047598D01*
X57252312Y35999979D01*
X57157074Y35999979D01*
X58061836Y35999979D02*
X58252312Y35999979D01*
X58347551Y36047598D01*
X58395170Y36095217D01*
X58490408Y36238074D01*
X58538027Y36428550D01*
X58538027Y36809503D01*
X58490408Y36904741D01*
X58442789Y36952360D01*
X58347551Y36999979D01*
X58157074Y36999979D01*
X58061836Y36952360D01*
X58014217Y36904741D01*
X57966598Y36809503D01*
X57966598Y36571408D01*
X58014217Y36476170D01*
X58061836Y36428550D01*
X58157074Y36380931D01*
X58347551Y36380931D01*
X58442789Y36428550D01*
X58490408Y36476170D01*
X58538027Y36571408D01*
X37828957Y36999979D02*
X37828957Y36285693D01*
X37781337Y36142836D01*
X37686099Y36047598D01*
X37543242Y35999979D01*
X37448004Y35999979D01*
X38828957Y35999979D02*
X38257528Y35999979D01*
X38543242Y35999979D02*
X38543242Y36999979D01*
X38448004Y36857122D01*
X38352766Y36761884D01*
X38257528Y36714265D01*
X39448004Y36999979D02*
X39543243Y36999979D01*
X39638481Y36952360D01*
X39686100Y36904741D01*
X39733719Y36809503D01*
X39781338Y36619027D01*
X39781338Y36380931D01*
X39733719Y36190455D01*
X39686100Y36095217D01*
X39638481Y36047598D01*
X39543243Y35999979D01*
X39448004Y35999979D01*
X39352766Y36047598D01*
X39305147Y36095217D01*
X39257528Y36190455D01*
X39209909Y36380931D01*
X39209909Y36619027D01*
X39257528Y36809503D01*
X39305147Y36904741D01*
X39352766Y36952360D01*
X39448004Y36999979D01*
X54925934Y38481739D02*
X54592600Y38957930D01*
X54354505Y38481739D02*
X54354505Y39481739D01*
X54735458Y39481739D01*
X54830696Y39434120D01*
X54878315Y39386501D01*
X54925934Y39291263D01*
X54925934Y39148406D01*
X54878315Y39053168D01*
X54830696Y39005549D01*
X54735458Y38957930D01*
X54354505Y38957930D01*
X55878315Y38481739D02*
X55306886Y38481739D01*
X55592600Y38481739D02*
X55592600Y39481739D01*
X55497362Y39338882D01*
X55402124Y39243644D01*
X55306886Y39196025D01*
X51618854Y38481739D02*
X51285520Y38957930D01*
X51047425Y38481739D02*
X51047425Y39481739D01*
X51428378Y39481739D01*
X51523616Y39434120D01*
X51571235Y39386501D01*
X51618854Y39291263D01*
X51618854Y39148406D01*
X51571235Y39053168D01*
X51523616Y39005549D01*
X51428378Y38957930D01*
X51047425Y38957930D01*
X51999806Y39386501D02*
X52047425Y39434120D01*
X52142663Y39481739D01*
X52380759Y39481739D01*
X52475997Y39434120D01*
X52523616Y39386501D01*
X52571235Y39291263D01*
X52571235Y39196025D01*
X52523616Y39053168D01*
X51952187Y38481739D01*
X52571235Y38481739D01*
X35155903Y31343339D02*
X34822569Y31819530D01*
X34584474Y31343339D02*
X34584474Y32343339D01*
X34965427Y32343339D01*
X35060665Y32295720D01*
X35108284Y32248101D01*
X35155903Y32152863D01*
X35155903Y32010006D01*
X35108284Y31914768D01*
X35060665Y31867149D01*
X34965427Y31819530D01*
X34584474Y31819530D01*
X36108284Y31343339D02*
X35536855Y31343339D01*
X35822569Y31343339D02*
X35822569Y32343339D01*
X35727331Y32200482D01*
X35632093Y32105244D01*
X35536855Y32057625D01*
X37060665Y31343339D02*
X36489236Y31343339D01*
X36774950Y31343339D02*
X36774950Y32343339D01*
X36679712Y32200482D01*
X36584474Y32105244D01*
X36489236Y32057625D01*
X65149362Y33521663D02*
X65196981Y33664520D01*
X65196981Y33902616D01*
X65149362Y33997854D01*
X65101743Y34045473D01*
X65006505Y34093092D01*
X64911267Y34093092D01*
X64816029Y34045473D01*
X64768410Y33997854D01*
X64720790Y33902616D01*
X64673171Y33712139D01*
X64625552Y33616901D01*
X64577933Y33569282D01*
X64482695Y33521663D01*
X64387457Y33521663D01*
X64292219Y33569282D01*
X64244600Y33616901D01*
X64196981Y33712139D01*
X64196981Y33950235D01*
X64244600Y34093092D01*
X64196981Y34426425D02*
X65196981Y34664520D01*
X64482695Y34854997D01*
X65196981Y35045473D01*
X64196981Y35283568D01*
X64673171Y35997854D02*
X64720790Y36140711D01*
X64768410Y36188330D01*
X64863648Y36235949D01*
X65006505Y36235949D01*
X65101743Y36188330D01*
X65149362Y36140711D01*
X65196981Y36045473D01*
X65196981Y35664520D01*
X64196981Y35664520D01*
X64196981Y35997854D01*
X64244600Y36093092D01*
X64292219Y36140711D01*
X64387457Y36188330D01*
X64482695Y36188330D01*
X64577933Y36140711D01*
X64625552Y36093092D01*
X64673171Y35997854D01*
X64673171Y35664520D01*
X64911267Y36616901D02*
X64911267Y37093092D01*
X65196981Y36521663D02*
X64196981Y36854996D01*
X65196981Y37188330D01*
X64196981Y37378806D02*
X64196981Y37950235D01*
X65196981Y37664520D02*
X64196981Y37664520D01*
X65196981Y38807378D02*
X65196981Y38235949D01*
X65196981Y38521663D02*
X64196981Y38521663D01*
X64339838Y38426425D01*
X64435076Y38331187D01*
X64482695Y38235949D01*
X87528495Y37463979D02*
X87528495Y36654455D01*
X87576114Y36559217D01*
X87623733Y36511598D01*
X87718971Y36463979D01*
X87909448Y36463979D01*
X88004686Y36511598D01*
X88052305Y36559217D01*
X88099924Y36654455D01*
X88099924Y37463979D01*
X89099924Y36463979D02*
X88528495Y36463979D01*
X88814209Y36463979D02*
X88814209Y37463979D01*
X88718971Y37321122D01*
X88623733Y37225884D01*
X88528495Y37178265D01*
X17990227Y32932619D02*
X17990227Y32218333D01*
X17942607Y32075476D01*
X17847369Y31980238D01*
X17704512Y31932619D01*
X17609274Y31932619D01*
X18990227Y31932619D02*
X18418798Y31932619D01*
X18704512Y31932619D02*
X18704512Y32932619D01*
X18609274Y32789762D01*
X18514036Y32694524D01*
X18418798Y32646905D01*
%LPC*%
D18*
X93538040Y28016200D03*
X2555240Y28011120D03*
D19*
X33141920Y33162200D03*
X33141920Y35062200D03*
D18*
X25186640Y1686560D03*
X40274240Y1686560D03*
X55361840Y1681480D03*
X70449440Y1681480D03*
X70449440Y18501360D03*
X25191720Y18496280D03*
X63230760Y25689560D03*
X33314640Y25679400D03*
X48041560Y66502280D03*
X91546680Y70982840D03*
D20*
X57663080Y51379120D03*
D21*
X50163080Y51379120D03*
D22*
X74000360Y38196520D03*
D23*
X74000360Y33196520D03*
D24*
X55140000Y24074120D03*
X55140000Y25344120D03*
X55140000Y26614120D03*
X55140000Y27884120D03*
X55140000Y29154120D03*
X55140000Y30424120D03*
X55140000Y31694120D03*
X55140000Y32964120D03*
X55140000Y34234120D03*
X55140000Y35504120D03*
X41380000Y35504120D03*
X41380000Y34234120D03*
X41380000Y32964120D03*
X41380000Y31694120D03*
X41380000Y30424120D03*
X41380000Y29154120D03*
X41380000Y27884120D03*
X41380000Y26614120D03*
X41380000Y25344120D03*
X41380000Y24074120D03*
D25*
X53101240Y43891200D03*
D26*
X55641240Y43891200D03*
D25*
X2245360Y60797440D03*
X46390560Y41640760D03*
X2225040Y41691560D03*
X46426120Y60726320D03*
X57871360Y34122360D03*
D26*
X57871360Y31582360D03*
D25*
X38638480Y34122360D03*
D26*
X38638480Y31582360D03*
D27*
X56042600Y40584120D03*
X54142600Y40584120D03*
X52735520Y40584120D03*
X50835520Y40584120D03*
D19*
X35412680Y33223160D03*
X35412680Y35123160D03*
D25*
X67670680Y38206680D03*
D26*
X67670680Y35666680D03*
X67670680Y33126680D03*
D28*
X94650560Y40137080D03*
X94650560Y30993080D03*
X79410560Y40137080D03*
X79410560Y30997080D03*
D29*
X46000920Y57425160D03*
X50000920Y57425160D03*
X50000920Y55625160D03*
X46000920Y55625160D03*
X93607640Y75284760D03*
X89607640Y75284760D03*
X89607640Y77084760D03*
X93607640Y77084760D03*
X6480560Y75284760D03*
X2480560Y75284760D03*
X2480560Y77084760D03*
X6480560Y77084760D03*
D30*
X17511680Y37544800D03*
X17511680Y28244800D03*
D31*
X14261680Y30144800D03*
X14261680Y30644800D03*
X14261680Y31144800D03*
X14261680Y31644800D03*
X14261680Y32144800D03*
X14261680Y32644800D03*
X14261680Y33144800D03*
X14261680Y33644800D03*
X14261680Y34144800D03*
X14261680Y34644800D03*
X14261680Y35144800D03*
X14261680Y35644800D03*
D18*
X4546600Y70967600D03*
M02*
