G04 #@! TF.FileFunction,Copper,L1,Top,Signal*
%FSLAX46Y46*%
G04 Gerber Fmt 4.6, Leading zero omitted, Abs format (unit mm)*
G04 Created by KiCad (PCBNEW 4.0.7) date 11/25/18 15:18:32*
%MOMM*%
%LPD*%
G01*
G04 APERTURE LIST*
%ADD10C,0.100000*%
%ADD11R,1.300000X0.700000*%
%ADD12R,2.000000X2.000000*%
%ADD13C,2.000000*%
%ADD14R,1.600000X1.600000*%
%ADD15C,1.600000*%
%ADD16R,1.700000X0.760000*%
%ADD17R,1.700000X1.700000*%
%ADD18O,1.700000X1.700000*%
%ADD19R,0.700000X1.300000*%
%ADD20C,1.524000*%
%ADD21C,1.055599*%
%ADD22R,2.200000X1.800000*%
%ADD23R,1.300000X0.300000*%
%ADD24C,0.600000*%
%ADD25C,0.250000*%
%ADD26C,0.200000*%
%ADD27C,1.000000*%
%ADD28C,0.400000*%
%ADD29C,2.000000*%
%ADD30C,0.254000*%
G04 APERTURE END LIST*
D10*
X51540916Y63004441D02*
X88040916Y63004441D01*
X88040916Y63004441D02*
X88040916Y78004441D01*
X40916Y63004441D02*
X1040916Y63004441D01*
X50317400Y20081240D02*
X50317473Y21080131D01*
X8040916Y78004441D02*
X8040916Y63004441D01*
X44540916Y70004441D02*
X51540916Y70004441D01*
X50317473Y20083891D02*
X76793969Y20083891D01*
X40916Y25504441D02*
X18840977Y25504441D01*
X96040916Y25504441D02*
X76793969Y25504441D01*
X88040916Y78004441D02*
X95040916Y78004441D01*
X18840977Y21080131D02*
X18840977Y25504441D01*
X95040916Y78004441D02*
X95040916Y63004441D01*
X18840977Y20083891D02*
X45317473Y20083891D01*
X18840977Y-316109D02*
X18840977Y20083891D01*
X45317473Y21080131D02*
X18840977Y21080131D01*
X40916Y25504441D02*
X40916Y63004441D01*
X1040916Y63004441D02*
X1040916Y78004441D01*
X95040916Y63004441D02*
X96040916Y63004441D01*
X45313600Y20086320D02*
X45317473Y21080131D01*
X44540916Y63004441D02*
X44540916Y70004441D01*
X18840977Y-316109D02*
X76793969Y-316109D01*
X51540916Y63004441D02*
X51540916Y70004441D01*
X76793969Y25504441D02*
X76793969Y21080131D01*
X8040916Y63004441D02*
X44540916Y63004441D01*
X96040916Y63004441D02*
X96040916Y25504441D01*
X76793969Y-316109D02*
X76793969Y20083891D01*
X1040916Y78004441D02*
X8040916Y78004441D01*
X76793969Y21080131D02*
X50317473Y21080131D01*
D11*
X33141920Y33162200D03*
X33141920Y35062200D03*
D12*
X57663080Y51379120D03*
D13*
X50163080Y51379120D03*
D14*
X74000360Y38196520D03*
D15*
X74000360Y33196520D03*
D16*
X55140000Y24074120D03*
X55140000Y25344120D03*
X55140000Y26614120D03*
X55140000Y27884120D03*
X55140000Y29154120D03*
X55140000Y30424120D03*
X55140000Y31694120D03*
X55140000Y32964120D03*
X55140000Y34234120D03*
X55140000Y35504120D03*
X41380000Y35504120D03*
X41380000Y34234120D03*
X41380000Y32964120D03*
X41380000Y31694120D03*
X41380000Y30424120D03*
X41380000Y29154120D03*
X41380000Y27884120D03*
X41380000Y26614120D03*
X41380000Y25344120D03*
X41380000Y24074120D03*
D17*
X53101240Y43891200D03*
D18*
X55641240Y43891200D03*
D17*
X2245360Y60797440D03*
X46390560Y41640760D03*
X2225040Y41691560D03*
X46426120Y60726320D03*
X57871360Y34122360D03*
D18*
X57871360Y31582360D03*
D17*
X38638480Y34122360D03*
D18*
X38638480Y31582360D03*
D19*
X56042600Y40584120D03*
X54142600Y40584120D03*
X52735520Y40584120D03*
X50835520Y40584120D03*
D11*
X35412680Y33223160D03*
X35412680Y35123160D03*
D17*
X67670680Y38206680D03*
D18*
X67670680Y35666680D03*
X67670680Y33126680D03*
D20*
X94650560Y40137080D03*
X94650560Y30993080D03*
X79410560Y40137080D03*
X79410560Y30997080D03*
D21*
X46000920Y57425160D03*
X50000920Y57425160D03*
X50000920Y55625160D03*
X46000920Y55625160D03*
X93607640Y75284760D03*
X89607640Y75284760D03*
X89607640Y77084760D03*
X93607640Y77084760D03*
X6480560Y75284760D03*
X2480560Y75284760D03*
X2480560Y77084760D03*
X6480560Y77084760D03*
D22*
X17511680Y37544800D03*
X17511680Y28244800D03*
D23*
X14261680Y30144800D03*
X14261680Y30644800D03*
X14261680Y31144800D03*
X14261680Y31644800D03*
X14261680Y32144800D03*
X14261680Y32644800D03*
X14261680Y33144800D03*
X14261680Y33644800D03*
X14261680Y34144800D03*
X14261680Y34644800D03*
X14261680Y35144800D03*
X14261680Y35644800D03*
D24*
X11684000Y31805880D03*
X53202840Y29311600D03*
X51907440Y36464240D03*
X10210800Y38511480D03*
X58242200Y24836080D03*
X38506400Y25074840D03*
X41380000Y27884120D03*
X14361160Y37124640D03*
X12151360Y35082480D03*
X16741075Y34416019D03*
X33141920Y35062200D03*
X38247320Y39837360D03*
X17529788Y33794331D03*
X35412680Y35123160D03*
X19019520Y35793680D03*
X35067240Y40325040D03*
X28011120Y46273720D03*
X35438080Y50434240D03*
D13*
X43723560Y29804360D03*
D24*
X56804560Y29133800D03*
X39436040Y29118560D03*
X16896080Y31887160D03*
X19878040Y31374080D03*
X16003480Y32573530D03*
X20533360Y32339280D03*
D25*
X14261680Y30644800D02*
X12845080Y30644800D01*
X12845080Y30644800D02*
X11684000Y31805880D01*
X14261680Y30644800D02*
X15125204Y30644800D01*
X15125204Y30644800D02*
X15800342Y29969662D01*
X15800342Y29969662D02*
X15943378Y29969662D01*
X52666816Y29423360D02*
X52374800Y29423360D01*
X53202840Y29311600D02*
X52778576Y29311600D01*
X52778576Y29311600D02*
X52666816Y29423360D01*
X55140000Y35504120D02*
X52867560Y35504120D01*
X52867560Y35504120D02*
X51907440Y36464240D01*
D26*
X54090000Y23494120D02*
X54670000Y24074120D01*
X41850000Y24074120D02*
X42430000Y23494120D01*
X41380000Y24074120D02*
X41850000Y24074120D01*
X42430000Y23494120D02*
X54090000Y23494120D01*
X54670000Y24074120D02*
X55140000Y24074120D01*
X36941760Y31144080D02*
X36941760Y28042360D01*
X36941760Y28042360D02*
X40910000Y24074120D01*
X40910000Y24074120D02*
X41380000Y24074120D01*
X35412680Y33223160D02*
X35412680Y32673160D01*
X35412680Y32673160D02*
X36941760Y31144080D01*
X36748720Y34665920D02*
X37586920Y35504120D01*
X37586920Y35504120D02*
X41380000Y35504120D01*
X36748720Y33709200D02*
X36748720Y34665920D01*
X35412680Y33223160D02*
X36262680Y33223160D01*
X36262680Y33223160D02*
X36748720Y33709200D01*
X33141920Y33162200D02*
X35351720Y33162200D01*
X35351720Y33162200D02*
X35412680Y33223160D01*
D27*
X9850120Y30759400D02*
X10814721Y29794799D01*
X10814721Y29794799D02*
X14261680Y29794799D01*
X9850120Y37726536D02*
X9850120Y30759400D01*
X10210800Y38511480D02*
X10210800Y38087216D01*
X10210800Y38087216D02*
X9850120Y37726536D01*
X59629040Y28077160D02*
X59629040Y26222920D01*
X59629040Y26222920D02*
X58242200Y24836080D01*
X61117480Y29565600D02*
X59629040Y28077160D01*
X67833240Y29565600D02*
X61117480Y29565600D01*
X70449440Y32181800D02*
X67833240Y29565600D01*
X70449440Y36445600D02*
X70449440Y32181800D01*
X74000360Y38196520D02*
X72200360Y38196520D01*
X72200360Y38196520D02*
X70449440Y36445600D01*
X16002000Y26426160D02*
X14261680Y28166480D01*
X14261680Y28166480D02*
X14261680Y29794799D01*
X24968200Y26426160D02*
X16002000Y26426160D01*
X26207720Y25186640D02*
X24968200Y26426160D01*
X26207720Y24013160D02*
X26207720Y25186640D01*
X28224480Y21996400D02*
X26207720Y24013160D01*
X36777960Y21996400D02*
X28224480Y21996400D01*
X38506400Y25074840D02*
X38506400Y23724840D01*
X38506400Y23724840D02*
X36777960Y21996400D01*
X79410560Y40137080D02*
X75940920Y40137080D01*
X75940920Y40137080D02*
X74000360Y38196520D01*
D28*
X14361160Y37124640D02*
X14061161Y36824641D01*
X14061161Y36824641D02*
X14061161Y35845319D01*
X14061161Y35845319D02*
X14211679Y35694801D01*
D26*
X12999720Y35082480D02*
X13062040Y35144800D01*
X13062040Y35144800D02*
X14261680Y35144800D01*
D28*
X12151360Y35082480D02*
X12999720Y35082480D01*
D26*
X16316811Y34416019D02*
X16741075Y34416019D01*
X15035982Y34144800D02*
X15307201Y34416019D01*
X15307201Y34416019D02*
X16316811Y34416019D01*
X14261680Y34144800D02*
X15035982Y34144800D01*
D28*
X38359651Y39725029D02*
X38247320Y39837360D01*
X44475788Y39725029D02*
X38359651Y39725029D01*
X55140000Y32964120D02*
X51236697Y32964120D01*
X51236697Y32964120D02*
X44475788Y39725029D01*
D26*
X15251213Y33794331D02*
X15101682Y33644800D01*
X17529788Y33794331D02*
X15251213Y33794331D01*
X15101682Y33644800D02*
X14261680Y33644800D01*
D28*
X42931469Y36306189D02*
X37645709Y36306189D01*
X37645709Y36306189D02*
X36462680Y35123160D01*
X36462680Y35123160D02*
X35412680Y35123160D01*
X43632120Y35605538D02*
X42931469Y36306189D01*
X42630000Y32964120D02*
X43632120Y33966240D01*
X41380000Y32964120D02*
X42630000Y32964120D01*
X43632120Y33966240D02*
X43632120Y35605538D01*
D26*
X16455288Y33236270D02*
X15486750Y33236270D01*
X15486750Y33236270D02*
X15395280Y33144800D01*
X15466430Y33215950D02*
X15395280Y33144800D01*
X15395280Y33144800D02*
X14261680Y33144800D01*
D28*
X16681718Y33009840D02*
X16455288Y33236270D01*
X19019520Y35793680D02*
X19019520Y33893760D01*
X19019520Y33893760D02*
X18135600Y33009840D01*
X18135600Y33009840D02*
X16681718Y33009840D01*
X35279562Y40537362D02*
X35067240Y40325040D01*
X45073956Y40537362D02*
X35279562Y40537362D01*
X51985520Y39534120D02*
X46077198Y39534120D01*
X52735520Y40284120D02*
X51985520Y39534120D01*
X52735520Y40584120D02*
X52735520Y40284120D01*
X46077198Y39534120D02*
X45073956Y40537362D01*
X52735520Y40584120D02*
X54142600Y40584120D01*
D26*
X10891520Y35209480D02*
X10891520Y34356040D01*
X10891520Y34356040D02*
X11414760Y33832800D01*
X11414760Y33832800D02*
X12405360Y33832800D01*
X12405360Y33832800D02*
X13155030Y34582470D01*
X13155030Y34582470D02*
X13206830Y34582470D01*
X13206830Y34582470D02*
X13269160Y34644800D01*
X13269160Y34644800D02*
X14261680Y34644800D01*
D28*
X10891520Y35534600D02*
X10891520Y35209480D01*
X15250160Y39893240D02*
X10891520Y35534600D01*
X21206376Y39893240D02*
X15250160Y39893240D01*
X28011120Y46273720D02*
X27586856Y46273720D01*
X27586856Y46273720D02*
X21206376Y39893240D01*
X50000920Y55625160D02*
X44810000Y50434240D01*
X44810000Y50434240D02*
X35438080Y50434240D01*
X51737000Y46941480D02*
X50835520Y46040000D01*
X50835520Y46040000D02*
X50835520Y40584120D01*
X51737000Y48453040D02*
X51737000Y46941480D01*
D29*
X57663080Y51379120D02*
X54663080Y51379120D01*
X54663080Y51379120D02*
X51737000Y48453040D01*
X51737000Y48453040D02*
X17439760Y48453040D01*
X17439760Y48453040D02*
X5095360Y60797440D01*
X5095360Y60797440D02*
X2245360Y60797440D01*
X60693560Y51409600D02*
X83378040Y51409600D01*
X83378040Y51409600D02*
X94650560Y40137080D01*
X57663080Y51379120D02*
X60663080Y51379120D01*
X60663080Y51379120D02*
X60693560Y51409600D01*
X43723560Y29804360D02*
X43723560Y28390147D01*
X43723560Y28390147D02*
X44216320Y27897387D01*
X44216320Y27897387D02*
X44216320Y25344120D01*
D27*
X48356520Y25344120D02*
X44216320Y25344120D01*
X44216320Y25344120D02*
X41380000Y25344120D01*
X48442880Y25430480D02*
X54626570Y25430480D01*
X54626570Y25430480D02*
X54642940Y25414110D01*
X54642940Y25414110D02*
X55070010Y25414110D01*
X55070010Y25414110D02*
X55140000Y25344120D01*
X48442880Y25430480D02*
X48356520Y25344120D01*
X55140000Y26614120D02*
X56990000Y26614120D01*
X56990000Y26614120D02*
X57871360Y27495480D01*
X57871360Y27495480D02*
X57871360Y30380279D01*
X57871360Y30380279D02*
X57871360Y31582360D01*
D28*
X56804560Y29133800D02*
X55160320Y29133800D01*
X55160320Y29133800D02*
X55140000Y29154120D01*
D27*
X55140000Y34234120D02*
X57759600Y34234120D01*
X57759600Y34234120D02*
X57871360Y34122360D01*
X41380000Y34234120D02*
X38750240Y34234120D01*
X38750240Y34234120D02*
X38638480Y34122360D01*
D28*
X39436040Y29118560D02*
X41344440Y29118560D01*
X41344440Y29118560D02*
X41380000Y29154120D01*
D27*
X37788481Y30732361D02*
X38638480Y31582360D01*
X37788481Y28355639D02*
X37788481Y30732361D01*
X39530000Y26614120D02*
X37788481Y28355639D01*
X41380000Y26614120D02*
X39530000Y26614120D01*
D29*
X63037720Y40238680D02*
X63037720Y36557559D01*
X63037720Y36557559D02*
X66468599Y33126680D01*
X66468599Y33126680D02*
X67670680Y33126680D01*
X59293760Y43982640D02*
X63037720Y40238680D01*
X56934761Y43982640D02*
X59293760Y43982640D01*
X55641240Y43891200D02*
X56843321Y43891200D01*
X56843321Y43891200D02*
X56934761Y43982640D01*
D26*
X15468600Y31043880D02*
X15367680Y31144800D01*
X15367680Y31144800D02*
X14261680Y31144800D01*
D28*
X16017809Y30494671D02*
X15468600Y31043880D01*
X25654000Y38481000D02*
X17667671Y30494671D01*
X55140000Y30424120D02*
X52079611Y30424120D01*
X17667671Y30494671D02*
X16017809Y30494671D01*
X52079611Y30424120D02*
X44022731Y38481000D01*
X44022731Y38481000D02*
X25654000Y38481000D01*
D26*
X15045980Y31644800D02*
X14261680Y31644800D01*
X15695249Y31548109D02*
X15142671Y31548109D01*
X17409160Y31094680D02*
X16148678Y31094680D01*
X15142671Y31548109D02*
X15045980Y31644800D01*
X16148678Y31094680D02*
X15695249Y31548109D01*
D28*
X17409160Y31094680D02*
X17393920Y31109920D01*
X17962880Y31648400D02*
X17409160Y31094680D01*
X17967960Y31648400D02*
X17962880Y31648400D01*
X25414098Y39094538D02*
X17967960Y31648400D01*
X35154742Y39094538D02*
X25414098Y39094538D01*
X35154742Y39094538D02*
X35128200Y39121080D01*
X55140000Y31694120D02*
X51658154Y31694120D01*
X44257736Y39094538D02*
X35154742Y39094538D01*
X51658154Y31694120D02*
X44257736Y39094538D01*
X44292520Y33598016D02*
X44292520Y35793680D01*
X42388624Y31694120D02*
X44292520Y33598016D01*
X41380000Y31694120D02*
X42388624Y31694120D01*
X44292520Y35793680D02*
X43180000Y36906200D01*
X43180000Y36906200D02*
X26243280Y36906200D01*
X26243280Y36906200D02*
X20711160Y31374080D01*
X20711160Y31374080D02*
X20302304Y31374080D01*
X20302304Y31374080D02*
X19878040Y31374080D01*
D26*
X14261680Y32144800D02*
X15111680Y32144800D01*
X15860938Y31948119D02*
X15921897Y31887160D01*
X15111680Y32144800D02*
X15308361Y31948119D01*
X15308361Y31948119D02*
X15860938Y31948119D01*
X15921897Y31887160D02*
X16896080Y31887160D01*
D28*
X41380000Y30424120D02*
X41967166Y30424120D01*
X25725120Y37531040D02*
X20833359Y32639279D01*
X41967166Y30424120D02*
X44909269Y33366223D01*
X44909269Y36152291D02*
X43530520Y37531040D01*
X43530520Y37531040D02*
X25725120Y37531040D01*
X20833359Y32639279D02*
X20533360Y32339280D01*
X44909269Y33366223D02*
X44909269Y36152291D01*
D26*
X15932210Y32644800D02*
X16003480Y32573530D01*
X14261680Y32644800D02*
X15932210Y32644800D01*
D30*
G36*
X93641519Y39128038D02*
X93856726Y38951265D01*
X94102171Y38819659D01*
X94368503Y38738232D01*
X94645579Y38710089D01*
X94922845Y38736298D01*
X95189739Y38815862D01*
X95436096Y38945752D01*
X95563916Y39049258D01*
X95563916Y31677709D01*
X95400663Y31738940D01*
X94654803Y30993080D01*
X95400663Y30247220D01*
X95563916Y30308451D01*
X95563916Y28221074D01*
X95487916Y28604902D01*
X95336435Y28972423D01*
X95116453Y29303522D01*
X94836350Y29585588D01*
X94506795Y29807875D01*
X94250489Y29915617D01*
X94383952Y29869724D01*
X94608230Y29839296D01*
X94834136Y29853208D01*
X95052986Y29910924D01*
X95256372Y30010226D01*
X95326764Y30057262D01*
X95396420Y30242977D01*
X94650560Y30988837D01*
X93904700Y30242977D01*
X93974356Y30057262D01*
X94136725Y29962661D01*
X93750944Y30041850D01*
X93353439Y30044625D01*
X92962965Y29970138D01*
X92594395Y29821227D01*
X92261768Y29603562D01*
X91977755Y29325435D01*
X91753172Y28997440D01*
X91596574Y28632069D01*
X91513926Y28243241D01*
X91508375Y27845764D01*
X91580134Y27454780D01*
X91726470Y27085179D01*
X91941807Y26751041D01*
X92217944Y26465093D01*
X92544364Y26238225D01*
X92908632Y26079080D01*
X93296874Y25993720D01*
X93694302Y25985395D01*
X94085778Y26054423D01*
X94456391Y26198174D01*
X94792024Y26411173D01*
X95079894Y26685308D01*
X95309034Y27010135D01*
X95470718Y27373284D01*
X95558787Y27760920D01*
X95563916Y28128232D01*
X95563916Y25981441D01*
X76793969Y25981441D01*
X76749239Y25977055D01*
X76704588Y25972992D01*
X76702986Y25972520D01*
X76701319Y25972357D01*
X76658350Y25959383D01*
X76615282Y25946708D01*
X76613798Y25945932D01*
X76612198Y25945449D01*
X76572634Y25924413D01*
X76532781Y25903578D01*
X76531474Y25902527D01*
X76530001Y25901744D01*
X76495212Y25873371D01*
X76460230Y25845244D01*
X76459157Y25843966D01*
X76457858Y25842906D01*
X76429192Y25808254D01*
X76400390Y25773930D01*
X76399585Y25772466D01*
X76398518Y25771176D01*
X76377157Y25731669D01*
X76355541Y25692351D01*
X76355035Y25690757D01*
X76354240Y25689286D01*
X76340968Y25646409D01*
X76327393Y25603615D01*
X76327207Y25601953D01*
X76326712Y25600355D01*
X76322027Y25555777D01*
X76317015Y25511101D01*
X76316993Y25507883D01*
X76316981Y25507771D01*
X76316991Y25507659D01*
X76316969Y25504441D01*
X76316969Y21557131D01*
X50317473Y21557131D01*
X50272812Y21552752D01*
X50228126Y21548689D01*
X50226504Y21548212D01*
X50224823Y21548047D01*
X50181906Y21535089D01*
X50138818Y21522411D01*
X50137318Y21521627D01*
X50135702Y21521139D01*
X50096159Y21500114D01*
X50056314Y21479287D01*
X50054994Y21478226D01*
X50053505Y21477434D01*
X50018711Y21449057D01*
X49983759Y21420958D01*
X49982676Y21419668D01*
X49981362Y21418596D01*
X49952690Y21383937D01*
X49923914Y21349649D01*
X49923101Y21348170D01*
X49922022Y21346866D01*
X49900655Y21307349D01*
X49879059Y21268073D01*
X49878548Y21266464D01*
X49877744Y21264976D01*
X49864476Y21222113D01*
X49850904Y21179339D01*
X49850715Y21177658D01*
X49850216Y21176045D01*
X49845538Y21131536D01*
X49840519Y21086826D01*
X49840497Y21083571D01*
X49840485Y21083461D01*
X49840495Y21083351D01*
X49840473Y21080166D01*
X49840400Y20081275D01*
X49849477Y19988624D01*
X49876379Y19899501D01*
X49920078Y19817301D01*
X49978910Y19745154D01*
X50050636Y19685808D01*
X50132523Y19641525D01*
X50221452Y19613990D01*
X50314035Y19604252D01*
X50343058Y19606891D01*
X68749676Y19606891D01*
X68664572Y19482600D01*
X68507974Y19117229D01*
X68425326Y18728401D01*
X68419775Y18330924D01*
X68491534Y17939940D01*
X68637870Y17570339D01*
X68853207Y17236201D01*
X69129344Y16950253D01*
X69455764Y16723385D01*
X69820032Y16564240D01*
X70208274Y16478880D01*
X70605702Y16470555D01*
X70997178Y16539583D01*
X71367791Y16683334D01*
X71703424Y16896333D01*
X71991294Y17170468D01*
X72220434Y17495295D01*
X72382118Y17858444D01*
X72470187Y18246080D01*
X72476527Y18700118D01*
X72399316Y19090062D01*
X72247835Y19457583D01*
X72148635Y19606891D01*
X76316969Y19606891D01*
X76316969Y160891D01*
X71792093Y160891D01*
X71991294Y350588D01*
X72220434Y675415D01*
X72382118Y1038564D01*
X72470187Y1426200D01*
X72476527Y1880238D01*
X72399316Y2270182D01*
X72247835Y2637703D01*
X72027853Y2968802D01*
X71747750Y3250868D01*
X71418195Y3473155D01*
X71051741Y3627199D01*
X70662344Y3707130D01*
X70264839Y3709905D01*
X69874365Y3635418D01*
X69505795Y3486507D01*
X69173168Y3268842D01*
X68889155Y2990715D01*
X68664572Y2662720D01*
X68507974Y2297349D01*
X68425326Y1908521D01*
X68419775Y1511044D01*
X68491534Y1120060D01*
X68637870Y750459D01*
X68853207Y416321D01*
X69099873Y160891D01*
X56704493Y160891D01*
X56903694Y350588D01*
X57132834Y675415D01*
X57294518Y1038564D01*
X57382587Y1426200D01*
X57388927Y1880238D01*
X57311716Y2270182D01*
X57160235Y2637703D01*
X56940253Y2968802D01*
X56660150Y3250868D01*
X56330595Y3473155D01*
X55964141Y3627199D01*
X55574744Y3707130D01*
X55177239Y3709905D01*
X54786765Y3635418D01*
X54418195Y3486507D01*
X54085568Y3268842D01*
X53801555Y2990715D01*
X53576972Y2662720D01*
X53420374Y2297349D01*
X53337726Y1908521D01*
X53332175Y1511044D01*
X53403934Y1120060D01*
X53550270Y750459D01*
X53765607Y416321D01*
X54012273Y160891D01*
X41611558Y160891D01*
X41816094Y355668D01*
X42045234Y680495D01*
X42206918Y1043644D01*
X42294987Y1431280D01*
X42301327Y1885318D01*
X42224116Y2275262D01*
X42072635Y2642783D01*
X41852653Y2973882D01*
X41572550Y3255948D01*
X41242995Y3478235D01*
X40876541Y3632279D01*
X40487144Y3712210D01*
X40089639Y3714985D01*
X39699165Y3640498D01*
X39330595Y3491587D01*
X38997968Y3273922D01*
X38713955Y2995795D01*
X38489372Y2667800D01*
X38332774Y2302429D01*
X38250126Y1913601D01*
X38244575Y1516124D01*
X38316334Y1125140D01*
X38462670Y755539D01*
X38678007Y421401D01*
X38929579Y160891D01*
X26523958Y160891D01*
X26728494Y355668D01*
X26957634Y680495D01*
X27119318Y1043644D01*
X27207387Y1431280D01*
X27213727Y1885318D01*
X27136516Y2275262D01*
X26985035Y2642783D01*
X26765053Y2973882D01*
X26484950Y3255948D01*
X26155395Y3478235D01*
X25788941Y3632279D01*
X25399544Y3712210D01*
X25002039Y3714985D01*
X24611565Y3640498D01*
X24242995Y3491587D01*
X23910368Y3273922D01*
X23626355Y2995795D01*
X23401772Y2667800D01*
X23245174Y2302429D01*
X23162526Y1913601D01*
X23156975Y1516124D01*
X23228734Y1125140D01*
X23375070Y755539D01*
X23590407Y421401D01*
X23841979Y160891D01*
X19317977Y160891D01*
X19317977Y19606891D01*
X23495434Y19606891D01*
X23406852Y19477520D01*
X23250254Y19112149D01*
X23167606Y18723321D01*
X23162055Y18325844D01*
X23233814Y17934860D01*
X23380150Y17565259D01*
X23595487Y17231121D01*
X23871624Y16945173D01*
X24198044Y16718305D01*
X24562312Y16559160D01*
X24950554Y16473800D01*
X25347982Y16465475D01*
X25739458Y16534503D01*
X26110071Y16678254D01*
X26445704Y16891253D01*
X26733574Y17165388D01*
X26962714Y17490215D01*
X27124398Y17853364D01*
X27212467Y18241000D01*
X27218807Y18695038D01*
X27141596Y19084982D01*
X26990115Y19452503D01*
X26887540Y19606891D01*
X45317473Y19606891D01*
X45410123Y19615975D01*
X45499244Y19642883D01*
X45581441Y19686588D01*
X45653584Y19745426D01*
X45712924Y19817156D01*
X45757202Y19899046D01*
X45784730Y19987977D01*
X45794461Y20080561D01*
X45790740Y20121448D01*
X45794469Y21078273D01*
X45790162Y21124044D01*
X45786024Y21169512D01*
X45785817Y21170216D01*
X45785747Y21170957D01*
X45772655Y21214936D01*
X45759740Y21258818D01*
X45759396Y21259475D01*
X45759186Y21260182D01*
X45737889Y21300615D01*
X45716610Y21341319D01*
X45716146Y21341896D01*
X45715802Y21342549D01*
X45686921Y21378244D01*
X45658276Y21413870D01*
X45657713Y21414342D01*
X45657245Y21414921D01*
X45621842Y21444442D01*
X45586962Y21473710D01*
X45586317Y21474064D01*
X45585747Y21474540D01*
X45545361Y21496581D01*
X45505383Y21518559D01*
X45504681Y21518782D01*
X45504030Y21519137D01*
X45460203Y21532891D01*
X45416647Y21546707D01*
X45415914Y21546789D01*
X45415207Y21547011D01*
X45369662Y21551978D01*
X45324133Y21557085D01*
X45322739Y21557095D01*
X45322662Y21557103D01*
X45322579Y21557096D01*
X45317473Y21557131D01*
X37649667Y21557131D01*
X39161888Y23069352D01*
X39216241Y23135522D01*
X39271280Y23201116D01*
X39273628Y23205388D01*
X39276722Y23209154D01*
X39317178Y23284605D01*
X39358438Y23359656D01*
X39359912Y23364303D01*
X39362215Y23368598D01*
X39387242Y23450456D01*
X39413143Y23532106D01*
X39413687Y23536952D01*
X39415111Y23541611D01*
X39423759Y23626746D01*
X39433310Y23711897D01*
X39433376Y23721430D01*
X39433394Y23721604D01*
X39433379Y23721767D01*
X39433400Y23724840D01*
X39433400Y23974370D01*
X40143000Y23974370D01*
X40143000Y23656004D01*
X40157872Y23581236D01*
X40187045Y23510807D01*
X40229397Y23447422D01*
X40283302Y23393518D01*
X40346687Y23351165D01*
X40417116Y23321992D01*
X40491884Y23307120D01*
X41280250Y23307120D01*
X41377000Y23403870D01*
X41377000Y24071120D01*
X41383000Y24071120D01*
X41383000Y23403870D01*
X41479750Y23307120D01*
X42268116Y23307120D01*
X42342884Y23321992D01*
X42413313Y23351165D01*
X42476698Y23393518D01*
X42530603Y23447422D01*
X42572955Y23510807D01*
X42602128Y23581236D01*
X42617000Y23656004D01*
X42617000Y23974370D01*
X42520250Y24071120D01*
X41383000Y24071120D01*
X41377000Y24071120D01*
X40239750Y24071120D01*
X40143000Y23974370D01*
X39433400Y23974370D01*
X39433400Y25074840D01*
X39415745Y25254895D01*
X39363454Y25428092D01*
X39278518Y25587834D01*
X39164172Y25728036D01*
X39042526Y25828671D01*
X39089800Y25803322D01*
X39164816Y25762082D01*
X39169459Y25760609D01*
X39173758Y25758304D01*
X39255691Y25733255D01*
X39337266Y25707377D01*
X39342108Y25706834D01*
X39346772Y25705408D01*
X39431995Y25696751D01*
X39517057Y25687210D01*
X39526579Y25687144D01*
X39526764Y25687125D01*
X39526936Y25687141D01*
X39530000Y25687120D01*
X40100934Y25687120D01*
X40100934Y24964120D01*
X40106356Y24896122D01*
X40142073Y24780790D01*
X40208506Y24679974D01*
X40212943Y24676192D01*
X40187045Y24637433D01*
X40157872Y24567004D01*
X40143000Y24492236D01*
X40143000Y24173870D01*
X40239750Y24077120D01*
X41377000Y24077120D01*
X41377000Y24097120D01*
X41383000Y24097120D01*
X41383000Y24077120D01*
X42520250Y24077120D01*
X42617000Y24173870D01*
X42617000Y24417120D01*
X43139729Y24417120D01*
X43203763Y24338607D01*
X43418352Y24161083D01*
X43663335Y24028621D01*
X43929382Y23946266D01*
X44206358Y23917155D01*
X44483713Y23942396D01*
X44592350Y23974370D01*
X53903000Y23974370D01*
X53903000Y23656004D01*
X53917872Y23581236D01*
X53947045Y23510807D01*
X53989397Y23447422D01*
X54043302Y23393518D01*
X54106687Y23351165D01*
X54177116Y23321992D01*
X54251884Y23307120D01*
X55040250Y23307120D01*
X55137000Y23403870D01*
X55137000Y24071120D01*
X55143000Y24071120D01*
X55143000Y23403870D01*
X55239750Y23307120D01*
X56028116Y23307120D01*
X56102884Y23321992D01*
X56173313Y23351165D01*
X56236698Y23393518D01*
X56290603Y23447422D01*
X56332955Y23510807D01*
X56362128Y23581236D01*
X56377000Y23656004D01*
X56377000Y23974370D01*
X56280250Y24071120D01*
X55143000Y24071120D01*
X55137000Y24071120D01*
X53999750Y24071120D01*
X53903000Y23974370D01*
X44592350Y23974370D01*
X44750884Y24021029D01*
X44997693Y24150057D01*
X45214740Y24324567D01*
X45292401Y24417120D01*
X48356520Y24417120D01*
X48441729Y24425475D01*
X48527043Y24432939D01*
X48531726Y24434300D01*
X48536575Y24434775D01*
X48618534Y24459520D01*
X48700778Y24483414D01*
X48705105Y24485657D01*
X48709772Y24487066D01*
X48740642Y24503480D01*
X53905237Y24503480D01*
X53903000Y24492236D01*
X53903000Y24173870D01*
X53999750Y24077120D01*
X55137000Y24077120D01*
X55137000Y24097120D01*
X55143000Y24097120D01*
X55143000Y24077120D01*
X56280250Y24077120D01*
X56377000Y24173870D01*
X56377000Y24492236D01*
X56362128Y24567004D01*
X56332955Y24637433D01*
X56305166Y24679022D01*
X56352463Y24734515D01*
X56402079Y24844585D01*
X56419066Y24964120D01*
X56419066Y25687120D01*
X56990000Y25687120D01*
X57075209Y25695475D01*
X57160523Y25702939D01*
X57165206Y25704300D01*
X57170055Y25704775D01*
X57252014Y25729520D01*
X57334258Y25753414D01*
X57338585Y25755657D01*
X57343252Y25757066D01*
X57418832Y25797252D01*
X57494881Y25836672D01*
X57498693Y25839715D01*
X57502994Y25842002D01*
X57569334Y25896108D01*
X57636272Y25949544D01*
X57643056Y25956234D01*
X57643196Y25956348D01*
X57643303Y25956477D01*
X57645488Y25958632D01*
X58526848Y26839992D01*
X58581201Y26906162D01*
X58636240Y26971756D01*
X58638588Y26976028D01*
X58641682Y26979794D01*
X58682138Y27055245D01*
X58702040Y27091446D01*
X58702040Y26606896D01*
X57586712Y25491568D01*
X57471878Y25351766D01*
X57386384Y25192322D01*
X57333489Y25019308D01*
X57315206Y24839316D01*
X57332231Y24659200D01*
X57383918Y24485822D01*
X57468296Y24325784D01*
X57582152Y24185185D01*
X57721149Y24069377D01*
X57879992Y23982773D01*
X58052632Y23928670D01*
X58232493Y23909131D01*
X58412723Y23924899D01*
X58586458Y23975374D01*
X58747081Y24058632D01*
X58888472Y24171504D01*
X58897688Y24180592D01*
X60236220Y25519124D01*
X61201095Y25519124D01*
X61272854Y25128140D01*
X61419190Y24758539D01*
X61634527Y24424401D01*
X61910664Y24138453D01*
X62237084Y23911585D01*
X62601352Y23752440D01*
X62989594Y23667080D01*
X63387022Y23658755D01*
X63778498Y23727783D01*
X64149111Y23871534D01*
X64484744Y24084533D01*
X64772614Y24358668D01*
X65001754Y24683495D01*
X65163438Y25046644D01*
X65251507Y25434280D01*
X65257847Y25888318D01*
X65180636Y26278262D01*
X65029155Y26645783D01*
X64809173Y26976882D01*
X64529070Y27258948D01*
X64199515Y27481235D01*
X63833061Y27635279D01*
X63443664Y27715210D01*
X63046159Y27717985D01*
X62655685Y27643498D01*
X62287115Y27494587D01*
X61954488Y27276922D01*
X61670475Y26998795D01*
X61445892Y26670800D01*
X61289294Y26305429D01*
X61206646Y25916601D01*
X61201095Y25519124D01*
X60236220Y25519124D01*
X60284528Y25567432D01*
X60338881Y25633602D01*
X60393920Y25699196D01*
X60396268Y25703468D01*
X60399362Y25707234D01*
X60439838Y25782720D01*
X60481078Y25857736D01*
X60482551Y25862379D01*
X60484856Y25866678D01*
X60509892Y25948569D01*
X60535783Y26030186D01*
X60536327Y26035033D01*
X60537751Y26039692D01*
X60546398Y26124821D01*
X60555950Y26209977D01*
X60556016Y26219510D01*
X60556034Y26219684D01*
X60556019Y26219847D01*
X60556040Y26222920D01*
X60556040Y27693184D01*
X61501456Y28638600D01*
X67833240Y28638600D01*
X67918449Y28646955D01*
X68003763Y28654419D01*
X68008446Y28655780D01*
X68013295Y28656255D01*
X68095254Y28681000D01*
X68177498Y28704894D01*
X68181825Y28707137D01*
X68186492Y28708546D01*
X68262072Y28748732D01*
X68338121Y28788152D01*
X68341933Y28791195D01*
X68346234Y28793482D01*
X68412574Y28847588D01*
X68479512Y28901024D01*
X68486296Y28907714D01*
X68486436Y28907828D01*
X68486543Y28907957D01*
X68488728Y28910112D01*
X69825593Y30246977D01*
X78664700Y30246977D01*
X78734356Y30061262D01*
X78929918Y29947322D01*
X79143952Y29873724D01*
X79368230Y29843296D01*
X79594136Y29857208D01*
X79812986Y29914924D01*
X80016372Y30014226D01*
X80086764Y30061262D01*
X80156420Y30246977D01*
X79410560Y30992837D01*
X78664700Y30246977D01*
X69825593Y30246977D01*
X70618026Y31039410D01*
X78256776Y31039410D01*
X78270688Y30813504D01*
X78328404Y30594654D01*
X78427706Y30391268D01*
X78474742Y30320876D01*
X78660457Y30251220D01*
X79406317Y30997080D01*
X79414803Y30997080D01*
X80160663Y30251220D01*
X80346378Y30320876D01*
X80460318Y30516438D01*
X80533916Y30730472D01*
X80564344Y30954750D01*
X80559377Y31035410D01*
X93496776Y31035410D01*
X93510688Y30809504D01*
X93568404Y30590654D01*
X93667706Y30387268D01*
X93714742Y30316876D01*
X93900457Y30247220D01*
X94646317Y30993080D01*
X93900457Y31738940D01*
X93714742Y31669284D01*
X93600802Y31473722D01*
X93527204Y31259688D01*
X93496776Y31035410D01*
X80559377Y31035410D01*
X80550432Y31180656D01*
X80492716Y31399506D01*
X80393414Y31602892D01*
X80346378Y31673284D01*
X80160663Y31742940D01*
X79414803Y30997080D01*
X79406317Y30997080D01*
X78660457Y31742940D01*
X78474742Y31673284D01*
X78360802Y31477722D01*
X78287204Y31263688D01*
X78256776Y31039410D01*
X70618026Y31039410D01*
X71104928Y31526312D01*
X71159281Y31592482D01*
X71214320Y31658076D01*
X71216668Y31662348D01*
X71219762Y31666114D01*
X71260227Y31741581D01*
X71263306Y31747183D01*
X78664700Y31747183D01*
X79410560Y31001323D01*
X80152420Y31743183D01*
X93904700Y31743183D01*
X94650560Y30997323D01*
X95396420Y31743183D01*
X95326764Y31928898D01*
X95131202Y32042838D01*
X94917168Y32116436D01*
X94692890Y32146864D01*
X94466984Y32132952D01*
X94248134Y32075236D01*
X94044748Y31975934D01*
X93974356Y31928898D01*
X93904700Y31743183D01*
X80152420Y31743183D01*
X80156420Y31747183D01*
X80086764Y31932898D01*
X79891202Y32046838D01*
X79677168Y32120436D01*
X79452890Y32150864D01*
X79226984Y32136952D01*
X79008134Y32079236D01*
X78804748Y31979934D01*
X78734356Y31932898D01*
X78664700Y31747183D01*
X71263306Y31747183D01*
X71301478Y31816616D01*
X71302952Y31821261D01*
X71305256Y31825559D01*
X71330301Y31907477D01*
X71356183Y31989066D01*
X71356726Y31993908D01*
X71358152Y31998572D01*
X71366808Y32083791D01*
X71376350Y32168857D01*
X71376416Y32178380D01*
X71376435Y32178565D01*
X71376419Y32178737D01*
X71376440Y32181800D01*
X71376440Y32419417D01*
X73227500Y32419417D01*
X73301713Y32229810D01*
X73503733Y32112086D01*
X73724837Y32036036D01*
X73956531Y32004583D01*
X74189908Y32018935D01*
X74416001Y32078541D01*
X74626121Y32181110D01*
X74699007Y32229810D01*
X74773220Y32419417D01*
X74000360Y33192277D01*
X73227500Y32419417D01*
X71376440Y32419417D01*
X71376440Y33240349D01*
X72808423Y33240349D01*
X72822775Y33006972D01*
X72882381Y32780879D01*
X72984950Y32570759D01*
X73033650Y32497873D01*
X73223257Y32423660D01*
X73996117Y33196520D01*
X74004603Y33196520D01*
X74777463Y32423660D01*
X74967070Y32497873D01*
X75084794Y32699893D01*
X75160844Y32920997D01*
X75192297Y33152691D01*
X75177945Y33386068D01*
X75118339Y33612161D01*
X75015770Y33822281D01*
X74967070Y33895167D01*
X74777463Y33969380D01*
X74004603Y33196520D01*
X73996117Y33196520D01*
X73223257Y33969380D01*
X73033650Y33895167D01*
X72915926Y33693147D01*
X72839876Y33472043D01*
X72808423Y33240349D01*
X71376440Y33240349D01*
X71376440Y33973623D01*
X73227500Y33973623D01*
X74000360Y33200763D01*
X74773220Y33973623D01*
X74699007Y34163230D01*
X74496987Y34280954D01*
X74275883Y34357004D01*
X74044189Y34388457D01*
X73810812Y34374105D01*
X73584719Y34314499D01*
X73374599Y34211930D01*
X73301713Y34163230D01*
X73227500Y33973623D01*
X71376440Y33973623D01*
X71376440Y36061624D01*
X72584336Y37269520D01*
X72794988Y37269520D01*
X72812433Y37213190D01*
X72878866Y37112374D01*
X72970755Y37034057D01*
X73080825Y36984441D01*
X73200360Y36967454D01*
X74800360Y36967454D01*
X74868358Y36972876D01*
X74983690Y37008593D01*
X75084506Y37075026D01*
X75162823Y37166915D01*
X75212439Y37276985D01*
X75229426Y37396520D01*
X75229426Y38114610D01*
X76324896Y39210080D01*
X78660893Y39210080D01*
X78827688Y39094154D01*
X79041361Y39000802D01*
X79269097Y38950731D01*
X79502220Y38945848D01*
X79731853Y38986339D01*
X79949247Y39070660D01*
X80146123Y39195602D01*
X80314982Y39356404D01*
X80449392Y39546941D01*
X80544232Y39759957D01*
X80595892Y39987338D01*
X80599611Y40253667D01*
X80554320Y40482402D01*
X80465464Y40697983D01*
X80336427Y40892199D01*
X80172124Y41057653D01*
X79978813Y41188043D01*
X79763858Y41278402D01*
X79535446Y41325288D01*
X79302276Y41326916D01*
X79073232Y41283223D01*
X78857036Y41195874D01*
X78661923Y41068196D01*
X78657720Y41064080D01*
X75940920Y41064080D01*
X75855661Y41055720D01*
X75770397Y41048260D01*
X75765719Y41046901D01*
X75760865Y41046425D01*
X75678864Y41021668D01*
X75596662Y40997786D01*
X75592335Y40995543D01*
X75587668Y40994134D01*
X75512049Y40953927D01*
X75436039Y40914527D01*
X75432231Y40911487D01*
X75427926Y40909198D01*
X75361559Y40855070D01*
X75294648Y40801656D01*
X75287864Y40794966D01*
X75287724Y40794852D01*
X75287617Y40794723D01*
X75285432Y40792568D01*
X73918450Y39425586D01*
X73200360Y39425586D01*
X73132362Y39420164D01*
X73017030Y39384447D01*
X72916214Y39318014D01*
X72837897Y39226125D01*
X72791646Y39123520D01*
X72200360Y39123520D01*
X72115151Y39115165D01*
X72029837Y39107701D01*
X72025154Y39106340D01*
X72020305Y39105865D01*
X71938346Y39081120D01*
X71856102Y39057226D01*
X71851775Y39054983D01*
X71847108Y39053574D01*
X71771508Y39013377D01*
X71695480Y38973968D01*
X71691670Y38970926D01*
X71687366Y38968638D01*
X71621035Y38914539D01*
X71554088Y38861097D01*
X71547302Y38854405D01*
X71547164Y38854292D01*
X71547058Y38854164D01*
X71544872Y38852008D01*
X69793952Y37101088D01*
X69739599Y37034918D01*
X69684560Y36969324D01*
X69682212Y36965052D01*
X69679118Y36961286D01*
X69638642Y36885800D01*
X69597402Y36810784D01*
X69595929Y36806141D01*
X69593624Y36801842D01*
X69568588Y36719951D01*
X69542697Y36638334D01*
X69542153Y36633487D01*
X69540729Y36628828D01*
X69532082Y36543699D01*
X69522530Y36458543D01*
X69522464Y36449010D01*
X69522446Y36448836D01*
X69522461Y36448673D01*
X69522440Y36445600D01*
X69522440Y32565776D01*
X67449264Y30492600D01*
X61117480Y30492600D01*
X61032271Y30484245D01*
X60946957Y30476781D01*
X60942274Y30475420D01*
X60937425Y30474945D01*
X60855466Y30450200D01*
X60773222Y30426306D01*
X60768895Y30424063D01*
X60764228Y30422654D01*
X60688648Y30382468D01*
X60612599Y30343048D01*
X60608787Y30340005D01*
X60604486Y30337718D01*
X60538146Y30283612D01*
X60471208Y30230176D01*
X60464424Y30223486D01*
X60464284Y30223372D01*
X60464177Y30223243D01*
X60461992Y30221088D01*
X58973552Y28732648D01*
X58919199Y28666478D01*
X58864160Y28600884D01*
X58861812Y28596612D01*
X58858718Y28592846D01*
X58818242Y28517360D01*
X58798360Y28481194D01*
X58798360Y30701626D01*
X58936220Y30868271D01*
X59054758Y31087503D01*
X59128457Y31325583D01*
X59154508Y31573445D01*
X59131920Y31821646D01*
X59061553Y32060733D01*
X58946087Y32281598D01*
X58789921Y32475830D01*
X58599002Y32636030D01*
X58380603Y32756096D01*
X58143042Y32831454D01*
X58037490Y32843294D01*
X58721360Y32843294D01*
X58789358Y32848716D01*
X58904690Y32884433D01*
X59005506Y32950866D01*
X59083823Y33042755D01*
X59133439Y33152825D01*
X59150426Y33272360D01*
X59150426Y34972360D01*
X59145004Y35040358D01*
X59109287Y35155690D01*
X59042854Y35256506D01*
X58950965Y35334823D01*
X58840895Y35384439D01*
X58721360Y35401426D01*
X57021360Y35401426D01*
X56953362Y35396004D01*
X56838030Y35360287D01*
X56737214Y35293854D01*
X56658897Y35201965D01*
X56640485Y35161120D01*
X56377000Y35161120D01*
X56377000Y35404370D01*
X56280250Y35501120D01*
X55143000Y35501120D01*
X55143000Y35481120D01*
X55137000Y35481120D01*
X55137000Y35501120D01*
X53999750Y35501120D01*
X53903000Y35404370D01*
X53903000Y35086004D01*
X53917872Y35011236D01*
X53947045Y34940807D01*
X53974834Y34899218D01*
X53927537Y34843725D01*
X53877921Y34733655D01*
X53860934Y34614120D01*
X53860934Y33854120D01*
X53866356Y33786122D01*
X53902073Y33670790D01*
X53949248Y33599199D01*
X53942363Y33591120D01*
X51496409Y33591120D01*
X49165293Y35922236D01*
X53903000Y35922236D01*
X53903000Y35603870D01*
X53999750Y35507120D01*
X55137000Y35507120D01*
X55137000Y36174370D01*
X55143000Y36174370D01*
X55143000Y35507120D01*
X56280250Y35507120D01*
X56377000Y35603870D01*
X56377000Y35922236D01*
X56362128Y35997004D01*
X56332955Y36067433D01*
X56290603Y36130818D01*
X56236698Y36184722D01*
X56173313Y36227075D01*
X56102884Y36256248D01*
X56028116Y36271120D01*
X55239750Y36271120D01*
X55143000Y36174370D01*
X55137000Y36174370D01*
X55040250Y36271120D01*
X54251884Y36271120D01*
X54177116Y36256248D01*
X54106687Y36227075D01*
X54043302Y36184722D01*
X53989397Y36130818D01*
X53947045Y36067433D01*
X53917872Y35997004D01*
X53903000Y35922236D01*
X49165293Y35922236D01*
X46180409Y38907120D01*
X51985520Y38907120D01*
X52043212Y38912777D01*
X52100858Y38917820D01*
X52104021Y38918739D01*
X52107305Y38919061D01*
X52162744Y38935799D01*
X52218367Y38951959D01*
X52221297Y38953478D01*
X52224451Y38954430D01*
X52275564Y38981607D01*
X52327009Y39008273D01*
X52329586Y39010330D01*
X52332497Y39011878D01*
X52377380Y39048483D01*
X52422643Y39084617D01*
X52427230Y39089141D01*
X52427326Y39089219D01*
X52427400Y39089308D01*
X52428876Y39090764D01*
X52843166Y39505054D01*
X53085520Y39505054D01*
X53153518Y39510476D01*
X53268850Y39546193D01*
X53369666Y39612626D01*
X53440755Y39696034D01*
X53471106Y39649974D01*
X53562995Y39571657D01*
X53673065Y39522041D01*
X53792600Y39505054D01*
X54492600Y39505054D01*
X54560598Y39510476D01*
X54675930Y39546193D01*
X54776746Y39612626D01*
X54855063Y39704515D01*
X54904679Y39814585D01*
X54921666Y39934120D01*
X54921666Y40484370D01*
X55305600Y40484370D01*
X55305600Y39896004D01*
X55320472Y39821236D01*
X55349645Y39750807D01*
X55391998Y39687422D01*
X55445902Y39633517D01*
X55509287Y39591165D01*
X55579716Y39561992D01*
X55654484Y39547120D01*
X55942850Y39547120D01*
X56039600Y39643870D01*
X56039600Y40581120D01*
X56045600Y40581120D01*
X56045600Y39643870D01*
X56142350Y39547120D01*
X56430716Y39547120D01*
X56505484Y39561992D01*
X56575913Y39591165D01*
X56639298Y39633517D01*
X56693202Y39687422D01*
X56735555Y39750807D01*
X56764728Y39821236D01*
X56779600Y39896004D01*
X56779600Y40484370D01*
X56682850Y40581120D01*
X56045600Y40581120D01*
X56039600Y40581120D01*
X55402350Y40581120D01*
X55305600Y40484370D01*
X54921666Y40484370D01*
X54921666Y41234120D01*
X54918627Y41272236D01*
X55305600Y41272236D01*
X55305600Y40683870D01*
X55402350Y40587120D01*
X56039600Y40587120D01*
X56039600Y41524370D01*
X56045600Y41524370D01*
X56045600Y40587120D01*
X56682850Y40587120D01*
X56779600Y40683870D01*
X56779600Y41272236D01*
X56764728Y41347004D01*
X56735555Y41417433D01*
X56693202Y41480818D01*
X56639298Y41534723D01*
X56575913Y41577075D01*
X56505484Y41606248D01*
X56430716Y41621120D01*
X56142350Y41621120D01*
X56045600Y41524370D01*
X56039600Y41524370D01*
X55942850Y41621120D01*
X55654484Y41621120D01*
X55579716Y41606248D01*
X55509287Y41577075D01*
X55445902Y41534723D01*
X55391998Y41480818D01*
X55349645Y41417433D01*
X55320472Y41347004D01*
X55305600Y41272236D01*
X54918627Y41272236D01*
X54916244Y41302118D01*
X54880527Y41417450D01*
X54814094Y41518266D01*
X54722205Y41596583D01*
X54612135Y41646199D01*
X54492600Y41663186D01*
X53792600Y41663186D01*
X53724602Y41657764D01*
X53609270Y41622047D01*
X53508454Y41555614D01*
X53437365Y41472206D01*
X53407014Y41518266D01*
X53315125Y41596583D01*
X53205055Y41646199D01*
X53085520Y41663186D01*
X52385520Y41663186D01*
X52317522Y41657764D01*
X52202190Y41622047D01*
X52101374Y41555614D01*
X52023057Y41463725D01*
X51973441Y41353655D01*
X51956454Y41234120D01*
X51956454Y40391766D01*
X51725808Y40161120D01*
X51614586Y40161120D01*
X51614586Y41234120D01*
X51609164Y41302118D01*
X51573447Y41417450D01*
X51507014Y41518266D01*
X51462520Y41556188D01*
X51462520Y43791450D01*
X51864240Y43791450D01*
X51864240Y43003084D01*
X51879112Y42928316D01*
X51908285Y42857887D01*
X51950637Y42794502D01*
X52004542Y42740598D01*
X52067927Y42698245D01*
X52138356Y42669072D01*
X52213124Y42654200D01*
X53001490Y42654200D01*
X53098240Y42750950D01*
X53098240Y43888200D01*
X51960990Y43888200D01*
X51864240Y43791450D01*
X51462520Y43791450D01*
X51462520Y44779316D01*
X51864240Y44779316D01*
X51864240Y43990950D01*
X51960990Y43894200D01*
X53098240Y43894200D01*
X53098240Y45031450D01*
X53104240Y45031450D01*
X53104240Y43894200D01*
X53124240Y43894200D01*
X53124240Y43888200D01*
X53104240Y43888200D01*
X53104240Y42750950D01*
X53200990Y42654200D01*
X53989356Y42654200D01*
X54064124Y42669072D01*
X54134553Y42698245D01*
X54197938Y42740598D01*
X54251843Y42794502D01*
X54294195Y42857887D01*
X54323368Y42928316D01*
X54338240Y43003084D01*
X54338240Y43318205D01*
X54447177Y43109827D01*
X54621687Y42892780D01*
X54835032Y42713763D01*
X55079085Y42579594D01*
X55344550Y42495383D01*
X55621316Y42464339D01*
X55641240Y42464200D01*
X56843321Y42464200D01*
X56974478Y42477060D01*
X57105820Y42488551D01*
X57113028Y42490645D01*
X57120493Y42491377D01*
X57246658Y42529469D01*
X57336740Y42555640D01*
X58702678Y42555640D01*
X61610720Y39647598D01*
X61610720Y36557559D01*
X61623580Y36426402D01*
X61635071Y36295060D01*
X61637165Y36287852D01*
X61637897Y36280387D01*
X61675989Y36154222D01*
X61712771Y36027617D01*
X61716224Y36020955D01*
X61718393Y36013772D01*
X61780278Y35897382D01*
X61840937Y35780359D01*
X61845617Y35774496D01*
X61849141Y35767869D01*
X61932456Y35665716D01*
X62014689Y35562704D01*
X62024987Y35552261D01*
X62025163Y35552046D01*
X62025363Y35551881D01*
X62028679Y35548518D01*
X65459558Y32117638D01*
X65561407Y32033978D01*
X65662391Y31949243D01*
X65668966Y31945628D01*
X65674765Y31940865D01*
X65790940Y31878572D01*
X65906444Y31815074D01*
X65913597Y31812805D01*
X65920210Y31809259D01*
X66046291Y31770712D01*
X66171909Y31730863D01*
X66179363Y31730027D01*
X66186542Y31727832D01*
X66317697Y31714510D01*
X66448675Y31699819D01*
X66463346Y31699717D01*
X66463618Y31699689D01*
X66463872Y31699713D01*
X66468599Y31699680D01*
X67670680Y31699680D01*
X67947852Y31726857D01*
X68214467Y31807353D01*
X68460370Y31938101D01*
X68676193Y32114123D01*
X68853717Y32328712D01*
X68986179Y32573695D01*
X69068534Y32839742D01*
X69097645Y33116718D01*
X69072404Y33394073D01*
X68993771Y33661244D01*
X68864743Y33908053D01*
X68690233Y34125100D01*
X68476888Y34304117D01*
X68232835Y34438286D01*
X68121896Y34473478D01*
X68163486Y34486035D01*
X68383540Y34603040D01*
X68576677Y34760558D01*
X68735540Y34952591D01*
X68854078Y35171823D01*
X68927777Y35409903D01*
X68953828Y35657765D01*
X68931240Y35905966D01*
X68860873Y36145053D01*
X68745407Y36365918D01*
X68589241Y36560150D01*
X68398322Y36720350D01*
X68179923Y36840416D01*
X67942362Y36915774D01*
X67836810Y36927614D01*
X68520680Y36927614D01*
X68588678Y36933036D01*
X68704010Y36968753D01*
X68804826Y37035186D01*
X68883143Y37127075D01*
X68932759Y37237145D01*
X68949746Y37356680D01*
X68949746Y39056680D01*
X68944324Y39124678D01*
X68908607Y39240010D01*
X68842174Y39340826D01*
X68750285Y39419143D01*
X68640215Y39468759D01*
X68520680Y39485746D01*
X66820680Y39485746D01*
X66752682Y39480324D01*
X66637350Y39444607D01*
X66536534Y39378174D01*
X66458217Y39286285D01*
X66408601Y39176215D01*
X66391614Y39056680D01*
X66391614Y37356680D01*
X66397036Y37288682D01*
X66432753Y37173350D01*
X66499186Y37072534D01*
X66591075Y36994217D01*
X66701145Y36944601D01*
X66820680Y36927614D01*
X67500646Y36927614D01*
X67416464Y36919360D01*
X67177874Y36847325D01*
X66957820Y36730320D01*
X66764683Y36572802D01*
X66605820Y36380769D01*
X66487282Y36161537D01*
X66413583Y35923457D01*
X66387532Y35675595D01*
X66410120Y35427394D01*
X66480487Y35188307D01*
X66541214Y35072148D01*
X64464720Y37148641D01*
X64464720Y40238680D01*
X64451860Y40369837D01*
X64440369Y40501179D01*
X64438275Y40508387D01*
X64437543Y40515852D01*
X64399451Y40642017D01*
X64362669Y40768622D01*
X64359216Y40775284D01*
X64357047Y40782467D01*
X64295162Y40898857D01*
X64234503Y41015880D01*
X64229823Y41021743D01*
X64226299Y41028370D01*
X64142984Y41130523D01*
X64060751Y41233535D01*
X64050453Y41243978D01*
X64050277Y41244193D01*
X64050077Y41244358D01*
X64046761Y41247721D01*
X60302801Y44991681D01*
X60200982Y45075317D01*
X60099968Y45160077D01*
X60093393Y45163692D01*
X60087594Y45168455D01*
X59971400Y45230758D01*
X59855915Y45294246D01*
X59848765Y45296514D01*
X59842150Y45300061D01*
X59716095Y45338600D01*
X59590450Y45378457D01*
X59582991Y45379294D01*
X59575817Y45381487D01*
X59444712Y45394804D01*
X59313684Y45409501D01*
X59299013Y45409603D01*
X59298741Y45409631D01*
X59298487Y45409607D01*
X59293760Y45409640D01*
X56934761Y45409640D01*
X56803641Y45396784D01*
X56672263Y45385289D01*
X56665056Y45383195D01*
X56657589Y45382463D01*
X56531412Y45344368D01*
X56441342Y45318200D01*
X55641240Y45318200D01*
X55364068Y45291023D01*
X55097453Y45210527D01*
X54851550Y45079779D01*
X54635727Y44903757D01*
X54458203Y44689168D01*
X54338240Y44467301D01*
X54338240Y44779316D01*
X54323368Y44854084D01*
X54294195Y44924513D01*
X54251843Y44987898D01*
X54197938Y45041802D01*
X54134553Y45084155D01*
X54064124Y45113328D01*
X53989356Y45128200D01*
X53200990Y45128200D01*
X53104240Y45031450D01*
X53098240Y45031450D01*
X53001490Y45128200D01*
X52213124Y45128200D01*
X52138356Y45113328D01*
X52067927Y45084155D01*
X52004542Y45041802D01*
X51950637Y44987898D01*
X51908285Y44924513D01*
X51879112Y44854084D01*
X51864240Y44779316D01*
X51462520Y44779316D01*
X51462520Y45780288D01*
X52180356Y46498124D01*
X52217141Y46542907D01*
X52254346Y46587246D01*
X52255933Y46590133D01*
X52258027Y46592682D01*
X52285379Y46643694D01*
X52313298Y46694478D01*
X52314297Y46697626D01*
X52315852Y46700527D01*
X52332761Y46755833D01*
X52350299Y46811119D01*
X52350667Y46814399D01*
X52351630Y46817549D01*
X52357479Y46875135D01*
X52363939Y46932726D01*
X52363984Y46939172D01*
X52363996Y46939291D01*
X52363986Y46939402D01*
X52364000Y46941480D01*
X52364000Y47177958D01*
X52397177Y47195598D01*
X52514200Y47256257D01*
X52520063Y47260937D01*
X52526690Y47264461D01*
X52628843Y47347776D01*
X52731855Y47430009D01*
X52742298Y47440307D01*
X52742513Y47440483D01*
X52742678Y47440683D01*
X52746041Y47443999D01*
X55254162Y49952120D01*
X56648542Y49952120D01*
X56663080Y49950054D01*
X58663080Y49950054D01*
X58688990Y49952120D01*
X60663080Y49952120D01*
X60794237Y49964980D01*
X60925579Y49976471D01*
X60932787Y49978565D01*
X60940252Y49979297D01*
X60951192Y49982600D01*
X82786958Y49982600D01*
X93641519Y39128038D01*
X93641519Y39128038D01*
G37*
X93641519Y39128038D02*
X93856726Y38951265D01*
X94102171Y38819659D01*
X94368503Y38738232D01*
X94645579Y38710089D01*
X94922845Y38736298D01*
X95189739Y38815862D01*
X95436096Y38945752D01*
X95563916Y39049258D01*
X95563916Y31677709D01*
X95400663Y31738940D01*
X94654803Y30993080D01*
X95400663Y30247220D01*
X95563916Y30308451D01*
X95563916Y28221074D01*
X95487916Y28604902D01*
X95336435Y28972423D01*
X95116453Y29303522D01*
X94836350Y29585588D01*
X94506795Y29807875D01*
X94250489Y29915617D01*
X94383952Y29869724D01*
X94608230Y29839296D01*
X94834136Y29853208D01*
X95052986Y29910924D01*
X95256372Y30010226D01*
X95326764Y30057262D01*
X95396420Y30242977D01*
X94650560Y30988837D01*
X93904700Y30242977D01*
X93974356Y30057262D01*
X94136725Y29962661D01*
X93750944Y30041850D01*
X93353439Y30044625D01*
X92962965Y29970138D01*
X92594395Y29821227D01*
X92261768Y29603562D01*
X91977755Y29325435D01*
X91753172Y28997440D01*
X91596574Y28632069D01*
X91513926Y28243241D01*
X91508375Y27845764D01*
X91580134Y27454780D01*
X91726470Y27085179D01*
X91941807Y26751041D01*
X92217944Y26465093D01*
X92544364Y26238225D01*
X92908632Y26079080D01*
X93296874Y25993720D01*
X93694302Y25985395D01*
X94085778Y26054423D01*
X94456391Y26198174D01*
X94792024Y26411173D01*
X95079894Y26685308D01*
X95309034Y27010135D01*
X95470718Y27373284D01*
X95558787Y27760920D01*
X95563916Y28128232D01*
X95563916Y25981441D01*
X76793969Y25981441D01*
X76749239Y25977055D01*
X76704588Y25972992D01*
X76702986Y25972520D01*
X76701319Y25972357D01*
X76658350Y25959383D01*
X76615282Y25946708D01*
X76613798Y25945932D01*
X76612198Y25945449D01*
X76572634Y25924413D01*
X76532781Y25903578D01*
X76531474Y25902527D01*
X76530001Y25901744D01*
X76495212Y25873371D01*
X76460230Y25845244D01*
X76459157Y25843966D01*
X76457858Y25842906D01*
X76429192Y25808254D01*
X76400390Y25773930D01*
X76399585Y25772466D01*
X76398518Y25771176D01*
X76377157Y25731669D01*
X76355541Y25692351D01*
X76355035Y25690757D01*
X76354240Y25689286D01*
X76340968Y25646409D01*
X76327393Y25603615D01*
X76327207Y25601953D01*
X76326712Y25600355D01*
X76322027Y25555777D01*
X76317015Y25511101D01*
X76316993Y25507883D01*
X76316981Y25507771D01*
X76316991Y25507659D01*
X76316969Y25504441D01*
X76316969Y21557131D01*
X50317473Y21557131D01*
X50272812Y21552752D01*
X50228126Y21548689D01*
X50226504Y21548212D01*
X50224823Y21548047D01*
X50181906Y21535089D01*
X50138818Y21522411D01*
X50137318Y21521627D01*
X50135702Y21521139D01*
X50096159Y21500114D01*
X50056314Y21479287D01*
X50054994Y21478226D01*
X50053505Y21477434D01*
X50018711Y21449057D01*
X49983759Y21420958D01*
X49982676Y21419668D01*
X49981362Y21418596D01*
X49952690Y21383937D01*
X49923914Y21349649D01*
X49923101Y21348170D01*
X49922022Y21346866D01*
X49900655Y21307349D01*
X49879059Y21268073D01*
X49878548Y21266464D01*
X49877744Y21264976D01*
X49864476Y21222113D01*
X49850904Y21179339D01*
X49850715Y21177658D01*
X49850216Y21176045D01*
X49845538Y21131536D01*
X49840519Y21086826D01*
X49840497Y21083571D01*
X49840485Y21083461D01*
X49840495Y21083351D01*
X49840473Y21080166D01*
X49840400Y20081275D01*
X49849477Y19988624D01*
X49876379Y19899501D01*
X49920078Y19817301D01*
X49978910Y19745154D01*
X50050636Y19685808D01*
X50132523Y19641525D01*
X50221452Y19613990D01*
X50314035Y19604252D01*
X50343058Y19606891D01*
X68749676Y19606891D01*
X68664572Y19482600D01*
X68507974Y19117229D01*
X68425326Y18728401D01*
X68419775Y18330924D01*
X68491534Y17939940D01*
X68637870Y17570339D01*
X68853207Y17236201D01*
X69129344Y16950253D01*
X69455764Y16723385D01*
X69820032Y16564240D01*
X70208274Y16478880D01*
X70605702Y16470555D01*
X70997178Y16539583D01*
X71367791Y16683334D01*
X71703424Y16896333D01*
X71991294Y17170468D01*
X72220434Y17495295D01*
X72382118Y17858444D01*
X72470187Y18246080D01*
X72476527Y18700118D01*
X72399316Y19090062D01*
X72247835Y19457583D01*
X72148635Y19606891D01*
X76316969Y19606891D01*
X76316969Y160891D01*
X71792093Y160891D01*
X71991294Y350588D01*
X72220434Y675415D01*
X72382118Y1038564D01*
X72470187Y1426200D01*
X72476527Y1880238D01*
X72399316Y2270182D01*
X72247835Y2637703D01*
X72027853Y2968802D01*
X71747750Y3250868D01*
X71418195Y3473155D01*
X71051741Y3627199D01*
X70662344Y3707130D01*
X70264839Y3709905D01*
X69874365Y3635418D01*
X69505795Y3486507D01*
X69173168Y3268842D01*
X68889155Y2990715D01*
X68664572Y2662720D01*
X68507974Y2297349D01*
X68425326Y1908521D01*
X68419775Y1511044D01*
X68491534Y1120060D01*
X68637870Y750459D01*
X68853207Y416321D01*
X69099873Y160891D01*
X56704493Y160891D01*
X56903694Y350588D01*
X57132834Y675415D01*
X57294518Y1038564D01*
X57382587Y1426200D01*
X57388927Y1880238D01*
X57311716Y2270182D01*
X57160235Y2637703D01*
X56940253Y2968802D01*
X56660150Y3250868D01*
X56330595Y3473155D01*
X55964141Y3627199D01*
X55574744Y3707130D01*
X55177239Y3709905D01*
X54786765Y3635418D01*
X54418195Y3486507D01*
X54085568Y3268842D01*
X53801555Y2990715D01*
X53576972Y2662720D01*
X53420374Y2297349D01*
X53337726Y1908521D01*
X53332175Y1511044D01*
X53403934Y1120060D01*
X53550270Y750459D01*
X53765607Y416321D01*
X54012273Y160891D01*
X41611558Y160891D01*
X41816094Y355668D01*
X42045234Y680495D01*
X42206918Y1043644D01*
X42294987Y1431280D01*
X42301327Y1885318D01*
X42224116Y2275262D01*
X42072635Y2642783D01*
X41852653Y2973882D01*
X41572550Y3255948D01*
X41242995Y3478235D01*
X40876541Y3632279D01*
X40487144Y3712210D01*
X40089639Y3714985D01*
X39699165Y3640498D01*
X39330595Y3491587D01*
X38997968Y3273922D01*
X38713955Y2995795D01*
X38489372Y2667800D01*
X38332774Y2302429D01*
X38250126Y1913601D01*
X38244575Y1516124D01*
X38316334Y1125140D01*
X38462670Y755539D01*
X38678007Y421401D01*
X38929579Y160891D01*
X26523958Y160891D01*
X26728494Y355668D01*
X26957634Y680495D01*
X27119318Y1043644D01*
X27207387Y1431280D01*
X27213727Y1885318D01*
X27136516Y2275262D01*
X26985035Y2642783D01*
X26765053Y2973882D01*
X26484950Y3255948D01*
X26155395Y3478235D01*
X25788941Y3632279D01*
X25399544Y3712210D01*
X25002039Y3714985D01*
X24611565Y3640498D01*
X24242995Y3491587D01*
X23910368Y3273922D01*
X23626355Y2995795D01*
X23401772Y2667800D01*
X23245174Y2302429D01*
X23162526Y1913601D01*
X23156975Y1516124D01*
X23228734Y1125140D01*
X23375070Y755539D01*
X23590407Y421401D01*
X23841979Y160891D01*
X19317977Y160891D01*
X19317977Y19606891D01*
X23495434Y19606891D01*
X23406852Y19477520D01*
X23250254Y19112149D01*
X23167606Y18723321D01*
X23162055Y18325844D01*
X23233814Y17934860D01*
X23380150Y17565259D01*
X23595487Y17231121D01*
X23871624Y16945173D01*
X24198044Y16718305D01*
X24562312Y16559160D01*
X24950554Y16473800D01*
X25347982Y16465475D01*
X25739458Y16534503D01*
X26110071Y16678254D01*
X26445704Y16891253D01*
X26733574Y17165388D01*
X26962714Y17490215D01*
X27124398Y17853364D01*
X27212467Y18241000D01*
X27218807Y18695038D01*
X27141596Y19084982D01*
X26990115Y19452503D01*
X26887540Y19606891D01*
X45317473Y19606891D01*
X45410123Y19615975D01*
X45499244Y19642883D01*
X45581441Y19686588D01*
X45653584Y19745426D01*
X45712924Y19817156D01*
X45757202Y19899046D01*
X45784730Y19987977D01*
X45794461Y20080561D01*
X45790740Y20121448D01*
X45794469Y21078273D01*
X45790162Y21124044D01*
X45786024Y21169512D01*
X45785817Y21170216D01*
X45785747Y21170957D01*
X45772655Y21214936D01*
X45759740Y21258818D01*
X45759396Y21259475D01*
X45759186Y21260182D01*
X45737889Y21300615D01*
X45716610Y21341319D01*
X45716146Y21341896D01*
X45715802Y21342549D01*
X45686921Y21378244D01*
X45658276Y21413870D01*
X45657713Y21414342D01*
X45657245Y21414921D01*
X45621842Y21444442D01*
X45586962Y21473710D01*
X45586317Y21474064D01*
X45585747Y21474540D01*
X45545361Y21496581D01*
X45505383Y21518559D01*
X45504681Y21518782D01*
X45504030Y21519137D01*
X45460203Y21532891D01*
X45416647Y21546707D01*
X45415914Y21546789D01*
X45415207Y21547011D01*
X45369662Y21551978D01*
X45324133Y21557085D01*
X45322739Y21557095D01*
X45322662Y21557103D01*
X45322579Y21557096D01*
X45317473Y21557131D01*
X37649667Y21557131D01*
X39161888Y23069352D01*
X39216241Y23135522D01*
X39271280Y23201116D01*
X39273628Y23205388D01*
X39276722Y23209154D01*
X39317178Y23284605D01*
X39358438Y23359656D01*
X39359912Y23364303D01*
X39362215Y23368598D01*
X39387242Y23450456D01*
X39413143Y23532106D01*
X39413687Y23536952D01*
X39415111Y23541611D01*
X39423759Y23626746D01*
X39433310Y23711897D01*
X39433376Y23721430D01*
X39433394Y23721604D01*
X39433379Y23721767D01*
X39433400Y23724840D01*
X39433400Y23974370D01*
X40143000Y23974370D01*
X40143000Y23656004D01*
X40157872Y23581236D01*
X40187045Y23510807D01*
X40229397Y23447422D01*
X40283302Y23393518D01*
X40346687Y23351165D01*
X40417116Y23321992D01*
X40491884Y23307120D01*
X41280250Y23307120D01*
X41377000Y23403870D01*
X41377000Y24071120D01*
X41383000Y24071120D01*
X41383000Y23403870D01*
X41479750Y23307120D01*
X42268116Y23307120D01*
X42342884Y23321992D01*
X42413313Y23351165D01*
X42476698Y23393518D01*
X42530603Y23447422D01*
X42572955Y23510807D01*
X42602128Y23581236D01*
X42617000Y23656004D01*
X42617000Y23974370D01*
X42520250Y24071120D01*
X41383000Y24071120D01*
X41377000Y24071120D01*
X40239750Y24071120D01*
X40143000Y23974370D01*
X39433400Y23974370D01*
X39433400Y25074840D01*
X39415745Y25254895D01*
X39363454Y25428092D01*
X39278518Y25587834D01*
X39164172Y25728036D01*
X39042526Y25828671D01*
X39089800Y25803322D01*
X39164816Y25762082D01*
X39169459Y25760609D01*
X39173758Y25758304D01*
X39255691Y25733255D01*
X39337266Y25707377D01*
X39342108Y25706834D01*
X39346772Y25705408D01*
X39431995Y25696751D01*
X39517057Y25687210D01*
X39526579Y25687144D01*
X39526764Y25687125D01*
X39526936Y25687141D01*
X39530000Y25687120D01*
X40100934Y25687120D01*
X40100934Y24964120D01*
X40106356Y24896122D01*
X40142073Y24780790D01*
X40208506Y24679974D01*
X40212943Y24676192D01*
X40187045Y24637433D01*
X40157872Y24567004D01*
X40143000Y24492236D01*
X40143000Y24173870D01*
X40239750Y24077120D01*
X41377000Y24077120D01*
X41377000Y24097120D01*
X41383000Y24097120D01*
X41383000Y24077120D01*
X42520250Y24077120D01*
X42617000Y24173870D01*
X42617000Y24417120D01*
X43139729Y24417120D01*
X43203763Y24338607D01*
X43418352Y24161083D01*
X43663335Y24028621D01*
X43929382Y23946266D01*
X44206358Y23917155D01*
X44483713Y23942396D01*
X44592350Y23974370D01*
X53903000Y23974370D01*
X53903000Y23656004D01*
X53917872Y23581236D01*
X53947045Y23510807D01*
X53989397Y23447422D01*
X54043302Y23393518D01*
X54106687Y23351165D01*
X54177116Y23321992D01*
X54251884Y23307120D01*
X55040250Y23307120D01*
X55137000Y23403870D01*
X55137000Y24071120D01*
X55143000Y24071120D01*
X55143000Y23403870D01*
X55239750Y23307120D01*
X56028116Y23307120D01*
X56102884Y23321992D01*
X56173313Y23351165D01*
X56236698Y23393518D01*
X56290603Y23447422D01*
X56332955Y23510807D01*
X56362128Y23581236D01*
X56377000Y23656004D01*
X56377000Y23974370D01*
X56280250Y24071120D01*
X55143000Y24071120D01*
X55137000Y24071120D01*
X53999750Y24071120D01*
X53903000Y23974370D01*
X44592350Y23974370D01*
X44750884Y24021029D01*
X44997693Y24150057D01*
X45214740Y24324567D01*
X45292401Y24417120D01*
X48356520Y24417120D01*
X48441729Y24425475D01*
X48527043Y24432939D01*
X48531726Y24434300D01*
X48536575Y24434775D01*
X48618534Y24459520D01*
X48700778Y24483414D01*
X48705105Y24485657D01*
X48709772Y24487066D01*
X48740642Y24503480D01*
X53905237Y24503480D01*
X53903000Y24492236D01*
X53903000Y24173870D01*
X53999750Y24077120D01*
X55137000Y24077120D01*
X55137000Y24097120D01*
X55143000Y24097120D01*
X55143000Y24077120D01*
X56280250Y24077120D01*
X56377000Y24173870D01*
X56377000Y24492236D01*
X56362128Y24567004D01*
X56332955Y24637433D01*
X56305166Y24679022D01*
X56352463Y24734515D01*
X56402079Y24844585D01*
X56419066Y24964120D01*
X56419066Y25687120D01*
X56990000Y25687120D01*
X57075209Y25695475D01*
X57160523Y25702939D01*
X57165206Y25704300D01*
X57170055Y25704775D01*
X57252014Y25729520D01*
X57334258Y25753414D01*
X57338585Y25755657D01*
X57343252Y25757066D01*
X57418832Y25797252D01*
X57494881Y25836672D01*
X57498693Y25839715D01*
X57502994Y25842002D01*
X57569334Y25896108D01*
X57636272Y25949544D01*
X57643056Y25956234D01*
X57643196Y25956348D01*
X57643303Y25956477D01*
X57645488Y25958632D01*
X58526848Y26839992D01*
X58581201Y26906162D01*
X58636240Y26971756D01*
X58638588Y26976028D01*
X58641682Y26979794D01*
X58682138Y27055245D01*
X58702040Y27091446D01*
X58702040Y26606896D01*
X57586712Y25491568D01*
X57471878Y25351766D01*
X57386384Y25192322D01*
X57333489Y25019308D01*
X57315206Y24839316D01*
X57332231Y24659200D01*
X57383918Y24485822D01*
X57468296Y24325784D01*
X57582152Y24185185D01*
X57721149Y24069377D01*
X57879992Y23982773D01*
X58052632Y23928670D01*
X58232493Y23909131D01*
X58412723Y23924899D01*
X58586458Y23975374D01*
X58747081Y24058632D01*
X58888472Y24171504D01*
X58897688Y24180592D01*
X60236220Y25519124D01*
X61201095Y25519124D01*
X61272854Y25128140D01*
X61419190Y24758539D01*
X61634527Y24424401D01*
X61910664Y24138453D01*
X62237084Y23911585D01*
X62601352Y23752440D01*
X62989594Y23667080D01*
X63387022Y23658755D01*
X63778498Y23727783D01*
X64149111Y23871534D01*
X64484744Y24084533D01*
X64772614Y24358668D01*
X65001754Y24683495D01*
X65163438Y25046644D01*
X65251507Y25434280D01*
X65257847Y25888318D01*
X65180636Y26278262D01*
X65029155Y26645783D01*
X64809173Y26976882D01*
X64529070Y27258948D01*
X64199515Y27481235D01*
X63833061Y27635279D01*
X63443664Y27715210D01*
X63046159Y27717985D01*
X62655685Y27643498D01*
X62287115Y27494587D01*
X61954488Y27276922D01*
X61670475Y26998795D01*
X61445892Y26670800D01*
X61289294Y26305429D01*
X61206646Y25916601D01*
X61201095Y25519124D01*
X60236220Y25519124D01*
X60284528Y25567432D01*
X60338881Y25633602D01*
X60393920Y25699196D01*
X60396268Y25703468D01*
X60399362Y25707234D01*
X60439838Y25782720D01*
X60481078Y25857736D01*
X60482551Y25862379D01*
X60484856Y25866678D01*
X60509892Y25948569D01*
X60535783Y26030186D01*
X60536327Y26035033D01*
X60537751Y26039692D01*
X60546398Y26124821D01*
X60555950Y26209977D01*
X60556016Y26219510D01*
X60556034Y26219684D01*
X60556019Y26219847D01*
X60556040Y26222920D01*
X60556040Y27693184D01*
X61501456Y28638600D01*
X67833240Y28638600D01*
X67918449Y28646955D01*
X68003763Y28654419D01*
X68008446Y28655780D01*
X68013295Y28656255D01*
X68095254Y28681000D01*
X68177498Y28704894D01*
X68181825Y28707137D01*
X68186492Y28708546D01*
X68262072Y28748732D01*
X68338121Y28788152D01*
X68341933Y28791195D01*
X68346234Y28793482D01*
X68412574Y28847588D01*
X68479512Y28901024D01*
X68486296Y28907714D01*
X68486436Y28907828D01*
X68486543Y28907957D01*
X68488728Y28910112D01*
X69825593Y30246977D01*
X78664700Y30246977D01*
X78734356Y30061262D01*
X78929918Y29947322D01*
X79143952Y29873724D01*
X79368230Y29843296D01*
X79594136Y29857208D01*
X79812986Y29914924D01*
X80016372Y30014226D01*
X80086764Y30061262D01*
X80156420Y30246977D01*
X79410560Y30992837D01*
X78664700Y30246977D01*
X69825593Y30246977D01*
X70618026Y31039410D01*
X78256776Y31039410D01*
X78270688Y30813504D01*
X78328404Y30594654D01*
X78427706Y30391268D01*
X78474742Y30320876D01*
X78660457Y30251220D01*
X79406317Y30997080D01*
X79414803Y30997080D01*
X80160663Y30251220D01*
X80346378Y30320876D01*
X80460318Y30516438D01*
X80533916Y30730472D01*
X80564344Y30954750D01*
X80559377Y31035410D01*
X93496776Y31035410D01*
X93510688Y30809504D01*
X93568404Y30590654D01*
X93667706Y30387268D01*
X93714742Y30316876D01*
X93900457Y30247220D01*
X94646317Y30993080D01*
X93900457Y31738940D01*
X93714742Y31669284D01*
X93600802Y31473722D01*
X93527204Y31259688D01*
X93496776Y31035410D01*
X80559377Y31035410D01*
X80550432Y31180656D01*
X80492716Y31399506D01*
X80393414Y31602892D01*
X80346378Y31673284D01*
X80160663Y31742940D01*
X79414803Y30997080D01*
X79406317Y30997080D01*
X78660457Y31742940D01*
X78474742Y31673284D01*
X78360802Y31477722D01*
X78287204Y31263688D01*
X78256776Y31039410D01*
X70618026Y31039410D01*
X71104928Y31526312D01*
X71159281Y31592482D01*
X71214320Y31658076D01*
X71216668Y31662348D01*
X71219762Y31666114D01*
X71260227Y31741581D01*
X71263306Y31747183D01*
X78664700Y31747183D01*
X79410560Y31001323D01*
X80152420Y31743183D01*
X93904700Y31743183D01*
X94650560Y30997323D01*
X95396420Y31743183D01*
X95326764Y31928898D01*
X95131202Y32042838D01*
X94917168Y32116436D01*
X94692890Y32146864D01*
X94466984Y32132952D01*
X94248134Y32075236D01*
X94044748Y31975934D01*
X93974356Y31928898D01*
X93904700Y31743183D01*
X80152420Y31743183D01*
X80156420Y31747183D01*
X80086764Y31932898D01*
X79891202Y32046838D01*
X79677168Y32120436D01*
X79452890Y32150864D01*
X79226984Y32136952D01*
X79008134Y32079236D01*
X78804748Y31979934D01*
X78734356Y31932898D01*
X78664700Y31747183D01*
X71263306Y31747183D01*
X71301478Y31816616D01*
X71302952Y31821261D01*
X71305256Y31825559D01*
X71330301Y31907477D01*
X71356183Y31989066D01*
X71356726Y31993908D01*
X71358152Y31998572D01*
X71366808Y32083791D01*
X71376350Y32168857D01*
X71376416Y32178380D01*
X71376435Y32178565D01*
X71376419Y32178737D01*
X71376440Y32181800D01*
X71376440Y32419417D01*
X73227500Y32419417D01*
X73301713Y32229810D01*
X73503733Y32112086D01*
X73724837Y32036036D01*
X73956531Y32004583D01*
X74189908Y32018935D01*
X74416001Y32078541D01*
X74626121Y32181110D01*
X74699007Y32229810D01*
X74773220Y32419417D01*
X74000360Y33192277D01*
X73227500Y32419417D01*
X71376440Y32419417D01*
X71376440Y33240349D01*
X72808423Y33240349D01*
X72822775Y33006972D01*
X72882381Y32780879D01*
X72984950Y32570759D01*
X73033650Y32497873D01*
X73223257Y32423660D01*
X73996117Y33196520D01*
X74004603Y33196520D01*
X74777463Y32423660D01*
X74967070Y32497873D01*
X75084794Y32699893D01*
X75160844Y32920997D01*
X75192297Y33152691D01*
X75177945Y33386068D01*
X75118339Y33612161D01*
X75015770Y33822281D01*
X74967070Y33895167D01*
X74777463Y33969380D01*
X74004603Y33196520D01*
X73996117Y33196520D01*
X73223257Y33969380D01*
X73033650Y33895167D01*
X72915926Y33693147D01*
X72839876Y33472043D01*
X72808423Y33240349D01*
X71376440Y33240349D01*
X71376440Y33973623D01*
X73227500Y33973623D01*
X74000360Y33200763D01*
X74773220Y33973623D01*
X74699007Y34163230D01*
X74496987Y34280954D01*
X74275883Y34357004D01*
X74044189Y34388457D01*
X73810812Y34374105D01*
X73584719Y34314499D01*
X73374599Y34211930D01*
X73301713Y34163230D01*
X73227500Y33973623D01*
X71376440Y33973623D01*
X71376440Y36061624D01*
X72584336Y37269520D01*
X72794988Y37269520D01*
X72812433Y37213190D01*
X72878866Y37112374D01*
X72970755Y37034057D01*
X73080825Y36984441D01*
X73200360Y36967454D01*
X74800360Y36967454D01*
X74868358Y36972876D01*
X74983690Y37008593D01*
X75084506Y37075026D01*
X75162823Y37166915D01*
X75212439Y37276985D01*
X75229426Y37396520D01*
X75229426Y38114610D01*
X76324896Y39210080D01*
X78660893Y39210080D01*
X78827688Y39094154D01*
X79041361Y39000802D01*
X79269097Y38950731D01*
X79502220Y38945848D01*
X79731853Y38986339D01*
X79949247Y39070660D01*
X80146123Y39195602D01*
X80314982Y39356404D01*
X80449392Y39546941D01*
X80544232Y39759957D01*
X80595892Y39987338D01*
X80599611Y40253667D01*
X80554320Y40482402D01*
X80465464Y40697983D01*
X80336427Y40892199D01*
X80172124Y41057653D01*
X79978813Y41188043D01*
X79763858Y41278402D01*
X79535446Y41325288D01*
X79302276Y41326916D01*
X79073232Y41283223D01*
X78857036Y41195874D01*
X78661923Y41068196D01*
X78657720Y41064080D01*
X75940920Y41064080D01*
X75855661Y41055720D01*
X75770397Y41048260D01*
X75765719Y41046901D01*
X75760865Y41046425D01*
X75678864Y41021668D01*
X75596662Y40997786D01*
X75592335Y40995543D01*
X75587668Y40994134D01*
X75512049Y40953927D01*
X75436039Y40914527D01*
X75432231Y40911487D01*
X75427926Y40909198D01*
X75361559Y40855070D01*
X75294648Y40801656D01*
X75287864Y40794966D01*
X75287724Y40794852D01*
X75287617Y40794723D01*
X75285432Y40792568D01*
X73918450Y39425586D01*
X73200360Y39425586D01*
X73132362Y39420164D01*
X73017030Y39384447D01*
X72916214Y39318014D01*
X72837897Y39226125D01*
X72791646Y39123520D01*
X72200360Y39123520D01*
X72115151Y39115165D01*
X72029837Y39107701D01*
X72025154Y39106340D01*
X72020305Y39105865D01*
X71938346Y39081120D01*
X71856102Y39057226D01*
X71851775Y39054983D01*
X71847108Y39053574D01*
X71771508Y39013377D01*
X71695480Y38973968D01*
X71691670Y38970926D01*
X71687366Y38968638D01*
X71621035Y38914539D01*
X71554088Y38861097D01*
X71547302Y38854405D01*
X71547164Y38854292D01*
X71547058Y38854164D01*
X71544872Y38852008D01*
X69793952Y37101088D01*
X69739599Y37034918D01*
X69684560Y36969324D01*
X69682212Y36965052D01*
X69679118Y36961286D01*
X69638642Y36885800D01*
X69597402Y36810784D01*
X69595929Y36806141D01*
X69593624Y36801842D01*
X69568588Y36719951D01*
X69542697Y36638334D01*
X69542153Y36633487D01*
X69540729Y36628828D01*
X69532082Y36543699D01*
X69522530Y36458543D01*
X69522464Y36449010D01*
X69522446Y36448836D01*
X69522461Y36448673D01*
X69522440Y36445600D01*
X69522440Y32565776D01*
X67449264Y30492600D01*
X61117480Y30492600D01*
X61032271Y30484245D01*
X60946957Y30476781D01*
X60942274Y30475420D01*
X60937425Y30474945D01*
X60855466Y30450200D01*
X60773222Y30426306D01*
X60768895Y30424063D01*
X60764228Y30422654D01*
X60688648Y30382468D01*
X60612599Y30343048D01*
X60608787Y30340005D01*
X60604486Y30337718D01*
X60538146Y30283612D01*
X60471208Y30230176D01*
X60464424Y30223486D01*
X60464284Y30223372D01*
X60464177Y30223243D01*
X60461992Y30221088D01*
X58973552Y28732648D01*
X58919199Y28666478D01*
X58864160Y28600884D01*
X58861812Y28596612D01*
X58858718Y28592846D01*
X58818242Y28517360D01*
X58798360Y28481194D01*
X58798360Y30701626D01*
X58936220Y30868271D01*
X59054758Y31087503D01*
X59128457Y31325583D01*
X59154508Y31573445D01*
X59131920Y31821646D01*
X59061553Y32060733D01*
X58946087Y32281598D01*
X58789921Y32475830D01*
X58599002Y32636030D01*
X58380603Y32756096D01*
X58143042Y32831454D01*
X58037490Y32843294D01*
X58721360Y32843294D01*
X58789358Y32848716D01*
X58904690Y32884433D01*
X59005506Y32950866D01*
X59083823Y33042755D01*
X59133439Y33152825D01*
X59150426Y33272360D01*
X59150426Y34972360D01*
X59145004Y35040358D01*
X59109287Y35155690D01*
X59042854Y35256506D01*
X58950965Y35334823D01*
X58840895Y35384439D01*
X58721360Y35401426D01*
X57021360Y35401426D01*
X56953362Y35396004D01*
X56838030Y35360287D01*
X56737214Y35293854D01*
X56658897Y35201965D01*
X56640485Y35161120D01*
X56377000Y35161120D01*
X56377000Y35404370D01*
X56280250Y35501120D01*
X55143000Y35501120D01*
X55143000Y35481120D01*
X55137000Y35481120D01*
X55137000Y35501120D01*
X53999750Y35501120D01*
X53903000Y35404370D01*
X53903000Y35086004D01*
X53917872Y35011236D01*
X53947045Y34940807D01*
X53974834Y34899218D01*
X53927537Y34843725D01*
X53877921Y34733655D01*
X53860934Y34614120D01*
X53860934Y33854120D01*
X53866356Y33786122D01*
X53902073Y33670790D01*
X53949248Y33599199D01*
X53942363Y33591120D01*
X51496409Y33591120D01*
X49165293Y35922236D01*
X53903000Y35922236D01*
X53903000Y35603870D01*
X53999750Y35507120D01*
X55137000Y35507120D01*
X55137000Y36174370D01*
X55143000Y36174370D01*
X55143000Y35507120D01*
X56280250Y35507120D01*
X56377000Y35603870D01*
X56377000Y35922236D01*
X56362128Y35997004D01*
X56332955Y36067433D01*
X56290603Y36130818D01*
X56236698Y36184722D01*
X56173313Y36227075D01*
X56102884Y36256248D01*
X56028116Y36271120D01*
X55239750Y36271120D01*
X55143000Y36174370D01*
X55137000Y36174370D01*
X55040250Y36271120D01*
X54251884Y36271120D01*
X54177116Y36256248D01*
X54106687Y36227075D01*
X54043302Y36184722D01*
X53989397Y36130818D01*
X53947045Y36067433D01*
X53917872Y35997004D01*
X53903000Y35922236D01*
X49165293Y35922236D01*
X46180409Y38907120D01*
X51985520Y38907120D01*
X52043212Y38912777D01*
X52100858Y38917820D01*
X52104021Y38918739D01*
X52107305Y38919061D01*
X52162744Y38935799D01*
X52218367Y38951959D01*
X52221297Y38953478D01*
X52224451Y38954430D01*
X52275564Y38981607D01*
X52327009Y39008273D01*
X52329586Y39010330D01*
X52332497Y39011878D01*
X52377380Y39048483D01*
X52422643Y39084617D01*
X52427230Y39089141D01*
X52427326Y39089219D01*
X52427400Y39089308D01*
X52428876Y39090764D01*
X52843166Y39505054D01*
X53085520Y39505054D01*
X53153518Y39510476D01*
X53268850Y39546193D01*
X53369666Y39612626D01*
X53440755Y39696034D01*
X53471106Y39649974D01*
X53562995Y39571657D01*
X53673065Y39522041D01*
X53792600Y39505054D01*
X54492600Y39505054D01*
X54560598Y39510476D01*
X54675930Y39546193D01*
X54776746Y39612626D01*
X54855063Y39704515D01*
X54904679Y39814585D01*
X54921666Y39934120D01*
X54921666Y40484370D01*
X55305600Y40484370D01*
X55305600Y39896004D01*
X55320472Y39821236D01*
X55349645Y39750807D01*
X55391998Y39687422D01*
X55445902Y39633517D01*
X55509287Y39591165D01*
X55579716Y39561992D01*
X55654484Y39547120D01*
X55942850Y39547120D01*
X56039600Y39643870D01*
X56039600Y40581120D01*
X56045600Y40581120D01*
X56045600Y39643870D01*
X56142350Y39547120D01*
X56430716Y39547120D01*
X56505484Y39561992D01*
X56575913Y39591165D01*
X56639298Y39633517D01*
X56693202Y39687422D01*
X56735555Y39750807D01*
X56764728Y39821236D01*
X56779600Y39896004D01*
X56779600Y40484370D01*
X56682850Y40581120D01*
X56045600Y40581120D01*
X56039600Y40581120D01*
X55402350Y40581120D01*
X55305600Y40484370D01*
X54921666Y40484370D01*
X54921666Y41234120D01*
X54918627Y41272236D01*
X55305600Y41272236D01*
X55305600Y40683870D01*
X55402350Y40587120D01*
X56039600Y40587120D01*
X56039600Y41524370D01*
X56045600Y41524370D01*
X56045600Y40587120D01*
X56682850Y40587120D01*
X56779600Y40683870D01*
X56779600Y41272236D01*
X56764728Y41347004D01*
X56735555Y41417433D01*
X56693202Y41480818D01*
X56639298Y41534723D01*
X56575913Y41577075D01*
X56505484Y41606248D01*
X56430716Y41621120D01*
X56142350Y41621120D01*
X56045600Y41524370D01*
X56039600Y41524370D01*
X55942850Y41621120D01*
X55654484Y41621120D01*
X55579716Y41606248D01*
X55509287Y41577075D01*
X55445902Y41534723D01*
X55391998Y41480818D01*
X55349645Y41417433D01*
X55320472Y41347004D01*
X55305600Y41272236D01*
X54918627Y41272236D01*
X54916244Y41302118D01*
X54880527Y41417450D01*
X54814094Y41518266D01*
X54722205Y41596583D01*
X54612135Y41646199D01*
X54492600Y41663186D01*
X53792600Y41663186D01*
X53724602Y41657764D01*
X53609270Y41622047D01*
X53508454Y41555614D01*
X53437365Y41472206D01*
X53407014Y41518266D01*
X53315125Y41596583D01*
X53205055Y41646199D01*
X53085520Y41663186D01*
X52385520Y41663186D01*
X52317522Y41657764D01*
X52202190Y41622047D01*
X52101374Y41555614D01*
X52023057Y41463725D01*
X51973441Y41353655D01*
X51956454Y41234120D01*
X51956454Y40391766D01*
X51725808Y40161120D01*
X51614586Y40161120D01*
X51614586Y41234120D01*
X51609164Y41302118D01*
X51573447Y41417450D01*
X51507014Y41518266D01*
X51462520Y41556188D01*
X51462520Y43791450D01*
X51864240Y43791450D01*
X51864240Y43003084D01*
X51879112Y42928316D01*
X51908285Y42857887D01*
X51950637Y42794502D01*
X52004542Y42740598D01*
X52067927Y42698245D01*
X52138356Y42669072D01*
X52213124Y42654200D01*
X53001490Y42654200D01*
X53098240Y42750950D01*
X53098240Y43888200D01*
X51960990Y43888200D01*
X51864240Y43791450D01*
X51462520Y43791450D01*
X51462520Y44779316D01*
X51864240Y44779316D01*
X51864240Y43990950D01*
X51960990Y43894200D01*
X53098240Y43894200D01*
X53098240Y45031450D01*
X53104240Y45031450D01*
X53104240Y43894200D01*
X53124240Y43894200D01*
X53124240Y43888200D01*
X53104240Y43888200D01*
X53104240Y42750950D01*
X53200990Y42654200D01*
X53989356Y42654200D01*
X54064124Y42669072D01*
X54134553Y42698245D01*
X54197938Y42740598D01*
X54251843Y42794502D01*
X54294195Y42857887D01*
X54323368Y42928316D01*
X54338240Y43003084D01*
X54338240Y43318205D01*
X54447177Y43109827D01*
X54621687Y42892780D01*
X54835032Y42713763D01*
X55079085Y42579594D01*
X55344550Y42495383D01*
X55621316Y42464339D01*
X55641240Y42464200D01*
X56843321Y42464200D01*
X56974478Y42477060D01*
X57105820Y42488551D01*
X57113028Y42490645D01*
X57120493Y42491377D01*
X57246658Y42529469D01*
X57336740Y42555640D01*
X58702678Y42555640D01*
X61610720Y39647598D01*
X61610720Y36557559D01*
X61623580Y36426402D01*
X61635071Y36295060D01*
X61637165Y36287852D01*
X61637897Y36280387D01*
X61675989Y36154222D01*
X61712771Y36027617D01*
X61716224Y36020955D01*
X61718393Y36013772D01*
X61780278Y35897382D01*
X61840937Y35780359D01*
X61845617Y35774496D01*
X61849141Y35767869D01*
X61932456Y35665716D01*
X62014689Y35562704D01*
X62024987Y35552261D01*
X62025163Y35552046D01*
X62025363Y35551881D01*
X62028679Y35548518D01*
X65459558Y32117638D01*
X65561407Y32033978D01*
X65662391Y31949243D01*
X65668966Y31945628D01*
X65674765Y31940865D01*
X65790940Y31878572D01*
X65906444Y31815074D01*
X65913597Y31812805D01*
X65920210Y31809259D01*
X66046291Y31770712D01*
X66171909Y31730863D01*
X66179363Y31730027D01*
X66186542Y31727832D01*
X66317697Y31714510D01*
X66448675Y31699819D01*
X66463346Y31699717D01*
X66463618Y31699689D01*
X66463872Y31699713D01*
X66468599Y31699680D01*
X67670680Y31699680D01*
X67947852Y31726857D01*
X68214467Y31807353D01*
X68460370Y31938101D01*
X68676193Y32114123D01*
X68853717Y32328712D01*
X68986179Y32573695D01*
X69068534Y32839742D01*
X69097645Y33116718D01*
X69072404Y33394073D01*
X68993771Y33661244D01*
X68864743Y33908053D01*
X68690233Y34125100D01*
X68476888Y34304117D01*
X68232835Y34438286D01*
X68121896Y34473478D01*
X68163486Y34486035D01*
X68383540Y34603040D01*
X68576677Y34760558D01*
X68735540Y34952591D01*
X68854078Y35171823D01*
X68927777Y35409903D01*
X68953828Y35657765D01*
X68931240Y35905966D01*
X68860873Y36145053D01*
X68745407Y36365918D01*
X68589241Y36560150D01*
X68398322Y36720350D01*
X68179923Y36840416D01*
X67942362Y36915774D01*
X67836810Y36927614D01*
X68520680Y36927614D01*
X68588678Y36933036D01*
X68704010Y36968753D01*
X68804826Y37035186D01*
X68883143Y37127075D01*
X68932759Y37237145D01*
X68949746Y37356680D01*
X68949746Y39056680D01*
X68944324Y39124678D01*
X68908607Y39240010D01*
X68842174Y39340826D01*
X68750285Y39419143D01*
X68640215Y39468759D01*
X68520680Y39485746D01*
X66820680Y39485746D01*
X66752682Y39480324D01*
X66637350Y39444607D01*
X66536534Y39378174D01*
X66458217Y39286285D01*
X66408601Y39176215D01*
X66391614Y39056680D01*
X66391614Y37356680D01*
X66397036Y37288682D01*
X66432753Y37173350D01*
X66499186Y37072534D01*
X66591075Y36994217D01*
X66701145Y36944601D01*
X66820680Y36927614D01*
X67500646Y36927614D01*
X67416464Y36919360D01*
X67177874Y36847325D01*
X66957820Y36730320D01*
X66764683Y36572802D01*
X66605820Y36380769D01*
X66487282Y36161537D01*
X66413583Y35923457D01*
X66387532Y35675595D01*
X66410120Y35427394D01*
X66480487Y35188307D01*
X66541214Y35072148D01*
X64464720Y37148641D01*
X64464720Y40238680D01*
X64451860Y40369837D01*
X64440369Y40501179D01*
X64438275Y40508387D01*
X64437543Y40515852D01*
X64399451Y40642017D01*
X64362669Y40768622D01*
X64359216Y40775284D01*
X64357047Y40782467D01*
X64295162Y40898857D01*
X64234503Y41015880D01*
X64229823Y41021743D01*
X64226299Y41028370D01*
X64142984Y41130523D01*
X64060751Y41233535D01*
X64050453Y41243978D01*
X64050277Y41244193D01*
X64050077Y41244358D01*
X64046761Y41247721D01*
X60302801Y44991681D01*
X60200982Y45075317D01*
X60099968Y45160077D01*
X60093393Y45163692D01*
X60087594Y45168455D01*
X59971400Y45230758D01*
X59855915Y45294246D01*
X59848765Y45296514D01*
X59842150Y45300061D01*
X59716095Y45338600D01*
X59590450Y45378457D01*
X59582991Y45379294D01*
X59575817Y45381487D01*
X59444712Y45394804D01*
X59313684Y45409501D01*
X59299013Y45409603D01*
X59298741Y45409631D01*
X59298487Y45409607D01*
X59293760Y45409640D01*
X56934761Y45409640D01*
X56803641Y45396784D01*
X56672263Y45385289D01*
X56665056Y45383195D01*
X56657589Y45382463D01*
X56531412Y45344368D01*
X56441342Y45318200D01*
X55641240Y45318200D01*
X55364068Y45291023D01*
X55097453Y45210527D01*
X54851550Y45079779D01*
X54635727Y44903757D01*
X54458203Y44689168D01*
X54338240Y44467301D01*
X54338240Y44779316D01*
X54323368Y44854084D01*
X54294195Y44924513D01*
X54251843Y44987898D01*
X54197938Y45041802D01*
X54134553Y45084155D01*
X54064124Y45113328D01*
X53989356Y45128200D01*
X53200990Y45128200D01*
X53104240Y45031450D01*
X53098240Y45031450D01*
X53001490Y45128200D01*
X52213124Y45128200D01*
X52138356Y45113328D01*
X52067927Y45084155D01*
X52004542Y45041802D01*
X51950637Y44987898D01*
X51908285Y44924513D01*
X51879112Y44854084D01*
X51864240Y44779316D01*
X51462520Y44779316D01*
X51462520Y45780288D01*
X52180356Y46498124D01*
X52217141Y46542907D01*
X52254346Y46587246D01*
X52255933Y46590133D01*
X52258027Y46592682D01*
X52285379Y46643694D01*
X52313298Y46694478D01*
X52314297Y46697626D01*
X52315852Y46700527D01*
X52332761Y46755833D01*
X52350299Y46811119D01*
X52350667Y46814399D01*
X52351630Y46817549D01*
X52357479Y46875135D01*
X52363939Y46932726D01*
X52363984Y46939172D01*
X52363996Y46939291D01*
X52363986Y46939402D01*
X52364000Y46941480D01*
X52364000Y47177958D01*
X52397177Y47195598D01*
X52514200Y47256257D01*
X52520063Y47260937D01*
X52526690Y47264461D01*
X52628843Y47347776D01*
X52731855Y47430009D01*
X52742298Y47440307D01*
X52742513Y47440483D01*
X52742678Y47440683D01*
X52746041Y47443999D01*
X55254162Y49952120D01*
X56648542Y49952120D01*
X56663080Y49950054D01*
X58663080Y49950054D01*
X58688990Y49952120D01*
X60663080Y49952120D01*
X60794237Y49964980D01*
X60925579Y49976471D01*
X60932787Y49978565D01*
X60940252Y49979297D01*
X60951192Y49982600D01*
X82786958Y49982600D01*
X93641519Y39128038D01*
G36*
X36289628Y35836820D02*
X36182215Y35885239D01*
X36062680Y35902226D01*
X34762680Y35902226D01*
X34694682Y35896804D01*
X34579350Y35861087D01*
X34478534Y35794654D01*
X34400217Y35702765D01*
X34350601Y35592695D01*
X34333614Y35473160D01*
X34333614Y34773160D01*
X34339036Y34705162D01*
X34374753Y34589830D01*
X34441186Y34489014D01*
X34533075Y34410697D01*
X34643145Y34361081D01*
X34762680Y34344094D01*
X36062680Y34344094D01*
X36130678Y34349516D01*
X36246010Y34385233D01*
X36346826Y34451666D01*
X36384748Y34496160D01*
X36462680Y34496160D01*
X36520372Y34501817D01*
X36578018Y34506860D01*
X36581181Y34507779D01*
X36584465Y34508101D01*
X36639904Y34524839D01*
X36695527Y34540999D01*
X36698457Y34542518D01*
X36701611Y34543470D01*
X36752724Y34570647D01*
X36804169Y34597313D01*
X36806746Y34599370D01*
X36809657Y34600918D01*
X36854540Y34637523D01*
X36899803Y34673657D01*
X36904390Y34678181D01*
X36904486Y34678259D01*
X36904560Y34678348D01*
X36906036Y34679804D01*
X37424228Y35197996D01*
X37376401Y35091895D01*
X37359414Y34972360D01*
X37359414Y33272360D01*
X37364836Y33204362D01*
X37400553Y33089030D01*
X37466986Y32988214D01*
X37558875Y32909897D01*
X37668945Y32860281D01*
X37788480Y32843294D01*
X38468446Y32843294D01*
X38384264Y32835040D01*
X38145674Y32763005D01*
X37925620Y32646000D01*
X37732483Y32488482D01*
X37573620Y32296449D01*
X37455082Y32077217D01*
X37381383Y31839137D01*
X37357553Y31612409D01*
X37132993Y31387849D01*
X37078640Y31321679D01*
X37023601Y31256085D01*
X37021253Y31251813D01*
X37018159Y31248047D01*
X36977683Y31172561D01*
X36936443Y31097545D01*
X36934970Y31092902D01*
X36932665Y31088603D01*
X36907629Y31006712D01*
X36881738Y30925095D01*
X36881194Y30920248D01*
X36879770Y30915589D01*
X36871123Y30830460D01*
X36861571Y30745304D01*
X36861505Y30735771D01*
X36861487Y30735597D01*
X36861502Y30735434D01*
X36861481Y30732361D01*
X36861481Y28355639D01*
X36869836Y28270430D01*
X36877300Y28185116D01*
X36878661Y28180433D01*
X36879136Y28175584D01*
X36903881Y28093625D01*
X36927775Y28011381D01*
X36930018Y28007054D01*
X36931427Y28002387D01*
X36971613Y27926807D01*
X37011033Y27850758D01*
X37014076Y27846946D01*
X37016363Y27842645D01*
X37070469Y27776305D01*
X37123905Y27709367D01*
X37130595Y27702583D01*
X37130709Y27702443D01*
X37130838Y27702336D01*
X37132993Y27700151D01*
X38874512Y25958632D01*
X38940682Y25904279D01*
X38992473Y25860822D01*
X38865627Y25929407D01*
X38692799Y25982906D01*
X38512872Y26001817D01*
X38332698Y25985420D01*
X38159140Y25934339D01*
X37998809Y25850521D01*
X37857812Y25737156D01*
X37741520Y25598564D01*
X37654362Y25440024D01*
X37599657Y25267574D01*
X37579490Y25087783D01*
X37579400Y25074840D01*
X37579400Y24108816D01*
X36393984Y22923400D01*
X28608456Y22923400D01*
X27134720Y24397136D01*
X27134720Y25186640D01*
X27126365Y25271849D01*
X27118901Y25357163D01*
X27117540Y25361846D01*
X27117065Y25366695D01*
X27092320Y25448654D01*
X27074799Y25508964D01*
X31284975Y25508964D01*
X31356734Y25117980D01*
X31503070Y24748379D01*
X31718407Y24414241D01*
X31994544Y24128293D01*
X32320964Y23901425D01*
X32685232Y23742280D01*
X33073474Y23656920D01*
X33470902Y23648595D01*
X33862378Y23717623D01*
X34232991Y23861374D01*
X34568624Y24074373D01*
X34856494Y24348508D01*
X35085634Y24673335D01*
X35247318Y25036484D01*
X35335387Y25424120D01*
X35341727Y25878158D01*
X35264516Y26268102D01*
X35113035Y26635623D01*
X34893053Y26966722D01*
X34612950Y27248788D01*
X34283395Y27471075D01*
X33916941Y27625119D01*
X33527544Y27705050D01*
X33130039Y27707825D01*
X32739565Y27633338D01*
X32370995Y27484427D01*
X32038368Y27266762D01*
X31754355Y26988635D01*
X31529772Y26660640D01*
X31373174Y26295269D01*
X31290526Y25906441D01*
X31284975Y25508964D01*
X27074799Y25508964D01*
X27068426Y25530898D01*
X27066183Y25535225D01*
X27064774Y25539892D01*
X27024588Y25615472D01*
X26985168Y25691521D01*
X26982125Y25695333D01*
X26979838Y25699634D01*
X26925732Y25765974D01*
X26872296Y25832912D01*
X26865606Y25839696D01*
X26865492Y25839836D01*
X26865363Y25839943D01*
X26863208Y25842128D01*
X25623688Y27081648D01*
X25557518Y27136001D01*
X25491924Y27191040D01*
X25487652Y27193388D01*
X25483886Y27196482D01*
X25408400Y27236958D01*
X25333384Y27278198D01*
X25328741Y27279671D01*
X25324442Y27281976D01*
X25242551Y27307012D01*
X25160934Y27332903D01*
X25156087Y27333447D01*
X25151428Y27334871D01*
X25066299Y27343518D01*
X24981143Y27353070D01*
X24971610Y27353136D01*
X24971436Y27353154D01*
X24971273Y27353139D01*
X24968200Y27353160D01*
X19040746Y27353160D01*
X19040746Y29144800D01*
X19035324Y29212798D01*
X18999607Y29328130D01*
X18933174Y29428946D01*
X18841285Y29507263D01*
X18731215Y29556879D01*
X18611680Y29573866D01*
X16411680Y29573866D01*
X16343682Y29568444D01*
X16228350Y29532727D01*
X16127534Y29466294D01*
X16049217Y29374405D01*
X15999601Y29264335D01*
X15982614Y29144800D01*
X15982614Y27756522D01*
X15188680Y28550456D01*
X15188680Y29668597D01*
X15195826Y29673306D01*
X15274143Y29765195D01*
X15323759Y29875265D01*
X15340746Y29994800D01*
X15340746Y30285022D01*
X15574453Y30051315D01*
X15619241Y30014526D01*
X15663575Y29977325D01*
X15666461Y29975738D01*
X15669012Y29973643D01*
X15720076Y29946263D01*
X15770807Y29918373D01*
X15773951Y29917376D01*
X15776856Y29915818D01*
X15832249Y29898882D01*
X15887448Y29881372D01*
X15890723Y29881005D01*
X15893878Y29880040D01*
X15951553Y29874182D01*
X16009055Y29867732D01*
X16015492Y29867687D01*
X16015621Y29867674D01*
X16015742Y29867685D01*
X16017809Y29867671D01*
X17667671Y29867671D01*
X17725363Y29873328D01*
X17783009Y29878371D01*
X17786172Y29879290D01*
X17789456Y29879612D01*
X17844895Y29896350D01*
X17900518Y29912510D01*
X17903448Y29914029D01*
X17906602Y29914981D01*
X17957715Y29942158D01*
X18009160Y29968824D01*
X18011737Y29970881D01*
X18014648Y29972429D01*
X18059531Y30009034D01*
X18104794Y30045168D01*
X18109381Y30049692D01*
X18109477Y30049770D01*
X18109551Y30049859D01*
X18111027Y30051315D01*
X19191878Y31132166D01*
X19228305Y31040162D01*
X19305538Y30920320D01*
X19404577Y30817763D01*
X19521650Y30736395D01*
X19652298Y30679316D01*
X19791544Y30648701D01*
X19934085Y30645715D01*
X20074491Y30670472D01*
X20207414Y30722030D01*
X20246887Y30747080D01*
X20711160Y30747080D01*
X20768852Y30752737D01*
X20826498Y30757780D01*
X20829661Y30758699D01*
X20832945Y30759021D01*
X20888384Y30775759D01*
X20944007Y30791919D01*
X20946937Y30793438D01*
X20950091Y30794390D01*
X21001204Y30821567D01*
X21052649Y30848233D01*
X21055226Y30850290D01*
X21058137Y30851838D01*
X21103020Y30888443D01*
X21148283Y30924577D01*
X21152870Y30929101D01*
X21152966Y30929179D01*
X21153040Y30929268D01*
X21154516Y30930724D01*
X23286242Y33062450D01*
X32104920Y33062450D01*
X32104920Y32774084D01*
X32119792Y32699316D01*
X32148965Y32628887D01*
X32191317Y32565502D01*
X32245222Y32511598D01*
X32308607Y32469245D01*
X32379036Y32440072D01*
X32453804Y32425200D01*
X33042170Y32425200D01*
X33138920Y32521950D01*
X33138920Y33159200D01*
X33144920Y33159200D01*
X33144920Y32521950D01*
X33241670Y32425200D01*
X33830036Y32425200D01*
X33904804Y32440072D01*
X33975233Y32469245D01*
X34038618Y32511598D01*
X34092523Y32565502D01*
X34134875Y32628887D01*
X34164048Y32699316D01*
X34178920Y32774084D01*
X34178920Y33062450D01*
X34117960Y33123410D01*
X34375680Y33123410D01*
X34375680Y32835044D01*
X34390552Y32760276D01*
X34419725Y32689847D01*
X34462077Y32626462D01*
X34515982Y32572558D01*
X34579367Y32530205D01*
X34649796Y32501032D01*
X34724564Y32486160D01*
X35312930Y32486160D01*
X35409680Y32582910D01*
X35409680Y33220160D01*
X35415680Y33220160D01*
X35415680Y32582910D01*
X35512430Y32486160D01*
X36100796Y32486160D01*
X36175564Y32501032D01*
X36245993Y32530205D01*
X36309378Y32572558D01*
X36363283Y32626462D01*
X36405635Y32689847D01*
X36434808Y32760276D01*
X36449680Y32835044D01*
X36449680Y33123410D01*
X36352930Y33220160D01*
X35415680Y33220160D01*
X35409680Y33220160D01*
X34472430Y33220160D01*
X34375680Y33123410D01*
X34117960Y33123410D01*
X34082170Y33159200D01*
X33144920Y33159200D01*
X33138920Y33159200D01*
X32201670Y33159200D01*
X32104920Y33062450D01*
X23286242Y33062450D01*
X23774108Y33550316D01*
X32104920Y33550316D01*
X32104920Y33261950D01*
X32201670Y33165200D01*
X33138920Y33165200D01*
X33138920Y33802450D01*
X33144920Y33802450D01*
X33144920Y33165200D01*
X34082170Y33165200D01*
X34178920Y33261950D01*
X34178920Y33550316D01*
X34166795Y33611276D01*
X34375680Y33611276D01*
X34375680Y33322910D01*
X34472430Y33226160D01*
X35409680Y33226160D01*
X35409680Y33863410D01*
X35415680Y33863410D01*
X35415680Y33226160D01*
X36352930Y33226160D01*
X36449680Y33322910D01*
X36449680Y33611276D01*
X36434808Y33686044D01*
X36405635Y33756473D01*
X36363283Y33819858D01*
X36309378Y33873762D01*
X36245993Y33916115D01*
X36175564Y33945288D01*
X36100796Y33960160D01*
X35512430Y33960160D01*
X35415680Y33863410D01*
X35409680Y33863410D01*
X35312930Y33960160D01*
X34724564Y33960160D01*
X34649796Y33945288D01*
X34579367Y33916115D01*
X34515982Y33873762D01*
X34462077Y33819858D01*
X34419725Y33756473D01*
X34390552Y33686044D01*
X34375680Y33611276D01*
X34166795Y33611276D01*
X34164048Y33625084D01*
X34134875Y33695513D01*
X34092523Y33758898D01*
X34038618Y33812802D01*
X33975233Y33855155D01*
X33904804Y33884328D01*
X33830036Y33899200D01*
X33241670Y33899200D01*
X33144920Y33802450D01*
X33138920Y33802450D01*
X33042170Y33899200D01*
X32453804Y33899200D01*
X32379036Y33884328D01*
X32308607Y33855155D01*
X32245222Y33812802D01*
X32191317Y33758898D01*
X32148965Y33695513D01*
X32119792Y33625084D01*
X32104920Y33550316D01*
X23774108Y33550316D01*
X25635992Y35412200D01*
X32062854Y35412200D01*
X32062854Y34712200D01*
X32068276Y34644202D01*
X32103993Y34528870D01*
X32170426Y34428054D01*
X32262315Y34349737D01*
X32372385Y34300121D01*
X32491920Y34283134D01*
X33791920Y34283134D01*
X33859918Y34288556D01*
X33975250Y34324273D01*
X34076066Y34390706D01*
X34154383Y34482595D01*
X34203999Y34592665D01*
X34220986Y34712200D01*
X34220986Y35412200D01*
X34215564Y35480198D01*
X34179847Y35595530D01*
X34113414Y35696346D01*
X34021525Y35774663D01*
X33911455Y35824279D01*
X33791920Y35841266D01*
X32491920Y35841266D01*
X32423922Y35835844D01*
X32308590Y35800127D01*
X32207774Y35733694D01*
X32129457Y35641805D01*
X32079841Y35531735D01*
X32062854Y35412200D01*
X25635992Y35412200D01*
X26502992Y36279200D01*
X36732008Y36279200D01*
X36289628Y35836820D01*
X36289628Y35836820D01*
G37*
X36289628Y35836820D02*
X36182215Y35885239D01*
X36062680Y35902226D01*
X34762680Y35902226D01*
X34694682Y35896804D01*
X34579350Y35861087D01*
X34478534Y35794654D01*
X34400217Y35702765D01*
X34350601Y35592695D01*
X34333614Y35473160D01*
X34333614Y34773160D01*
X34339036Y34705162D01*
X34374753Y34589830D01*
X34441186Y34489014D01*
X34533075Y34410697D01*
X34643145Y34361081D01*
X34762680Y34344094D01*
X36062680Y34344094D01*
X36130678Y34349516D01*
X36246010Y34385233D01*
X36346826Y34451666D01*
X36384748Y34496160D01*
X36462680Y34496160D01*
X36520372Y34501817D01*
X36578018Y34506860D01*
X36581181Y34507779D01*
X36584465Y34508101D01*
X36639904Y34524839D01*
X36695527Y34540999D01*
X36698457Y34542518D01*
X36701611Y34543470D01*
X36752724Y34570647D01*
X36804169Y34597313D01*
X36806746Y34599370D01*
X36809657Y34600918D01*
X36854540Y34637523D01*
X36899803Y34673657D01*
X36904390Y34678181D01*
X36904486Y34678259D01*
X36904560Y34678348D01*
X36906036Y34679804D01*
X37424228Y35197996D01*
X37376401Y35091895D01*
X37359414Y34972360D01*
X37359414Y33272360D01*
X37364836Y33204362D01*
X37400553Y33089030D01*
X37466986Y32988214D01*
X37558875Y32909897D01*
X37668945Y32860281D01*
X37788480Y32843294D01*
X38468446Y32843294D01*
X38384264Y32835040D01*
X38145674Y32763005D01*
X37925620Y32646000D01*
X37732483Y32488482D01*
X37573620Y32296449D01*
X37455082Y32077217D01*
X37381383Y31839137D01*
X37357553Y31612409D01*
X37132993Y31387849D01*
X37078640Y31321679D01*
X37023601Y31256085D01*
X37021253Y31251813D01*
X37018159Y31248047D01*
X36977683Y31172561D01*
X36936443Y31097545D01*
X36934970Y31092902D01*
X36932665Y31088603D01*
X36907629Y31006712D01*
X36881738Y30925095D01*
X36881194Y30920248D01*
X36879770Y30915589D01*
X36871123Y30830460D01*
X36861571Y30745304D01*
X36861505Y30735771D01*
X36861487Y30735597D01*
X36861502Y30735434D01*
X36861481Y30732361D01*
X36861481Y28355639D01*
X36869836Y28270430D01*
X36877300Y28185116D01*
X36878661Y28180433D01*
X36879136Y28175584D01*
X36903881Y28093625D01*
X36927775Y28011381D01*
X36930018Y28007054D01*
X36931427Y28002387D01*
X36971613Y27926807D01*
X37011033Y27850758D01*
X37014076Y27846946D01*
X37016363Y27842645D01*
X37070469Y27776305D01*
X37123905Y27709367D01*
X37130595Y27702583D01*
X37130709Y27702443D01*
X37130838Y27702336D01*
X37132993Y27700151D01*
X38874512Y25958632D01*
X38940682Y25904279D01*
X38992473Y25860822D01*
X38865627Y25929407D01*
X38692799Y25982906D01*
X38512872Y26001817D01*
X38332698Y25985420D01*
X38159140Y25934339D01*
X37998809Y25850521D01*
X37857812Y25737156D01*
X37741520Y25598564D01*
X37654362Y25440024D01*
X37599657Y25267574D01*
X37579490Y25087783D01*
X37579400Y25074840D01*
X37579400Y24108816D01*
X36393984Y22923400D01*
X28608456Y22923400D01*
X27134720Y24397136D01*
X27134720Y25186640D01*
X27126365Y25271849D01*
X27118901Y25357163D01*
X27117540Y25361846D01*
X27117065Y25366695D01*
X27092320Y25448654D01*
X27074799Y25508964D01*
X31284975Y25508964D01*
X31356734Y25117980D01*
X31503070Y24748379D01*
X31718407Y24414241D01*
X31994544Y24128293D01*
X32320964Y23901425D01*
X32685232Y23742280D01*
X33073474Y23656920D01*
X33470902Y23648595D01*
X33862378Y23717623D01*
X34232991Y23861374D01*
X34568624Y24074373D01*
X34856494Y24348508D01*
X35085634Y24673335D01*
X35247318Y25036484D01*
X35335387Y25424120D01*
X35341727Y25878158D01*
X35264516Y26268102D01*
X35113035Y26635623D01*
X34893053Y26966722D01*
X34612950Y27248788D01*
X34283395Y27471075D01*
X33916941Y27625119D01*
X33527544Y27705050D01*
X33130039Y27707825D01*
X32739565Y27633338D01*
X32370995Y27484427D01*
X32038368Y27266762D01*
X31754355Y26988635D01*
X31529772Y26660640D01*
X31373174Y26295269D01*
X31290526Y25906441D01*
X31284975Y25508964D01*
X27074799Y25508964D01*
X27068426Y25530898D01*
X27066183Y25535225D01*
X27064774Y25539892D01*
X27024588Y25615472D01*
X26985168Y25691521D01*
X26982125Y25695333D01*
X26979838Y25699634D01*
X26925732Y25765974D01*
X26872296Y25832912D01*
X26865606Y25839696D01*
X26865492Y25839836D01*
X26865363Y25839943D01*
X26863208Y25842128D01*
X25623688Y27081648D01*
X25557518Y27136001D01*
X25491924Y27191040D01*
X25487652Y27193388D01*
X25483886Y27196482D01*
X25408400Y27236958D01*
X25333384Y27278198D01*
X25328741Y27279671D01*
X25324442Y27281976D01*
X25242551Y27307012D01*
X25160934Y27332903D01*
X25156087Y27333447D01*
X25151428Y27334871D01*
X25066299Y27343518D01*
X24981143Y27353070D01*
X24971610Y27353136D01*
X24971436Y27353154D01*
X24971273Y27353139D01*
X24968200Y27353160D01*
X19040746Y27353160D01*
X19040746Y29144800D01*
X19035324Y29212798D01*
X18999607Y29328130D01*
X18933174Y29428946D01*
X18841285Y29507263D01*
X18731215Y29556879D01*
X18611680Y29573866D01*
X16411680Y29573866D01*
X16343682Y29568444D01*
X16228350Y29532727D01*
X16127534Y29466294D01*
X16049217Y29374405D01*
X15999601Y29264335D01*
X15982614Y29144800D01*
X15982614Y27756522D01*
X15188680Y28550456D01*
X15188680Y29668597D01*
X15195826Y29673306D01*
X15274143Y29765195D01*
X15323759Y29875265D01*
X15340746Y29994800D01*
X15340746Y30285022D01*
X15574453Y30051315D01*
X15619241Y30014526D01*
X15663575Y29977325D01*
X15666461Y29975738D01*
X15669012Y29973643D01*
X15720076Y29946263D01*
X15770807Y29918373D01*
X15773951Y29917376D01*
X15776856Y29915818D01*
X15832249Y29898882D01*
X15887448Y29881372D01*
X15890723Y29881005D01*
X15893878Y29880040D01*
X15951553Y29874182D01*
X16009055Y29867732D01*
X16015492Y29867687D01*
X16015621Y29867674D01*
X16015742Y29867685D01*
X16017809Y29867671D01*
X17667671Y29867671D01*
X17725363Y29873328D01*
X17783009Y29878371D01*
X17786172Y29879290D01*
X17789456Y29879612D01*
X17844895Y29896350D01*
X17900518Y29912510D01*
X17903448Y29914029D01*
X17906602Y29914981D01*
X17957715Y29942158D01*
X18009160Y29968824D01*
X18011737Y29970881D01*
X18014648Y29972429D01*
X18059531Y30009034D01*
X18104794Y30045168D01*
X18109381Y30049692D01*
X18109477Y30049770D01*
X18109551Y30049859D01*
X18111027Y30051315D01*
X19191878Y31132166D01*
X19228305Y31040162D01*
X19305538Y30920320D01*
X19404577Y30817763D01*
X19521650Y30736395D01*
X19652298Y30679316D01*
X19791544Y30648701D01*
X19934085Y30645715D01*
X20074491Y30670472D01*
X20207414Y30722030D01*
X20246887Y30747080D01*
X20711160Y30747080D01*
X20768852Y30752737D01*
X20826498Y30757780D01*
X20829661Y30758699D01*
X20832945Y30759021D01*
X20888384Y30775759D01*
X20944007Y30791919D01*
X20946937Y30793438D01*
X20950091Y30794390D01*
X21001204Y30821567D01*
X21052649Y30848233D01*
X21055226Y30850290D01*
X21058137Y30851838D01*
X21103020Y30888443D01*
X21148283Y30924577D01*
X21152870Y30929101D01*
X21152966Y30929179D01*
X21153040Y30929268D01*
X21154516Y30930724D01*
X23286242Y33062450D01*
X32104920Y33062450D01*
X32104920Y32774084D01*
X32119792Y32699316D01*
X32148965Y32628887D01*
X32191317Y32565502D01*
X32245222Y32511598D01*
X32308607Y32469245D01*
X32379036Y32440072D01*
X32453804Y32425200D01*
X33042170Y32425200D01*
X33138920Y32521950D01*
X33138920Y33159200D01*
X33144920Y33159200D01*
X33144920Y32521950D01*
X33241670Y32425200D01*
X33830036Y32425200D01*
X33904804Y32440072D01*
X33975233Y32469245D01*
X34038618Y32511598D01*
X34092523Y32565502D01*
X34134875Y32628887D01*
X34164048Y32699316D01*
X34178920Y32774084D01*
X34178920Y33062450D01*
X34117960Y33123410D01*
X34375680Y33123410D01*
X34375680Y32835044D01*
X34390552Y32760276D01*
X34419725Y32689847D01*
X34462077Y32626462D01*
X34515982Y32572558D01*
X34579367Y32530205D01*
X34649796Y32501032D01*
X34724564Y32486160D01*
X35312930Y32486160D01*
X35409680Y32582910D01*
X35409680Y33220160D01*
X35415680Y33220160D01*
X35415680Y32582910D01*
X35512430Y32486160D01*
X36100796Y32486160D01*
X36175564Y32501032D01*
X36245993Y32530205D01*
X36309378Y32572558D01*
X36363283Y32626462D01*
X36405635Y32689847D01*
X36434808Y32760276D01*
X36449680Y32835044D01*
X36449680Y33123410D01*
X36352930Y33220160D01*
X35415680Y33220160D01*
X35409680Y33220160D01*
X34472430Y33220160D01*
X34375680Y33123410D01*
X34117960Y33123410D01*
X34082170Y33159200D01*
X33144920Y33159200D01*
X33138920Y33159200D01*
X32201670Y33159200D01*
X32104920Y33062450D01*
X23286242Y33062450D01*
X23774108Y33550316D01*
X32104920Y33550316D01*
X32104920Y33261950D01*
X32201670Y33165200D01*
X33138920Y33165200D01*
X33138920Y33802450D01*
X33144920Y33802450D01*
X33144920Y33165200D01*
X34082170Y33165200D01*
X34178920Y33261950D01*
X34178920Y33550316D01*
X34166795Y33611276D01*
X34375680Y33611276D01*
X34375680Y33322910D01*
X34472430Y33226160D01*
X35409680Y33226160D01*
X35409680Y33863410D01*
X35415680Y33863410D01*
X35415680Y33226160D01*
X36352930Y33226160D01*
X36449680Y33322910D01*
X36449680Y33611276D01*
X36434808Y33686044D01*
X36405635Y33756473D01*
X36363283Y33819858D01*
X36309378Y33873762D01*
X36245993Y33916115D01*
X36175564Y33945288D01*
X36100796Y33960160D01*
X35512430Y33960160D01*
X35415680Y33863410D01*
X35409680Y33863410D01*
X35312930Y33960160D01*
X34724564Y33960160D01*
X34649796Y33945288D01*
X34579367Y33916115D01*
X34515982Y33873762D01*
X34462077Y33819858D01*
X34419725Y33756473D01*
X34390552Y33686044D01*
X34375680Y33611276D01*
X34166795Y33611276D01*
X34164048Y33625084D01*
X34134875Y33695513D01*
X34092523Y33758898D01*
X34038618Y33812802D01*
X33975233Y33855155D01*
X33904804Y33884328D01*
X33830036Y33899200D01*
X33241670Y33899200D01*
X33144920Y33802450D01*
X33138920Y33802450D01*
X33042170Y33899200D01*
X32453804Y33899200D01*
X32379036Y33884328D01*
X32308607Y33855155D01*
X32245222Y33812802D01*
X32191317Y33758898D01*
X32148965Y33695513D01*
X32119792Y33625084D01*
X32104920Y33550316D01*
X23774108Y33550316D01*
X25635992Y35412200D01*
X32062854Y35412200D01*
X32062854Y34712200D01*
X32068276Y34644202D01*
X32103993Y34528870D01*
X32170426Y34428054D01*
X32262315Y34349737D01*
X32372385Y34300121D01*
X32491920Y34283134D01*
X33791920Y34283134D01*
X33859918Y34288556D01*
X33975250Y34324273D01*
X34076066Y34390706D01*
X34154383Y34482595D01*
X34203999Y34592665D01*
X34220986Y34712200D01*
X34220986Y35412200D01*
X34215564Y35480198D01*
X34179847Y35595530D01*
X34113414Y35696346D01*
X34021525Y35774663D01*
X33911455Y35824279D01*
X33791920Y35841266D01*
X32491920Y35841266D01*
X32423922Y35835844D01*
X32308590Y35800127D01*
X32207774Y35733694D01*
X32129457Y35641805D01*
X32079841Y35531735D01*
X32062854Y35412200D01*
X25635992Y35412200D01*
X26502992Y36279200D01*
X36732008Y36279200D01*
X36289628Y35836820D01*
G36*
X1566051Y77374859D02*
X1527120Y77191705D01*
X1524506Y77004478D01*
X1558307Y76820308D01*
X1627237Y76646212D01*
X1728670Y76488819D01*
X1858741Y76354126D01*
X2012498Y76247262D01*
X2184083Y76172298D01*
X2224749Y76163357D01*
X2159587Y76146126D01*
X1997709Y76066956D01*
X1942683Y76030188D01*
X1901107Y75868455D01*
X2480560Y75289003D01*
X3060013Y75868455D01*
X3018437Y76030188D01*
X2862676Y76120800D01*
X2742261Y76162117D01*
X2913140Y76228396D01*
X3071237Y76328728D01*
X3206835Y76457856D01*
X3314770Y76610863D01*
X3390930Y76781920D01*
X3432414Y76964513D01*
X3435400Y77178383D01*
X3399031Y77362063D01*
X3330867Y77527441D01*
X5679753Y77527441D01*
X5644520Y77466876D01*
X5586037Y77296430D01*
X5561931Y77117850D01*
X5573126Y76937998D01*
X5619194Y76763787D01*
X5698364Y76601909D01*
X5735132Y76546883D01*
X5896865Y76505307D01*
X6476317Y77084760D01*
X6462175Y77098902D01*
X6466418Y77103145D01*
X6480560Y77089003D01*
X6494702Y77103145D01*
X6498945Y77098902D01*
X6484803Y77084760D01*
X7064255Y76505307D01*
X7225988Y76546883D01*
X7316600Y76702644D01*
X7375083Y76873090D01*
X7399189Y77051670D01*
X7387994Y77231522D01*
X7341926Y77405733D01*
X7282402Y77527441D01*
X7563916Y77527441D01*
X7563916Y63004441D01*
X7568302Y62959711D01*
X7572365Y62915060D01*
X7572837Y62913458D01*
X7573000Y62911791D01*
X7585974Y62868822D01*
X7598649Y62825754D01*
X7599425Y62824270D01*
X7599908Y62822670D01*
X7620944Y62783106D01*
X7641779Y62743253D01*
X7642830Y62741946D01*
X7643613Y62740473D01*
X7671986Y62705684D01*
X7700113Y62670702D01*
X7701391Y62669629D01*
X7702451Y62668330D01*
X7737103Y62639664D01*
X7771427Y62610862D01*
X7772891Y62610057D01*
X7774181Y62608990D01*
X7813688Y62587629D01*
X7853006Y62566013D01*
X7854600Y62565507D01*
X7856071Y62564712D01*
X7898948Y62551440D01*
X7941742Y62537865D01*
X7943404Y62537679D01*
X7945002Y62537184D01*
X7989580Y62532499D01*
X8034256Y62527487D01*
X8037474Y62527465D01*
X8037586Y62527453D01*
X8037698Y62527463D01*
X8040916Y62527441D01*
X44540916Y62527441D01*
X44585646Y62531827D01*
X44630297Y62535890D01*
X44631899Y62536362D01*
X44633566Y62536525D01*
X44676535Y62549499D01*
X44719603Y62562174D01*
X44721087Y62562950D01*
X44722687Y62563433D01*
X44762251Y62584469D01*
X44802104Y62605304D01*
X44803411Y62606355D01*
X44804884Y62607138D01*
X44839673Y62635511D01*
X44874655Y62663638D01*
X44875728Y62664916D01*
X44877027Y62665976D01*
X44905693Y62700628D01*
X44934495Y62734952D01*
X44935300Y62736416D01*
X44936367Y62737706D01*
X44957728Y62777213D01*
X44979344Y62816531D01*
X44979850Y62818125D01*
X44980645Y62819596D01*
X44993917Y62862473D01*
X45007492Y62905267D01*
X45007678Y62906929D01*
X45008173Y62908527D01*
X45012858Y62953105D01*
X45017870Y62997781D01*
X45017892Y63000999D01*
X45017904Y63001111D01*
X45017894Y63001223D01*
X45017916Y63004441D01*
X45017916Y66331844D01*
X46011895Y66331844D01*
X46083654Y65940860D01*
X46229990Y65571259D01*
X46445327Y65237121D01*
X46721464Y64951173D01*
X47047884Y64724305D01*
X47412152Y64565160D01*
X47800394Y64479800D01*
X48197822Y64471475D01*
X48589298Y64540503D01*
X48959911Y64684254D01*
X49295544Y64897253D01*
X49583414Y65171388D01*
X49812554Y65496215D01*
X49974238Y65859364D01*
X50062307Y66247000D01*
X50068647Y66701038D01*
X49991436Y67090982D01*
X49839955Y67458503D01*
X49619973Y67789602D01*
X49339870Y68071668D01*
X49010315Y68293955D01*
X48643861Y68447999D01*
X48254464Y68527930D01*
X47856959Y68530705D01*
X47466485Y68456218D01*
X47097915Y68307307D01*
X46765288Y68089642D01*
X46481275Y67811515D01*
X46256692Y67483520D01*
X46100094Y67118149D01*
X46017446Y66729321D01*
X46011895Y66331844D01*
X45017916Y66331844D01*
X45017916Y69527441D01*
X51063916Y69527441D01*
X51063916Y63004441D01*
X51068302Y62959711D01*
X51072365Y62915060D01*
X51072837Y62913458D01*
X51073000Y62911791D01*
X51085974Y62868822D01*
X51098649Y62825754D01*
X51099425Y62824270D01*
X51099908Y62822670D01*
X51120944Y62783106D01*
X51141779Y62743253D01*
X51142830Y62741946D01*
X51143613Y62740473D01*
X51171986Y62705684D01*
X51200113Y62670702D01*
X51201391Y62669629D01*
X51202451Y62668330D01*
X51237103Y62639664D01*
X51271427Y62610862D01*
X51272891Y62610057D01*
X51274181Y62608990D01*
X51313688Y62587629D01*
X51353006Y62566013D01*
X51354600Y62565507D01*
X51356071Y62564712D01*
X51398948Y62551440D01*
X51441742Y62537865D01*
X51443404Y62537679D01*
X51445002Y62537184D01*
X51489580Y62532499D01*
X51534256Y62527487D01*
X51537474Y62527465D01*
X51537586Y62527453D01*
X51537698Y62527463D01*
X51540916Y62527441D01*
X88040916Y62527441D01*
X88085646Y62531827D01*
X88130297Y62535890D01*
X88131899Y62536362D01*
X88133566Y62536525D01*
X88176535Y62549499D01*
X88219603Y62562174D01*
X88221087Y62562950D01*
X88222687Y62563433D01*
X88262251Y62584469D01*
X88302104Y62605304D01*
X88303411Y62606355D01*
X88304884Y62607138D01*
X88339673Y62635511D01*
X88374655Y62663638D01*
X88375728Y62664916D01*
X88377027Y62665976D01*
X88405693Y62700628D01*
X88434495Y62734952D01*
X88435300Y62736416D01*
X88436367Y62737706D01*
X88457728Y62777213D01*
X88479344Y62816531D01*
X88479850Y62818125D01*
X88480645Y62819596D01*
X88493917Y62862473D01*
X88507492Y62905267D01*
X88507678Y62906929D01*
X88508173Y62908527D01*
X88512858Y62953105D01*
X88517870Y62997781D01*
X88517892Y63000999D01*
X88517904Y63001111D01*
X88517894Y63001223D01*
X88517916Y63004441D01*
X88517916Y70812404D01*
X89517015Y70812404D01*
X89588774Y70421420D01*
X89735110Y70051819D01*
X89950447Y69717681D01*
X90226584Y69431733D01*
X90553004Y69204865D01*
X90917272Y69045720D01*
X91305514Y68960360D01*
X91702942Y68952035D01*
X92094418Y69021063D01*
X92465031Y69164814D01*
X92800664Y69377813D01*
X93088534Y69651948D01*
X93317674Y69976775D01*
X93479358Y70339924D01*
X93567427Y70727560D01*
X93573767Y71181598D01*
X93496556Y71571542D01*
X93345075Y71939063D01*
X93125093Y72270162D01*
X92844990Y72552228D01*
X92515435Y72774515D01*
X92148981Y72928559D01*
X91759584Y73008490D01*
X91362079Y73011265D01*
X90971605Y72936778D01*
X90603035Y72787867D01*
X90270408Y72570202D01*
X89986395Y72292075D01*
X89761812Y71964080D01*
X89605214Y71598709D01*
X89522566Y71209881D01*
X89517015Y70812404D01*
X88517916Y70812404D01*
X88517916Y74701065D01*
X89028187Y74701065D01*
X89069763Y74539332D01*
X89225524Y74448720D01*
X89395970Y74390237D01*
X89574550Y74366131D01*
X89754402Y74377326D01*
X89928613Y74423394D01*
X90090491Y74502564D01*
X90145517Y74539332D01*
X90187093Y74701065D01*
X89607640Y75280517D01*
X89028187Y74701065D01*
X88517916Y74701065D01*
X88517916Y75317850D01*
X88689011Y75317850D01*
X88700206Y75137998D01*
X88746274Y74963787D01*
X88825444Y74801909D01*
X88862212Y74746883D01*
X89023945Y74705307D01*
X89603397Y75284760D01*
X89611883Y75284760D01*
X90191335Y74705307D01*
X90353068Y74746883D01*
X90443680Y74902644D01*
X90502163Y75073090D01*
X90519898Y75204478D01*
X92651586Y75204478D01*
X92685387Y75020308D01*
X92754317Y74846212D01*
X92855750Y74688819D01*
X92985821Y74554126D01*
X93139578Y74447262D01*
X93311163Y74372298D01*
X93494041Y74332090D01*
X93681246Y74328169D01*
X93865647Y74360684D01*
X94040220Y74428396D01*
X94198317Y74528728D01*
X94333915Y74657856D01*
X94441850Y74810863D01*
X94518010Y74981920D01*
X94559494Y75164513D01*
X94562480Y75378383D01*
X94526111Y75562063D01*
X94454757Y75735180D01*
X94351136Y75891141D01*
X94219197Y76024005D01*
X94063963Y76128712D01*
X93891348Y76201272D01*
X93865230Y76206633D01*
X93928613Y76223394D01*
X94090491Y76302564D01*
X94145517Y76339332D01*
X94187093Y76501065D01*
X93607640Y77080517D01*
X93028187Y76501065D01*
X93069763Y76339332D01*
X93225524Y76248720D01*
X93346890Y76207077D01*
X93336756Y76205144D01*
X93163145Y76135001D01*
X93006464Y76032472D01*
X92872682Y75901463D01*
X92766895Y75746964D01*
X92693131Y75574859D01*
X92654200Y75391705D01*
X92651586Y75204478D01*
X90519898Y75204478D01*
X90526269Y75251670D01*
X90515074Y75431522D01*
X90469006Y75605733D01*
X90389836Y75767611D01*
X90353068Y75822637D01*
X90191335Y75864213D01*
X89611883Y75284760D01*
X89603397Y75284760D01*
X89023945Y75864213D01*
X88862212Y75822637D01*
X88771600Y75666876D01*
X88713117Y75496430D01*
X88689011Y75317850D01*
X88517916Y75317850D01*
X88517916Y77527441D01*
X88758527Y77527441D01*
X88693131Y77374859D01*
X88654200Y77191705D01*
X88651586Y77004478D01*
X88685387Y76820308D01*
X88754317Y76646212D01*
X88855750Y76488819D01*
X88985821Y76354126D01*
X89139578Y76247262D01*
X89311163Y76172298D01*
X89351829Y76163357D01*
X89286667Y76146126D01*
X89124789Y76066956D01*
X89069763Y76030188D01*
X89028187Y75868455D01*
X89607640Y75289003D01*
X90187093Y75868455D01*
X90145517Y76030188D01*
X89989756Y76120800D01*
X89869341Y76162117D01*
X90040220Y76228396D01*
X90198317Y76328728D01*
X90333915Y76457856D01*
X90441850Y76610863D01*
X90518010Y76781920D01*
X90559494Y76964513D01*
X90562480Y77178383D01*
X90526111Y77362063D01*
X90457947Y77527441D01*
X92806833Y77527441D01*
X92771600Y77466876D01*
X92713117Y77296430D01*
X92689011Y77117850D01*
X92700206Y76937998D01*
X92746274Y76763787D01*
X92825444Y76601909D01*
X92862212Y76546883D01*
X93023945Y76505307D01*
X93603397Y77084760D01*
X93589255Y77098902D01*
X93593498Y77103145D01*
X93607640Y77089003D01*
X93621782Y77103145D01*
X93626025Y77098902D01*
X93611883Y77084760D01*
X94191335Y76505307D01*
X94353068Y76546883D01*
X94443680Y76702644D01*
X94502163Y76873090D01*
X94526269Y77051670D01*
X94515074Y77231522D01*
X94469006Y77405733D01*
X94409482Y77527441D01*
X94563916Y77527441D01*
X94563916Y63004441D01*
X94568302Y62959711D01*
X94572365Y62915060D01*
X94572837Y62913458D01*
X94573000Y62911791D01*
X94585974Y62868822D01*
X94598649Y62825754D01*
X94599425Y62824270D01*
X94599908Y62822670D01*
X94620944Y62783106D01*
X94641779Y62743253D01*
X94642830Y62741946D01*
X94643613Y62740473D01*
X94671986Y62705684D01*
X94700113Y62670702D01*
X94701391Y62669629D01*
X94702451Y62668330D01*
X94737103Y62639664D01*
X94771427Y62610862D01*
X94772891Y62610057D01*
X94774181Y62608990D01*
X94813688Y62587629D01*
X94853006Y62566013D01*
X94854600Y62565507D01*
X94856071Y62564712D01*
X94898948Y62551440D01*
X94941742Y62537865D01*
X94943404Y62537679D01*
X94945002Y62537184D01*
X94989580Y62532499D01*
X95034256Y62527487D01*
X95037474Y62527465D01*
X95037586Y62527453D01*
X95037698Y62527463D01*
X95040916Y62527441D01*
X95563916Y62527441D01*
X95563916Y41241807D01*
X84387081Y52418641D01*
X84285262Y52502277D01*
X84184248Y52587037D01*
X84177673Y52590652D01*
X84171874Y52595415D01*
X84055680Y52657718D01*
X83940195Y52721206D01*
X83933045Y52723474D01*
X83926430Y52727021D01*
X83800375Y52765560D01*
X83674730Y52805417D01*
X83667271Y52806254D01*
X83660097Y52808447D01*
X83528992Y52821764D01*
X83397964Y52836461D01*
X83383293Y52836563D01*
X83383021Y52836591D01*
X83382767Y52836567D01*
X83378040Y52836600D01*
X60693560Y52836600D01*
X60562403Y52823740D01*
X60431061Y52812249D01*
X60423853Y52810155D01*
X60416388Y52809423D01*
X60405448Y52806120D01*
X58677618Y52806120D01*
X58663080Y52808186D01*
X56663080Y52808186D01*
X56637170Y52806120D01*
X54663080Y52806120D01*
X54531923Y52793260D01*
X54400581Y52781769D01*
X54393373Y52779675D01*
X54385908Y52778943D01*
X54259743Y52740851D01*
X54133138Y52704069D01*
X54126476Y52700616D01*
X54119293Y52698447D01*
X54002903Y52636562D01*
X53885880Y52575903D01*
X53880017Y52571223D01*
X53873390Y52567699D01*
X53771237Y52484384D01*
X53668225Y52402151D01*
X53657782Y52391853D01*
X53657567Y52391677D01*
X53657402Y52391477D01*
X53654039Y52388161D01*
X51145918Y49880040D01*
X45096872Y49880040D01*
X45100044Y49881727D01*
X45151489Y49908393D01*
X45154066Y49910450D01*
X45156977Y49911998D01*
X45201860Y49948603D01*
X45247123Y49984737D01*
X45251710Y49989261D01*
X45251806Y49989339D01*
X45251880Y49989428D01*
X45253356Y49990884D01*
X45722383Y50459911D01*
X49248114Y50459911D01*
X49346306Y50249823D01*
X49582315Y50112177D01*
X49840643Y50023219D01*
X50111362Y49986368D01*
X50384068Y50003039D01*
X50648282Y50072592D01*
X50893850Y50192355D01*
X50979854Y50249823D01*
X51078046Y50459911D01*
X50163080Y51374877D01*
X49248114Y50459911D01*
X45722383Y50459911D01*
X46693310Y51430838D01*
X48770328Y51430838D01*
X48786999Y51158132D01*
X48856552Y50893918D01*
X48976315Y50648350D01*
X49033783Y50562346D01*
X49243871Y50464154D01*
X50158837Y51379120D01*
X50167323Y51379120D01*
X51082289Y50464154D01*
X51292377Y50562346D01*
X51430023Y50798355D01*
X51518981Y51056683D01*
X51555832Y51327402D01*
X51539161Y51600108D01*
X51469608Y51864322D01*
X51349845Y52109890D01*
X51292377Y52195894D01*
X51082289Y52294086D01*
X50167323Y51379120D01*
X50158837Y51379120D01*
X49243871Y52294086D01*
X49033783Y52195894D01*
X48896137Y51959885D01*
X48807179Y51701557D01*
X48770328Y51430838D01*
X46693310Y51430838D01*
X47560801Y52298329D01*
X49248114Y52298329D01*
X50163080Y51383363D01*
X51078046Y52298329D01*
X50979854Y52508417D01*
X50743845Y52646063D01*
X50485517Y52735021D01*
X50214798Y52771872D01*
X49942092Y52755201D01*
X49677878Y52685648D01*
X49432310Y52565885D01*
X49346306Y52508417D01*
X49248114Y52298329D01*
X47560801Y52298329D01*
X49933985Y54671513D01*
X50074526Y54668569D01*
X50258927Y54701084D01*
X50433500Y54768796D01*
X50591597Y54869128D01*
X50727195Y54998256D01*
X50835130Y55151263D01*
X50911290Y55322320D01*
X50952774Y55504913D01*
X50955760Y55718783D01*
X50919391Y55902463D01*
X50848037Y56075580D01*
X50744416Y56231541D01*
X50612477Y56364405D01*
X50457243Y56469112D01*
X50284628Y56541672D01*
X50258510Y56547033D01*
X50321893Y56563794D01*
X50483771Y56642964D01*
X50538797Y56679732D01*
X50580373Y56841465D01*
X50000920Y57420917D01*
X49421467Y56841465D01*
X49463043Y56679732D01*
X49618804Y56589120D01*
X49740170Y56547477D01*
X49730036Y56545544D01*
X49556425Y56475401D01*
X49399744Y56372872D01*
X49265962Y56241863D01*
X49160175Y56087364D01*
X49086411Y55915259D01*
X49047480Y55732105D01*
X49045021Y55555973D01*
X44550288Y51061240D01*
X35808659Y51061240D01*
X35785532Y51076839D01*
X35654100Y51132088D01*
X35514440Y51160756D01*
X35371871Y51161751D01*
X35231824Y51135036D01*
X35099634Y51081628D01*
X34980335Y51003560D01*
X34878471Y50903808D01*
X34797922Y50786170D01*
X34741757Y50655127D01*
X34712115Y50515670D01*
X34710124Y50373112D01*
X34735861Y50232882D01*
X34788345Y50100322D01*
X34865578Y49980480D01*
X34962573Y49880040D01*
X18030842Y49880040D01*
X12869417Y55041465D01*
X45421467Y55041465D01*
X45463043Y54879732D01*
X45618804Y54789120D01*
X45789250Y54730637D01*
X45967830Y54706531D01*
X46147682Y54717726D01*
X46321893Y54763794D01*
X46483771Y54842964D01*
X46538797Y54879732D01*
X46580373Y55041465D01*
X46000920Y55620917D01*
X45421467Y55041465D01*
X12869417Y55041465D01*
X12252632Y55658250D01*
X45082291Y55658250D01*
X45093486Y55478398D01*
X45139554Y55304187D01*
X45218724Y55142309D01*
X45255492Y55087283D01*
X45417225Y55045707D01*
X45996677Y55625160D01*
X46005163Y55625160D01*
X46584615Y55045707D01*
X46746348Y55087283D01*
X46836960Y55243044D01*
X46895443Y55413490D01*
X46919549Y55592070D01*
X46908354Y55771922D01*
X46862286Y55946133D01*
X46783116Y56108011D01*
X46746348Y56163037D01*
X46584615Y56204613D01*
X46005163Y55625160D01*
X45996677Y55625160D01*
X45417225Y56204613D01*
X45255492Y56163037D01*
X45164880Y56007276D01*
X45106397Y55836830D01*
X45082291Y55658250D01*
X12252632Y55658250D01*
X10566004Y57344878D01*
X45044866Y57344878D01*
X45078667Y57160708D01*
X45147597Y56986612D01*
X45249030Y56829219D01*
X45379101Y56694526D01*
X45532858Y56587662D01*
X45704443Y56512698D01*
X45745109Y56503757D01*
X45679947Y56486526D01*
X45518069Y56407356D01*
X45463043Y56370588D01*
X45421467Y56208855D01*
X46000920Y55629403D01*
X46580373Y56208855D01*
X46538797Y56370588D01*
X46383036Y56461200D01*
X46262621Y56502517D01*
X46433500Y56568796D01*
X46591597Y56669128D01*
X46727195Y56798256D01*
X46835130Y56951263D01*
X46911290Y57122320D01*
X46952774Y57304913D01*
X46954914Y57458250D01*
X49082291Y57458250D01*
X49093486Y57278398D01*
X49139554Y57104187D01*
X49218724Y56942309D01*
X49255492Y56887283D01*
X49417225Y56845707D01*
X49996677Y57425160D01*
X50005163Y57425160D01*
X50584615Y56845707D01*
X50746348Y56887283D01*
X50836960Y57043044D01*
X50895443Y57213490D01*
X50919549Y57392070D01*
X50908354Y57571922D01*
X50862286Y57746133D01*
X50783116Y57908011D01*
X50746348Y57963037D01*
X50584615Y58004613D01*
X50005163Y57425160D01*
X49996677Y57425160D01*
X49417225Y58004613D01*
X49255492Y57963037D01*
X49164880Y57807276D01*
X49106397Y57636830D01*
X49082291Y57458250D01*
X46954914Y57458250D01*
X46955760Y57518783D01*
X46919391Y57702463D01*
X46848037Y57875580D01*
X46759489Y58008855D01*
X49421467Y58008855D01*
X50000920Y57429403D01*
X50580373Y58008855D01*
X50538797Y58170588D01*
X50383036Y58261200D01*
X50212590Y58319683D01*
X50034010Y58343789D01*
X49854158Y58332594D01*
X49679947Y58286526D01*
X49518069Y58207356D01*
X49463043Y58170588D01*
X49421467Y58008855D01*
X46759489Y58008855D01*
X46744416Y58031541D01*
X46612477Y58164405D01*
X46457243Y58269112D01*
X46284628Y58341672D01*
X46101207Y58379323D01*
X45913965Y58380630D01*
X45730036Y58345544D01*
X45556425Y58275401D01*
X45399744Y58172872D01*
X45265962Y58041863D01*
X45160175Y57887364D01*
X45086411Y57715259D01*
X45047480Y57532105D01*
X45044866Y57344878D01*
X10566004Y57344878D01*
X6334562Y61576320D01*
X45147054Y61576320D01*
X45147054Y59876320D01*
X45152476Y59808322D01*
X45188193Y59692990D01*
X45254626Y59592174D01*
X45346515Y59513857D01*
X45456585Y59464241D01*
X45576120Y59447254D01*
X47276120Y59447254D01*
X47344118Y59452676D01*
X47459450Y59488393D01*
X47560266Y59554826D01*
X47638583Y59646715D01*
X47688199Y59756785D01*
X47705186Y59876320D01*
X47705186Y61576320D01*
X47699764Y61644318D01*
X47664047Y61759650D01*
X47597614Y61860466D01*
X47505725Y61938783D01*
X47395655Y61988399D01*
X47276120Y62005386D01*
X45576120Y62005386D01*
X45508122Y61999964D01*
X45392790Y61964247D01*
X45291974Y61897814D01*
X45213657Y61805925D01*
X45164041Y61695855D01*
X45147054Y61576320D01*
X6334562Y61576320D01*
X6104401Y61806481D01*
X6002582Y61890117D01*
X5901568Y61974877D01*
X5894993Y61978492D01*
X5889194Y61983255D01*
X5773000Y62045558D01*
X5657515Y62109046D01*
X5650365Y62111314D01*
X5643750Y62114861D01*
X5517695Y62153400D01*
X5392050Y62193257D01*
X5384591Y62194094D01*
X5377417Y62196287D01*
X5246312Y62209604D01*
X5115284Y62224301D01*
X5100613Y62224403D01*
X5100341Y62224431D01*
X5100087Y62224407D01*
X5095360Y62224440D01*
X2245360Y62224440D01*
X1968188Y62197263D01*
X1701573Y62116767D01*
X1625853Y62076506D01*
X1395360Y62076506D01*
X1327362Y62071084D01*
X1212030Y62035367D01*
X1111214Y61968934D01*
X1032897Y61877045D01*
X983281Y61766975D01*
X966294Y61647440D01*
X966294Y61417806D01*
X929861Y61350425D01*
X847506Y61084378D01*
X818395Y60807402D01*
X843636Y60530047D01*
X922269Y60262876D01*
X966294Y60178664D01*
X966294Y59947440D01*
X971716Y59879442D01*
X1007433Y59764110D01*
X1073866Y59663294D01*
X1165755Y59584977D01*
X1275825Y59535361D01*
X1395360Y59518374D01*
X1624015Y59518374D01*
X1683205Y59485834D01*
X1948670Y59401623D01*
X2225436Y59370579D01*
X2245360Y59370440D01*
X4504278Y59370440D01*
X16430719Y47443999D01*
X16532538Y47360363D01*
X16633552Y47275603D01*
X16640127Y47271988D01*
X16645926Y47267225D01*
X16762120Y47204922D01*
X16877605Y47141434D01*
X16884755Y47139166D01*
X16891370Y47135619D01*
X17017425Y47097080D01*
X17143070Y47057223D01*
X17150529Y47056386D01*
X17157703Y47054193D01*
X17288808Y47040876D01*
X17419836Y47026179D01*
X17434507Y47026077D01*
X17434779Y47026049D01*
X17435033Y47026073D01*
X17439760Y47026040D01*
X50934848Y47026040D01*
X50392164Y46483356D01*
X50355397Y46438595D01*
X50318174Y46394234D01*
X50316585Y46391344D01*
X50314493Y46388797D01*
X50287152Y46337806D01*
X50259222Y46287002D01*
X50258223Y46283854D01*
X50256668Y46280953D01*
X50239746Y46225605D01*
X50222221Y46170361D01*
X50221854Y46167086D01*
X50220889Y46163931D01*
X50215031Y46106256D01*
X50208581Y46048754D01*
X50208536Y46042317D01*
X50208523Y46042188D01*
X50208534Y46042067D01*
X50208520Y46040000D01*
X50208520Y41560323D01*
X50201374Y41555614D01*
X50123057Y41463725D01*
X50073441Y41353655D01*
X50056454Y41234120D01*
X50056454Y40161120D01*
X46336910Y40161120D01*
X46094270Y40403760D01*
X46290810Y40403760D01*
X46387560Y40500510D01*
X46387560Y41637760D01*
X46393560Y41637760D01*
X46393560Y40500510D01*
X46490310Y40403760D01*
X47278676Y40403760D01*
X47353444Y40418632D01*
X47423873Y40447805D01*
X47487258Y40490157D01*
X47541162Y40544062D01*
X47583515Y40607447D01*
X47612688Y40677876D01*
X47627560Y40752644D01*
X47627560Y41541010D01*
X47530810Y41637760D01*
X46393560Y41637760D01*
X46387560Y41637760D01*
X45250310Y41637760D01*
X45153560Y41541010D01*
X45153560Y41156495D01*
X45140212Y41157851D01*
X45082710Y41164301D01*
X45076273Y41164346D01*
X45076144Y41164359D01*
X45076023Y41164348D01*
X45073956Y41164362D01*
X35279562Y41164362D01*
X35221907Y41158709D01*
X35164225Y41153662D01*
X35161062Y41152743D01*
X35157777Y41152421D01*
X35102326Y41135679D01*
X35046715Y41119523D01*
X35043785Y41118004D01*
X35040631Y41117052D01*
X34989497Y41089864D01*
X34938074Y41063209D01*
X34935499Y41061153D01*
X34932585Y41059604D01*
X34900401Y41033355D01*
X34860984Y41025836D01*
X34728794Y40972428D01*
X34609495Y40894360D01*
X34507631Y40794608D01*
X34427082Y40676970D01*
X34370917Y40545927D01*
X34341275Y40406470D01*
X34339284Y40263912D01*
X34365021Y40123682D01*
X34417505Y39991122D01*
X34494738Y39871280D01*
X34593777Y39768723D01*
X34661667Y39721538D01*
X25414098Y39721538D01*
X25356406Y39715881D01*
X25298760Y39710838D01*
X25295597Y39709919D01*
X25292313Y39709597D01*
X25236888Y39692863D01*
X25181250Y39676699D01*
X25178319Y39675180D01*
X25175167Y39674228D01*
X25124072Y39647061D01*
X25072609Y39620385D01*
X25070032Y39618328D01*
X25067121Y39616780D01*
X25022238Y39580175D01*
X24976975Y39544041D01*
X24972388Y39539517D01*
X24972292Y39539439D01*
X24972218Y39539350D01*
X24970742Y39537894D01*
X19646520Y34213672D01*
X19646520Y35421248D01*
X19654702Y35432847D01*
X19712691Y35563093D01*
X19744278Y35702122D01*
X19746552Y35864966D01*
X19718859Y36004823D01*
X19664529Y36136637D01*
X19585631Y36255389D01*
X19485170Y36356554D01*
X19366972Y36436279D01*
X19235540Y36491528D01*
X19095880Y36520196D01*
X19021707Y36520714D01*
X19023759Y36525265D01*
X19040746Y36644800D01*
X19040746Y38444800D01*
X19035324Y38512798D01*
X18999607Y38628130D01*
X18933174Y38728946D01*
X18841285Y38807263D01*
X18731215Y38856879D01*
X18611680Y38873866D01*
X16411680Y38873866D01*
X16343682Y38868444D01*
X16228350Y38832727D01*
X16127534Y38766294D01*
X16049217Y38674405D01*
X15999601Y38564335D01*
X15982614Y38444800D01*
X15982614Y36644800D01*
X15988036Y36576802D01*
X16023753Y36461470D01*
X16090186Y36360654D01*
X16182075Y36282337D01*
X16292145Y36232721D01*
X16411680Y36215734D01*
X18427377Y36215734D01*
X18379362Y36145610D01*
X18323197Y36014567D01*
X18293555Y35875110D01*
X18291564Y35732552D01*
X18317301Y35592322D01*
X18369785Y35459762D01*
X18392520Y35424484D01*
X18392520Y34153472D01*
X18231672Y33992624D01*
X18229127Y34005474D01*
X18174797Y34137288D01*
X18095899Y34256040D01*
X17995438Y34357205D01*
X17877240Y34436930D01*
X17745808Y34492179D01*
X17606148Y34520847D01*
X17463579Y34521842D01*
X17461352Y34521417D01*
X17440414Y34627162D01*
X17386084Y34758976D01*
X17307186Y34877728D01*
X17206725Y34978893D01*
X17088527Y35058618D01*
X16957095Y35113867D01*
X16817435Y35142535D01*
X16674866Y35143530D01*
X16534819Y35116815D01*
X16402629Y35063407D01*
X16283330Y34985339D01*
X16240114Y34943019D01*
X15333387Y34943019D01*
X15340746Y34994800D01*
X15340746Y35294800D01*
X15335324Y35362798D01*
X15326182Y35392317D01*
X15340746Y35494800D01*
X15340746Y35794800D01*
X15335324Y35862798D01*
X15299607Y35978130D01*
X15233174Y36078946D01*
X15141285Y36157263D01*
X15031215Y36206879D01*
X14911680Y36223866D01*
X14688161Y36223866D01*
X14688161Y36471670D01*
X14690534Y36472590D01*
X14810912Y36548984D01*
X14914159Y36647304D01*
X14996342Y36763807D01*
X15054331Y36894053D01*
X15085918Y37033082D01*
X15088192Y37195926D01*
X15060499Y37335783D01*
X15006169Y37467597D01*
X14927271Y37586349D01*
X14826810Y37687514D01*
X14708612Y37767239D01*
X14577180Y37822488D01*
X14437520Y37851156D01*
X14294951Y37852151D01*
X14154904Y37825436D01*
X14022714Y37772028D01*
X14002304Y37758672D01*
X15509872Y39266240D01*
X21206376Y39266240D01*
X21264068Y39271897D01*
X21321714Y39276940D01*
X21324877Y39277859D01*
X21328161Y39278181D01*
X21383600Y39294919D01*
X21439223Y39311079D01*
X21442153Y39312598D01*
X21445307Y39313550D01*
X21496420Y39340727D01*
X21547865Y39367393D01*
X21550442Y39369450D01*
X21553353Y39370998D01*
X21598236Y39407603D01*
X21643499Y39443737D01*
X21648086Y39448261D01*
X21648182Y39448339D01*
X21648256Y39448428D01*
X21649732Y39449884D01*
X24728724Y42528876D01*
X45153560Y42528876D01*
X45153560Y41740510D01*
X45250310Y41643760D01*
X46387560Y41643760D01*
X46387560Y42781010D01*
X46393560Y42781010D01*
X46393560Y41643760D01*
X47530810Y41643760D01*
X47627560Y41740510D01*
X47627560Y42528876D01*
X47612688Y42603644D01*
X47583515Y42674073D01*
X47541162Y42737458D01*
X47487258Y42791363D01*
X47423873Y42833715D01*
X47353444Y42862888D01*
X47278676Y42877760D01*
X46490310Y42877760D01*
X46393560Y42781010D01*
X46387560Y42781010D01*
X46290810Y42877760D01*
X45502444Y42877760D01*
X45427676Y42862888D01*
X45357247Y42833715D01*
X45293862Y42791363D01*
X45239958Y42737458D01*
X45197605Y42674073D01*
X45168432Y42603644D01*
X45153560Y42528876D01*
X24728724Y42528876D01*
X27780803Y45580955D01*
X27785378Y45578956D01*
X27924624Y45548341D01*
X28067165Y45545355D01*
X28207571Y45570112D01*
X28340494Y45621670D01*
X28460872Y45698064D01*
X28564119Y45796384D01*
X28646302Y45912887D01*
X28704291Y46043133D01*
X28735878Y46182162D01*
X28738152Y46345006D01*
X28710459Y46484863D01*
X28656129Y46616677D01*
X28577231Y46735429D01*
X28476770Y46836594D01*
X28358572Y46916319D01*
X28227140Y46971568D01*
X28087480Y47000236D01*
X27944911Y47001231D01*
X27804864Y46974516D01*
X27672674Y46921108D01*
X27641518Y46900720D01*
X27586856Y46900720D01*
X27529164Y46895063D01*
X27471518Y46890020D01*
X27468355Y46889101D01*
X27465071Y46888779D01*
X27409646Y46872045D01*
X27354008Y46855881D01*
X27351077Y46854362D01*
X27347925Y46853410D01*
X27296830Y46826243D01*
X27245367Y46799567D01*
X27242790Y46797510D01*
X27239879Y46795962D01*
X27194996Y46759357D01*
X27149733Y46723223D01*
X27145146Y46718699D01*
X27145050Y46718621D01*
X27144976Y46718532D01*
X27143500Y46717076D01*
X20946664Y40520240D01*
X15250160Y40520240D01*
X15192505Y40514587D01*
X15134823Y40509540D01*
X15131660Y40508621D01*
X15128375Y40508299D01*
X15072924Y40491557D01*
X15017313Y40475401D01*
X15014383Y40473882D01*
X15011229Y40472930D01*
X14960116Y40445753D01*
X14908671Y40419087D01*
X14906094Y40417030D01*
X14903183Y40415482D01*
X14858300Y40378877D01*
X14813037Y40342743D01*
X14808450Y40338219D01*
X14808354Y40338141D01*
X14808280Y40338052D01*
X14806804Y40336596D01*
X10777120Y36306912D01*
X10777120Y37342560D01*
X10866288Y37431728D01*
X10920641Y37497898D01*
X10975680Y37563492D01*
X10978028Y37567764D01*
X10981122Y37571530D01*
X11021587Y37646997D01*
X11062838Y37722032D01*
X11064312Y37726677D01*
X11066616Y37730975D01*
X11091661Y37812893D01*
X11117543Y37894482D01*
X11118086Y37899324D01*
X11119512Y37903988D01*
X11128168Y37989207D01*
X11137710Y38074273D01*
X11137776Y38083796D01*
X11137795Y38083981D01*
X11137779Y38084153D01*
X11137800Y38087216D01*
X11137800Y38511480D01*
X11120145Y38691535D01*
X11067854Y38864732D01*
X10982918Y39024474D01*
X10868572Y39164676D01*
X10729172Y39279998D01*
X10570027Y39366047D01*
X10397199Y39419546D01*
X10217272Y39438457D01*
X10037098Y39422060D01*
X9863540Y39370979D01*
X9703209Y39287161D01*
X9562212Y39173796D01*
X9445920Y39035204D01*
X9358762Y38876664D01*
X9304057Y38704214D01*
X9283890Y38524423D01*
X9283800Y38511480D01*
X9283800Y38471192D01*
X9194632Y38382024D01*
X9140279Y38315854D01*
X9085240Y38250260D01*
X9082892Y38245988D01*
X9079798Y38242222D01*
X9039322Y38166736D01*
X8998082Y38091720D01*
X8996609Y38087077D01*
X8994304Y38082778D01*
X8969268Y38000887D01*
X8943377Y37919270D01*
X8942833Y37914423D01*
X8941409Y37909764D01*
X8932762Y37824635D01*
X8923210Y37739479D01*
X8923144Y37729946D01*
X8923126Y37729772D01*
X8923141Y37729609D01*
X8923120Y37726536D01*
X8923120Y30759400D01*
X8931475Y30674191D01*
X8938939Y30588877D01*
X8940300Y30584194D01*
X8940775Y30579345D01*
X8965520Y30497386D01*
X8989414Y30415142D01*
X8991657Y30410815D01*
X8993066Y30406148D01*
X9033252Y30330568D01*
X9072672Y30254519D01*
X9075715Y30250707D01*
X9078002Y30246406D01*
X9132108Y30180066D01*
X9185544Y30113128D01*
X9192234Y30106344D01*
X9192348Y30106204D01*
X9192477Y30106097D01*
X9194632Y30103912D01*
X10159233Y29139311D01*
X10225403Y29084958D01*
X10290997Y29029919D01*
X10295269Y29027571D01*
X10299035Y29024477D01*
X10374521Y28984001D01*
X10449537Y28942761D01*
X10454180Y28941288D01*
X10458479Y28938983D01*
X10540412Y28913934D01*
X10621987Y28888056D01*
X10626829Y28887513D01*
X10631493Y28886087D01*
X10716672Y28877435D01*
X10801778Y28867889D01*
X10811311Y28867823D01*
X10811485Y28867805D01*
X10811648Y28867820D01*
X10814721Y28867799D01*
X13334680Y28867799D01*
X13334680Y28166480D01*
X13343035Y28081271D01*
X13350499Y27995957D01*
X13351860Y27991274D01*
X13352335Y27986425D01*
X13377080Y27904466D01*
X13400974Y27822222D01*
X13403217Y27817895D01*
X13404626Y27813228D01*
X13444812Y27737648D01*
X13484232Y27661599D01*
X13487275Y27657787D01*
X13489562Y27653486D01*
X13543668Y27587146D01*
X13597104Y27520208D01*
X13603794Y27513424D01*
X13603908Y27513284D01*
X13604037Y27513177D01*
X13606192Y27510992D01*
X15135743Y25981441D01*
X2717888Y25981441D01*
X3102978Y26049343D01*
X3473591Y26193094D01*
X3809224Y26406093D01*
X4097094Y26680228D01*
X4326234Y27005055D01*
X4487918Y27368204D01*
X4575987Y27755840D01*
X4582327Y28209878D01*
X4505116Y28599822D01*
X4353635Y28967343D01*
X4133653Y29298442D01*
X3853550Y29580508D01*
X3523995Y29802795D01*
X3157541Y29956839D01*
X2768144Y30036770D01*
X2370639Y30039545D01*
X1980165Y29965058D01*
X1611595Y29816147D01*
X1278968Y29598482D01*
X994955Y29320355D01*
X770372Y28992360D01*
X613774Y28626989D01*
X531126Y28238161D01*
X525575Y27840684D01*
X597334Y27449700D01*
X743670Y27080099D01*
X959007Y26745961D01*
X1235144Y26460013D01*
X1561564Y26233145D01*
X1925832Y26074000D01*
X2314074Y25988640D01*
X2657748Y25981441D01*
X517916Y25981441D01*
X517916Y41591810D01*
X988040Y41591810D01*
X988040Y40803444D01*
X1002912Y40728676D01*
X1032085Y40658247D01*
X1074438Y40594862D01*
X1128342Y40540957D01*
X1191727Y40498605D01*
X1262156Y40469432D01*
X1336924Y40454560D01*
X2125290Y40454560D01*
X2222040Y40551310D01*
X2222040Y41688560D01*
X2228040Y41688560D01*
X2228040Y40551310D01*
X2324790Y40454560D01*
X3113156Y40454560D01*
X3187924Y40469432D01*
X3258353Y40498605D01*
X3321738Y40540957D01*
X3375642Y40594862D01*
X3417995Y40658247D01*
X3447168Y40728676D01*
X3462040Y40803444D01*
X3462040Y41591810D01*
X3365290Y41688560D01*
X2228040Y41688560D01*
X2222040Y41688560D01*
X1084790Y41688560D01*
X988040Y41591810D01*
X517916Y41591810D01*
X517916Y42579676D01*
X988040Y42579676D01*
X988040Y41791310D01*
X1084790Y41694560D01*
X2222040Y41694560D01*
X2222040Y42831810D01*
X2228040Y42831810D01*
X2228040Y41694560D01*
X3365290Y41694560D01*
X3462040Y41791310D01*
X3462040Y42579676D01*
X3447168Y42654444D01*
X3417995Y42724873D01*
X3375642Y42788258D01*
X3321738Y42842163D01*
X3258353Y42884515D01*
X3187924Y42913688D01*
X3113156Y42928560D01*
X2324790Y42928560D01*
X2228040Y42831810D01*
X2222040Y42831810D01*
X2125290Y42928560D01*
X1336924Y42928560D01*
X1262156Y42913688D01*
X1191727Y42884515D01*
X1128342Y42842163D01*
X1074438Y42788258D01*
X1032085Y42724873D01*
X1002912Y42654444D01*
X988040Y42579676D01*
X517916Y42579676D01*
X517916Y62527441D01*
X1040916Y62527441D01*
X1085646Y62531827D01*
X1130297Y62535890D01*
X1131899Y62536362D01*
X1133566Y62536525D01*
X1176535Y62549499D01*
X1219603Y62562174D01*
X1221087Y62562950D01*
X1222687Y62563433D01*
X1262251Y62584469D01*
X1302104Y62605304D01*
X1303411Y62606355D01*
X1304884Y62607138D01*
X1339673Y62635511D01*
X1374655Y62663638D01*
X1375728Y62664916D01*
X1377027Y62665976D01*
X1405693Y62700628D01*
X1434495Y62734952D01*
X1435300Y62736416D01*
X1436367Y62737706D01*
X1457728Y62777213D01*
X1479344Y62816531D01*
X1479850Y62818125D01*
X1480645Y62819596D01*
X1493917Y62862473D01*
X1507492Y62905267D01*
X1507678Y62906929D01*
X1508173Y62908527D01*
X1512858Y62953105D01*
X1517870Y62997781D01*
X1517892Y63000999D01*
X1517904Y63001111D01*
X1517894Y63001223D01*
X1517916Y63004441D01*
X1517916Y70797164D01*
X2516935Y70797164D01*
X2588694Y70406180D01*
X2735030Y70036579D01*
X2950367Y69702441D01*
X3226504Y69416493D01*
X3552924Y69189625D01*
X3917192Y69030480D01*
X4305434Y68945120D01*
X4702862Y68936795D01*
X5094338Y69005823D01*
X5464951Y69149574D01*
X5800584Y69362573D01*
X6088454Y69636708D01*
X6317594Y69961535D01*
X6479278Y70324684D01*
X6567347Y70712320D01*
X6573687Y71166358D01*
X6496476Y71556302D01*
X6344995Y71923823D01*
X6125013Y72254922D01*
X5844910Y72536988D01*
X5515355Y72759275D01*
X5148901Y72913319D01*
X4759504Y72993250D01*
X4361999Y72996025D01*
X3971525Y72921538D01*
X3602955Y72772627D01*
X3270328Y72554962D01*
X2986315Y72276835D01*
X2761732Y71948840D01*
X2605134Y71583469D01*
X2522486Y71194641D01*
X2516935Y70797164D01*
X1517916Y70797164D01*
X1517916Y74701065D01*
X1901107Y74701065D01*
X1942683Y74539332D01*
X2098444Y74448720D01*
X2268890Y74390237D01*
X2447470Y74366131D01*
X2627322Y74377326D01*
X2801533Y74423394D01*
X2963411Y74502564D01*
X3018437Y74539332D01*
X3060013Y74701065D01*
X2480560Y75280517D01*
X1901107Y74701065D01*
X1517916Y74701065D01*
X1517916Y75317850D01*
X1561931Y75317850D01*
X1573126Y75137998D01*
X1619194Y74963787D01*
X1698364Y74801909D01*
X1735132Y74746883D01*
X1896865Y74705307D01*
X2476317Y75284760D01*
X2484803Y75284760D01*
X3064255Y74705307D01*
X3225988Y74746883D01*
X3316600Y74902644D01*
X3375083Y75073090D01*
X3392818Y75204478D01*
X5524506Y75204478D01*
X5558307Y75020308D01*
X5627237Y74846212D01*
X5728670Y74688819D01*
X5858741Y74554126D01*
X6012498Y74447262D01*
X6184083Y74372298D01*
X6366961Y74332090D01*
X6554166Y74328169D01*
X6738567Y74360684D01*
X6913140Y74428396D01*
X7071237Y74528728D01*
X7206835Y74657856D01*
X7314770Y74810863D01*
X7390930Y74981920D01*
X7432414Y75164513D01*
X7435400Y75378383D01*
X7399031Y75562063D01*
X7327677Y75735180D01*
X7224056Y75891141D01*
X7092117Y76024005D01*
X6936883Y76128712D01*
X6764268Y76201272D01*
X6738150Y76206633D01*
X6801533Y76223394D01*
X6963411Y76302564D01*
X7018437Y76339332D01*
X7060013Y76501065D01*
X6480560Y77080517D01*
X5901107Y76501065D01*
X5942683Y76339332D01*
X6098444Y76248720D01*
X6219810Y76207077D01*
X6209676Y76205144D01*
X6036065Y76135001D01*
X5879384Y76032472D01*
X5745602Y75901463D01*
X5639815Y75746964D01*
X5566051Y75574859D01*
X5527120Y75391705D01*
X5524506Y75204478D01*
X3392818Y75204478D01*
X3399189Y75251670D01*
X3387994Y75431522D01*
X3341926Y75605733D01*
X3262756Y75767611D01*
X3225988Y75822637D01*
X3064255Y75864213D01*
X2484803Y75284760D01*
X2476317Y75284760D01*
X1896865Y75864213D01*
X1735132Y75822637D01*
X1644520Y75666876D01*
X1586037Y75496430D01*
X1561931Y75317850D01*
X1517916Y75317850D01*
X1517916Y77527441D01*
X1631447Y77527441D01*
X1566051Y77374859D01*
X1566051Y77374859D01*
G37*
X1566051Y77374859D02*
X1527120Y77191705D01*
X1524506Y77004478D01*
X1558307Y76820308D01*
X1627237Y76646212D01*
X1728670Y76488819D01*
X1858741Y76354126D01*
X2012498Y76247262D01*
X2184083Y76172298D01*
X2224749Y76163357D01*
X2159587Y76146126D01*
X1997709Y76066956D01*
X1942683Y76030188D01*
X1901107Y75868455D01*
X2480560Y75289003D01*
X3060013Y75868455D01*
X3018437Y76030188D01*
X2862676Y76120800D01*
X2742261Y76162117D01*
X2913140Y76228396D01*
X3071237Y76328728D01*
X3206835Y76457856D01*
X3314770Y76610863D01*
X3390930Y76781920D01*
X3432414Y76964513D01*
X3435400Y77178383D01*
X3399031Y77362063D01*
X3330867Y77527441D01*
X5679753Y77527441D01*
X5644520Y77466876D01*
X5586037Y77296430D01*
X5561931Y77117850D01*
X5573126Y76937998D01*
X5619194Y76763787D01*
X5698364Y76601909D01*
X5735132Y76546883D01*
X5896865Y76505307D01*
X6476317Y77084760D01*
X6462175Y77098902D01*
X6466418Y77103145D01*
X6480560Y77089003D01*
X6494702Y77103145D01*
X6498945Y77098902D01*
X6484803Y77084760D01*
X7064255Y76505307D01*
X7225988Y76546883D01*
X7316600Y76702644D01*
X7375083Y76873090D01*
X7399189Y77051670D01*
X7387994Y77231522D01*
X7341926Y77405733D01*
X7282402Y77527441D01*
X7563916Y77527441D01*
X7563916Y63004441D01*
X7568302Y62959711D01*
X7572365Y62915060D01*
X7572837Y62913458D01*
X7573000Y62911791D01*
X7585974Y62868822D01*
X7598649Y62825754D01*
X7599425Y62824270D01*
X7599908Y62822670D01*
X7620944Y62783106D01*
X7641779Y62743253D01*
X7642830Y62741946D01*
X7643613Y62740473D01*
X7671986Y62705684D01*
X7700113Y62670702D01*
X7701391Y62669629D01*
X7702451Y62668330D01*
X7737103Y62639664D01*
X7771427Y62610862D01*
X7772891Y62610057D01*
X7774181Y62608990D01*
X7813688Y62587629D01*
X7853006Y62566013D01*
X7854600Y62565507D01*
X7856071Y62564712D01*
X7898948Y62551440D01*
X7941742Y62537865D01*
X7943404Y62537679D01*
X7945002Y62537184D01*
X7989580Y62532499D01*
X8034256Y62527487D01*
X8037474Y62527465D01*
X8037586Y62527453D01*
X8037698Y62527463D01*
X8040916Y62527441D01*
X44540916Y62527441D01*
X44585646Y62531827D01*
X44630297Y62535890D01*
X44631899Y62536362D01*
X44633566Y62536525D01*
X44676535Y62549499D01*
X44719603Y62562174D01*
X44721087Y62562950D01*
X44722687Y62563433D01*
X44762251Y62584469D01*
X44802104Y62605304D01*
X44803411Y62606355D01*
X44804884Y62607138D01*
X44839673Y62635511D01*
X44874655Y62663638D01*
X44875728Y62664916D01*
X44877027Y62665976D01*
X44905693Y62700628D01*
X44934495Y62734952D01*
X44935300Y62736416D01*
X44936367Y62737706D01*
X44957728Y62777213D01*
X44979344Y62816531D01*
X44979850Y62818125D01*
X44980645Y62819596D01*
X44993917Y62862473D01*
X45007492Y62905267D01*
X45007678Y62906929D01*
X45008173Y62908527D01*
X45012858Y62953105D01*
X45017870Y62997781D01*
X45017892Y63000999D01*
X45017904Y63001111D01*
X45017894Y63001223D01*
X45017916Y63004441D01*
X45017916Y66331844D01*
X46011895Y66331844D01*
X46083654Y65940860D01*
X46229990Y65571259D01*
X46445327Y65237121D01*
X46721464Y64951173D01*
X47047884Y64724305D01*
X47412152Y64565160D01*
X47800394Y64479800D01*
X48197822Y64471475D01*
X48589298Y64540503D01*
X48959911Y64684254D01*
X49295544Y64897253D01*
X49583414Y65171388D01*
X49812554Y65496215D01*
X49974238Y65859364D01*
X50062307Y66247000D01*
X50068647Y66701038D01*
X49991436Y67090982D01*
X49839955Y67458503D01*
X49619973Y67789602D01*
X49339870Y68071668D01*
X49010315Y68293955D01*
X48643861Y68447999D01*
X48254464Y68527930D01*
X47856959Y68530705D01*
X47466485Y68456218D01*
X47097915Y68307307D01*
X46765288Y68089642D01*
X46481275Y67811515D01*
X46256692Y67483520D01*
X46100094Y67118149D01*
X46017446Y66729321D01*
X46011895Y66331844D01*
X45017916Y66331844D01*
X45017916Y69527441D01*
X51063916Y69527441D01*
X51063916Y63004441D01*
X51068302Y62959711D01*
X51072365Y62915060D01*
X51072837Y62913458D01*
X51073000Y62911791D01*
X51085974Y62868822D01*
X51098649Y62825754D01*
X51099425Y62824270D01*
X51099908Y62822670D01*
X51120944Y62783106D01*
X51141779Y62743253D01*
X51142830Y62741946D01*
X51143613Y62740473D01*
X51171986Y62705684D01*
X51200113Y62670702D01*
X51201391Y62669629D01*
X51202451Y62668330D01*
X51237103Y62639664D01*
X51271427Y62610862D01*
X51272891Y62610057D01*
X51274181Y62608990D01*
X51313688Y62587629D01*
X51353006Y62566013D01*
X51354600Y62565507D01*
X51356071Y62564712D01*
X51398948Y62551440D01*
X51441742Y62537865D01*
X51443404Y62537679D01*
X51445002Y62537184D01*
X51489580Y62532499D01*
X51534256Y62527487D01*
X51537474Y62527465D01*
X51537586Y62527453D01*
X51537698Y62527463D01*
X51540916Y62527441D01*
X88040916Y62527441D01*
X88085646Y62531827D01*
X88130297Y62535890D01*
X88131899Y62536362D01*
X88133566Y62536525D01*
X88176535Y62549499D01*
X88219603Y62562174D01*
X88221087Y62562950D01*
X88222687Y62563433D01*
X88262251Y62584469D01*
X88302104Y62605304D01*
X88303411Y62606355D01*
X88304884Y62607138D01*
X88339673Y62635511D01*
X88374655Y62663638D01*
X88375728Y62664916D01*
X88377027Y62665976D01*
X88405693Y62700628D01*
X88434495Y62734952D01*
X88435300Y62736416D01*
X88436367Y62737706D01*
X88457728Y62777213D01*
X88479344Y62816531D01*
X88479850Y62818125D01*
X88480645Y62819596D01*
X88493917Y62862473D01*
X88507492Y62905267D01*
X88507678Y62906929D01*
X88508173Y62908527D01*
X88512858Y62953105D01*
X88517870Y62997781D01*
X88517892Y63000999D01*
X88517904Y63001111D01*
X88517894Y63001223D01*
X88517916Y63004441D01*
X88517916Y70812404D01*
X89517015Y70812404D01*
X89588774Y70421420D01*
X89735110Y70051819D01*
X89950447Y69717681D01*
X90226584Y69431733D01*
X90553004Y69204865D01*
X90917272Y69045720D01*
X91305514Y68960360D01*
X91702942Y68952035D01*
X92094418Y69021063D01*
X92465031Y69164814D01*
X92800664Y69377813D01*
X93088534Y69651948D01*
X93317674Y69976775D01*
X93479358Y70339924D01*
X93567427Y70727560D01*
X93573767Y71181598D01*
X93496556Y71571542D01*
X93345075Y71939063D01*
X93125093Y72270162D01*
X92844990Y72552228D01*
X92515435Y72774515D01*
X92148981Y72928559D01*
X91759584Y73008490D01*
X91362079Y73011265D01*
X90971605Y72936778D01*
X90603035Y72787867D01*
X90270408Y72570202D01*
X89986395Y72292075D01*
X89761812Y71964080D01*
X89605214Y71598709D01*
X89522566Y71209881D01*
X89517015Y70812404D01*
X88517916Y70812404D01*
X88517916Y74701065D01*
X89028187Y74701065D01*
X89069763Y74539332D01*
X89225524Y74448720D01*
X89395970Y74390237D01*
X89574550Y74366131D01*
X89754402Y74377326D01*
X89928613Y74423394D01*
X90090491Y74502564D01*
X90145517Y74539332D01*
X90187093Y74701065D01*
X89607640Y75280517D01*
X89028187Y74701065D01*
X88517916Y74701065D01*
X88517916Y75317850D01*
X88689011Y75317850D01*
X88700206Y75137998D01*
X88746274Y74963787D01*
X88825444Y74801909D01*
X88862212Y74746883D01*
X89023945Y74705307D01*
X89603397Y75284760D01*
X89611883Y75284760D01*
X90191335Y74705307D01*
X90353068Y74746883D01*
X90443680Y74902644D01*
X90502163Y75073090D01*
X90519898Y75204478D01*
X92651586Y75204478D01*
X92685387Y75020308D01*
X92754317Y74846212D01*
X92855750Y74688819D01*
X92985821Y74554126D01*
X93139578Y74447262D01*
X93311163Y74372298D01*
X93494041Y74332090D01*
X93681246Y74328169D01*
X93865647Y74360684D01*
X94040220Y74428396D01*
X94198317Y74528728D01*
X94333915Y74657856D01*
X94441850Y74810863D01*
X94518010Y74981920D01*
X94559494Y75164513D01*
X94562480Y75378383D01*
X94526111Y75562063D01*
X94454757Y75735180D01*
X94351136Y75891141D01*
X94219197Y76024005D01*
X94063963Y76128712D01*
X93891348Y76201272D01*
X93865230Y76206633D01*
X93928613Y76223394D01*
X94090491Y76302564D01*
X94145517Y76339332D01*
X94187093Y76501065D01*
X93607640Y77080517D01*
X93028187Y76501065D01*
X93069763Y76339332D01*
X93225524Y76248720D01*
X93346890Y76207077D01*
X93336756Y76205144D01*
X93163145Y76135001D01*
X93006464Y76032472D01*
X92872682Y75901463D01*
X92766895Y75746964D01*
X92693131Y75574859D01*
X92654200Y75391705D01*
X92651586Y75204478D01*
X90519898Y75204478D01*
X90526269Y75251670D01*
X90515074Y75431522D01*
X90469006Y75605733D01*
X90389836Y75767611D01*
X90353068Y75822637D01*
X90191335Y75864213D01*
X89611883Y75284760D01*
X89603397Y75284760D01*
X89023945Y75864213D01*
X88862212Y75822637D01*
X88771600Y75666876D01*
X88713117Y75496430D01*
X88689011Y75317850D01*
X88517916Y75317850D01*
X88517916Y77527441D01*
X88758527Y77527441D01*
X88693131Y77374859D01*
X88654200Y77191705D01*
X88651586Y77004478D01*
X88685387Y76820308D01*
X88754317Y76646212D01*
X88855750Y76488819D01*
X88985821Y76354126D01*
X89139578Y76247262D01*
X89311163Y76172298D01*
X89351829Y76163357D01*
X89286667Y76146126D01*
X89124789Y76066956D01*
X89069763Y76030188D01*
X89028187Y75868455D01*
X89607640Y75289003D01*
X90187093Y75868455D01*
X90145517Y76030188D01*
X89989756Y76120800D01*
X89869341Y76162117D01*
X90040220Y76228396D01*
X90198317Y76328728D01*
X90333915Y76457856D01*
X90441850Y76610863D01*
X90518010Y76781920D01*
X90559494Y76964513D01*
X90562480Y77178383D01*
X90526111Y77362063D01*
X90457947Y77527441D01*
X92806833Y77527441D01*
X92771600Y77466876D01*
X92713117Y77296430D01*
X92689011Y77117850D01*
X92700206Y76937998D01*
X92746274Y76763787D01*
X92825444Y76601909D01*
X92862212Y76546883D01*
X93023945Y76505307D01*
X93603397Y77084760D01*
X93589255Y77098902D01*
X93593498Y77103145D01*
X93607640Y77089003D01*
X93621782Y77103145D01*
X93626025Y77098902D01*
X93611883Y77084760D01*
X94191335Y76505307D01*
X94353068Y76546883D01*
X94443680Y76702644D01*
X94502163Y76873090D01*
X94526269Y77051670D01*
X94515074Y77231522D01*
X94469006Y77405733D01*
X94409482Y77527441D01*
X94563916Y77527441D01*
X94563916Y63004441D01*
X94568302Y62959711D01*
X94572365Y62915060D01*
X94572837Y62913458D01*
X94573000Y62911791D01*
X94585974Y62868822D01*
X94598649Y62825754D01*
X94599425Y62824270D01*
X94599908Y62822670D01*
X94620944Y62783106D01*
X94641779Y62743253D01*
X94642830Y62741946D01*
X94643613Y62740473D01*
X94671986Y62705684D01*
X94700113Y62670702D01*
X94701391Y62669629D01*
X94702451Y62668330D01*
X94737103Y62639664D01*
X94771427Y62610862D01*
X94772891Y62610057D01*
X94774181Y62608990D01*
X94813688Y62587629D01*
X94853006Y62566013D01*
X94854600Y62565507D01*
X94856071Y62564712D01*
X94898948Y62551440D01*
X94941742Y62537865D01*
X94943404Y62537679D01*
X94945002Y62537184D01*
X94989580Y62532499D01*
X95034256Y62527487D01*
X95037474Y62527465D01*
X95037586Y62527453D01*
X95037698Y62527463D01*
X95040916Y62527441D01*
X95563916Y62527441D01*
X95563916Y41241807D01*
X84387081Y52418641D01*
X84285262Y52502277D01*
X84184248Y52587037D01*
X84177673Y52590652D01*
X84171874Y52595415D01*
X84055680Y52657718D01*
X83940195Y52721206D01*
X83933045Y52723474D01*
X83926430Y52727021D01*
X83800375Y52765560D01*
X83674730Y52805417D01*
X83667271Y52806254D01*
X83660097Y52808447D01*
X83528992Y52821764D01*
X83397964Y52836461D01*
X83383293Y52836563D01*
X83383021Y52836591D01*
X83382767Y52836567D01*
X83378040Y52836600D01*
X60693560Y52836600D01*
X60562403Y52823740D01*
X60431061Y52812249D01*
X60423853Y52810155D01*
X60416388Y52809423D01*
X60405448Y52806120D01*
X58677618Y52806120D01*
X58663080Y52808186D01*
X56663080Y52808186D01*
X56637170Y52806120D01*
X54663080Y52806120D01*
X54531923Y52793260D01*
X54400581Y52781769D01*
X54393373Y52779675D01*
X54385908Y52778943D01*
X54259743Y52740851D01*
X54133138Y52704069D01*
X54126476Y52700616D01*
X54119293Y52698447D01*
X54002903Y52636562D01*
X53885880Y52575903D01*
X53880017Y52571223D01*
X53873390Y52567699D01*
X53771237Y52484384D01*
X53668225Y52402151D01*
X53657782Y52391853D01*
X53657567Y52391677D01*
X53657402Y52391477D01*
X53654039Y52388161D01*
X51145918Y49880040D01*
X45096872Y49880040D01*
X45100044Y49881727D01*
X45151489Y49908393D01*
X45154066Y49910450D01*
X45156977Y49911998D01*
X45201860Y49948603D01*
X45247123Y49984737D01*
X45251710Y49989261D01*
X45251806Y49989339D01*
X45251880Y49989428D01*
X45253356Y49990884D01*
X45722383Y50459911D01*
X49248114Y50459911D01*
X49346306Y50249823D01*
X49582315Y50112177D01*
X49840643Y50023219D01*
X50111362Y49986368D01*
X50384068Y50003039D01*
X50648282Y50072592D01*
X50893850Y50192355D01*
X50979854Y50249823D01*
X51078046Y50459911D01*
X50163080Y51374877D01*
X49248114Y50459911D01*
X45722383Y50459911D01*
X46693310Y51430838D01*
X48770328Y51430838D01*
X48786999Y51158132D01*
X48856552Y50893918D01*
X48976315Y50648350D01*
X49033783Y50562346D01*
X49243871Y50464154D01*
X50158837Y51379120D01*
X50167323Y51379120D01*
X51082289Y50464154D01*
X51292377Y50562346D01*
X51430023Y50798355D01*
X51518981Y51056683D01*
X51555832Y51327402D01*
X51539161Y51600108D01*
X51469608Y51864322D01*
X51349845Y52109890D01*
X51292377Y52195894D01*
X51082289Y52294086D01*
X50167323Y51379120D01*
X50158837Y51379120D01*
X49243871Y52294086D01*
X49033783Y52195894D01*
X48896137Y51959885D01*
X48807179Y51701557D01*
X48770328Y51430838D01*
X46693310Y51430838D01*
X47560801Y52298329D01*
X49248114Y52298329D01*
X50163080Y51383363D01*
X51078046Y52298329D01*
X50979854Y52508417D01*
X50743845Y52646063D01*
X50485517Y52735021D01*
X50214798Y52771872D01*
X49942092Y52755201D01*
X49677878Y52685648D01*
X49432310Y52565885D01*
X49346306Y52508417D01*
X49248114Y52298329D01*
X47560801Y52298329D01*
X49933985Y54671513D01*
X50074526Y54668569D01*
X50258927Y54701084D01*
X50433500Y54768796D01*
X50591597Y54869128D01*
X50727195Y54998256D01*
X50835130Y55151263D01*
X50911290Y55322320D01*
X50952774Y55504913D01*
X50955760Y55718783D01*
X50919391Y55902463D01*
X50848037Y56075580D01*
X50744416Y56231541D01*
X50612477Y56364405D01*
X50457243Y56469112D01*
X50284628Y56541672D01*
X50258510Y56547033D01*
X50321893Y56563794D01*
X50483771Y56642964D01*
X50538797Y56679732D01*
X50580373Y56841465D01*
X50000920Y57420917D01*
X49421467Y56841465D01*
X49463043Y56679732D01*
X49618804Y56589120D01*
X49740170Y56547477D01*
X49730036Y56545544D01*
X49556425Y56475401D01*
X49399744Y56372872D01*
X49265962Y56241863D01*
X49160175Y56087364D01*
X49086411Y55915259D01*
X49047480Y55732105D01*
X49045021Y55555973D01*
X44550288Y51061240D01*
X35808659Y51061240D01*
X35785532Y51076839D01*
X35654100Y51132088D01*
X35514440Y51160756D01*
X35371871Y51161751D01*
X35231824Y51135036D01*
X35099634Y51081628D01*
X34980335Y51003560D01*
X34878471Y50903808D01*
X34797922Y50786170D01*
X34741757Y50655127D01*
X34712115Y50515670D01*
X34710124Y50373112D01*
X34735861Y50232882D01*
X34788345Y50100322D01*
X34865578Y49980480D01*
X34962573Y49880040D01*
X18030842Y49880040D01*
X12869417Y55041465D01*
X45421467Y55041465D01*
X45463043Y54879732D01*
X45618804Y54789120D01*
X45789250Y54730637D01*
X45967830Y54706531D01*
X46147682Y54717726D01*
X46321893Y54763794D01*
X46483771Y54842964D01*
X46538797Y54879732D01*
X46580373Y55041465D01*
X46000920Y55620917D01*
X45421467Y55041465D01*
X12869417Y55041465D01*
X12252632Y55658250D01*
X45082291Y55658250D01*
X45093486Y55478398D01*
X45139554Y55304187D01*
X45218724Y55142309D01*
X45255492Y55087283D01*
X45417225Y55045707D01*
X45996677Y55625160D01*
X46005163Y55625160D01*
X46584615Y55045707D01*
X46746348Y55087283D01*
X46836960Y55243044D01*
X46895443Y55413490D01*
X46919549Y55592070D01*
X46908354Y55771922D01*
X46862286Y55946133D01*
X46783116Y56108011D01*
X46746348Y56163037D01*
X46584615Y56204613D01*
X46005163Y55625160D01*
X45996677Y55625160D01*
X45417225Y56204613D01*
X45255492Y56163037D01*
X45164880Y56007276D01*
X45106397Y55836830D01*
X45082291Y55658250D01*
X12252632Y55658250D01*
X10566004Y57344878D01*
X45044866Y57344878D01*
X45078667Y57160708D01*
X45147597Y56986612D01*
X45249030Y56829219D01*
X45379101Y56694526D01*
X45532858Y56587662D01*
X45704443Y56512698D01*
X45745109Y56503757D01*
X45679947Y56486526D01*
X45518069Y56407356D01*
X45463043Y56370588D01*
X45421467Y56208855D01*
X46000920Y55629403D01*
X46580373Y56208855D01*
X46538797Y56370588D01*
X46383036Y56461200D01*
X46262621Y56502517D01*
X46433500Y56568796D01*
X46591597Y56669128D01*
X46727195Y56798256D01*
X46835130Y56951263D01*
X46911290Y57122320D01*
X46952774Y57304913D01*
X46954914Y57458250D01*
X49082291Y57458250D01*
X49093486Y57278398D01*
X49139554Y57104187D01*
X49218724Y56942309D01*
X49255492Y56887283D01*
X49417225Y56845707D01*
X49996677Y57425160D01*
X50005163Y57425160D01*
X50584615Y56845707D01*
X50746348Y56887283D01*
X50836960Y57043044D01*
X50895443Y57213490D01*
X50919549Y57392070D01*
X50908354Y57571922D01*
X50862286Y57746133D01*
X50783116Y57908011D01*
X50746348Y57963037D01*
X50584615Y58004613D01*
X50005163Y57425160D01*
X49996677Y57425160D01*
X49417225Y58004613D01*
X49255492Y57963037D01*
X49164880Y57807276D01*
X49106397Y57636830D01*
X49082291Y57458250D01*
X46954914Y57458250D01*
X46955760Y57518783D01*
X46919391Y57702463D01*
X46848037Y57875580D01*
X46759489Y58008855D01*
X49421467Y58008855D01*
X50000920Y57429403D01*
X50580373Y58008855D01*
X50538797Y58170588D01*
X50383036Y58261200D01*
X50212590Y58319683D01*
X50034010Y58343789D01*
X49854158Y58332594D01*
X49679947Y58286526D01*
X49518069Y58207356D01*
X49463043Y58170588D01*
X49421467Y58008855D01*
X46759489Y58008855D01*
X46744416Y58031541D01*
X46612477Y58164405D01*
X46457243Y58269112D01*
X46284628Y58341672D01*
X46101207Y58379323D01*
X45913965Y58380630D01*
X45730036Y58345544D01*
X45556425Y58275401D01*
X45399744Y58172872D01*
X45265962Y58041863D01*
X45160175Y57887364D01*
X45086411Y57715259D01*
X45047480Y57532105D01*
X45044866Y57344878D01*
X10566004Y57344878D01*
X6334562Y61576320D01*
X45147054Y61576320D01*
X45147054Y59876320D01*
X45152476Y59808322D01*
X45188193Y59692990D01*
X45254626Y59592174D01*
X45346515Y59513857D01*
X45456585Y59464241D01*
X45576120Y59447254D01*
X47276120Y59447254D01*
X47344118Y59452676D01*
X47459450Y59488393D01*
X47560266Y59554826D01*
X47638583Y59646715D01*
X47688199Y59756785D01*
X47705186Y59876320D01*
X47705186Y61576320D01*
X47699764Y61644318D01*
X47664047Y61759650D01*
X47597614Y61860466D01*
X47505725Y61938783D01*
X47395655Y61988399D01*
X47276120Y62005386D01*
X45576120Y62005386D01*
X45508122Y61999964D01*
X45392790Y61964247D01*
X45291974Y61897814D01*
X45213657Y61805925D01*
X45164041Y61695855D01*
X45147054Y61576320D01*
X6334562Y61576320D01*
X6104401Y61806481D01*
X6002582Y61890117D01*
X5901568Y61974877D01*
X5894993Y61978492D01*
X5889194Y61983255D01*
X5773000Y62045558D01*
X5657515Y62109046D01*
X5650365Y62111314D01*
X5643750Y62114861D01*
X5517695Y62153400D01*
X5392050Y62193257D01*
X5384591Y62194094D01*
X5377417Y62196287D01*
X5246312Y62209604D01*
X5115284Y62224301D01*
X5100613Y62224403D01*
X5100341Y62224431D01*
X5100087Y62224407D01*
X5095360Y62224440D01*
X2245360Y62224440D01*
X1968188Y62197263D01*
X1701573Y62116767D01*
X1625853Y62076506D01*
X1395360Y62076506D01*
X1327362Y62071084D01*
X1212030Y62035367D01*
X1111214Y61968934D01*
X1032897Y61877045D01*
X983281Y61766975D01*
X966294Y61647440D01*
X966294Y61417806D01*
X929861Y61350425D01*
X847506Y61084378D01*
X818395Y60807402D01*
X843636Y60530047D01*
X922269Y60262876D01*
X966294Y60178664D01*
X966294Y59947440D01*
X971716Y59879442D01*
X1007433Y59764110D01*
X1073866Y59663294D01*
X1165755Y59584977D01*
X1275825Y59535361D01*
X1395360Y59518374D01*
X1624015Y59518374D01*
X1683205Y59485834D01*
X1948670Y59401623D01*
X2225436Y59370579D01*
X2245360Y59370440D01*
X4504278Y59370440D01*
X16430719Y47443999D01*
X16532538Y47360363D01*
X16633552Y47275603D01*
X16640127Y47271988D01*
X16645926Y47267225D01*
X16762120Y47204922D01*
X16877605Y47141434D01*
X16884755Y47139166D01*
X16891370Y47135619D01*
X17017425Y47097080D01*
X17143070Y47057223D01*
X17150529Y47056386D01*
X17157703Y47054193D01*
X17288808Y47040876D01*
X17419836Y47026179D01*
X17434507Y47026077D01*
X17434779Y47026049D01*
X17435033Y47026073D01*
X17439760Y47026040D01*
X50934848Y47026040D01*
X50392164Y46483356D01*
X50355397Y46438595D01*
X50318174Y46394234D01*
X50316585Y46391344D01*
X50314493Y46388797D01*
X50287152Y46337806D01*
X50259222Y46287002D01*
X50258223Y46283854D01*
X50256668Y46280953D01*
X50239746Y46225605D01*
X50222221Y46170361D01*
X50221854Y46167086D01*
X50220889Y46163931D01*
X50215031Y46106256D01*
X50208581Y46048754D01*
X50208536Y46042317D01*
X50208523Y46042188D01*
X50208534Y46042067D01*
X50208520Y46040000D01*
X50208520Y41560323D01*
X50201374Y41555614D01*
X50123057Y41463725D01*
X50073441Y41353655D01*
X50056454Y41234120D01*
X50056454Y40161120D01*
X46336910Y40161120D01*
X46094270Y40403760D01*
X46290810Y40403760D01*
X46387560Y40500510D01*
X46387560Y41637760D01*
X46393560Y41637760D01*
X46393560Y40500510D01*
X46490310Y40403760D01*
X47278676Y40403760D01*
X47353444Y40418632D01*
X47423873Y40447805D01*
X47487258Y40490157D01*
X47541162Y40544062D01*
X47583515Y40607447D01*
X47612688Y40677876D01*
X47627560Y40752644D01*
X47627560Y41541010D01*
X47530810Y41637760D01*
X46393560Y41637760D01*
X46387560Y41637760D01*
X45250310Y41637760D01*
X45153560Y41541010D01*
X45153560Y41156495D01*
X45140212Y41157851D01*
X45082710Y41164301D01*
X45076273Y41164346D01*
X45076144Y41164359D01*
X45076023Y41164348D01*
X45073956Y41164362D01*
X35279562Y41164362D01*
X35221907Y41158709D01*
X35164225Y41153662D01*
X35161062Y41152743D01*
X35157777Y41152421D01*
X35102326Y41135679D01*
X35046715Y41119523D01*
X35043785Y41118004D01*
X35040631Y41117052D01*
X34989497Y41089864D01*
X34938074Y41063209D01*
X34935499Y41061153D01*
X34932585Y41059604D01*
X34900401Y41033355D01*
X34860984Y41025836D01*
X34728794Y40972428D01*
X34609495Y40894360D01*
X34507631Y40794608D01*
X34427082Y40676970D01*
X34370917Y40545927D01*
X34341275Y40406470D01*
X34339284Y40263912D01*
X34365021Y40123682D01*
X34417505Y39991122D01*
X34494738Y39871280D01*
X34593777Y39768723D01*
X34661667Y39721538D01*
X25414098Y39721538D01*
X25356406Y39715881D01*
X25298760Y39710838D01*
X25295597Y39709919D01*
X25292313Y39709597D01*
X25236888Y39692863D01*
X25181250Y39676699D01*
X25178319Y39675180D01*
X25175167Y39674228D01*
X25124072Y39647061D01*
X25072609Y39620385D01*
X25070032Y39618328D01*
X25067121Y39616780D01*
X25022238Y39580175D01*
X24976975Y39544041D01*
X24972388Y39539517D01*
X24972292Y39539439D01*
X24972218Y39539350D01*
X24970742Y39537894D01*
X19646520Y34213672D01*
X19646520Y35421248D01*
X19654702Y35432847D01*
X19712691Y35563093D01*
X19744278Y35702122D01*
X19746552Y35864966D01*
X19718859Y36004823D01*
X19664529Y36136637D01*
X19585631Y36255389D01*
X19485170Y36356554D01*
X19366972Y36436279D01*
X19235540Y36491528D01*
X19095880Y36520196D01*
X19021707Y36520714D01*
X19023759Y36525265D01*
X19040746Y36644800D01*
X19040746Y38444800D01*
X19035324Y38512798D01*
X18999607Y38628130D01*
X18933174Y38728946D01*
X18841285Y38807263D01*
X18731215Y38856879D01*
X18611680Y38873866D01*
X16411680Y38873866D01*
X16343682Y38868444D01*
X16228350Y38832727D01*
X16127534Y38766294D01*
X16049217Y38674405D01*
X15999601Y38564335D01*
X15982614Y38444800D01*
X15982614Y36644800D01*
X15988036Y36576802D01*
X16023753Y36461470D01*
X16090186Y36360654D01*
X16182075Y36282337D01*
X16292145Y36232721D01*
X16411680Y36215734D01*
X18427377Y36215734D01*
X18379362Y36145610D01*
X18323197Y36014567D01*
X18293555Y35875110D01*
X18291564Y35732552D01*
X18317301Y35592322D01*
X18369785Y35459762D01*
X18392520Y35424484D01*
X18392520Y34153472D01*
X18231672Y33992624D01*
X18229127Y34005474D01*
X18174797Y34137288D01*
X18095899Y34256040D01*
X17995438Y34357205D01*
X17877240Y34436930D01*
X17745808Y34492179D01*
X17606148Y34520847D01*
X17463579Y34521842D01*
X17461352Y34521417D01*
X17440414Y34627162D01*
X17386084Y34758976D01*
X17307186Y34877728D01*
X17206725Y34978893D01*
X17088527Y35058618D01*
X16957095Y35113867D01*
X16817435Y35142535D01*
X16674866Y35143530D01*
X16534819Y35116815D01*
X16402629Y35063407D01*
X16283330Y34985339D01*
X16240114Y34943019D01*
X15333387Y34943019D01*
X15340746Y34994800D01*
X15340746Y35294800D01*
X15335324Y35362798D01*
X15326182Y35392317D01*
X15340746Y35494800D01*
X15340746Y35794800D01*
X15335324Y35862798D01*
X15299607Y35978130D01*
X15233174Y36078946D01*
X15141285Y36157263D01*
X15031215Y36206879D01*
X14911680Y36223866D01*
X14688161Y36223866D01*
X14688161Y36471670D01*
X14690534Y36472590D01*
X14810912Y36548984D01*
X14914159Y36647304D01*
X14996342Y36763807D01*
X15054331Y36894053D01*
X15085918Y37033082D01*
X15088192Y37195926D01*
X15060499Y37335783D01*
X15006169Y37467597D01*
X14927271Y37586349D01*
X14826810Y37687514D01*
X14708612Y37767239D01*
X14577180Y37822488D01*
X14437520Y37851156D01*
X14294951Y37852151D01*
X14154904Y37825436D01*
X14022714Y37772028D01*
X14002304Y37758672D01*
X15509872Y39266240D01*
X21206376Y39266240D01*
X21264068Y39271897D01*
X21321714Y39276940D01*
X21324877Y39277859D01*
X21328161Y39278181D01*
X21383600Y39294919D01*
X21439223Y39311079D01*
X21442153Y39312598D01*
X21445307Y39313550D01*
X21496420Y39340727D01*
X21547865Y39367393D01*
X21550442Y39369450D01*
X21553353Y39370998D01*
X21598236Y39407603D01*
X21643499Y39443737D01*
X21648086Y39448261D01*
X21648182Y39448339D01*
X21648256Y39448428D01*
X21649732Y39449884D01*
X24728724Y42528876D01*
X45153560Y42528876D01*
X45153560Y41740510D01*
X45250310Y41643760D01*
X46387560Y41643760D01*
X46387560Y42781010D01*
X46393560Y42781010D01*
X46393560Y41643760D01*
X47530810Y41643760D01*
X47627560Y41740510D01*
X47627560Y42528876D01*
X47612688Y42603644D01*
X47583515Y42674073D01*
X47541162Y42737458D01*
X47487258Y42791363D01*
X47423873Y42833715D01*
X47353444Y42862888D01*
X47278676Y42877760D01*
X46490310Y42877760D01*
X46393560Y42781010D01*
X46387560Y42781010D01*
X46290810Y42877760D01*
X45502444Y42877760D01*
X45427676Y42862888D01*
X45357247Y42833715D01*
X45293862Y42791363D01*
X45239958Y42737458D01*
X45197605Y42674073D01*
X45168432Y42603644D01*
X45153560Y42528876D01*
X24728724Y42528876D01*
X27780803Y45580955D01*
X27785378Y45578956D01*
X27924624Y45548341D01*
X28067165Y45545355D01*
X28207571Y45570112D01*
X28340494Y45621670D01*
X28460872Y45698064D01*
X28564119Y45796384D01*
X28646302Y45912887D01*
X28704291Y46043133D01*
X28735878Y46182162D01*
X28738152Y46345006D01*
X28710459Y46484863D01*
X28656129Y46616677D01*
X28577231Y46735429D01*
X28476770Y46836594D01*
X28358572Y46916319D01*
X28227140Y46971568D01*
X28087480Y47000236D01*
X27944911Y47001231D01*
X27804864Y46974516D01*
X27672674Y46921108D01*
X27641518Y46900720D01*
X27586856Y46900720D01*
X27529164Y46895063D01*
X27471518Y46890020D01*
X27468355Y46889101D01*
X27465071Y46888779D01*
X27409646Y46872045D01*
X27354008Y46855881D01*
X27351077Y46854362D01*
X27347925Y46853410D01*
X27296830Y46826243D01*
X27245367Y46799567D01*
X27242790Y46797510D01*
X27239879Y46795962D01*
X27194996Y46759357D01*
X27149733Y46723223D01*
X27145146Y46718699D01*
X27145050Y46718621D01*
X27144976Y46718532D01*
X27143500Y46717076D01*
X20946664Y40520240D01*
X15250160Y40520240D01*
X15192505Y40514587D01*
X15134823Y40509540D01*
X15131660Y40508621D01*
X15128375Y40508299D01*
X15072924Y40491557D01*
X15017313Y40475401D01*
X15014383Y40473882D01*
X15011229Y40472930D01*
X14960116Y40445753D01*
X14908671Y40419087D01*
X14906094Y40417030D01*
X14903183Y40415482D01*
X14858300Y40378877D01*
X14813037Y40342743D01*
X14808450Y40338219D01*
X14808354Y40338141D01*
X14808280Y40338052D01*
X14806804Y40336596D01*
X10777120Y36306912D01*
X10777120Y37342560D01*
X10866288Y37431728D01*
X10920641Y37497898D01*
X10975680Y37563492D01*
X10978028Y37567764D01*
X10981122Y37571530D01*
X11021587Y37646997D01*
X11062838Y37722032D01*
X11064312Y37726677D01*
X11066616Y37730975D01*
X11091661Y37812893D01*
X11117543Y37894482D01*
X11118086Y37899324D01*
X11119512Y37903988D01*
X11128168Y37989207D01*
X11137710Y38074273D01*
X11137776Y38083796D01*
X11137795Y38083981D01*
X11137779Y38084153D01*
X11137800Y38087216D01*
X11137800Y38511480D01*
X11120145Y38691535D01*
X11067854Y38864732D01*
X10982918Y39024474D01*
X10868572Y39164676D01*
X10729172Y39279998D01*
X10570027Y39366047D01*
X10397199Y39419546D01*
X10217272Y39438457D01*
X10037098Y39422060D01*
X9863540Y39370979D01*
X9703209Y39287161D01*
X9562212Y39173796D01*
X9445920Y39035204D01*
X9358762Y38876664D01*
X9304057Y38704214D01*
X9283890Y38524423D01*
X9283800Y38511480D01*
X9283800Y38471192D01*
X9194632Y38382024D01*
X9140279Y38315854D01*
X9085240Y38250260D01*
X9082892Y38245988D01*
X9079798Y38242222D01*
X9039322Y38166736D01*
X8998082Y38091720D01*
X8996609Y38087077D01*
X8994304Y38082778D01*
X8969268Y38000887D01*
X8943377Y37919270D01*
X8942833Y37914423D01*
X8941409Y37909764D01*
X8932762Y37824635D01*
X8923210Y37739479D01*
X8923144Y37729946D01*
X8923126Y37729772D01*
X8923141Y37729609D01*
X8923120Y37726536D01*
X8923120Y30759400D01*
X8931475Y30674191D01*
X8938939Y30588877D01*
X8940300Y30584194D01*
X8940775Y30579345D01*
X8965520Y30497386D01*
X8989414Y30415142D01*
X8991657Y30410815D01*
X8993066Y30406148D01*
X9033252Y30330568D01*
X9072672Y30254519D01*
X9075715Y30250707D01*
X9078002Y30246406D01*
X9132108Y30180066D01*
X9185544Y30113128D01*
X9192234Y30106344D01*
X9192348Y30106204D01*
X9192477Y30106097D01*
X9194632Y30103912D01*
X10159233Y29139311D01*
X10225403Y29084958D01*
X10290997Y29029919D01*
X10295269Y29027571D01*
X10299035Y29024477D01*
X10374521Y28984001D01*
X10449537Y28942761D01*
X10454180Y28941288D01*
X10458479Y28938983D01*
X10540412Y28913934D01*
X10621987Y28888056D01*
X10626829Y28887513D01*
X10631493Y28886087D01*
X10716672Y28877435D01*
X10801778Y28867889D01*
X10811311Y28867823D01*
X10811485Y28867805D01*
X10811648Y28867820D01*
X10814721Y28867799D01*
X13334680Y28867799D01*
X13334680Y28166480D01*
X13343035Y28081271D01*
X13350499Y27995957D01*
X13351860Y27991274D01*
X13352335Y27986425D01*
X13377080Y27904466D01*
X13400974Y27822222D01*
X13403217Y27817895D01*
X13404626Y27813228D01*
X13444812Y27737648D01*
X13484232Y27661599D01*
X13487275Y27657787D01*
X13489562Y27653486D01*
X13543668Y27587146D01*
X13597104Y27520208D01*
X13603794Y27513424D01*
X13603908Y27513284D01*
X13604037Y27513177D01*
X13606192Y27510992D01*
X15135743Y25981441D01*
X2717888Y25981441D01*
X3102978Y26049343D01*
X3473591Y26193094D01*
X3809224Y26406093D01*
X4097094Y26680228D01*
X4326234Y27005055D01*
X4487918Y27368204D01*
X4575987Y27755840D01*
X4582327Y28209878D01*
X4505116Y28599822D01*
X4353635Y28967343D01*
X4133653Y29298442D01*
X3853550Y29580508D01*
X3523995Y29802795D01*
X3157541Y29956839D01*
X2768144Y30036770D01*
X2370639Y30039545D01*
X1980165Y29965058D01*
X1611595Y29816147D01*
X1278968Y29598482D01*
X994955Y29320355D01*
X770372Y28992360D01*
X613774Y28626989D01*
X531126Y28238161D01*
X525575Y27840684D01*
X597334Y27449700D01*
X743670Y27080099D01*
X959007Y26745961D01*
X1235144Y26460013D01*
X1561564Y26233145D01*
X1925832Y26074000D01*
X2314074Y25988640D01*
X2657748Y25981441D01*
X517916Y25981441D01*
X517916Y41591810D01*
X988040Y41591810D01*
X988040Y40803444D01*
X1002912Y40728676D01*
X1032085Y40658247D01*
X1074438Y40594862D01*
X1128342Y40540957D01*
X1191727Y40498605D01*
X1262156Y40469432D01*
X1336924Y40454560D01*
X2125290Y40454560D01*
X2222040Y40551310D01*
X2222040Y41688560D01*
X2228040Y41688560D01*
X2228040Y40551310D01*
X2324790Y40454560D01*
X3113156Y40454560D01*
X3187924Y40469432D01*
X3258353Y40498605D01*
X3321738Y40540957D01*
X3375642Y40594862D01*
X3417995Y40658247D01*
X3447168Y40728676D01*
X3462040Y40803444D01*
X3462040Y41591810D01*
X3365290Y41688560D01*
X2228040Y41688560D01*
X2222040Y41688560D01*
X1084790Y41688560D01*
X988040Y41591810D01*
X517916Y41591810D01*
X517916Y42579676D01*
X988040Y42579676D01*
X988040Y41791310D01*
X1084790Y41694560D01*
X2222040Y41694560D01*
X2222040Y42831810D01*
X2228040Y42831810D01*
X2228040Y41694560D01*
X3365290Y41694560D01*
X3462040Y41791310D01*
X3462040Y42579676D01*
X3447168Y42654444D01*
X3417995Y42724873D01*
X3375642Y42788258D01*
X3321738Y42842163D01*
X3258353Y42884515D01*
X3187924Y42913688D01*
X3113156Y42928560D01*
X2324790Y42928560D01*
X2228040Y42831810D01*
X2222040Y42831810D01*
X2125290Y42928560D01*
X1336924Y42928560D01*
X1262156Y42913688D01*
X1191727Y42884515D01*
X1128342Y42842163D01*
X1074438Y42788258D01*
X1032085Y42724873D01*
X1002912Y42654444D01*
X988040Y42579676D01*
X517916Y42579676D01*
X517916Y62527441D01*
X1040916Y62527441D01*
X1085646Y62531827D01*
X1130297Y62535890D01*
X1131899Y62536362D01*
X1133566Y62536525D01*
X1176535Y62549499D01*
X1219603Y62562174D01*
X1221087Y62562950D01*
X1222687Y62563433D01*
X1262251Y62584469D01*
X1302104Y62605304D01*
X1303411Y62606355D01*
X1304884Y62607138D01*
X1339673Y62635511D01*
X1374655Y62663638D01*
X1375728Y62664916D01*
X1377027Y62665976D01*
X1405693Y62700628D01*
X1434495Y62734952D01*
X1435300Y62736416D01*
X1436367Y62737706D01*
X1457728Y62777213D01*
X1479344Y62816531D01*
X1479850Y62818125D01*
X1480645Y62819596D01*
X1493917Y62862473D01*
X1507492Y62905267D01*
X1507678Y62906929D01*
X1508173Y62908527D01*
X1512858Y62953105D01*
X1517870Y62997781D01*
X1517892Y63000999D01*
X1517904Y63001111D01*
X1517894Y63001223D01*
X1517916Y63004441D01*
X1517916Y70797164D01*
X2516935Y70797164D01*
X2588694Y70406180D01*
X2735030Y70036579D01*
X2950367Y69702441D01*
X3226504Y69416493D01*
X3552924Y69189625D01*
X3917192Y69030480D01*
X4305434Y68945120D01*
X4702862Y68936795D01*
X5094338Y69005823D01*
X5464951Y69149574D01*
X5800584Y69362573D01*
X6088454Y69636708D01*
X6317594Y69961535D01*
X6479278Y70324684D01*
X6567347Y70712320D01*
X6573687Y71166358D01*
X6496476Y71556302D01*
X6344995Y71923823D01*
X6125013Y72254922D01*
X5844910Y72536988D01*
X5515355Y72759275D01*
X5148901Y72913319D01*
X4759504Y72993250D01*
X4361999Y72996025D01*
X3971525Y72921538D01*
X3602955Y72772627D01*
X3270328Y72554962D01*
X2986315Y72276835D01*
X2761732Y71948840D01*
X2605134Y71583469D01*
X2522486Y71194641D01*
X2516935Y70797164D01*
X1517916Y70797164D01*
X1517916Y74701065D01*
X1901107Y74701065D01*
X1942683Y74539332D01*
X2098444Y74448720D01*
X2268890Y74390237D01*
X2447470Y74366131D01*
X2627322Y74377326D01*
X2801533Y74423394D01*
X2963411Y74502564D01*
X3018437Y74539332D01*
X3060013Y74701065D01*
X2480560Y75280517D01*
X1901107Y74701065D01*
X1517916Y74701065D01*
X1517916Y75317850D01*
X1561931Y75317850D01*
X1573126Y75137998D01*
X1619194Y74963787D01*
X1698364Y74801909D01*
X1735132Y74746883D01*
X1896865Y74705307D01*
X2476317Y75284760D01*
X2484803Y75284760D01*
X3064255Y74705307D01*
X3225988Y74746883D01*
X3316600Y74902644D01*
X3375083Y75073090D01*
X3392818Y75204478D01*
X5524506Y75204478D01*
X5558307Y75020308D01*
X5627237Y74846212D01*
X5728670Y74688819D01*
X5858741Y74554126D01*
X6012498Y74447262D01*
X6184083Y74372298D01*
X6366961Y74332090D01*
X6554166Y74328169D01*
X6738567Y74360684D01*
X6913140Y74428396D01*
X7071237Y74528728D01*
X7206835Y74657856D01*
X7314770Y74810863D01*
X7390930Y74981920D01*
X7432414Y75164513D01*
X7435400Y75378383D01*
X7399031Y75562063D01*
X7327677Y75735180D01*
X7224056Y75891141D01*
X7092117Y76024005D01*
X6936883Y76128712D01*
X6764268Y76201272D01*
X6738150Y76206633D01*
X6801533Y76223394D01*
X6963411Y76302564D01*
X7018437Y76339332D01*
X7060013Y76501065D01*
X6480560Y77080517D01*
X5901107Y76501065D01*
X5942683Y76339332D01*
X6098444Y76248720D01*
X6219810Y76207077D01*
X6209676Y76205144D01*
X6036065Y76135001D01*
X5879384Y76032472D01*
X5745602Y75901463D01*
X5639815Y75746964D01*
X5566051Y75574859D01*
X5527120Y75391705D01*
X5524506Y75204478D01*
X3392818Y75204478D01*
X3399189Y75251670D01*
X3387994Y75431522D01*
X3341926Y75605733D01*
X3262756Y75767611D01*
X3225988Y75822637D01*
X3064255Y75864213D01*
X2484803Y75284760D01*
X2476317Y75284760D01*
X1896865Y75864213D01*
X1735132Y75822637D01*
X1644520Y75666876D01*
X1586037Y75496430D01*
X1561931Y75317850D01*
X1517916Y75317850D01*
X1517916Y77527441D01*
X1631447Y77527441D01*
X1566051Y77374859D01*
G36*
X51636255Y29980764D02*
X51681016Y29943997D01*
X51725377Y29906774D01*
X51728267Y29905185D01*
X51730814Y29903093D01*
X51781805Y29875752D01*
X51832609Y29847822D01*
X51835757Y29846823D01*
X51838658Y29845268D01*
X51894006Y29828346D01*
X51949250Y29810821D01*
X51952525Y29810454D01*
X51955680Y29809489D01*
X52013355Y29803631D01*
X52070857Y29797181D01*
X52077294Y29797136D01*
X52077423Y29797123D01*
X52077544Y29797134D01*
X52079611Y29797120D01*
X53944029Y29797120D01*
X53949248Y29789199D01*
X53927537Y29763725D01*
X53877921Y29653655D01*
X53860934Y29534120D01*
X53860934Y28774120D01*
X53866356Y28706122D01*
X53902073Y28590790D01*
X53949248Y28519199D01*
X53927537Y28493725D01*
X53877921Y28383655D01*
X53860934Y28264120D01*
X53860934Y27504120D01*
X53866356Y27436122D01*
X53902073Y27320790D01*
X53949248Y27249199D01*
X53927537Y27223725D01*
X53877921Y27113655D01*
X53860934Y26994120D01*
X53860934Y26357480D01*
X48442880Y26357480D01*
X48357621Y26349120D01*
X48272357Y26341660D01*
X48267679Y26340301D01*
X48262825Y26339825D01*
X48180824Y26315068D01*
X48098622Y26291186D01*
X48094295Y26288943D01*
X48089628Y26287534D01*
X48058758Y26271120D01*
X45643320Y26271120D01*
X45643320Y27897387D01*
X45630460Y28028548D01*
X45618969Y28159885D01*
X45616875Y28167092D01*
X45616143Y28174559D01*
X45578048Y28300736D01*
X45541269Y28427329D01*
X45537816Y28433991D01*
X45535647Y28441174D01*
X45473762Y28557564D01*
X45413103Y28674587D01*
X45408423Y28680450D01*
X45404899Y28687077D01*
X45321609Y28789200D01*
X45239352Y28892242D01*
X45229051Y28902686D01*
X45228877Y28902900D01*
X45228679Y28903064D01*
X45225361Y28906428D01*
X45150560Y28981229D01*
X45150560Y29804360D01*
X45148904Y29821252D01*
X45150622Y29944285D01*
X45096265Y30218804D01*
X44989623Y30477538D01*
X44834757Y30710630D01*
X44637565Y30909203D01*
X44405560Y31065692D01*
X44147577Y31174138D01*
X43873444Y31230410D01*
X43661647Y31231889D01*
X45352625Y32922867D01*
X45389392Y32967628D01*
X45426615Y33011989D01*
X45428204Y33014879D01*
X45430296Y33017426D01*
X45457637Y33068417D01*
X45485567Y33119221D01*
X45486566Y33122369D01*
X45488121Y33125270D01*
X45505043Y33180618D01*
X45522568Y33235862D01*
X45522935Y33239137D01*
X45523900Y33242292D01*
X45529758Y33299967D01*
X45536208Y33357469D01*
X45536253Y33363906D01*
X45536266Y33364035D01*
X45536255Y33364156D01*
X45536269Y33366223D01*
X45536269Y36080750D01*
X51636255Y29980764D01*
X51636255Y29980764D01*
G37*
X51636255Y29980764D02*
X51681016Y29943997D01*
X51725377Y29906774D01*
X51728267Y29905185D01*
X51730814Y29903093D01*
X51781805Y29875752D01*
X51832609Y29847822D01*
X51835757Y29846823D01*
X51838658Y29845268D01*
X51894006Y29828346D01*
X51949250Y29810821D01*
X51952525Y29810454D01*
X51955680Y29809489D01*
X52013355Y29803631D01*
X52070857Y29797181D01*
X52077294Y29797136D01*
X52077423Y29797123D01*
X52077544Y29797134D01*
X52079611Y29797120D01*
X53944029Y29797120D01*
X53949248Y29789199D01*
X53927537Y29763725D01*
X53877921Y29653655D01*
X53860934Y29534120D01*
X53860934Y28774120D01*
X53866356Y28706122D01*
X53902073Y28590790D01*
X53949248Y28519199D01*
X53927537Y28493725D01*
X53877921Y28383655D01*
X53860934Y28264120D01*
X53860934Y27504120D01*
X53866356Y27436122D01*
X53902073Y27320790D01*
X53949248Y27249199D01*
X53927537Y27223725D01*
X53877921Y27113655D01*
X53860934Y26994120D01*
X53860934Y26357480D01*
X48442880Y26357480D01*
X48357621Y26349120D01*
X48272357Y26341660D01*
X48267679Y26340301D01*
X48262825Y26339825D01*
X48180824Y26315068D01*
X48098622Y26291186D01*
X48094295Y26288943D01*
X48089628Y26287534D01*
X48058758Y26271120D01*
X45643320Y26271120D01*
X45643320Y27897387D01*
X45630460Y28028548D01*
X45618969Y28159885D01*
X45616875Y28167092D01*
X45616143Y28174559D01*
X45578048Y28300736D01*
X45541269Y28427329D01*
X45537816Y28433991D01*
X45535647Y28441174D01*
X45473762Y28557564D01*
X45413103Y28674587D01*
X45408423Y28680450D01*
X45404899Y28687077D01*
X45321609Y28789200D01*
X45239352Y28892242D01*
X45229051Y28902686D01*
X45228877Y28902900D01*
X45228679Y28903064D01*
X45225361Y28906428D01*
X45150560Y28981229D01*
X45150560Y29804360D01*
X45148904Y29821252D01*
X45150622Y29944285D01*
X45096265Y30218804D01*
X44989623Y30477538D01*
X44834757Y30710630D01*
X44637565Y30909203D01*
X44405560Y31065692D01*
X44147577Y31174138D01*
X43873444Y31230410D01*
X43661647Y31231889D01*
X45352625Y32922867D01*
X45389392Y32967628D01*
X45426615Y33011989D01*
X45428204Y33014879D01*
X45430296Y33017426D01*
X45457637Y33068417D01*
X45485567Y33119221D01*
X45486566Y33122369D01*
X45488121Y33125270D01*
X45505043Y33180618D01*
X45522568Y33235862D01*
X45522935Y33239137D01*
X45523900Y33242292D01*
X45529758Y33299967D01*
X45536208Y33357469D01*
X45536253Y33363906D01*
X45536266Y33364035D01*
X45536255Y33364156D01*
X45536269Y33366223D01*
X45536269Y36080750D01*
X51636255Y29980764D01*
G36*
X13182614Y33794800D02*
X13182614Y33494800D01*
X13188036Y33426802D01*
X13197178Y33397283D01*
X13182614Y33294800D01*
X13182614Y32994800D01*
X13188036Y32926802D01*
X13197178Y32897283D01*
X13182614Y32794800D01*
X13182614Y32494800D01*
X13188036Y32426802D01*
X13197178Y32397283D01*
X13182614Y32294800D01*
X13182614Y31994800D01*
X13188036Y31926802D01*
X13197178Y31897283D01*
X13182614Y31794800D01*
X13182614Y31494800D01*
X13188036Y31426802D01*
X13197178Y31397283D01*
X13182614Y31294800D01*
X13182614Y30994800D01*
X13188036Y30926802D01*
X13223753Y30811470D01*
X13224680Y30810063D01*
X13224680Y30744550D01*
X13247431Y30721799D01*
X11198697Y30721799D01*
X10777120Y31143376D01*
X10777120Y33725150D01*
X11042115Y33460155D01*
X11079680Y33429299D01*
X11117022Y33397965D01*
X11119454Y33396628D01*
X11121593Y33394871D01*
X11164506Y33371861D01*
X11207153Y33348416D01*
X11209790Y33347579D01*
X11212236Y33346268D01*
X11258777Y33332040D01*
X11305191Y33317316D01*
X11307951Y33317006D01*
X11310595Y33316198D01*
X11358964Y33311284D01*
X11407402Y33305851D01*
X11412817Y33305813D01*
X11412920Y33305803D01*
X11413016Y33305812D01*
X11414760Y33305800D01*
X12405360Y33305800D01*
X12453794Y33310549D01*
X12502302Y33314793D01*
X12504965Y33315567D01*
X12507722Y33315837D01*
X12554323Y33329907D01*
X12601071Y33343488D01*
X12603530Y33344763D01*
X12606184Y33345564D01*
X12649159Y33368414D01*
X12692385Y33390821D01*
X12694552Y33392551D01*
X12696997Y33393851D01*
X12734701Y33424602D01*
X12772766Y33454988D01*
X12776621Y33458790D01*
X12776702Y33458856D01*
X12776764Y33458932D01*
X12778005Y33460155D01*
X13194203Y33876353D01*
X13182614Y33794800D01*
X13182614Y33794800D01*
G37*
X13182614Y33794800D02*
X13182614Y33494800D01*
X13188036Y33426802D01*
X13197178Y33397283D01*
X13182614Y33294800D01*
X13182614Y32994800D01*
X13188036Y32926802D01*
X13197178Y32897283D01*
X13182614Y32794800D01*
X13182614Y32494800D01*
X13188036Y32426802D01*
X13197178Y32397283D01*
X13182614Y32294800D01*
X13182614Y31994800D01*
X13188036Y31926802D01*
X13197178Y31897283D01*
X13182614Y31794800D01*
X13182614Y31494800D01*
X13188036Y31426802D01*
X13197178Y31397283D01*
X13182614Y31294800D01*
X13182614Y30994800D01*
X13188036Y30926802D01*
X13223753Y30811470D01*
X13224680Y30810063D01*
X13224680Y30744550D01*
X13247431Y30721799D01*
X11198697Y30721799D01*
X10777120Y31143376D01*
X10777120Y33725150D01*
X11042115Y33460155D01*
X11079680Y33429299D01*
X11117022Y33397965D01*
X11119454Y33396628D01*
X11121593Y33394871D01*
X11164506Y33371861D01*
X11207153Y33348416D01*
X11209790Y33347579D01*
X11212236Y33346268D01*
X11258777Y33332040D01*
X11305191Y33317316D01*
X11307951Y33317006D01*
X11310595Y33316198D01*
X11358964Y33311284D01*
X11407402Y33305851D01*
X11412817Y33305813D01*
X11412920Y33305803D01*
X11413016Y33305812D01*
X11414760Y33305800D01*
X12405360Y33305800D01*
X12453794Y33310549D01*
X12502302Y33314793D01*
X12504965Y33315567D01*
X12507722Y33315837D01*
X12554323Y33329907D01*
X12601071Y33343488D01*
X12603530Y33344763D01*
X12606184Y33345564D01*
X12649159Y33368414D01*
X12692385Y33390821D01*
X12694552Y33392551D01*
X12696997Y33393851D01*
X12734701Y33424602D01*
X12772766Y33454988D01*
X12776621Y33458790D01*
X12776702Y33458856D01*
X12776764Y33458932D01*
X12778005Y33460155D01*
X13194203Y33876353D01*
X13182614Y33794800D01*
G36*
X40143000Y35603870D02*
X40239750Y35507120D01*
X41377000Y35507120D01*
X41377000Y35527120D01*
X41383000Y35527120D01*
X41383000Y35507120D01*
X42520250Y35507120D01*
X42617000Y35603870D01*
X42617000Y35679189D01*
X42671757Y35679189D01*
X43005120Y35345826D01*
X43005120Y34225952D01*
X42659066Y33879898D01*
X42659066Y34614120D01*
X42653644Y34682118D01*
X42617927Y34797450D01*
X42551494Y34898266D01*
X42547057Y34902048D01*
X42572955Y34940807D01*
X42602128Y35011236D01*
X42617000Y35086004D01*
X42617000Y35404370D01*
X42520250Y35501120D01*
X41383000Y35501120D01*
X41383000Y35481120D01*
X41377000Y35481120D01*
X41377000Y35501120D01*
X40239750Y35501120D01*
X40143000Y35404370D01*
X40143000Y35161120D01*
X39872829Y35161120D01*
X39809974Y35256506D01*
X39718085Y35334823D01*
X39608015Y35384439D01*
X39488480Y35401426D01*
X37788480Y35401426D01*
X37720482Y35396004D01*
X37605150Y35360287D01*
X37550521Y35324289D01*
X37905421Y35679189D01*
X40143000Y35679189D01*
X40143000Y35603870D01*
X40143000Y35603870D01*
G37*
X40143000Y35603870D02*
X40239750Y35507120D01*
X41377000Y35507120D01*
X41377000Y35527120D01*
X41383000Y35527120D01*
X41383000Y35507120D01*
X42520250Y35507120D01*
X42617000Y35603870D01*
X42617000Y35679189D01*
X42671757Y35679189D01*
X43005120Y35345826D01*
X43005120Y34225952D01*
X42659066Y33879898D01*
X42659066Y34614120D01*
X42653644Y34682118D01*
X42617927Y34797450D01*
X42551494Y34898266D01*
X42547057Y34902048D01*
X42572955Y34940807D01*
X42602128Y35011236D01*
X42617000Y35086004D01*
X42617000Y35404370D01*
X42520250Y35501120D01*
X41383000Y35501120D01*
X41383000Y35481120D01*
X41377000Y35481120D01*
X41377000Y35501120D01*
X40239750Y35501120D01*
X40143000Y35404370D01*
X40143000Y35161120D01*
X39872829Y35161120D01*
X39809974Y35256506D01*
X39718085Y35334823D01*
X39608015Y35384439D01*
X39488480Y35401426D01*
X37788480Y35401426D01*
X37720482Y35396004D01*
X37605150Y35360287D01*
X37550521Y35324289D01*
X37905421Y35679189D01*
X40143000Y35679189D01*
X40143000Y35603870D01*
M02*
