G04 #@! TF.FileFunction,Copper,L2,Bot,Signal*
%FSLAX46Y46*%
G04 Gerber Fmt 4.6, Leading zero omitted, Abs format (unit mm)*
G04 Created by KiCad (PCBNEW 4.0.7) date 11/25/18 15:18:32*
%MOMM*%
%LPD*%
G01*
G04 APERTURE LIST*
%ADD10C,0.100000*%
%ADD11R,4.500000X10.000000*%
%ADD12R,2.000000X2.000000*%
%ADD13C,2.000000*%
%ADD14R,1.600000X1.600000*%
%ADD15C,1.600000*%
%ADD16R,1.700000X1.700000*%
%ADD17O,1.700000X1.700000*%
%ADD18R,1.300000X0.700000*%
%ADD19C,1.524000*%
%ADD20C,1.055599*%
%ADD21C,0.600000*%
%ADD22C,0.250000*%
%ADD23C,0.400000*%
%ADD24C,1.000000*%
%ADD25C,2.000000*%
%ADD26C,0.254000*%
G04 APERTURE END LIST*
D10*
X51540916Y63004441D02*
X88040916Y63004441D01*
X88040916Y63004441D02*
X88040916Y78004441D01*
X40916Y63004441D02*
X1040916Y63004441D01*
X50317400Y20081240D02*
X50317473Y21080131D01*
X8040916Y78004441D02*
X8040916Y63004441D01*
X44540916Y70004441D02*
X51540916Y70004441D01*
X50317473Y20083891D02*
X76793969Y20083891D01*
X40916Y25504441D02*
X18840977Y25504441D01*
X96040916Y25504441D02*
X76793969Y25504441D01*
X88040916Y78004441D02*
X95040916Y78004441D01*
X18840977Y21080131D02*
X18840977Y25504441D01*
X95040916Y78004441D02*
X95040916Y63004441D01*
X18840977Y20083891D02*
X45317473Y20083891D01*
X18840977Y-316109D02*
X18840977Y20083891D01*
X45317473Y21080131D02*
X18840977Y21080131D01*
X40916Y25504441D02*
X40916Y63004441D01*
X1040916Y63004441D02*
X1040916Y78004441D01*
X95040916Y63004441D02*
X96040916Y63004441D01*
X45313600Y20086320D02*
X45317473Y21080131D01*
X44540916Y63004441D02*
X44540916Y70004441D01*
X18840977Y-316109D02*
X76793969Y-316109D01*
X51540916Y63004441D02*
X51540916Y70004441D01*
X76793969Y25504441D02*
X76793969Y21080131D01*
X8040916Y63004441D02*
X44540916Y63004441D01*
X96040916Y63004441D02*
X96040916Y25504441D01*
X76793969Y-316109D02*
X76793969Y20083891D01*
X1040916Y78004441D02*
X8040916Y78004441D01*
X76793969Y21080131D02*
X50317473Y21080131D01*
D11*
X74259440Y20370840D03*
X21366480Y20365760D03*
D12*
X57663080Y51379120D03*
D13*
X50163080Y51379120D03*
D14*
X74000360Y38196520D03*
D15*
X74000360Y33196520D03*
D16*
X53101240Y43891200D03*
D17*
X55641240Y43891200D03*
D16*
X2245360Y60797440D03*
X46390560Y41640760D03*
X2225040Y41691560D03*
X46426120Y60726320D03*
X57871360Y34122360D03*
D17*
X57871360Y31582360D03*
D16*
X38638480Y34122360D03*
D17*
X38638480Y31582360D03*
D18*
X38506400Y26974840D03*
X38506400Y25074840D03*
X58242200Y26736080D03*
X58242200Y24836080D03*
X43865800Y57368480D03*
X43865800Y55468480D03*
X52242720Y57404040D03*
X52242720Y55504040D03*
X93583760Y66685200D03*
X93583760Y64785200D03*
X89672160Y66715640D03*
X89672160Y64815640D03*
X6482080Y66868080D03*
X6482080Y64968080D03*
X2743200Y66929040D03*
X2743200Y65029040D03*
D16*
X67670680Y38206680D03*
D17*
X67670680Y35666680D03*
X67670680Y33126680D03*
D19*
X94650560Y40137080D03*
X94650560Y30993080D03*
X79410560Y40137080D03*
X79410560Y30997080D03*
D20*
X46000920Y57425160D03*
X50000920Y57425160D03*
X50000920Y55625160D03*
X46000920Y55625160D03*
X93607640Y75284760D03*
X89607640Y75284760D03*
X89607640Y77084760D03*
X93607640Y77084760D03*
X6480560Y75284760D03*
X2480560Y75284760D03*
X2480560Y77084760D03*
X6480560Y77084760D03*
D21*
X11684000Y31805880D03*
X53202840Y29311600D03*
X51907440Y36464240D03*
X10210800Y38511480D03*
X58242200Y24836080D03*
X38506400Y25074840D03*
X41380000Y27884120D03*
X14361160Y37124640D03*
X12151360Y35082480D03*
X16741075Y34416019D03*
X33141920Y35062200D03*
X38247320Y39837360D03*
X17529788Y33794331D03*
X35412680Y35123160D03*
X19019520Y35793680D03*
X35067240Y40325040D03*
X28011120Y46273720D03*
X35438080Y50434240D03*
D13*
X43723560Y29804360D03*
D21*
X56804560Y29133800D03*
X39436040Y29118560D03*
X16896080Y31887160D03*
X19878040Y31374080D03*
X16003480Y32573530D03*
X20533360Y32339280D03*
D22*
X11684000Y31805880D02*
X2225040Y41264840D01*
X2225040Y41264840D02*
X2225040Y41691560D01*
X46390560Y41640760D02*
X51950800Y41640760D01*
X51950800Y41640760D02*
X53101240Y42791200D01*
X53101240Y42791200D02*
X53101240Y43891200D01*
X51907440Y36464240D02*
X53202840Y35168840D01*
X53202840Y35168840D02*
X53202840Y29311600D01*
D23*
X46000920Y55625160D02*
X47800920Y57425160D01*
X47800920Y57425160D02*
X50000920Y57425160D01*
D24*
X6482080Y42240200D02*
X10210800Y38511480D01*
X6482080Y64968080D02*
X6482080Y42240200D01*
X44461400Y53522880D02*
X49961560Y53522880D01*
X49961560Y53522880D02*
X51942720Y55504040D01*
X51942720Y55504040D02*
X52242720Y55504040D01*
X43865800Y55468480D02*
X43865800Y54118480D01*
X43865800Y54118480D02*
X44461400Y53522880D01*
X53928240Y55468520D02*
X58528360Y55468520D01*
X58528360Y55468520D02*
X74000360Y39996520D01*
X74000360Y39996520D02*
X74000360Y38196520D01*
X52242720Y55504040D02*
X53892720Y55504040D01*
X53892720Y55504040D02*
X53928240Y55468520D01*
X2743200Y65029040D02*
X6421120Y65029040D01*
X6421120Y65029040D02*
X6482080Y64968080D01*
X41380000Y27884120D02*
X42834560Y27884120D01*
X42834560Y27884120D02*
X47381160Y23337520D01*
X47381160Y23337520D02*
X55093640Y23337520D01*
X55093640Y23337520D02*
X56592200Y24836080D01*
X56592200Y24836080D02*
X58242200Y24836080D01*
X38506400Y25074840D02*
X38806400Y25074840D01*
X41380000Y27648440D02*
X41380000Y27884120D01*
X38806400Y25074840D02*
X41380000Y27648440D01*
X92181680Y47188120D02*
X93583760Y48590200D01*
X93583760Y48590200D02*
X93583760Y64785200D01*
X89672160Y47188120D02*
X92181680Y47188120D01*
X82621120Y40137080D02*
X89672160Y47188120D01*
X89672160Y47188120D02*
X89672160Y64815640D01*
X79410560Y40137080D02*
X82621120Y40137080D01*
D23*
X40711120Y62265560D02*
X15570200Y37124640D01*
X15570200Y37124640D02*
X14361160Y37124640D01*
X87696040Y62265560D02*
X40711120Y62265560D01*
X88427560Y62997080D02*
X87696040Y62265560D01*
X88427560Y65771040D02*
X88427560Y63875920D01*
X88427560Y63875920D02*
X88427560Y62997080D01*
X89672160Y66715640D02*
X89372160Y66715640D01*
X89372160Y66715640D02*
X88427560Y65771040D01*
X88463120Y75940240D02*
X88463120Y68674680D01*
X88463120Y68674680D02*
X89672160Y67465640D01*
X89672160Y67465640D02*
X89672160Y66715640D01*
X89607640Y77084760D02*
X88463120Y75940240D01*
X1693200Y63691480D02*
X5582069Y59802611D01*
X5582069Y41651771D02*
X11851361Y35382479D01*
X1693200Y66179040D02*
X1693200Y63691480D01*
X2443200Y66929040D02*
X1693200Y66179040D01*
X5582069Y59802611D02*
X5582069Y41651771D01*
X2743200Y66929040D02*
X2443200Y66929040D01*
X11851361Y35382479D02*
X12151360Y35082480D01*
X1931762Y76556962D02*
X1552760Y76177960D01*
X1552760Y76177960D02*
X1552760Y68869480D01*
X1552760Y68869480D02*
X2743200Y67679040D01*
X2743200Y67679040D02*
X2743200Y66929040D01*
X2480560Y77084760D02*
X1952762Y76556962D01*
X1952762Y76556962D02*
X1931762Y76556962D01*
X17041074Y34716018D02*
X16741075Y34416019D01*
X17387256Y35062200D02*
X17041074Y34716018D01*
X33141920Y35062200D02*
X17387256Y35062200D01*
X38247320Y39837360D02*
X33472160Y35062200D01*
X33472160Y35062200D02*
X33141920Y35062200D01*
X35112680Y35123160D02*
X33783851Y33794331D01*
X33783851Y33794331D02*
X17954052Y33794331D01*
X17954052Y33794331D02*
X17529788Y33794331D01*
X35412680Y35123160D02*
X35112680Y35123160D01*
X30040496Y35722560D02*
X19090640Y35722560D01*
X19090640Y35722560D02*
X19019520Y35793680D01*
X35067240Y40325040D02*
X34642976Y40325040D01*
X34642976Y40325040D02*
X30040496Y35722560D01*
X35438080Y50434240D02*
X32171640Y50434240D01*
X32171640Y50434240D02*
X28011120Y46273720D01*
X50000920Y55625160D02*
X50463840Y55625160D01*
X50463840Y55625160D02*
X52242720Y57404040D01*
D25*
X60294520Y48437800D02*
X57663080Y51069240D01*
X57663080Y51069240D02*
X57663080Y51379120D01*
X60294520Y41840759D02*
X60294520Y48437800D01*
X67670680Y35666680D02*
X66468599Y35666680D01*
X66468599Y35666680D02*
X60294520Y41840759D01*
X46746160Y33223200D02*
X46746160Y32826960D01*
X46746160Y32826960D02*
X43723560Y29804360D01*
X45857160Y36413440D02*
X45857160Y34112200D01*
X45857160Y34112200D02*
X46746160Y33223200D01*
X46426120Y60726320D02*
X41361360Y60726320D01*
X41361360Y60726320D02*
X38740080Y58105040D01*
X38740080Y58105040D02*
X38740080Y43530520D01*
X38740080Y43530520D02*
X45857160Y36413440D01*
D23*
X58242200Y26736080D02*
X58242200Y27696160D01*
X58242200Y27696160D02*
X56804560Y29133800D01*
X38506400Y28188920D02*
X39436040Y29118560D01*
X38506400Y26974840D02*
X38506400Y28188920D01*
X46000920Y57425160D02*
X43922480Y57425160D01*
X43922480Y57425160D02*
X43865800Y57368480D01*
X94508320Y68295520D02*
X94444080Y68295520D01*
X94444080Y68295520D02*
X93583760Y67435200D01*
X93583760Y67435200D02*
X93583760Y66685200D01*
X94508320Y73637660D02*
X94508320Y68295520D01*
X93607640Y75284760D02*
X93607640Y74538340D01*
X93607640Y74538340D02*
X94508320Y73637660D01*
X7543800Y73475100D02*
X7543800Y68679800D01*
X7543800Y68679800D02*
X6482080Y67618080D01*
X6482080Y67618080D02*
X6482080Y66868080D01*
X6480560Y75284760D02*
X6480560Y74538340D01*
X6480560Y74538340D02*
X7543800Y73475100D01*
X19143896Y31683960D02*
X17099280Y31683960D01*
X17099280Y31683960D02*
X16896080Y31887160D01*
X19878040Y31374080D02*
X19453776Y31374080D01*
X19453776Y31374080D02*
X19143896Y31683960D01*
X20233361Y32639279D02*
X16069229Y32639279D01*
X16069229Y32639279D02*
X16003480Y32573530D01*
X20533360Y32339280D02*
X20233361Y32639279D01*
D26*
G36*
X5644520Y77466876D02*
X5586037Y77296430D01*
X5561931Y77117850D01*
X5573126Y76937998D01*
X5619194Y76763787D01*
X5698364Y76601909D01*
X5735132Y76546883D01*
X5896865Y76505307D01*
X6476317Y77084760D01*
X6462175Y77098902D01*
X6466418Y77103145D01*
X6480560Y77089003D01*
X6494702Y77103145D01*
X6498945Y77098902D01*
X6484803Y77084760D01*
X7064255Y76505307D01*
X7225988Y76546883D01*
X7316600Y76702644D01*
X7375083Y76873090D01*
X7399189Y77051670D01*
X7387994Y77231522D01*
X7341926Y77405733D01*
X7262756Y77567611D01*
X7256188Y77577441D01*
X7613916Y77577441D01*
X7613916Y74220985D01*
X7156209Y74678693D01*
X7168802Y74690685D01*
X7271085Y74835679D01*
X7343256Y74997779D01*
X7382568Y75170810D01*
X7385398Y75373480D01*
X7350933Y75547541D01*
X7283316Y75711593D01*
X7185122Y75859387D01*
X7060091Y75985293D01*
X6912987Y76084516D01*
X6749411Y76153277D01*
X6629477Y76177896D01*
X6801533Y76223394D01*
X6963411Y76302564D01*
X7018437Y76339332D01*
X7060013Y76501065D01*
X6480560Y77080517D01*
X5901107Y76501065D01*
X5942683Y76339332D01*
X6098444Y76248720D01*
X6268890Y76190237D01*
X6344720Y76180001D01*
X6223862Y76156946D01*
X6059342Y76090476D01*
X5910866Y75993316D01*
X5784090Y75869168D01*
X5683842Y75722759D01*
X5613941Y75559668D01*
X5577049Y75386105D01*
X5574572Y75208682D01*
X5606603Y75034157D01*
X5671923Y74869177D01*
X5768044Y74720027D01*
X5891304Y74592387D01*
X5903560Y74583869D01*
X5903560Y74538340D01*
X5908761Y74485297D01*
X5913407Y74432200D01*
X5914253Y74429289D01*
X5914549Y74426267D01*
X5929962Y74375217D01*
X5944824Y74324060D01*
X5946220Y74321367D01*
X5947097Y74318462D01*
X5972125Y74271391D01*
X5996647Y74224083D01*
X5998539Y74221713D01*
X5999964Y74219033D01*
X6033646Y74177735D01*
X6066903Y74136075D01*
X6071071Y74131848D01*
X6071138Y74131766D01*
X6071213Y74131704D01*
X6072559Y74130339D01*
X6966800Y73236099D01*
X6966800Y68918801D01*
X6074079Y68026081D01*
X6040224Y67984865D01*
X6005990Y67944066D01*
X6004530Y67941410D01*
X6002602Y67939063D01*
X5977386Y67892036D01*
X5951739Y67845384D01*
X5950823Y67842496D01*
X5949387Y67839818D01*
X5933781Y67788773D01*
X5917689Y67738045D01*
X5917351Y67735035D01*
X5916463Y67732129D01*
X5911077Y67679098D01*
X5905136Y67626136D01*
X5905095Y67620200D01*
X5905084Y67620094D01*
X5905093Y67619995D01*
X5905080Y67618080D01*
X5905080Y67596904D01*
X5832080Y67596904D01*
X5772044Y67592117D01*
X5670217Y67560583D01*
X5581206Y67501929D01*
X5512060Y67420799D01*
X5468254Y67323618D01*
X5453256Y67218080D01*
X5453256Y66518080D01*
X5458043Y66458044D01*
X5489577Y66356217D01*
X5548231Y66267206D01*
X5629361Y66198060D01*
X5726542Y66154254D01*
X5832080Y66139256D01*
X7132080Y66139256D01*
X7192116Y66144043D01*
X7293943Y66175577D01*
X7382954Y66234231D01*
X7452100Y66315361D01*
X7495906Y66412542D01*
X7510904Y66518080D01*
X7510904Y67218080D01*
X7506117Y67278116D01*
X7474583Y67379943D01*
X7415929Y67468954D01*
X7334799Y67538100D01*
X7254361Y67574359D01*
X7613916Y67933915D01*
X7613916Y63004441D01*
X7617833Y62964493D01*
X7621479Y62924429D01*
X7621902Y62922992D01*
X7622048Y62921503D01*
X7633644Y62883094D01*
X7645008Y62844484D01*
X7645703Y62843154D01*
X7646135Y62841724D01*
X7664987Y62806270D01*
X7683618Y62770632D01*
X7684556Y62769466D01*
X7685259Y62768143D01*
X7710680Y62736974D01*
X7735836Y62705685D01*
X7736981Y62704724D01*
X7737929Y62703562D01*
X7768918Y62677926D01*
X7799675Y62652118D01*
X7800987Y62651397D01*
X7802141Y62650442D01*
X7837510Y62631318D01*
X7872703Y62611970D01*
X7874129Y62611518D01*
X7875447Y62610805D01*
X7913877Y62598909D01*
X7952138Y62586772D01*
X7953624Y62586605D01*
X7955056Y62586162D01*
X7995103Y62581953D01*
X8034954Y62577483D01*
X8037823Y62577463D01*
X8037935Y62577451D01*
X8038047Y62577461D01*
X8040916Y62577441D01*
X40206999Y62577441D01*
X15331198Y37701640D01*
X14716449Y37701640D01*
X14684716Y37723044D01*
X14562323Y37774493D01*
X14432268Y37801189D01*
X14299505Y37802116D01*
X14169090Y37777238D01*
X14045991Y37727503D01*
X13934896Y37654805D01*
X13840038Y37561913D01*
X13765030Y37452365D01*
X13712727Y37330335D01*
X13685124Y37200470D01*
X13683270Y37067716D01*
X13707237Y36937131D01*
X13756111Y36813687D01*
X13828032Y36702088D01*
X13920260Y36606584D01*
X14029281Y36530812D01*
X14150943Y36477659D01*
X14280613Y36449149D01*
X14413350Y36446369D01*
X14544100Y36469424D01*
X14667881Y36517435D01*
X14715477Y36547640D01*
X15570200Y36547640D01*
X15623243Y36552841D01*
X15676340Y36557487D01*
X15679251Y36558333D01*
X15682273Y36558629D01*
X15733323Y36574042D01*
X15784480Y36588904D01*
X15787173Y36590300D01*
X15790078Y36591177D01*
X15837149Y36616205D01*
X15884457Y36640727D01*
X15886827Y36642619D01*
X15889507Y36644044D01*
X15930805Y36677726D01*
X15972465Y36710983D01*
X15976692Y36715151D01*
X15976774Y36715218D01*
X15976836Y36715293D01*
X15978201Y36716639D01*
X25478358Y46216796D01*
X27333230Y46216796D01*
X27357197Y46086211D01*
X27406071Y45962767D01*
X27477992Y45851168D01*
X27570220Y45755664D01*
X27679241Y45679892D01*
X27800903Y45626739D01*
X27930573Y45598229D01*
X28063310Y45595449D01*
X28194060Y45618504D01*
X28317841Y45666515D01*
X28429940Y45737655D01*
X28526086Y45829214D01*
X28602617Y45937703D01*
X28656618Y46058992D01*
X28669619Y46116217D01*
X32410641Y49857240D01*
X35081989Y49857240D01*
X35106201Y49840412D01*
X35227863Y49787259D01*
X35357533Y49758749D01*
X35490270Y49755969D01*
X35621020Y49779024D01*
X35744801Y49827035D01*
X35856900Y49898175D01*
X35953046Y49989734D01*
X36029577Y50098223D01*
X36083578Y50219512D01*
X36112992Y50348979D01*
X36115109Y50500623D01*
X36089321Y50630861D01*
X36038728Y50753610D01*
X35965256Y50864194D01*
X35871704Y50958402D01*
X35761636Y51032644D01*
X35639243Y51084093D01*
X35509188Y51110789D01*
X35376425Y51111716D01*
X35246010Y51086838D01*
X35122911Y51037103D01*
X35083388Y51011240D01*
X32171640Y51011240D01*
X32118643Y51006044D01*
X32065501Y51001394D01*
X32062586Y51000547D01*
X32059567Y51000251D01*
X32008533Y50984843D01*
X31957361Y50969976D01*
X31954669Y50968581D01*
X31951762Y50967703D01*
X31904673Y50942665D01*
X31857383Y50918153D01*
X31855013Y50916261D01*
X31852333Y50914836D01*
X31811041Y50881159D01*
X31769376Y50847898D01*
X31765152Y50843732D01*
X31765066Y50843662D01*
X31765000Y50843582D01*
X31763640Y50842241D01*
X27854473Y46933075D01*
X27819050Y46926318D01*
X27695951Y46876583D01*
X27584856Y46803885D01*
X27489998Y46710993D01*
X27414990Y46601445D01*
X27362687Y46479415D01*
X27335084Y46349550D01*
X27333230Y46216796D01*
X25478358Y46216796D01*
X37363080Y58101518D01*
X37363080Y43530520D01*
X37375494Y43403914D01*
X37386578Y43277220D01*
X37388598Y43270266D01*
X37389305Y43263059D01*
X37426073Y43141276D01*
X37461555Y43019147D01*
X37464887Y43012720D01*
X37466980Y43005786D01*
X37526717Y42893437D01*
X37585231Y42780552D01*
X37589746Y42774896D01*
X37593147Y42768500D01*
X37673555Y42669910D01*
X37752894Y42570524D01*
X37762832Y42560446D01*
X37763001Y42560239D01*
X37763192Y42560081D01*
X37766394Y42556834D01*
X44480160Y35843068D01*
X44480160Y34112200D01*
X44492574Y33985594D01*
X44503658Y33858900D01*
X44505678Y33851946D01*
X44506385Y33844739D01*
X44543153Y33722956D01*
X44578635Y33600827D01*
X44581967Y33594400D01*
X44584060Y33587466D01*
X44643797Y33475117D01*
X44702311Y33362232D01*
X44706826Y33356576D01*
X44710227Y33350180D01*
X44790635Y33251590D01*
X44869974Y33152204D01*
X44879912Y33142126D01*
X44880081Y33141919D01*
X44880272Y33141761D01*
X44883474Y33138514D01*
X44996908Y33025080D01*
X42758972Y30787144D01*
X42663613Y30693761D01*
X42511047Y30470945D01*
X42404665Y30222738D01*
X42348520Y29958595D01*
X42344750Y29688578D01*
X42393498Y29422971D01*
X42492907Y29171891D01*
X42639192Y28944901D01*
X42816667Y28761120D01*
X41380000Y28761120D01*
X41297861Y28753066D01*
X41215667Y28745586D01*
X41212719Y28744718D01*
X41209656Y28744418D01*
X41130581Y28720544D01*
X41051470Y28697260D01*
X41048747Y28695836D01*
X41045801Y28694947D01*
X40972891Y28656180D01*
X40899787Y28617962D01*
X40897391Y28616036D01*
X40894676Y28614592D01*
X40830734Y28562442D01*
X40766395Y28510713D01*
X40764417Y28508356D01*
X40762036Y28506414D01*
X40709460Y28442860D01*
X40656375Y28379596D01*
X40654893Y28376900D01*
X40652934Y28374532D01*
X40613704Y28301977D01*
X40573918Y28229607D01*
X40572988Y28226674D01*
X40571526Y28223971D01*
X40547132Y28145167D01*
X40522165Y28066459D01*
X40521822Y28063402D01*
X40520913Y28060465D01*
X40517290Y28025996D01*
X39535224Y27043930D01*
X39535224Y27324840D01*
X39530437Y27384876D01*
X39498903Y27486703D01*
X39440249Y27575714D01*
X39359119Y27644860D01*
X39261938Y27688666D01*
X39156400Y27703664D01*
X39083400Y27703664D01*
X39083400Y27949918D01*
X39592082Y28458601D01*
X39618980Y28463344D01*
X39742761Y28511355D01*
X39854860Y28582495D01*
X39951006Y28674054D01*
X40027537Y28782543D01*
X40081538Y28903832D01*
X40110952Y29033299D01*
X40113069Y29184943D01*
X40087281Y29315181D01*
X40036688Y29437930D01*
X39963216Y29548514D01*
X39869664Y29642722D01*
X39759596Y29716964D01*
X39637203Y29768413D01*
X39507148Y29795109D01*
X39374385Y29796036D01*
X39243970Y29771158D01*
X39120871Y29721423D01*
X39009776Y29648725D01*
X38914918Y29555833D01*
X38839910Y29446285D01*
X38787607Y29324255D01*
X38777316Y29275837D01*
X38098399Y28596921D01*
X38064544Y28555705D01*
X38030310Y28514906D01*
X38028850Y28512250D01*
X38026922Y28509903D01*
X38001706Y28462876D01*
X37976059Y28416224D01*
X37975143Y28413336D01*
X37973707Y28410658D01*
X37958101Y28359613D01*
X37942009Y28308885D01*
X37941671Y28305875D01*
X37940783Y28302969D01*
X37935397Y28249938D01*
X37929456Y28196976D01*
X37929415Y28191040D01*
X37929404Y28190934D01*
X37929413Y28190835D01*
X37929400Y28188920D01*
X37929400Y27703664D01*
X37856400Y27703664D01*
X37796364Y27698877D01*
X37694537Y27667343D01*
X37605526Y27608689D01*
X37536380Y27527559D01*
X37492574Y27430378D01*
X37477576Y27324840D01*
X37477576Y26624840D01*
X37482363Y26564804D01*
X37513897Y26462977D01*
X37572551Y26373966D01*
X37653681Y26304820D01*
X37750862Y26261014D01*
X37856400Y26246016D01*
X38737310Y26246016D01*
X38436257Y25944963D01*
X38336056Y25935138D01*
X38172201Y25885667D01*
X38021076Y25805312D01*
X38019055Y25803664D01*
X37856400Y25803664D01*
X37796364Y25798877D01*
X37694537Y25767343D01*
X37605526Y25708689D01*
X37536380Y25627559D01*
X37492574Y25530378D01*
X37477576Y25424840D01*
X37477576Y24724840D01*
X37482363Y24664804D01*
X37513897Y24562977D01*
X37572551Y24473966D01*
X37653681Y24404820D01*
X37750862Y24361014D01*
X37856400Y24346016D01*
X38020381Y24346016D01*
X38160913Y24268758D01*
X38324061Y24217005D01*
X38494155Y24197925D01*
X38506400Y24197840D01*
X38806400Y24197840D01*
X38887000Y24205743D01*
X38967726Y24212805D01*
X38972156Y24214092D01*
X38976744Y24214542D01*
X39054287Y24237954D01*
X39132090Y24260558D01*
X39136183Y24262680D01*
X39140599Y24264013D01*
X39212140Y24302052D01*
X39284048Y24339326D01*
X39287651Y24342203D01*
X39291724Y24344368D01*
X39354498Y24395565D01*
X39417814Y24446109D01*
X39424234Y24452440D01*
X39424364Y24452546D01*
X39424463Y24452666D01*
X39426533Y24454707D01*
X41978946Y27007120D01*
X42471294Y27007120D01*
X46761027Y22717388D01*
X46823598Y22665991D01*
X46885684Y22613895D01*
X46889725Y22611673D01*
X46893289Y22608746D01*
X46964664Y22570476D01*
X47035673Y22531438D01*
X47040072Y22530043D01*
X47044133Y22527865D01*
X47121562Y22504193D01*
X47198821Y22479685D01*
X47203406Y22479171D01*
X47207814Y22477823D01*
X47288383Y22469639D01*
X47368915Y22460605D01*
X47377926Y22460542D01*
X47378098Y22460525D01*
X47378258Y22460540D01*
X47381160Y22460520D01*
X55093640Y22460520D01*
X55174240Y22468423D01*
X55254966Y22475485D01*
X55259396Y22476772D01*
X55263984Y22477222D01*
X55341527Y22500634D01*
X55419330Y22523238D01*
X55423423Y22525360D01*
X55427839Y22526693D01*
X55499380Y22564732D01*
X55571288Y22602006D01*
X55574891Y22604883D01*
X55578964Y22607048D01*
X55641738Y22658245D01*
X55705054Y22708789D01*
X55711474Y22715120D01*
X55711604Y22715226D01*
X55711703Y22715346D01*
X55713773Y22717387D01*
X56955466Y23959080D01*
X58242200Y23959080D01*
X58412544Y23975782D01*
X58576399Y24025253D01*
X58727524Y24105608D01*
X58729545Y24107256D01*
X58892200Y24107256D01*
X58952236Y24112043D01*
X59054063Y24143577D01*
X59143074Y24202231D01*
X59212220Y24283361D01*
X59256026Y24380542D01*
X59271024Y24486080D01*
X59271024Y25186080D01*
X59266237Y25246116D01*
X59234703Y25347943D01*
X59176049Y25436954D01*
X59094919Y25506100D01*
X59056700Y25523328D01*
X61251161Y25523328D01*
X61321150Y25141988D01*
X61463876Y24781505D01*
X61673901Y24455609D01*
X61943227Y24176714D01*
X62261595Y23955443D01*
X62616877Y23800223D01*
X62995543Y23716968D01*
X63383167Y23708849D01*
X63764987Y23776174D01*
X64126458Y23916379D01*
X64453812Y24124125D01*
X64734581Y24391497D01*
X64958069Y24708312D01*
X65115765Y25062502D01*
X65201661Y25440577D01*
X65207845Y25883415D01*
X65132538Y26263741D01*
X64984794Y26622196D01*
X64770238Y26945128D01*
X64497045Y27220235D01*
X64175619Y27437040D01*
X63818204Y27587284D01*
X63438413Y27665243D01*
X63050712Y27667950D01*
X62669870Y27595301D01*
X62310392Y27450062D01*
X61985970Y27237766D01*
X61708962Y26966500D01*
X61489919Y26646595D01*
X61337184Y26290238D01*
X61256574Y25911000D01*
X61251161Y25523328D01*
X59056700Y25523328D01*
X58997738Y25549906D01*
X58892200Y25564904D01*
X58728219Y25564904D01*
X58587687Y25642162D01*
X58424539Y25693915D01*
X58254445Y25712995D01*
X58242200Y25713080D01*
X56592200Y25713080D01*
X56511645Y25705182D01*
X56430874Y25698115D01*
X56426444Y25696828D01*
X56421856Y25696378D01*
X56344313Y25672966D01*
X56266510Y25650362D01*
X56262417Y25648240D01*
X56258001Y25646907D01*
X56186460Y25608868D01*
X56114552Y25571594D01*
X56110949Y25568717D01*
X56106876Y25566552D01*
X56044102Y25515355D01*
X55980786Y25464811D01*
X55974366Y25458480D01*
X55974236Y25458374D01*
X55974137Y25458254D01*
X55972067Y25456213D01*
X54730374Y24214520D01*
X47744425Y24214520D01*
X43519719Y28439227D01*
X43559729Y28430430D01*
X43829713Y28424775D01*
X44095654Y28471668D01*
X44347423Y28569322D01*
X44575428Y28714019D01*
X44770986Y28900246D01*
X44780967Y28914395D01*
X44943448Y29076876D01*
X56126670Y29076876D01*
X56150637Y28946291D01*
X56199511Y28822847D01*
X56271432Y28711248D01*
X56363660Y28615744D01*
X56472681Y28539972D01*
X56594343Y28486819D01*
X56647149Y28475209D01*
X57657454Y27464904D01*
X57592200Y27464904D01*
X57532164Y27460117D01*
X57430337Y27428583D01*
X57341326Y27369929D01*
X57272180Y27288799D01*
X57228374Y27191618D01*
X57213376Y27086080D01*
X57213376Y26386080D01*
X57218163Y26326044D01*
X57249697Y26224217D01*
X57308351Y26135206D01*
X57389481Y26066060D01*
X57486662Y26022254D01*
X57592200Y26007256D01*
X58892200Y26007256D01*
X58952236Y26012043D01*
X59054063Y26043577D01*
X59143074Y26102231D01*
X59212220Y26183361D01*
X59256026Y26280542D01*
X59271024Y26386080D01*
X59271024Y27086080D01*
X59266237Y27146116D01*
X59234703Y27247943D01*
X59176049Y27336954D01*
X59094919Y27406100D01*
X58997738Y27449906D01*
X58892200Y27464904D01*
X58819200Y27464904D01*
X58819200Y27696160D01*
X58813999Y27749203D01*
X58809353Y27802300D01*
X58808507Y27805211D01*
X58808211Y27808233D01*
X58795611Y27849968D01*
X91558441Y27849968D01*
X91628430Y27468628D01*
X91771156Y27108145D01*
X91981181Y26782249D01*
X92250507Y26503354D01*
X92568875Y26282083D01*
X92924157Y26126863D01*
X93302823Y26043608D01*
X93690447Y26035489D01*
X94072267Y26102814D01*
X94433738Y26243019D01*
X94761092Y26450765D01*
X95041861Y26718137D01*
X95265349Y27034952D01*
X95423045Y27389142D01*
X95508941Y27767217D01*
X95515125Y28210055D01*
X95439818Y28590381D01*
X95292074Y28948836D01*
X95077518Y29271768D01*
X94804325Y29546875D01*
X94482899Y29763680D01*
X94125484Y29913924D01*
X93745693Y29991883D01*
X93357992Y29994590D01*
X92977150Y29921941D01*
X92617672Y29776702D01*
X92293250Y29564406D01*
X92016242Y29293140D01*
X91797199Y28973235D01*
X91644464Y28616878D01*
X91563854Y28237640D01*
X91558441Y27849968D01*
X58795611Y27849968D01*
X58792798Y27859283D01*
X58777936Y27910440D01*
X58776540Y27913133D01*
X58775663Y27916038D01*
X58750635Y27963109D01*
X58726113Y28010417D01*
X58724221Y28012787D01*
X58722796Y28015467D01*
X58689114Y28056765D01*
X58655857Y28098425D01*
X58651689Y28102652D01*
X58651622Y28102734D01*
X58651547Y28102796D01*
X58650201Y28104161D01*
X57463667Y29290695D01*
X57455801Y29330421D01*
X57405208Y29453170D01*
X57331736Y29563754D01*
X57238184Y29657962D01*
X57128116Y29732204D01*
X57005723Y29783653D01*
X56875668Y29810349D01*
X56742905Y29811276D01*
X56612490Y29786398D01*
X56489391Y29736663D01*
X56378296Y29663965D01*
X56283438Y29571073D01*
X56208430Y29461525D01*
X56156127Y29339495D01*
X56128524Y29209630D01*
X56126670Y29076876D01*
X44943448Y29076876D01*
X46113549Y30246977D01*
X78664700Y30246977D01*
X78734356Y30061262D01*
X78929918Y29947322D01*
X79143952Y29873724D01*
X79368230Y29843296D01*
X79594136Y29857208D01*
X79812986Y29914924D01*
X80016372Y30014226D01*
X80086764Y30061262D01*
X80154919Y30242977D01*
X93904700Y30242977D01*
X93974356Y30057262D01*
X94169918Y29943322D01*
X94383952Y29869724D01*
X94608230Y29839296D01*
X94834136Y29853208D01*
X95052986Y29910924D01*
X95256372Y30010226D01*
X95326764Y30057262D01*
X95396420Y30242977D01*
X94650560Y30988837D01*
X93904700Y30242977D01*
X80154919Y30242977D01*
X80156420Y30246977D01*
X79410560Y30992837D01*
X78664700Y30246977D01*
X46113549Y30246977D01*
X47457498Y31590926D01*
X56638453Y31590926D01*
X56660157Y31352443D01*
X56727768Y31122718D01*
X56838713Y30910500D01*
X56988765Y30723873D01*
X57172208Y30569946D01*
X57382056Y30454581D01*
X57610315Y30382173D01*
X57848291Y30355480D01*
X57865423Y30355360D01*
X57877297Y30355360D01*
X58115623Y30378728D01*
X58344870Y30447942D01*
X58556308Y30560366D01*
X58741883Y30711717D01*
X58894526Y30896230D01*
X58971943Y31039410D01*
X78256776Y31039410D01*
X78270688Y30813504D01*
X78328404Y30594654D01*
X78427706Y30391268D01*
X78474742Y30320876D01*
X78660457Y30251220D01*
X79406317Y30997080D01*
X79414803Y30997080D01*
X80160663Y30251220D01*
X80346378Y30320876D01*
X80460318Y30516438D01*
X80533916Y30730472D01*
X80564344Y30954750D01*
X80559377Y31035410D01*
X93496776Y31035410D01*
X93510688Y30809504D01*
X93568404Y30590654D01*
X93667706Y30387268D01*
X93714742Y30316876D01*
X93900457Y30247220D01*
X94646317Y30993080D01*
X93900457Y31738940D01*
X93714742Y31669284D01*
X93600802Y31473722D01*
X93527204Y31259688D01*
X93496776Y31035410D01*
X80559377Y31035410D01*
X80550432Y31180656D01*
X80492716Y31399506D01*
X80393414Y31602892D01*
X80346378Y31673284D01*
X80160663Y31742940D01*
X79414803Y30997080D01*
X79406317Y30997080D01*
X78660457Y31742940D01*
X78474742Y31673284D01*
X78360802Y31477722D01*
X78287204Y31263688D01*
X78256776Y31039410D01*
X58971943Y31039410D01*
X59008423Y31106878D01*
X59079236Y31335637D01*
X59104267Y31573794D01*
X59088488Y31747183D01*
X78664700Y31747183D01*
X79410560Y31001323D01*
X80152420Y31743183D01*
X93904700Y31743183D01*
X94650560Y30997323D01*
X95396420Y31743183D01*
X95326764Y31928898D01*
X95131202Y32042838D01*
X94917168Y32116436D01*
X94692890Y32146864D01*
X94466984Y32132952D01*
X94248134Y32075236D01*
X94044748Y31975934D01*
X93974356Y31928898D01*
X93904700Y31743183D01*
X80152420Y31743183D01*
X80156420Y31747183D01*
X80086764Y31932898D01*
X79891202Y32046838D01*
X79677168Y32120436D01*
X79452890Y32150864D01*
X79226984Y32136952D01*
X79008134Y32079236D01*
X78804748Y31979934D01*
X78734356Y31932898D01*
X78664700Y31747183D01*
X59088488Y31747183D01*
X59082563Y31812277D01*
X59014952Y32042002D01*
X58904007Y32254220D01*
X58753955Y32440847D01*
X58570512Y32594774D01*
X58360664Y32710139D01*
X58132405Y32782547D01*
X57894429Y32809240D01*
X57877297Y32809360D01*
X57865423Y32809360D01*
X57627097Y32785992D01*
X57397850Y32716778D01*
X57186412Y32604354D01*
X57000837Y32453003D01*
X56848194Y32268490D01*
X56734297Y32057842D01*
X56663484Y31829083D01*
X56638453Y31590926D01*
X47457498Y31590926D01*
X47719846Y31853274D01*
X47800592Y31951576D01*
X47882341Y32049000D01*
X47885829Y32055344D01*
X47890426Y32060941D01*
X47950562Y32173094D01*
X48011809Y32284502D01*
X48013997Y32291399D01*
X48017421Y32297785D01*
X48054639Y32419520D01*
X48093069Y32540666D01*
X48093875Y32547856D01*
X48095994Y32554785D01*
X48108853Y32681385D01*
X48123026Y32807734D01*
X48123125Y32821883D01*
X48123152Y32822153D01*
X48123128Y32822404D01*
X48123160Y32826960D01*
X48123160Y33223200D01*
X48110744Y33349825D01*
X48099662Y33476500D01*
X48097642Y33483454D01*
X48096935Y33490661D01*
X48060167Y33612444D01*
X48024685Y33734573D01*
X48021353Y33741000D01*
X48019260Y33747934D01*
X47959523Y33860283D01*
X47901009Y33973168D01*
X47896494Y33978824D01*
X47893093Y33985220D01*
X47812685Y34083810D01*
X47733346Y34183196D01*
X47723408Y34193274D01*
X47723239Y34193481D01*
X47723048Y34193639D01*
X47719846Y34196886D01*
X47234160Y34682572D01*
X47234160Y34972360D01*
X56642536Y34972360D01*
X56642536Y33272360D01*
X56647323Y33212324D01*
X56678857Y33110497D01*
X56737511Y33021486D01*
X56818641Y32952340D01*
X56915822Y32908534D01*
X57021360Y32893536D01*
X58721360Y32893536D01*
X58781396Y32898323D01*
X58883223Y32929857D01*
X58972234Y32988511D01*
X59041380Y33069641D01*
X59085186Y33166822D01*
X59100184Y33272360D01*
X59100184Y34972360D01*
X59095397Y35032396D01*
X59063863Y35134223D01*
X59005209Y35223234D01*
X58924079Y35292380D01*
X58826898Y35336186D01*
X58721360Y35351184D01*
X57021360Y35351184D01*
X56961324Y35346397D01*
X56859497Y35314863D01*
X56770486Y35256209D01*
X56701340Y35175079D01*
X56657534Y35077898D01*
X56642536Y34972360D01*
X47234160Y34972360D01*
X47234160Y36413440D01*
X47221746Y36540042D01*
X47210662Y36666741D01*
X47208642Y36673696D01*
X47207935Y36680901D01*
X47171170Y36802672D01*
X47135685Y36924813D01*
X47132353Y36931240D01*
X47130260Y36938174D01*
X47070523Y37050523D01*
X47012009Y37163408D01*
X47007494Y37169064D01*
X47004093Y37175460D01*
X46923685Y37274050D01*
X46844346Y37373436D01*
X46834408Y37383514D01*
X46834239Y37383721D01*
X46834048Y37383879D01*
X46830846Y37387126D01*
X42676962Y41541010D01*
X45153560Y41541010D01*
X45153560Y40752644D01*
X45168432Y40677876D01*
X45197605Y40607447D01*
X45239958Y40544062D01*
X45293862Y40490157D01*
X45357247Y40447805D01*
X45427676Y40418632D01*
X45502444Y40403760D01*
X46290810Y40403760D01*
X46387560Y40500510D01*
X46387560Y41637760D01*
X46393560Y41637760D01*
X46393560Y40500510D01*
X46490310Y40403760D01*
X47278676Y40403760D01*
X47353444Y40418632D01*
X47423873Y40447805D01*
X47487258Y40490157D01*
X47541162Y40544062D01*
X47583515Y40607447D01*
X47612688Y40677876D01*
X47627560Y40752644D01*
X47627560Y41541010D01*
X47530810Y41637760D01*
X46393560Y41637760D01*
X46387560Y41637760D01*
X45250310Y41637760D01*
X45153560Y41541010D01*
X42676962Y41541010D01*
X41689096Y42528876D01*
X45153560Y42528876D01*
X45153560Y41740510D01*
X45250310Y41643760D01*
X46387560Y41643760D01*
X46387560Y42781010D01*
X46393560Y42781010D01*
X46393560Y41643760D01*
X47530810Y41643760D01*
X47627560Y41740510D01*
X47627560Y42528876D01*
X47612688Y42603644D01*
X47583515Y42674073D01*
X47541162Y42737458D01*
X47487258Y42791363D01*
X47423873Y42833715D01*
X47353444Y42862888D01*
X47278676Y42877760D01*
X46490310Y42877760D01*
X46393560Y42781010D01*
X46387560Y42781010D01*
X46290810Y42877760D01*
X45502444Y42877760D01*
X45427676Y42862888D01*
X45357247Y42833715D01*
X45293862Y42791363D01*
X45239958Y42737458D01*
X45197605Y42674073D01*
X45168432Y42603644D01*
X45153560Y42528876D01*
X41689096Y42528876D01*
X40426522Y43791450D01*
X51864240Y43791450D01*
X51864240Y43003084D01*
X51879112Y42928316D01*
X51908285Y42857887D01*
X51950637Y42794502D01*
X52004542Y42740598D01*
X52067927Y42698245D01*
X52138356Y42669072D01*
X52213124Y42654200D01*
X53001490Y42654200D01*
X53098240Y42750950D01*
X53098240Y43888200D01*
X53104240Y43888200D01*
X53104240Y42750950D01*
X53200990Y42654200D01*
X53989356Y42654200D01*
X54064124Y42669072D01*
X54134553Y42698245D01*
X54197938Y42740598D01*
X54251843Y42794502D01*
X54294195Y42857887D01*
X54323368Y42928316D01*
X54338240Y43003084D01*
X54338240Y43791450D01*
X54241490Y43888200D01*
X53104240Y43888200D01*
X53098240Y43888200D01*
X51960990Y43888200D01*
X51864240Y43791450D01*
X40426522Y43791450D01*
X40117080Y44100892D01*
X40117080Y44779316D01*
X51864240Y44779316D01*
X51864240Y43990950D01*
X51960990Y43894200D01*
X53098240Y43894200D01*
X53098240Y45031450D01*
X53104240Y45031450D01*
X53104240Y43894200D01*
X54241490Y43894200D01*
X54244427Y43897137D01*
X54414240Y43897137D01*
X54414240Y43885263D01*
X54437608Y43646937D01*
X54506822Y43417690D01*
X54619246Y43206252D01*
X54770597Y43020677D01*
X54955110Y42868034D01*
X55165758Y42754137D01*
X55394517Y42683324D01*
X55632674Y42658293D01*
X55871157Y42679997D01*
X56100882Y42747608D01*
X56313100Y42858553D01*
X56499727Y43008605D01*
X56653654Y43192048D01*
X56769019Y43401896D01*
X56841427Y43630155D01*
X56868120Y43868131D01*
X56868240Y43885263D01*
X56868240Y43897137D01*
X56844872Y44135463D01*
X56775658Y44364710D01*
X56663234Y44576148D01*
X56511883Y44761723D01*
X56327370Y44914366D01*
X56116722Y45028263D01*
X55887963Y45099076D01*
X55649806Y45124107D01*
X55411323Y45102403D01*
X55181598Y45034792D01*
X54969380Y44923847D01*
X54782753Y44773795D01*
X54628826Y44590352D01*
X54513461Y44380504D01*
X54441053Y44152245D01*
X54414360Y43914269D01*
X54414240Y43897137D01*
X54244427Y43897137D01*
X54338240Y43990950D01*
X54338240Y44779316D01*
X54323368Y44854084D01*
X54294195Y44924513D01*
X54251843Y44987898D01*
X54197938Y45041802D01*
X54134553Y45084155D01*
X54064124Y45113328D01*
X53989356Y45128200D01*
X53200990Y45128200D01*
X53104240Y45031450D01*
X53098240Y45031450D01*
X53001490Y45128200D01*
X52213124Y45128200D01*
X52138356Y45113328D01*
X52067927Y45084155D01*
X52004542Y45041802D01*
X51950637Y44987898D01*
X51908285Y44924513D01*
X51879112Y44854084D01*
X51864240Y44779316D01*
X40117080Y44779316D01*
X40117080Y50459911D01*
X49248114Y50459911D01*
X49346306Y50249823D01*
X49582315Y50112177D01*
X49840643Y50023219D01*
X50111362Y49986368D01*
X50384068Y50003039D01*
X50648282Y50072592D01*
X50893850Y50192355D01*
X50979854Y50249823D01*
X51078046Y50459911D01*
X50163080Y51374877D01*
X49248114Y50459911D01*
X40117080Y50459911D01*
X40117080Y51430838D01*
X48770328Y51430838D01*
X48786999Y51158132D01*
X48856552Y50893918D01*
X48976315Y50648350D01*
X49033783Y50562346D01*
X49243871Y50464154D01*
X50158837Y51379120D01*
X50167323Y51379120D01*
X51082289Y50464154D01*
X51292377Y50562346D01*
X51430023Y50798355D01*
X51518981Y51056683D01*
X51555832Y51327402D01*
X51539161Y51600108D01*
X51469608Y51864322D01*
X51349845Y52109890D01*
X51292377Y52195894D01*
X51082289Y52294086D01*
X50167323Y51379120D01*
X50158837Y51379120D01*
X49243871Y52294086D01*
X49033783Y52195894D01*
X48896137Y51959885D01*
X48807179Y51701557D01*
X48770328Y51430838D01*
X40117080Y51430838D01*
X40117080Y55818480D01*
X42836976Y55818480D01*
X42836976Y55118480D01*
X42841763Y55058444D01*
X42873297Y54956617D01*
X42931951Y54867606D01*
X42988800Y54819154D01*
X42988800Y54118480D01*
X42996703Y54037880D01*
X43003765Y53957154D01*
X43005052Y53952724D01*
X43005502Y53948136D01*
X43028914Y53870593D01*
X43051518Y53792790D01*
X43053640Y53788697D01*
X43054973Y53784281D01*
X43093012Y53712740D01*
X43130286Y53640832D01*
X43133163Y53637229D01*
X43135328Y53633156D01*
X43186525Y53570382D01*
X43237069Y53507066D01*
X43243400Y53500646D01*
X43243506Y53500516D01*
X43243626Y53500417D01*
X43245667Y53498347D01*
X43841268Y52902747D01*
X43903843Y52851347D01*
X43965924Y52799255D01*
X43969965Y52797033D01*
X43973529Y52794106D01*
X44044939Y52755816D01*
X44115913Y52716798D01*
X44120307Y52715404D01*
X44124373Y52713224D01*
X44201889Y52689525D01*
X44279061Y52665045D01*
X44283641Y52664531D01*
X44288054Y52663182D01*
X44368668Y52654993D01*
X44449155Y52645965D01*
X44458167Y52645902D01*
X44458339Y52645885D01*
X44458499Y52645900D01*
X44461400Y52645880D01*
X49596336Y52645880D01*
X49432310Y52565885D01*
X49346306Y52508417D01*
X49248114Y52298329D01*
X50163080Y51383363D01*
X51078046Y52298329D01*
X51040286Y52379120D01*
X56284256Y52379120D01*
X56284256Y50379120D01*
X56289043Y50319084D01*
X56320577Y50217257D01*
X56379231Y50128246D01*
X56460361Y50059100D01*
X56557542Y50015294D01*
X56663080Y50000296D01*
X56784652Y50000296D01*
X58917520Y47867428D01*
X58917520Y41840759D01*
X58929934Y41714153D01*
X58941018Y41587459D01*
X58943038Y41580505D01*
X58943745Y41573298D01*
X58980513Y41451515D01*
X59015995Y41329386D01*
X59019327Y41322959D01*
X59021420Y41316025D01*
X59081157Y41203676D01*
X59139671Y41090791D01*
X59144186Y41085135D01*
X59147587Y41078739D01*
X59227995Y40980149D01*
X59307334Y40880763D01*
X59317272Y40870685D01*
X59317441Y40870478D01*
X59317632Y40870320D01*
X59320834Y40867073D01*
X65494913Y34692994D01*
X65593188Y34612270D01*
X65690639Y34530499D01*
X65696987Y34527009D01*
X65702580Y34522415D01*
X65814659Y34462319D01*
X65926141Y34401031D01*
X65933043Y34398842D01*
X65939424Y34395420D01*
X66061072Y34358228D01*
X66182305Y34319771D01*
X66189500Y34318964D01*
X66196424Y34316847D01*
X66322930Y34303997D01*
X66449373Y34289814D01*
X66463533Y34289715D01*
X66463792Y34289689D01*
X66464033Y34289712D01*
X66468599Y34289680D01*
X67291838Y34289680D01*
X67197170Y34261098D01*
X66985732Y34148674D01*
X66800157Y33997323D01*
X66647514Y33812810D01*
X66533617Y33602162D01*
X66462804Y33373403D01*
X66437773Y33135246D01*
X66459477Y32896763D01*
X66527088Y32667038D01*
X66638033Y32454820D01*
X66788085Y32268193D01*
X66971528Y32114266D01*
X67181376Y31998901D01*
X67409635Y31926493D01*
X67647611Y31899800D01*
X67664743Y31899680D01*
X67676617Y31899680D01*
X67914943Y31923048D01*
X68144190Y31992262D01*
X68355628Y32104686D01*
X68541203Y32256037D01*
X68676363Y32419417D01*
X73227500Y32419417D01*
X73301713Y32229810D01*
X73503733Y32112086D01*
X73724837Y32036036D01*
X73956531Y32004583D01*
X74189908Y32018935D01*
X74416001Y32078541D01*
X74626121Y32181110D01*
X74699007Y32229810D01*
X74773220Y32419417D01*
X74000360Y33192277D01*
X73227500Y32419417D01*
X68676363Y32419417D01*
X68693846Y32440550D01*
X68807743Y32651198D01*
X68878556Y32879957D01*
X68903587Y33118114D01*
X68892463Y33240349D01*
X72808423Y33240349D01*
X72822775Y33006972D01*
X72882381Y32780879D01*
X72984950Y32570759D01*
X73033650Y32497873D01*
X73223257Y32423660D01*
X73996117Y33196520D01*
X74004603Y33196520D01*
X74777463Y32423660D01*
X74967070Y32497873D01*
X75084794Y32699893D01*
X75160844Y32920997D01*
X75192297Y33152691D01*
X75177945Y33386068D01*
X75118339Y33612161D01*
X75015770Y33822281D01*
X74967070Y33895167D01*
X74777463Y33969380D01*
X74004603Y33196520D01*
X73996117Y33196520D01*
X73223257Y33969380D01*
X73033650Y33895167D01*
X72915926Y33693147D01*
X72839876Y33472043D01*
X72808423Y33240349D01*
X68892463Y33240349D01*
X68881883Y33356597D01*
X68814272Y33586322D01*
X68703327Y33798540D01*
X68562557Y33973623D01*
X73227500Y33973623D01*
X74000360Y33200763D01*
X74773220Y33973623D01*
X74699007Y34163230D01*
X74496987Y34280954D01*
X74275883Y34357004D01*
X74044189Y34388457D01*
X73810812Y34374105D01*
X73584719Y34314499D01*
X73374599Y34211930D01*
X73301713Y34163230D01*
X73227500Y33973623D01*
X68562557Y33973623D01*
X68553275Y33985167D01*
X68369832Y34139094D01*
X68159984Y34254459D01*
X67952559Y34320258D01*
X68195414Y34393580D01*
X68432700Y34519747D01*
X68640961Y34689601D01*
X68812265Y34896671D01*
X68940086Y35133071D01*
X69019555Y35389796D01*
X69047646Y35657067D01*
X69023290Y35924704D01*
X68947412Y36182513D01*
X68822904Y36420675D01*
X68654509Y36630116D01*
X68448640Y36802861D01*
X68213138Y36932329D01*
X68069619Y36977856D01*
X68520680Y36977856D01*
X68580716Y36982643D01*
X68682543Y37014177D01*
X68771554Y37072831D01*
X68840700Y37153961D01*
X68884506Y37251142D01*
X68899504Y37356680D01*
X68899504Y39056680D01*
X68894717Y39116716D01*
X68863183Y39218543D01*
X68804529Y39307554D01*
X68723399Y39376700D01*
X68626218Y39420506D01*
X68520680Y39435504D01*
X66820680Y39435504D01*
X66760644Y39430717D01*
X66658817Y39399183D01*
X66569806Y39340529D01*
X66500660Y39259399D01*
X66456854Y39162218D01*
X66441856Y39056680D01*
X66441856Y37640795D01*
X61671520Y42411131D01*
X61671520Y48437800D01*
X61659106Y48564402D01*
X61648022Y48691101D01*
X61646002Y48698056D01*
X61645295Y48705261D01*
X61608530Y48827032D01*
X61573045Y48949173D01*
X61569713Y48955600D01*
X61567620Y48962534D01*
X61507883Y49074883D01*
X61449369Y49187768D01*
X61444854Y49193424D01*
X61441453Y49199820D01*
X61361064Y49298386D01*
X61281706Y49397797D01*
X61271766Y49407876D01*
X61271599Y49408081D01*
X61271409Y49408238D01*
X61268206Y49411486D01*
X59041904Y51637788D01*
X59041904Y52379120D01*
X59037117Y52439156D01*
X59005583Y52540983D01*
X58946929Y52629994D01*
X58865799Y52699140D01*
X58768618Y52742946D01*
X58663080Y52757944D01*
X56663080Y52757944D01*
X56603044Y52753157D01*
X56501217Y52721623D01*
X56412206Y52662969D01*
X56343060Y52581839D01*
X56299254Y52484658D01*
X56284256Y52379120D01*
X51040286Y52379120D01*
X50979854Y52508417D01*
X50743845Y52646063D01*
X50485517Y52735021D01*
X50368860Y52750901D01*
X50439208Y52787366D01*
X50442811Y52790243D01*
X50446884Y52792408D01*
X50509658Y52843605D01*
X50572974Y52894149D01*
X50579394Y52900480D01*
X50579524Y52900586D01*
X50579623Y52900706D01*
X50581693Y52902747D01*
X52305985Y54627040D01*
X53694343Y54627040D01*
X53745901Y54610685D01*
X53750481Y54610171D01*
X53754894Y54608822D01*
X53835512Y54600633D01*
X53915995Y54591605D01*
X53925006Y54591542D01*
X53925178Y54591525D01*
X53925338Y54591540D01*
X53928240Y54591520D01*
X58165094Y54591520D01*
X73123360Y39633255D01*
X73123360Y39365304D01*
X73038497Y39339023D01*
X72949486Y39280369D01*
X72880340Y39199239D01*
X72836534Y39102058D01*
X72821536Y38996520D01*
X72821536Y37396520D01*
X72826323Y37336484D01*
X72857857Y37234657D01*
X72916511Y37145646D01*
X72997641Y37076500D01*
X73094822Y37032694D01*
X73200360Y37017696D01*
X74800360Y37017696D01*
X74860396Y37022483D01*
X74962223Y37054017D01*
X75051234Y37112671D01*
X75120380Y37193801D01*
X75164186Y37290982D01*
X75179184Y37396520D01*
X75179184Y38996520D01*
X75174397Y39056556D01*
X75142863Y39158383D01*
X75084209Y39247394D01*
X75003079Y39316540D01*
X74905898Y39360346D01*
X74877360Y39364402D01*
X74877360Y39996520D01*
X74869452Y40077170D01*
X74862394Y40157846D01*
X74861108Y40162271D01*
X74860658Y40166864D01*
X74837234Y40244449D01*
X74814642Y40322210D01*
X74812520Y40326303D01*
X74811187Y40330719D01*
X74773148Y40402260D01*
X74735874Y40474168D01*
X74732997Y40477771D01*
X74730832Y40481844D01*
X74679635Y40544618D01*
X74629091Y40607934D01*
X74622763Y40614350D01*
X74622654Y40614484D01*
X74622530Y40614587D01*
X74620492Y40616653D01*
X59148493Y56088653D01*
X59085893Y56140074D01*
X59023836Y56192145D01*
X59019795Y56194367D01*
X59016231Y56197294D01*
X58944821Y56235584D01*
X58873847Y56274602D01*
X58869453Y56275996D01*
X58865387Y56278176D01*
X58787871Y56301875D01*
X58710699Y56326355D01*
X58706119Y56326869D01*
X58701706Y56328218D01*
X58621088Y56336407D01*
X58540605Y56345435D01*
X58531594Y56345498D01*
X58531422Y56345515D01*
X58531262Y56345500D01*
X58528360Y56345520D01*
X54126617Y56345520D01*
X54075059Y56361875D01*
X54070479Y56362389D01*
X54066066Y56363738D01*
X53985448Y56371927D01*
X53904965Y56380955D01*
X53895954Y56381018D01*
X53895782Y56381035D01*
X53895622Y56381020D01*
X53892720Y56381040D01*
X52035721Y56381040D01*
X52329897Y56675216D01*
X52892720Y56675216D01*
X52952756Y56680003D01*
X53054583Y56711537D01*
X53143594Y56770191D01*
X53212740Y56851321D01*
X53256546Y56948502D01*
X53271544Y57054040D01*
X53271544Y57754040D01*
X53266757Y57814076D01*
X53235223Y57915903D01*
X53176569Y58004914D01*
X53095439Y58074060D01*
X52998258Y58117866D01*
X52892720Y58132864D01*
X51592720Y58132864D01*
X51532684Y58128077D01*
X51430857Y58096543D01*
X51341846Y58037889D01*
X51272700Y57956759D01*
X51228894Y57859578D01*
X51213896Y57754040D01*
X51213896Y57191217D01*
X50441855Y56419177D01*
X50433347Y56424916D01*
X50269771Y56493677D01*
X50149837Y56518296D01*
X50321893Y56563794D01*
X50483771Y56642964D01*
X50538797Y56679732D01*
X50580373Y56841465D01*
X50000920Y57420917D01*
X49421467Y56841465D01*
X49463043Y56679732D01*
X49618804Y56589120D01*
X49789250Y56530637D01*
X49865080Y56520401D01*
X49744222Y56497346D01*
X49579702Y56430876D01*
X49431226Y56333716D01*
X49304450Y56209568D01*
X49204202Y56063159D01*
X49134301Y55900068D01*
X49097409Y55726505D01*
X49094932Y55549082D01*
X49126963Y55374557D01*
X49192283Y55209577D01*
X49288404Y55060427D01*
X49411664Y54932787D01*
X49557369Y54831519D01*
X49719969Y54760481D01*
X49893270Y54722379D01*
X49920229Y54721814D01*
X49598294Y54399880D01*
X44824665Y54399880D01*
X44742800Y54481746D01*
X44742800Y54818899D01*
X44766674Y54834631D01*
X44835820Y54915761D01*
X44879626Y55012942D01*
X44883679Y55041465D01*
X45421467Y55041465D01*
X45463043Y54879732D01*
X45618804Y54789120D01*
X45789250Y54730637D01*
X45967830Y54706531D01*
X46147682Y54717726D01*
X46321893Y54763794D01*
X46483771Y54842964D01*
X46538797Y54879732D01*
X46580373Y55041465D01*
X46000920Y55620917D01*
X45421467Y55041465D01*
X44883679Y55041465D01*
X44894624Y55118480D01*
X44894624Y55658250D01*
X45082291Y55658250D01*
X45093486Y55478398D01*
X45139554Y55304187D01*
X45218724Y55142309D01*
X45255492Y55087283D01*
X45417225Y55045707D01*
X45996677Y55625160D01*
X46005163Y55625160D01*
X46584615Y55045707D01*
X46746348Y55087283D01*
X46836960Y55243044D01*
X46895443Y55413490D01*
X46919549Y55592070D01*
X46908354Y55771922D01*
X46862286Y55946133D01*
X46783116Y56108011D01*
X46746348Y56163037D01*
X46584615Y56204613D01*
X46005163Y55625160D01*
X45996677Y55625160D01*
X45417225Y56204613D01*
X45255492Y56163037D01*
X45164880Y56007276D01*
X45106397Y55836830D01*
X45082291Y55658250D01*
X44894624Y55658250D01*
X44894624Y55818480D01*
X44889837Y55878516D01*
X44858303Y55980343D01*
X44799649Y56069354D01*
X44718519Y56138500D01*
X44621338Y56182306D01*
X44515800Y56197304D01*
X44352961Y56197304D01*
X44205651Y56276954D01*
X44042145Y56327567D01*
X43871923Y56345459D01*
X43701467Y56329946D01*
X43537270Y56281620D01*
X43385587Y56202322D01*
X43379346Y56197304D01*
X43215800Y56197304D01*
X43155764Y56192517D01*
X43053937Y56160983D01*
X42964926Y56102329D01*
X42895780Y56021199D01*
X42851974Y55924018D01*
X42836976Y55818480D01*
X40117080Y55818480D01*
X40117080Y57534668D01*
X40300892Y57718480D01*
X42836976Y57718480D01*
X42836976Y57018480D01*
X42841763Y56958444D01*
X42873297Y56856617D01*
X42931951Y56767606D01*
X43013081Y56698460D01*
X43110262Y56654654D01*
X43215800Y56639656D01*
X44515800Y56639656D01*
X44575836Y56644443D01*
X44677663Y56675977D01*
X44766674Y56734631D01*
X44835820Y56815761D01*
X44850424Y56848160D01*
X45300250Y56848160D01*
X45411664Y56732787D01*
X45557369Y56631519D01*
X45719969Y56560481D01*
X45850822Y56531712D01*
X45679947Y56486526D01*
X45518069Y56407356D01*
X45463043Y56370588D01*
X45421467Y56208855D01*
X46000920Y55629403D01*
X46580373Y56208855D01*
X46538797Y56370588D01*
X46383036Y56461200D01*
X46212590Y56519683D01*
X46135484Y56530091D01*
X46245416Y56549475D01*
X46410847Y56613642D01*
X46560665Y56708719D01*
X46689162Y56831085D01*
X46791445Y56976079D01*
X46863616Y57138179D01*
X46902928Y57311210D01*
X46904981Y57458250D01*
X49082291Y57458250D01*
X49093486Y57278398D01*
X49139554Y57104187D01*
X49218724Y56942309D01*
X49255492Y56887283D01*
X49417225Y56845707D01*
X49996677Y57425160D01*
X50005163Y57425160D01*
X50584615Y56845707D01*
X50746348Y56887283D01*
X50836960Y57043044D01*
X50895443Y57213490D01*
X50919549Y57392070D01*
X50908354Y57571922D01*
X50862286Y57746133D01*
X50783116Y57908011D01*
X50746348Y57963037D01*
X50584615Y58004613D01*
X50005163Y57425160D01*
X49996677Y57425160D01*
X49417225Y58004613D01*
X49255492Y57963037D01*
X49164880Y57807276D01*
X49106397Y57636830D01*
X49082291Y57458250D01*
X46904981Y57458250D01*
X46905758Y57513880D01*
X46871293Y57687941D01*
X46803676Y57851993D01*
X46705482Y57999787D01*
X46696478Y58008855D01*
X49421467Y58008855D01*
X50000920Y57429403D01*
X50580373Y58008855D01*
X50538797Y58170588D01*
X50383036Y58261200D01*
X50212590Y58319683D01*
X50034010Y58343789D01*
X49854158Y58332594D01*
X49679947Y58286526D01*
X49518069Y58207356D01*
X49463043Y58170588D01*
X49421467Y58008855D01*
X46696478Y58008855D01*
X46580451Y58125693D01*
X46433347Y58224916D01*
X46269771Y58293677D01*
X46095955Y58329356D01*
X45918519Y58330595D01*
X45744222Y58297346D01*
X45579702Y58230876D01*
X45431226Y58133716D01*
X45304450Y58009568D01*
X45299378Y58002160D01*
X44761157Y58002160D01*
X44718519Y58038500D01*
X44621338Y58082306D01*
X44515800Y58097304D01*
X43215800Y58097304D01*
X43155764Y58092517D01*
X43053937Y58060983D01*
X42964926Y58002329D01*
X42895780Y57921199D01*
X42851974Y57824018D01*
X42836976Y57718480D01*
X40300892Y57718480D01*
X41931732Y59349320D01*
X46426120Y59349320D01*
X46693581Y59375545D01*
X46950854Y59453220D01*
X47034125Y59497496D01*
X47276120Y59497496D01*
X47336156Y59502283D01*
X47437983Y59533817D01*
X47526994Y59592471D01*
X47596140Y59673601D01*
X47639946Y59770782D01*
X47654944Y59876320D01*
X47654944Y60117656D01*
X47695526Y60192711D01*
X47774995Y60449436D01*
X47803086Y60716707D01*
X47778730Y60984344D01*
X47702852Y61242153D01*
X47654944Y61333793D01*
X47654944Y61576320D01*
X47650157Y61636356D01*
X47633990Y61688560D01*
X87696040Y61688560D01*
X87749083Y61693761D01*
X87802180Y61698407D01*
X87805091Y61699253D01*
X87808113Y61699549D01*
X87859163Y61714962D01*
X87910320Y61729824D01*
X87913013Y61731220D01*
X87915918Y61732097D01*
X87962989Y61757125D01*
X88010297Y61781647D01*
X88012667Y61783539D01*
X88015347Y61784964D01*
X88056645Y61818646D01*
X88098305Y61851903D01*
X88102532Y61856071D01*
X88102614Y61856138D01*
X88102676Y61856213D01*
X88104041Y61857559D01*
X88795160Y62548679D01*
X88795160Y47551385D01*
X82257854Y41014080D01*
X80144926Y41014080D01*
X80140099Y41018941D01*
X79954917Y41143847D01*
X79749001Y41230407D01*
X79530194Y41275321D01*
X79306830Y41276881D01*
X79087417Y41235025D01*
X78880313Y41151350D01*
X78693405Y41029041D01*
X78533814Y40872757D01*
X78407617Y40688452D01*
X78319623Y40483146D01*
X78273182Y40264657D01*
X78270063Y40041310D01*
X78310385Y39821610D01*
X78392613Y39613926D01*
X78513614Y39426170D01*
X78668780Y39265491D01*
X78852199Y39138011D01*
X79056887Y39048585D01*
X79275045Y39000620D01*
X79498366Y38995942D01*
X79718342Y39034730D01*
X79926594Y39115506D01*
X80115191Y39235193D01*
X80141325Y39260080D01*
X82621120Y39260080D01*
X82701720Y39267983D01*
X82782446Y39275045D01*
X82786876Y39276332D01*
X82791464Y39276782D01*
X82869007Y39300194D01*
X82946810Y39322798D01*
X82950903Y39324920D01*
X82955319Y39326253D01*
X83026860Y39364292D01*
X83098768Y39401566D01*
X83102371Y39404443D01*
X83106444Y39406608D01*
X83169218Y39457805D01*
X83232534Y39508349D01*
X83238954Y39514680D01*
X83239084Y39514786D01*
X83239183Y39514906D01*
X83241253Y39516947D01*
X90035425Y46311120D01*
X92181680Y46311120D01*
X92262280Y46319023D01*
X92343006Y46326085D01*
X92347436Y46327372D01*
X92352024Y46327822D01*
X92429567Y46351234D01*
X92507370Y46373838D01*
X92511463Y46375960D01*
X92515879Y46377293D01*
X92587420Y46415332D01*
X92659328Y46452606D01*
X92662931Y46455483D01*
X92667004Y46457648D01*
X92729778Y46508845D01*
X92793094Y46559389D01*
X92799514Y46565720D01*
X92799644Y46565826D01*
X92799743Y46565946D01*
X92801813Y46567987D01*
X94203893Y47970068D01*
X94255293Y48032643D01*
X94307385Y48094724D01*
X94309607Y48098765D01*
X94312534Y48102329D01*
X94350824Y48173739D01*
X94389842Y48244713D01*
X94391236Y48249107D01*
X94393416Y48253173D01*
X94417111Y48330676D01*
X94441595Y48407861D01*
X94442109Y48412442D01*
X94443458Y48416855D01*
X94451646Y48497463D01*
X94460675Y48577955D01*
X94460738Y48586967D01*
X94460755Y48587139D01*
X94460740Y48587299D01*
X94460760Y48590200D01*
X94460760Y64135619D01*
X94484634Y64151351D01*
X94553780Y64232481D01*
X94597586Y64329662D01*
X94612584Y64435200D01*
X94612584Y65135200D01*
X94607797Y65195236D01*
X94576263Y65297063D01*
X94517609Y65386074D01*
X94436479Y65455220D01*
X94339298Y65499026D01*
X94233760Y65514024D01*
X94070921Y65514024D01*
X93923611Y65593674D01*
X93760105Y65644287D01*
X93589883Y65662179D01*
X93419427Y65646666D01*
X93255230Y65598340D01*
X93103547Y65519042D01*
X93097306Y65514024D01*
X92933760Y65514024D01*
X92873724Y65509237D01*
X92771897Y65477703D01*
X92682886Y65419049D01*
X92613740Y65337919D01*
X92569934Y65240738D01*
X92554936Y65135200D01*
X92554936Y64435200D01*
X92559723Y64375164D01*
X92591257Y64273337D01*
X92649911Y64184326D01*
X92706760Y64135874D01*
X92706760Y48953465D01*
X91818414Y48065120D01*
X90549160Y48065120D01*
X90549160Y64166059D01*
X90573034Y64181791D01*
X90642180Y64262921D01*
X90685986Y64360102D01*
X90700984Y64465640D01*
X90700984Y65165640D01*
X90696197Y65225676D01*
X90664663Y65327503D01*
X90606009Y65416514D01*
X90524879Y65485660D01*
X90427698Y65529466D01*
X90322160Y65544464D01*
X90159321Y65544464D01*
X90012011Y65624114D01*
X89848505Y65674727D01*
X89678283Y65692619D01*
X89507827Y65677106D01*
X89343630Y65628780D01*
X89191947Y65549482D01*
X89185706Y65544464D01*
X89022160Y65544464D01*
X89016538Y65544016D01*
X89459338Y65986816D01*
X90322160Y65986816D01*
X90382196Y65991603D01*
X90484023Y66023137D01*
X90573034Y66081791D01*
X90642180Y66162921D01*
X90685986Y66260102D01*
X90700984Y66365640D01*
X90700984Y67065640D01*
X90696197Y67125676D01*
X90664663Y67227503D01*
X90606009Y67316514D01*
X90524879Y67385660D01*
X90427698Y67429466D01*
X90322160Y67444464D01*
X90249160Y67444464D01*
X90249160Y67465640D01*
X90243964Y67518637D01*
X90239314Y67571779D01*
X90238467Y67574694D01*
X90238171Y67577713D01*
X90222763Y67628747D01*
X90207896Y67679919D01*
X90206501Y67682611D01*
X90205623Y67685518D01*
X90180574Y67732628D01*
X90156073Y67779896D01*
X90154182Y67782264D01*
X90152756Y67784947D01*
X90119061Y67826261D01*
X90085818Y67867904D01*
X90081652Y67872128D01*
X90081582Y67872214D01*
X90081502Y67872280D01*
X90080161Y67873640D01*
X89040120Y68913682D01*
X89040120Y70816608D01*
X89567081Y70816608D01*
X89637070Y70435268D01*
X89779796Y70074785D01*
X89989821Y69748889D01*
X90259147Y69469994D01*
X90577515Y69248723D01*
X90932797Y69093503D01*
X91311463Y69010248D01*
X91699087Y69002129D01*
X92080907Y69069454D01*
X92442378Y69209659D01*
X92769732Y69417405D01*
X93050501Y69684777D01*
X93273989Y70001592D01*
X93431685Y70355782D01*
X93517581Y70733857D01*
X93523765Y71176695D01*
X93448458Y71557021D01*
X93300714Y71915476D01*
X93086158Y72238408D01*
X92812965Y72513515D01*
X92491539Y72730320D01*
X92134124Y72880564D01*
X91754333Y72958523D01*
X91366632Y72961230D01*
X90985790Y72888581D01*
X90626312Y72743342D01*
X90301890Y72531046D01*
X90024882Y72259780D01*
X89805839Y71939875D01*
X89653104Y71583518D01*
X89572494Y71204280D01*
X89567081Y70816608D01*
X89040120Y70816608D01*
X89040120Y74654645D01*
X89069763Y74539332D01*
X89225524Y74448720D01*
X89395970Y74390237D01*
X89574550Y74366131D01*
X89754402Y74377326D01*
X89928613Y74423394D01*
X90090491Y74502564D01*
X90145517Y74539332D01*
X90187093Y74701065D01*
X89607640Y75280517D01*
X89593498Y75266375D01*
X89589255Y75270618D01*
X89603397Y75284760D01*
X89611883Y75284760D01*
X90191335Y74705307D01*
X90353068Y74746883D01*
X90443680Y74902644D01*
X90502163Y75073090D01*
X90526269Y75251670D01*
X90515074Y75431522D01*
X90469006Y75605733D01*
X90389836Y75767611D01*
X90353068Y75822637D01*
X90191335Y75864213D01*
X89611883Y75284760D01*
X89603397Y75284760D01*
X89589255Y75298902D01*
X89593498Y75303145D01*
X89607640Y75289003D01*
X90187093Y75868455D01*
X90145517Y76030188D01*
X89989756Y76120800D01*
X89819310Y76179283D01*
X89742204Y76189691D01*
X89852136Y76209075D01*
X90017567Y76273242D01*
X90167385Y76368319D01*
X90295882Y76490685D01*
X90398165Y76635679D01*
X90470336Y76797779D01*
X90509648Y76970810D01*
X90512478Y77173480D01*
X90478013Y77347541D01*
X90410396Y77511593D01*
X90366647Y77577441D01*
X92835920Y77577441D01*
X92771600Y77466876D01*
X92713117Y77296430D01*
X92689011Y77117850D01*
X92700206Y76937998D01*
X92746274Y76763787D01*
X92825444Y76601909D01*
X92862212Y76546883D01*
X93023945Y76505307D01*
X93603397Y77084760D01*
X93589255Y77098902D01*
X93593498Y77103145D01*
X93607640Y77089003D01*
X93621782Y77103145D01*
X93626025Y77098902D01*
X93611883Y77084760D01*
X94191335Y76505307D01*
X94353068Y76546883D01*
X94443680Y76702644D01*
X94502163Y76873090D01*
X94526269Y77051670D01*
X94515074Y77231522D01*
X94469006Y77405733D01*
X94389836Y77567611D01*
X94383268Y77577441D01*
X94613916Y77577441D01*
X94613916Y74348066D01*
X94283289Y74678693D01*
X94295882Y74690685D01*
X94398165Y74835679D01*
X94470336Y74997779D01*
X94509648Y75170810D01*
X94512478Y75373480D01*
X94478013Y75547541D01*
X94410396Y75711593D01*
X94312202Y75859387D01*
X94187171Y75985293D01*
X94040067Y76084516D01*
X93876491Y76153277D01*
X93756557Y76177896D01*
X93928613Y76223394D01*
X94090491Y76302564D01*
X94145517Y76339332D01*
X94187093Y76501065D01*
X93607640Y77080517D01*
X93028187Y76501065D01*
X93069763Y76339332D01*
X93225524Y76248720D01*
X93395970Y76190237D01*
X93471800Y76180001D01*
X93350942Y76156946D01*
X93186422Y76090476D01*
X93037946Y75993316D01*
X92911170Y75869168D01*
X92810922Y75722759D01*
X92741021Y75559668D01*
X92704129Y75386105D01*
X92701652Y75208682D01*
X92733683Y75034157D01*
X92799003Y74869177D01*
X92895124Y74720027D01*
X93018384Y74592387D01*
X93030640Y74583869D01*
X93030640Y74538340D01*
X93035841Y74485297D01*
X93040487Y74432200D01*
X93041333Y74429289D01*
X93041629Y74426267D01*
X93057042Y74375217D01*
X93071904Y74324060D01*
X93073300Y74321367D01*
X93074177Y74318462D01*
X93099205Y74271391D01*
X93123727Y74224083D01*
X93125619Y74221713D01*
X93127044Y74219033D01*
X93160726Y74177735D01*
X93193983Y74136075D01*
X93198151Y74131848D01*
X93198218Y74131766D01*
X93198293Y74131704D01*
X93199639Y74130339D01*
X93931320Y73398658D01*
X93931320Y68598761D01*
X93175759Y67843201D01*
X93141904Y67801985D01*
X93107670Y67761186D01*
X93106210Y67758530D01*
X93104282Y67756183D01*
X93079066Y67709156D01*
X93053419Y67662504D01*
X93052503Y67659616D01*
X93051067Y67656938D01*
X93035461Y67605893D01*
X93019369Y67555165D01*
X93019031Y67552155D01*
X93018143Y67549249D01*
X93012757Y67496218D01*
X93006816Y67443256D01*
X93006775Y67437320D01*
X93006764Y67437214D01*
X93006773Y67437115D01*
X93006760Y67435200D01*
X93006760Y67414024D01*
X92933760Y67414024D01*
X92873724Y67409237D01*
X92771897Y67377703D01*
X92682886Y67319049D01*
X92613740Y67237919D01*
X92569934Y67140738D01*
X92554936Y67035200D01*
X92554936Y66335200D01*
X92559723Y66275164D01*
X92591257Y66173337D01*
X92649911Y66084326D01*
X92731041Y66015180D01*
X92828222Y65971374D01*
X92933760Y65956376D01*
X94233760Y65956376D01*
X94293796Y65961163D01*
X94395623Y65992697D01*
X94484634Y66051351D01*
X94553780Y66132481D01*
X94597586Y66229662D01*
X94612584Y66335200D01*
X94612584Y67035200D01*
X94607797Y67095236D01*
X94576263Y67197063D01*
X94517609Y67286074D01*
X94436479Y67355220D01*
X94356041Y67391479D01*
X94613916Y67649355D01*
X94613916Y63004441D01*
X94617833Y62964493D01*
X94621479Y62924429D01*
X94621902Y62922992D01*
X94622048Y62921503D01*
X94633644Y62883094D01*
X94645008Y62844484D01*
X94645703Y62843154D01*
X94646135Y62841724D01*
X94664987Y62806270D01*
X94683618Y62770632D01*
X94684556Y62769466D01*
X94685259Y62768143D01*
X94710680Y62736974D01*
X94735836Y62705685D01*
X94736981Y62704724D01*
X94737929Y62703562D01*
X94768918Y62677926D01*
X94799675Y62652118D01*
X94800987Y62651397D01*
X94802141Y62650442D01*
X94837510Y62631318D01*
X94872703Y62611970D01*
X94874129Y62611518D01*
X94875447Y62610805D01*
X94913877Y62598909D01*
X94952138Y62586772D01*
X94953624Y62586605D01*
X94955056Y62586162D01*
X94995103Y62581953D01*
X95034954Y62577483D01*
X95037823Y62577463D01*
X95037935Y62577451D01*
X95038047Y62577461D01*
X95040916Y62577441D01*
X95613916Y62577441D01*
X95613916Y40745417D01*
X95537492Y40860444D01*
X95380099Y41018941D01*
X95194917Y41143847D01*
X94989001Y41230407D01*
X94770194Y41275321D01*
X94546830Y41276881D01*
X94327417Y41235025D01*
X94120313Y41151350D01*
X93933405Y41029041D01*
X93773814Y40872757D01*
X93647617Y40688452D01*
X93559623Y40483146D01*
X93513182Y40264657D01*
X93510063Y40041310D01*
X93550385Y39821610D01*
X93632613Y39613926D01*
X93753614Y39426170D01*
X93908780Y39265491D01*
X94092199Y39138011D01*
X94296887Y39048585D01*
X94515045Y39000620D01*
X94738366Y38995942D01*
X94958342Y39034730D01*
X95166594Y39115506D01*
X95355191Y39235193D01*
X95516949Y39389233D01*
X95613916Y39526692D01*
X95613916Y31628072D01*
X95586378Y31669284D01*
X95400663Y31738940D01*
X94654803Y30993080D01*
X95400663Y30247220D01*
X95586378Y30316876D01*
X95613916Y30364141D01*
X95613916Y25931441D01*
X76793969Y25931441D01*
X76754021Y25927524D01*
X76713957Y25923878D01*
X76712520Y25923455D01*
X76711031Y25923309D01*
X76672622Y25911713D01*
X76634012Y25900349D01*
X76632682Y25899654D01*
X76631252Y25899222D01*
X76595798Y25880370D01*
X76560160Y25861739D01*
X76558994Y25860801D01*
X76557671Y25860098D01*
X76526502Y25834677D01*
X76495213Y25809521D01*
X76494252Y25808376D01*
X76493090Y25807428D01*
X76467454Y25776439D01*
X76451848Y25757840D01*
X74359190Y25757840D01*
X74262440Y25661090D01*
X74262440Y21507131D01*
X74256440Y21507131D01*
X74256440Y25661090D01*
X74159690Y25757840D01*
X71971324Y25757840D01*
X71896556Y25742968D01*
X71826127Y25713795D01*
X71762742Y25671442D01*
X71708837Y25617538D01*
X71666485Y25554153D01*
X71637312Y25483724D01*
X71622440Y25408956D01*
X71622440Y21507131D01*
X50317473Y21507131D01*
X50277565Y21503218D01*
X50237492Y21499574D01*
X50236039Y21499146D01*
X50234535Y21498999D01*
X50196163Y21487414D01*
X50157545Y21476051D01*
X50156200Y21475348D01*
X50154756Y21474912D01*
X50119328Y21456075D01*
X50083690Y21437446D01*
X50082512Y21436499D01*
X50081175Y21435788D01*
X50050036Y21410392D01*
X50018739Y21385233D01*
X50017767Y21384074D01*
X50016594Y21383118D01*
X49990977Y21352152D01*
X49965168Y21321398D01*
X49964439Y21320073D01*
X49963474Y21318906D01*
X49944365Y21283566D01*
X49925014Y21248373D01*
X49924556Y21246930D01*
X49923837Y21245600D01*
X49911967Y21207253D01*
X49899810Y21168940D01*
X49899641Y21167435D01*
X49899194Y21165991D01*
X49894994Y21126027D01*
X49890515Y21086124D01*
X49890495Y21083222D01*
X49890483Y21083112D01*
X49890493Y21083002D01*
X49890473Y21080162D01*
X49890400Y20081271D01*
X49898526Y19998333D01*
X49922607Y19918552D01*
X49961726Y19844968D01*
X50014391Y19780383D01*
X50078599Y19727258D01*
X50151902Y19687616D01*
X50231509Y19662967D01*
X50314388Y19654250D01*
X50343431Y19656891D01*
X68844512Y19656891D01*
X68708599Y19458395D01*
X68555864Y19102038D01*
X68475254Y18722800D01*
X68469841Y18335128D01*
X68539830Y17953788D01*
X68682556Y17593305D01*
X68892581Y17267409D01*
X69161907Y16988514D01*
X69480275Y16767243D01*
X69835557Y16612023D01*
X70214223Y16528768D01*
X70601847Y16520649D01*
X70983667Y16587974D01*
X71345138Y16728179D01*
X71622440Y16904161D01*
X71622440Y15332724D01*
X71637312Y15257956D01*
X71666485Y15187527D01*
X71708837Y15124142D01*
X71762742Y15070238D01*
X71826127Y15027885D01*
X71896556Y14998712D01*
X71971324Y14983840D01*
X74159690Y14983840D01*
X74256440Y15080590D01*
X74256440Y19656891D01*
X74262440Y19656891D01*
X74262440Y15080590D01*
X74359190Y14983840D01*
X76366969Y14983840D01*
X76366969Y110891D01*
X71664371Y110891D01*
X71672492Y116045D01*
X71953261Y383417D01*
X72176749Y700232D01*
X72334445Y1054422D01*
X72420341Y1432497D01*
X72426525Y1875335D01*
X72351218Y2255661D01*
X72203474Y2614116D01*
X71988918Y2937048D01*
X71715725Y3212155D01*
X71394299Y3428960D01*
X71036884Y3579204D01*
X70657093Y3657163D01*
X70269392Y3659870D01*
X69888550Y3587221D01*
X69529072Y3441982D01*
X69204650Y3229686D01*
X68927642Y2958420D01*
X68708599Y2638515D01*
X68555864Y2282158D01*
X68475254Y1902920D01*
X68469841Y1515248D01*
X68539830Y1133908D01*
X68682556Y773425D01*
X68892581Y447529D01*
X69161907Y168634D01*
X69244988Y110891D01*
X56576771Y110891D01*
X56584892Y116045D01*
X56865661Y383417D01*
X57089149Y700232D01*
X57246845Y1054422D01*
X57332741Y1432497D01*
X57338925Y1875335D01*
X57263618Y2255661D01*
X57115874Y2614116D01*
X56901318Y2937048D01*
X56628125Y3212155D01*
X56306699Y3428960D01*
X55949284Y3579204D01*
X55569493Y3657163D01*
X55181792Y3659870D01*
X54800950Y3587221D01*
X54441472Y3441982D01*
X54117050Y3229686D01*
X53840042Y2958420D01*
X53620999Y2638515D01*
X53468264Y2282158D01*
X53387654Y1902920D01*
X53382241Y1515248D01*
X53452230Y1133908D01*
X53594956Y773425D01*
X53804981Y447529D01*
X54074307Y168634D01*
X54157388Y110891D01*
X41481166Y110891D01*
X41497292Y121125D01*
X41778061Y388497D01*
X42001549Y705312D01*
X42159245Y1059502D01*
X42245141Y1437577D01*
X42251325Y1880415D01*
X42176018Y2260741D01*
X42028274Y2619196D01*
X41813718Y2942128D01*
X41540525Y3217235D01*
X41219099Y3434040D01*
X40861684Y3584284D01*
X40481893Y3662243D01*
X40094192Y3664950D01*
X39713350Y3592301D01*
X39353872Y3447062D01*
X39029450Y3234766D01*
X38752442Y2963500D01*
X38533399Y2643595D01*
X38380664Y2287238D01*
X38300054Y1908000D01*
X38294641Y1520328D01*
X38364630Y1138988D01*
X38507356Y778505D01*
X38717381Y452609D01*
X38986707Y173714D01*
X39077098Y110891D01*
X26393566Y110891D01*
X26409692Y121125D01*
X26690461Y388497D01*
X26913949Y705312D01*
X27071645Y1059502D01*
X27157541Y1437577D01*
X27163725Y1880415D01*
X27088418Y2260741D01*
X26940674Y2619196D01*
X26726118Y2942128D01*
X26452925Y3217235D01*
X26131499Y3434040D01*
X25774084Y3584284D01*
X25394293Y3662243D01*
X25006592Y3664950D01*
X24625750Y3592301D01*
X24266272Y3447062D01*
X23941850Y3234766D01*
X23664842Y2963500D01*
X23445799Y2643595D01*
X23293064Y2287238D01*
X23212454Y1908000D01*
X23207041Y1520328D01*
X23277030Y1138988D01*
X23419756Y778505D01*
X23629781Y452609D01*
X23899107Y173714D01*
X23989498Y110891D01*
X19267977Y110891D01*
X19267977Y14978760D01*
X21266730Y14978760D01*
X21363480Y15075510D01*
X21363480Y19656891D01*
X21369480Y19656891D01*
X21369480Y15075510D01*
X21466230Y14978760D01*
X23654596Y14978760D01*
X23729364Y14993632D01*
X23799793Y15022805D01*
X23863178Y15065158D01*
X23917083Y15119062D01*
X23959435Y15182447D01*
X23988608Y15252876D01*
X24003480Y15327644D01*
X24003480Y16914424D01*
X24222555Y16762163D01*
X24577837Y16606943D01*
X24956503Y16523688D01*
X25344127Y16515569D01*
X25725947Y16582894D01*
X26087418Y16723099D01*
X26414772Y16930845D01*
X26695541Y17198217D01*
X26919029Y17515032D01*
X27076725Y17869222D01*
X27162621Y18247297D01*
X27168805Y18690135D01*
X27093498Y19070461D01*
X26945754Y19428916D01*
X26794287Y19656891D01*
X45317473Y19656891D01*
X45400411Y19665023D01*
X45480190Y19689110D01*
X45553771Y19728234D01*
X45618352Y19780904D01*
X45671472Y19845116D01*
X45711109Y19918422D01*
X45735752Y19998031D01*
X45744463Y20080910D01*
X45740742Y20121799D01*
X45744470Y21078467D01*
X45740633Y21119233D01*
X45736910Y21160143D01*
X45736723Y21160779D01*
X45736661Y21161436D01*
X45724999Y21200614D01*
X45713381Y21240088D01*
X45713073Y21240677D01*
X45712885Y21241309D01*
X45693771Y21277598D01*
X45674771Y21313940D01*
X45674358Y21314454D01*
X45674048Y21315042D01*
X45648173Y21347021D01*
X45622553Y21378887D01*
X45622047Y21379312D01*
X45621630Y21379827D01*
X45590050Y21406160D01*
X45558714Y21432454D01*
X45558136Y21432772D01*
X45557626Y21433197D01*
X45521413Y21452961D01*
X45485686Y21472602D01*
X45485061Y21472800D01*
X45484475Y21473120D01*
X45445019Y21485502D01*
X45406251Y21497800D01*
X45405599Y21497873D01*
X45404962Y21498073D01*
X45363749Y21502567D01*
X45323435Y21507089D01*
X45322204Y21507098D01*
X45322118Y21507107D01*
X45322025Y21507099D01*
X45317473Y21507131D01*
X24003480Y21507131D01*
X24003480Y25403876D01*
X23988608Y25478644D01*
X23974308Y25513168D01*
X31335041Y25513168D01*
X31405030Y25131828D01*
X31547756Y24771345D01*
X31757781Y24445449D01*
X32027107Y24166554D01*
X32345475Y23945283D01*
X32700757Y23790063D01*
X33079423Y23706808D01*
X33467047Y23698689D01*
X33848867Y23766014D01*
X34210338Y23906219D01*
X34537692Y24113965D01*
X34818461Y24381337D01*
X35041949Y24698152D01*
X35199645Y25052342D01*
X35285541Y25430417D01*
X35291725Y25873255D01*
X35216418Y26253581D01*
X35068674Y26612036D01*
X34854118Y26934968D01*
X34580925Y27210075D01*
X34259499Y27426880D01*
X33902084Y27577124D01*
X33522293Y27655083D01*
X33134592Y27657790D01*
X32753750Y27585141D01*
X32394272Y27439902D01*
X32069850Y27227606D01*
X31792842Y26956340D01*
X31573799Y26636435D01*
X31421064Y26280078D01*
X31340454Y25900840D01*
X31335041Y25513168D01*
X23974308Y25513168D01*
X23959435Y25549073D01*
X23917083Y25612458D01*
X23863178Y25666362D01*
X23799793Y25708715D01*
X23729364Y25737888D01*
X23654596Y25752760D01*
X21466230Y25752760D01*
X21369480Y25656010D01*
X21369480Y21507131D01*
X21363480Y21507131D01*
X21363480Y25656010D01*
X21266730Y25752760D01*
X19186830Y25752760D01*
X19171213Y25771908D01*
X19146057Y25803197D01*
X19144912Y25804158D01*
X19143964Y25805320D01*
X19112975Y25830956D01*
X19082218Y25856764D01*
X19080906Y25857485D01*
X19079752Y25858440D01*
X19044383Y25877564D01*
X19009190Y25896912D01*
X19007764Y25897364D01*
X19006446Y25898077D01*
X18968016Y25909973D01*
X18929755Y25922110D01*
X18928269Y25922277D01*
X18926837Y25922720D01*
X18886790Y25926929D01*
X18846939Y25931399D01*
X18844070Y25931419D01*
X18843958Y25931431D01*
X18843846Y25931421D01*
X18840977Y25931441D01*
X467916Y25931441D01*
X467916Y27844888D01*
X575641Y27844888D01*
X645630Y27463548D01*
X788356Y27103065D01*
X998381Y26777169D01*
X1267707Y26498274D01*
X1586075Y26277003D01*
X1941357Y26121783D01*
X2320023Y26038528D01*
X2707647Y26030409D01*
X3089467Y26097734D01*
X3450938Y26237939D01*
X3778292Y26445685D01*
X4059061Y26713057D01*
X4282549Y27029872D01*
X4440245Y27384062D01*
X4526141Y27762137D01*
X4532325Y28204975D01*
X4457018Y28585301D01*
X4309274Y28943756D01*
X4094718Y29266688D01*
X3821525Y29541795D01*
X3500099Y29758600D01*
X3142684Y29908844D01*
X2762893Y29986803D01*
X2375192Y29989510D01*
X1994350Y29916861D01*
X1634872Y29771622D01*
X1310450Y29559326D01*
X1033442Y29288060D01*
X814399Y28968155D01*
X661664Y28611798D01*
X581054Y28232560D01*
X575641Y27844888D01*
X467916Y27844888D01*
X467916Y32516606D01*
X15325590Y32516606D01*
X15349557Y32386021D01*
X15398431Y32262577D01*
X15470352Y32150978D01*
X15562580Y32055474D01*
X15671601Y31979702D01*
X15793263Y31926549D01*
X15922933Y31898039D01*
X16055670Y31895259D01*
X16186420Y31918314D01*
X16219600Y31931183D01*
X16218190Y31830236D01*
X16242157Y31699651D01*
X16291031Y31576207D01*
X16362952Y31464608D01*
X16455180Y31369104D01*
X16564201Y31293332D01*
X16685863Y31240179D01*
X16752161Y31225602D01*
X16773294Y31207870D01*
X16775950Y31206410D01*
X16778297Y31204482D01*
X16825289Y31179285D01*
X16871976Y31153619D01*
X16874869Y31152701D01*
X16877542Y31151268D01*
X16928541Y31135675D01*
X16979315Y31119569D01*
X16982326Y31119231D01*
X16985231Y31118343D01*
X17038262Y31112957D01*
X17091224Y31107016D01*
X17097160Y31106975D01*
X17097266Y31106964D01*
X17097365Y31106973D01*
X17099280Y31106960D01*
X18904895Y31106960D01*
X19045775Y30966080D01*
X19086935Y30932271D01*
X19127790Y30897990D01*
X19130450Y30896528D01*
X19132793Y30894603D01*
X19179747Y30869427D01*
X19226472Y30843739D01*
X19229365Y30842821D01*
X19232038Y30841388D01*
X19282996Y30825808D01*
X19333811Y30809689D01*
X19336827Y30809351D01*
X19339727Y30808464D01*
X19392708Y30803082D01*
X19445720Y30797136D01*
X19451656Y30797095D01*
X19451762Y30797084D01*
X19451861Y30797093D01*
X19453776Y30797080D01*
X19521949Y30797080D01*
X19546161Y30780252D01*
X19667823Y30727099D01*
X19797493Y30698589D01*
X19930230Y30695809D01*
X20060980Y30718864D01*
X20184761Y30766875D01*
X20296860Y30838015D01*
X20393006Y30929574D01*
X20469537Y31038063D01*
X20523538Y31159352D01*
X20552952Y31288819D01*
X20555069Y31440463D01*
X20529281Y31570701D01*
X20520945Y31590926D01*
X37405573Y31590926D01*
X37427277Y31352443D01*
X37494888Y31122718D01*
X37605833Y30910500D01*
X37755885Y30723873D01*
X37939328Y30569946D01*
X38149176Y30454581D01*
X38377435Y30382173D01*
X38615411Y30355480D01*
X38632543Y30355360D01*
X38644417Y30355360D01*
X38882743Y30378728D01*
X39111990Y30447942D01*
X39323428Y30560366D01*
X39509003Y30711717D01*
X39661646Y30896230D01*
X39775543Y31106878D01*
X39846356Y31335637D01*
X39871387Y31573794D01*
X39849683Y31812277D01*
X39782072Y32042002D01*
X39671127Y32254220D01*
X39521075Y32440847D01*
X39337632Y32594774D01*
X39127784Y32710139D01*
X38899525Y32782547D01*
X38661549Y32809240D01*
X38644417Y32809360D01*
X38632543Y32809360D01*
X38394217Y32785992D01*
X38164970Y32716778D01*
X37953532Y32604354D01*
X37767957Y32453003D01*
X37615314Y32268490D01*
X37501417Y32057842D01*
X37430604Y31829083D01*
X37405573Y31590926D01*
X20520945Y31590926D01*
X20491245Y31662984D01*
X20585550Y31661009D01*
X20716300Y31684064D01*
X20840081Y31732075D01*
X20952180Y31803215D01*
X21048326Y31894774D01*
X21124857Y32003263D01*
X21178858Y32124552D01*
X21208272Y32254019D01*
X21210389Y32405663D01*
X21184601Y32535901D01*
X21134008Y32658650D01*
X21060536Y32769234D01*
X20966984Y32863442D01*
X20856916Y32937684D01*
X20734523Y32989133D01*
X20690465Y32998177D01*
X20641362Y33047280D01*
X20600146Y33081135D01*
X20559347Y33115369D01*
X20556691Y33116829D01*
X20554344Y33118757D01*
X20507317Y33143973D01*
X20460665Y33169620D01*
X20457777Y33170536D01*
X20455099Y33171972D01*
X20404054Y33187578D01*
X20353326Y33203670D01*
X20350316Y33204008D01*
X20347410Y33204896D01*
X20294379Y33210282D01*
X20241417Y33216223D01*
X20235481Y33216264D01*
X20235375Y33216275D01*
X20235276Y33216266D01*
X20233361Y33216279D01*
X17882447Y33216279D01*
X17884105Y33217331D01*
X33783851Y33217331D01*
X33836894Y33222532D01*
X33889991Y33227178D01*
X33892902Y33228024D01*
X33895924Y33228320D01*
X33946974Y33243733D01*
X33998131Y33258595D01*
X34000824Y33259991D01*
X34003729Y33260868D01*
X34050800Y33285896D01*
X34098108Y33310418D01*
X34100478Y33312310D01*
X34103158Y33313735D01*
X34144456Y33347417D01*
X34186116Y33380674D01*
X34190343Y33384842D01*
X34190425Y33384909D01*
X34190487Y33384984D01*
X34191852Y33386330D01*
X35267419Y34461897D01*
X35332133Y34447669D01*
X35464870Y34444889D01*
X35595620Y34467944D01*
X35719401Y34515955D01*
X35831500Y34587095D01*
X35927646Y34678654D01*
X36004177Y34787143D01*
X36058178Y34908432D01*
X36072701Y34972360D01*
X37409656Y34972360D01*
X37409656Y33272360D01*
X37414443Y33212324D01*
X37445977Y33110497D01*
X37504631Y33021486D01*
X37585761Y32952340D01*
X37682942Y32908534D01*
X37788480Y32893536D01*
X39488480Y32893536D01*
X39548516Y32898323D01*
X39650343Y32929857D01*
X39739354Y32988511D01*
X39808500Y33069641D01*
X39852306Y33166822D01*
X39867304Y33272360D01*
X39867304Y34972360D01*
X39862517Y35032396D01*
X39830983Y35134223D01*
X39772329Y35223234D01*
X39691199Y35292380D01*
X39594018Y35336186D01*
X39488480Y35351184D01*
X37788480Y35351184D01*
X37728444Y35346397D01*
X37626617Y35314863D01*
X37537606Y35256209D01*
X37468460Y35175079D01*
X37424654Y35077898D01*
X37409656Y34972360D01*
X36072701Y34972360D01*
X36087592Y35037899D01*
X36089709Y35189543D01*
X36063921Y35319781D01*
X36013328Y35442530D01*
X35939856Y35553114D01*
X35846304Y35647322D01*
X35736236Y35721564D01*
X35613843Y35773013D01*
X35483788Y35799709D01*
X35351025Y35800636D01*
X35220610Y35775758D01*
X35097511Y35726023D01*
X35048559Y35693990D01*
X35006540Y35690313D01*
X35003629Y35689467D01*
X35000607Y35689171D01*
X34949557Y35673758D01*
X34898400Y35658896D01*
X34895707Y35657500D01*
X34892802Y35656623D01*
X34870985Y35645023D01*
X38403363Y39177401D01*
X38430260Y39182144D01*
X38554041Y39230155D01*
X38666140Y39301295D01*
X38762286Y39392854D01*
X38838817Y39501343D01*
X38892818Y39622632D01*
X38922232Y39752099D01*
X38924349Y39903743D01*
X38898561Y40033981D01*
X38847968Y40156730D01*
X38774496Y40267314D01*
X38680944Y40361522D01*
X38570876Y40435764D01*
X38448483Y40487213D01*
X38318428Y40513909D01*
X38185665Y40514836D01*
X38055250Y40489958D01*
X37932151Y40440223D01*
X37821056Y40367525D01*
X37726198Y40274633D01*
X37651190Y40165085D01*
X37598887Y40043055D01*
X37588596Y39994638D01*
X33312325Y35718367D01*
X33213028Y35738749D01*
X33080265Y35739676D01*
X32949850Y35714798D01*
X32826751Y35665063D01*
X32787228Y35639200D01*
X30773138Y35639200D01*
X34825687Y39691750D01*
X34857023Y39678059D01*
X34986693Y39649549D01*
X35119430Y39646769D01*
X35250180Y39669824D01*
X35373961Y39717835D01*
X35486060Y39788975D01*
X35582206Y39880534D01*
X35658737Y39989023D01*
X35712738Y40110312D01*
X35742152Y40239779D01*
X35744269Y40391423D01*
X35718481Y40521661D01*
X35667888Y40644410D01*
X35594416Y40754994D01*
X35500864Y40849202D01*
X35390796Y40923444D01*
X35268403Y40974893D01*
X35138348Y41001589D01*
X35005585Y41002516D01*
X34875170Y40977638D01*
X34752071Y40927903D01*
X34712548Y40902040D01*
X34642976Y40902040D01*
X34589979Y40896844D01*
X34536837Y40892194D01*
X34533922Y40891347D01*
X34530903Y40891051D01*
X34479869Y40875643D01*
X34428697Y40860776D01*
X34426005Y40859381D01*
X34423098Y40858503D01*
X34375988Y40833454D01*
X34328720Y40808953D01*
X34326352Y40807062D01*
X34323669Y40805636D01*
X34282355Y40771941D01*
X34240712Y40738698D01*
X34236488Y40734532D01*
X34236402Y40734462D01*
X34236336Y40734382D01*
X34234976Y40733041D01*
X29801494Y36299560D01*
X19471299Y36299560D01*
X19453144Y36317842D01*
X19343076Y36392084D01*
X19220683Y36443533D01*
X19090628Y36470229D01*
X18957865Y36471156D01*
X18827450Y36446278D01*
X18704351Y36396543D01*
X18593256Y36323845D01*
X18498398Y36230953D01*
X18423390Y36121405D01*
X18371087Y35999375D01*
X18343484Y35869510D01*
X18341630Y35736756D01*
X18359535Y35639200D01*
X17387256Y35639200D01*
X17334213Y35633999D01*
X17281116Y35629353D01*
X17278205Y35628507D01*
X17275183Y35628211D01*
X17224133Y35612798D01*
X17172976Y35597936D01*
X17170283Y35596540D01*
X17167378Y35595663D01*
X17120307Y35570635D01*
X17072999Y35546113D01*
X17070629Y35544221D01*
X17067949Y35542796D01*
X17026651Y35509114D01*
X16984991Y35475857D01*
X16980768Y35471692D01*
X16980682Y35471622D01*
X16980616Y35471542D01*
X16979255Y35470200D01*
X16633073Y35124019D01*
X16633068Y35124013D01*
X16584429Y35075375D01*
X16549005Y35068617D01*
X16425906Y35018882D01*
X16314811Y34946184D01*
X16219953Y34853292D01*
X16144945Y34743744D01*
X16092642Y34621714D01*
X16065039Y34491849D01*
X16063185Y34359095D01*
X16087152Y34228510D01*
X16136026Y34105066D01*
X16207947Y33993467D01*
X16300175Y33897963D01*
X16409196Y33822191D01*
X16530858Y33769038D01*
X16660528Y33740528D01*
X16793265Y33737748D01*
X16852048Y33748113D01*
X16851898Y33737407D01*
X16875865Y33606822D01*
X16924739Y33483378D01*
X16996660Y33371779D01*
X17088888Y33276275D01*
X17175210Y33216279D01*
X16221543Y33216279D01*
X16204643Y33223383D01*
X16074588Y33250079D01*
X15941825Y33251006D01*
X15811410Y33226128D01*
X15688311Y33176393D01*
X15577216Y33103695D01*
X15482358Y33010803D01*
X15407350Y32901255D01*
X15355047Y32779225D01*
X15327444Y32649360D01*
X15325590Y32516606D01*
X467916Y32516606D01*
X467916Y41591810D01*
X988040Y41591810D01*
X988040Y40803444D01*
X1002912Y40728676D01*
X1032085Y40658247D01*
X1074438Y40594862D01*
X1128342Y40540957D01*
X1191727Y40498605D01*
X1262156Y40469432D01*
X1336924Y40454560D01*
X2125290Y40454560D01*
X2222040Y40551310D01*
X2222040Y41688560D01*
X2228040Y41688560D01*
X2228040Y40551310D01*
X2324790Y40454560D01*
X3113156Y40454560D01*
X3187924Y40469432D01*
X3258353Y40498605D01*
X3321738Y40540957D01*
X3375642Y40594862D01*
X3417995Y40658247D01*
X3447168Y40728676D01*
X3462040Y40803444D01*
X3462040Y41591810D01*
X3365290Y41688560D01*
X2228040Y41688560D01*
X2222040Y41688560D01*
X1084790Y41688560D01*
X988040Y41591810D01*
X467916Y41591810D01*
X467916Y42579676D01*
X988040Y42579676D01*
X988040Y41791310D01*
X1084790Y41694560D01*
X2222040Y41694560D01*
X2222040Y42831810D01*
X2228040Y42831810D01*
X2228040Y41694560D01*
X3365290Y41694560D01*
X3462040Y41791310D01*
X3462040Y42579676D01*
X3447168Y42654444D01*
X3417995Y42724873D01*
X3375642Y42788258D01*
X3321738Y42842163D01*
X3258353Y42884515D01*
X3187924Y42913688D01*
X3113156Y42928560D01*
X2324790Y42928560D01*
X2228040Y42831810D01*
X2222040Y42831810D01*
X2125290Y42928560D01*
X1336924Y42928560D01*
X1262156Y42913688D01*
X1191727Y42884515D01*
X1128342Y42842163D01*
X1074438Y42788258D01*
X1032085Y42724873D01*
X1002912Y42654444D01*
X988040Y42579676D01*
X467916Y42579676D01*
X467916Y62577441D01*
X1040916Y62577441D01*
X1080864Y62581358D01*
X1120928Y62585004D01*
X1122365Y62585427D01*
X1123854Y62585573D01*
X1162263Y62597169D01*
X1200873Y62608533D01*
X1202203Y62609228D01*
X1203633Y62609660D01*
X1239087Y62628512D01*
X1274725Y62647143D01*
X1275891Y62648081D01*
X1277214Y62648784D01*
X1308383Y62674205D01*
X1339672Y62699361D01*
X1340633Y62700506D01*
X1341795Y62701454D01*
X1367431Y62732443D01*
X1393239Y62763200D01*
X1393960Y62764512D01*
X1394915Y62765666D01*
X1414039Y62801035D01*
X1433387Y62836228D01*
X1433839Y62837654D01*
X1434552Y62838972D01*
X1446448Y62877402D01*
X1458585Y62915663D01*
X1458752Y62917149D01*
X1459195Y62918581D01*
X1463404Y62958628D01*
X1467874Y62998479D01*
X1467894Y63001348D01*
X1467906Y63001460D01*
X1467896Y63001572D01*
X1467916Y63004441D01*
X1467916Y63100762D01*
X2542414Y62026264D01*
X1395360Y62026264D01*
X1335324Y62021477D01*
X1233497Y61989943D01*
X1144486Y61931289D01*
X1075340Y61850159D01*
X1031534Y61752978D01*
X1016536Y61647440D01*
X1016536Y59947440D01*
X1021323Y59887404D01*
X1052857Y59785577D01*
X1111511Y59696566D01*
X1192641Y59627420D01*
X1289822Y59583614D01*
X1395360Y59568616D01*
X3095360Y59568616D01*
X3155396Y59573403D01*
X3257223Y59604937D01*
X3346234Y59663591D01*
X3415380Y59744721D01*
X3459186Y59841902D01*
X3474184Y59947440D01*
X3474184Y61094495D01*
X5005069Y59563610D01*
X5005069Y41651771D01*
X5010270Y41598728D01*
X5014916Y41545631D01*
X5015762Y41542720D01*
X5016058Y41539698D01*
X5031471Y41488648D01*
X5046333Y41437491D01*
X5047729Y41434798D01*
X5048606Y41431893D01*
X5073634Y41384822D01*
X5098156Y41337514D01*
X5100048Y41335144D01*
X5101473Y41332464D01*
X5135155Y41291166D01*
X5168412Y41249506D01*
X5172580Y41245279D01*
X5172647Y41245197D01*
X5172722Y41245135D01*
X5174068Y41243770D01*
X11443289Y34974550D01*
X11443360Y34974478D01*
X11491720Y34926118D01*
X11497437Y34894971D01*
X11546311Y34771527D01*
X11618232Y34659928D01*
X11710460Y34564424D01*
X11819481Y34488652D01*
X11941143Y34435499D01*
X12070813Y34406989D01*
X12203550Y34404209D01*
X12334300Y34427264D01*
X12458081Y34475275D01*
X12570180Y34546415D01*
X12666326Y34637974D01*
X12742857Y34746463D01*
X12796858Y34867752D01*
X12826272Y34997219D01*
X12828389Y35148863D01*
X12802601Y35279101D01*
X12752008Y35401850D01*
X12678536Y35512434D01*
X12584984Y35606642D01*
X12474916Y35680884D01*
X12352523Y35732333D01*
X12308465Y35741377D01*
X12259362Y35790480D01*
X12259356Y35790485D01*
X10394400Y37655441D01*
X10542166Y37699492D01*
X10693571Y37779319D01*
X10826588Y37887033D01*
X10936149Y38018533D01*
X11018082Y38168809D01*
X11069266Y38332137D01*
X11087752Y38502296D01*
X11072834Y38672806D01*
X11025082Y38837170D01*
X10946314Y38989128D01*
X10839531Y39122894D01*
X10830932Y39131613D01*
X7359080Y42603466D01*
X7359080Y64318499D01*
X7382954Y64334231D01*
X7452100Y64415361D01*
X7495906Y64512542D01*
X7510904Y64618080D01*
X7510904Y65318080D01*
X7506117Y65378116D01*
X7474583Y65479943D01*
X7415929Y65568954D01*
X7334799Y65638100D01*
X7237618Y65681906D01*
X7132080Y65696904D01*
X6983144Y65696904D01*
X6978653Y65700594D01*
X6916596Y65752665D01*
X6912555Y65754887D01*
X6908991Y65757814D01*
X6837581Y65796104D01*
X6766607Y65835122D01*
X6762213Y65836516D01*
X6758147Y65838696D01*
X6680631Y65862395D01*
X6603459Y65886875D01*
X6598879Y65887389D01*
X6594466Y65888738D01*
X6513848Y65896927D01*
X6433365Y65905955D01*
X6424354Y65906018D01*
X6424182Y65906035D01*
X6424022Y65906020D01*
X6421120Y65906040D01*
X2743200Y65906040D01*
X2572856Y65889338D01*
X2409001Y65839867D01*
X2270200Y65766065D01*
X2270200Y65940038D01*
X2530377Y66200216D01*
X3393200Y66200216D01*
X3453236Y66205003D01*
X3555063Y66236537D01*
X3644074Y66295191D01*
X3713220Y66376321D01*
X3757026Y66473502D01*
X3772024Y66579040D01*
X3772024Y67279040D01*
X3767237Y67339076D01*
X3735703Y67440903D01*
X3677049Y67529914D01*
X3595919Y67599060D01*
X3498738Y67642866D01*
X3393200Y67657864D01*
X3320200Y67657864D01*
X3320200Y67679040D01*
X3314995Y67732129D01*
X3310353Y67785180D01*
X3309507Y67788091D01*
X3309211Y67791113D01*
X3293798Y67842163D01*
X3278936Y67893320D01*
X3277540Y67896013D01*
X3276663Y67898918D01*
X3251614Y67946028D01*
X3227112Y67993297D01*
X3225223Y67995664D01*
X3223796Y67998347D01*
X3190091Y68039672D01*
X3156857Y68081305D01*
X3152692Y68085528D01*
X3152622Y68085614D01*
X3152542Y68085680D01*
X3151200Y68087041D01*
X2129760Y69108482D01*
X2129760Y70801368D01*
X2567001Y70801368D01*
X2636990Y70420028D01*
X2779716Y70059545D01*
X2989741Y69733649D01*
X3259067Y69454754D01*
X3577435Y69233483D01*
X3932717Y69078263D01*
X4311383Y68995008D01*
X4699007Y68986889D01*
X5080827Y69054214D01*
X5442298Y69194419D01*
X5769652Y69402165D01*
X6050421Y69669537D01*
X6273909Y69986352D01*
X6431605Y70340542D01*
X6517501Y70718617D01*
X6523685Y71161455D01*
X6448378Y71541781D01*
X6300634Y71900236D01*
X6086078Y72223168D01*
X5812885Y72498275D01*
X5491459Y72715080D01*
X5134044Y72865324D01*
X4754253Y72943283D01*
X4366552Y72945990D01*
X3985710Y72873341D01*
X3626232Y72728102D01*
X3301810Y72515806D01*
X3024802Y72244540D01*
X2805759Y71924635D01*
X2653024Y71568278D01*
X2572414Y71189040D01*
X2567001Y70801368D01*
X2129760Y70801368D01*
X2129760Y74437975D01*
X2268890Y74390237D01*
X2447470Y74366131D01*
X2627322Y74377326D01*
X2801533Y74423394D01*
X2963411Y74502564D01*
X3018437Y74539332D01*
X3060013Y74701065D01*
X2480560Y75280517D01*
X2466418Y75266375D01*
X2462175Y75270618D01*
X2476317Y75284760D01*
X2484803Y75284760D01*
X3064255Y74705307D01*
X3225988Y74746883D01*
X3316600Y74902644D01*
X3375083Y75073090D01*
X3399189Y75251670D01*
X3387994Y75431522D01*
X3341926Y75605733D01*
X3262756Y75767611D01*
X3225988Y75822637D01*
X3064255Y75864213D01*
X2484803Y75284760D01*
X2476317Y75284760D01*
X2462175Y75298902D01*
X2466418Y75303145D01*
X2480560Y75289003D01*
X3060013Y75868455D01*
X3018437Y76030188D01*
X2862676Y76120800D01*
X2692230Y76179283D01*
X2615124Y76189691D01*
X2725056Y76209075D01*
X2890487Y76273242D01*
X3040305Y76368319D01*
X3168802Y76490685D01*
X3271085Y76635679D01*
X3343256Y76797779D01*
X3382568Y76970810D01*
X3385398Y77173480D01*
X3350933Y77347541D01*
X3283316Y77511593D01*
X3239567Y77577441D01*
X5708840Y77577441D01*
X5644520Y77466876D01*
X5644520Y77466876D01*
G37*
X5644520Y77466876D02*
X5586037Y77296430D01*
X5561931Y77117850D01*
X5573126Y76937998D01*
X5619194Y76763787D01*
X5698364Y76601909D01*
X5735132Y76546883D01*
X5896865Y76505307D01*
X6476317Y77084760D01*
X6462175Y77098902D01*
X6466418Y77103145D01*
X6480560Y77089003D01*
X6494702Y77103145D01*
X6498945Y77098902D01*
X6484803Y77084760D01*
X7064255Y76505307D01*
X7225988Y76546883D01*
X7316600Y76702644D01*
X7375083Y76873090D01*
X7399189Y77051670D01*
X7387994Y77231522D01*
X7341926Y77405733D01*
X7262756Y77567611D01*
X7256188Y77577441D01*
X7613916Y77577441D01*
X7613916Y74220985D01*
X7156209Y74678693D01*
X7168802Y74690685D01*
X7271085Y74835679D01*
X7343256Y74997779D01*
X7382568Y75170810D01*
X7385398Y75373480D01*
X7350933Y75547541D01*
X7283316Y75711593D01*
X7185122Y75859387D01*
X7060091Y75985293D01*
X6912987Y76084516D01*
X6749411Y76153277D01*
X6629477Y76177896D01*
X6801533Y76223394D01*
X6963411Y76302564D01*
X7018437Y76339332D01*
X7060013Y76501065D01*
X6480560Y77080517D01*
X5901107Y76501065D01*
X5942683Y76339332D01*
X6098444Y76248720D01*
X6268890Y76190237D01*
X6344720Y76180001D01*
X6223862Y76156946D01*
X6059342Y76090476D01*
X5910866Y75993316D01*
X5784090Y75869168D01*
X5683842Y75722759D01*
X5613941Y75559668D01*
X5577049Y75386105D01*
X5574572Y75208682D01*
X5606603Y75034157D01*
X5671923Y74869177D01*
X5768044Y74720027D01*
X5891304Y74592387D01*
X5903560Y74583869D01*
X5903560Y74538340D01*
X5908761Y74485297D01*
X5913407Y74432200D01*
X5914253Y74429289D01*
X5914549Y74426267D01*
X5929962Y74375217D01*
X5944824Y74324060D01*
X5946220Y74321367D01*
X5947097Y74318462D01*
X5972125Y74271391D01*
X5996647Y74224083D01*
X5998539Y74221713D01*
X5999964Y74219033D01*
X6033646Y74177735D01*
X6066903Y74136075D01*
X6071071Y74131848D01*
X6071138Y74131766D01*
X6071213Y74131704D01*
X6072559Y74130339D01*
X6966800Y73236099D01*
X6966800Y68918801D01*
X6074079Y68026081D01*
X6040224Y67984865D01*
X6005990Y67944066D01*
X6004530Y67941410D01*
X6002602Y67939063D01*
X5977386Y67892036D01*
X5951739Y67845384D01*
X5950823Y67842496D01*
X5949387Y67839818D01*
X5933781Y67788773D01*
X5917689Y67738045D01*
X5917351Y67735035D01*
X5916463Y67732129D01*
X5911077Y67679098D01*
X5905136Y67626136D01*
X5905095Y67620200D01*
X5905084Y67620094D01*
X5905093Y67619995D01*
X5905080Y67618080D01*
X5905080Y67596904D01*
X5832080Y67596904D01*
X5772044Y67592117D01*
X5670217Y67560583D01*
X5581206Y67501929D01*
X5512060Y67420799D01*
X5468254Y67323618D01*
X5453256Y67218080D01*
X5453256Y66518080D01*
X5458043Y66458044D01*
X5489577Y66356217D01*
X5548231Y66267206D01*
X5629361Y66198060D01*
X5726542Y66154254D01*
X5832080Y66139256D01*
X7132080Y66139256D01*
X7192116Y66144043D01*
X7293943Y66175577D01*
X7382954Y66234231D01*
X7452100Y66315361D01*
X7495906Y66412542D01*
X7510904Y66518080D01*
X7510904Y67218080D01*
X7506117Y67278116D01*
X7474583Y67379943D01*
X7415929Y67468954D01*
X7334799Y67538100D01*
X7254361Y67574359D01*
X7613916Y67933915D01*
X7613916Y63004441D01*
X7617833Y62964493D01*
X7621479Y62924429D01*
X7621902Y62922992D01*
X7622048Y62921503D01*
X7633644Y62883094D01*
X7645008Y62844484D01*
X7645703Y62843154D01*
X7646135Y62841724D01*
X7664987Y62806270D01*
X7683618Y62770632D01*
X7684556Y62769466D01*
X7685259Y62768143D01*
X7710680Y62736974D01*
X7735836Y62705685D01*
X7736981Y62704724D01*
X7737929Y62703562D01*
X7768918Y62677926D01*
X7799675Y62652118D01*
X7800987Y62651397D01*
X7802141Y62650442D01*
X7837510Y62631318D01*
X7872703Y62611970D01*
X7874129Y62611518D01*
X7875447Y62610805D01*
X7913877Y62598909D01*
X7952138Y62586772D01*
X7953624Y62586605D01*
X7955056Y62586162D01*
X7995103Y62581953D01*
X8034954Y62577483D01*
X8037823Y62577463D01*
X8037935Y62577451D01*
X8038047Y62577461D01*
X8040916Y62577441D01*
X40206999Y62577441D01*
X15331198Y37701640D01*
X14716449Y37701640D01*
X14684716Y37723044D01*
X14562323Y37774493D01*
X14432268Y37801189D01*
X14299505Y37802116D01*
X14169090Y37777238D01*
X14045991Y37727503D01*
X13934896Y37654805D01*
X13840038Y37561913D01*
X13765030Y37452365D01*
X13712727Y37330335D01*
X13685124Y37200470D01*
X13683270Y37067716D01*
X13707237Y36937131D01*
X13756111Y36813687D01*
X13828032Y36702088D01*
X13920260Y36606584D01*
X14029281Y36530812D01*
X14150943Y36477659D01*
X14280613Y36449149D01*
X14413350Y36446369D01*
X14544100Y36469424D01*
X14667881Y36517435D01*
X14715477Y36547640D01*
X15570200Y36547640D01*
X15623243Y36552841D01*
X15676340Y36557487D01*
X15679251Y36558333D01*
X15682273Y36558629D01*
X15733323Y36574042D01*
X15784480Y36588904D01*
X15787173Y36590300D01*
X15790078Y36591177D01*
X15837149Y36616205D01*
X15884457Y36640727D01*
X15886827Y36642619D01*
X15889507Y36644044D01*
X15930805Y36677726D01*
X15972465Y36710983D01*
X15976692Y36715151D01*
X15976774Y36715218D01*
X15976836Y36715293D01*
X15978201Y36716639D01*
X25478358Y46216796D01*
X27333230Y46216796D01*
X27357197Y46086211D01*
X27406071Y45962767D01*
X27477992Y45851168D01*
X27570220Y45755664D01*
X27679241Y45679892D01*
X27800903Y45626739D01*
X27930573Y45598229D01*
X28063310Y45595449D01*
X28194060Y45618504D01*
X28317841Y45666515D01*
X28429940Y45737655D01*
X28526086Y45829214D01*
X28602617Y45937703D01*
X28656618Y46058992D01*
X28669619Y46116217D01*
X32410641Y49857240D01*
X35081989Y49857240D01*
X35106201Y49840412D01*
X35227863Y49787259D01*
X35357533Y49758749D01*
X35490270Y49755969D01*
X35621020Y49779024D01*
X35744801Y49827035D01*
X35856900Y49898175D01*
X35953046Y49989734D01*
X36029577Y50098223D01*
X36083578Y50219512D01*
X36112992Y50348979D01*
X36115109Y50500623D01*
X36089321Y50630861D01*
X36038728Y50753610D01*
X35965256Y50864194D01*
X35871704Y50958402D01*
X35761636Y51032644D01*
X35639243Y51084093D01*
X35509188Y51110789D01*
X35376425Y51111716D01*
X35246010Y51086838D01*
X35122911Y51037103D01*
X35083388Y51011240D01*
X32171640Y51011240D01*
X32118643Y51006044D01*
X32065501Y51001394D01*
X32062586Y51000547D01*
X32059567Y51000251D01*
X32008533Y50984843D01*
X31957361Y50969976D01*
X31954669Y50968581D01*
X31951762Y50967703D01*
X31904673Y50942665D01*
X31857383Y50918153D01*
X31855013Y50916261D01*
X31852333Y50914836D01*
X31811041Y50881159D01*
X31769376Y50847898D01*
X31765152Y50843732D01*
X31765066Y50843662D01*
X31765000Y50843582D01*
X31763640Y50842241D01*
X27854473Y46933075D01*
X27819050Y46926318D01*
X27695951Y46876583D01*
X27584856Y46803885D01*
X27489998Y46710993D01*
X27414990Y46601445D01*
X27362687Y46479415D01*
X27335084Y46349550D01*
X27333230Y46216796D01*
X25478358Y46216796D01*
X37363080Y58101518D01*
X37363080Y43530520D01*
X37375494Y43403914D01*
X37386578Y43277220D01*
X37388598Y43270266D01*
X37389305Y43263059D01*
X37426073Y43141276D01*
X37461555Y43019147D01*
X37464887Y43012720D01*
X37466980Y43005786D01*
X37526717Y42893437D01*
X37585231Y42780552D01*
X37589746Y42774896D01*
X37593147Y42768500D01*
X37673555Y42669910D01*
X37752894Y42570524D01*
X37762832Y42560446D01*
X37763001Y42560239D01*
X37763192Y42560081D01*
X37766394Y42556834D01*
X44480160Y35843068D01*
X44480160Y34112200D01*
X44492574Y33985594D01*
X44503658Y33858900D01*
X44505678Y33851946D01*
X44506385Y33844739D01*
X44543153Y33722956D01*
X44578635Y33600827D01*
X44581967Y33594400D01*
X44584060Y33587466D01*
X44643797Y33475117D01*
X44702311Y33362232D01*
X44706826Y33356576D01*
X44710227Y33350180D01*
X44790635Y33251590D01*
X44869974Y33152204D01*
X44879912Y33142126D01*
X44880081Y33141919D01*
X44880272Y33141761D01*
X44883474Y33138514D01*
X44996908Y33025080D01*
X42758972Y30787144D01*
X42663613Y30693761D01*
X42511047Y30470945D01*
X42404665Y30222738D01*
X42348520Y29958595D01*
X42344750Y29688578D01*
X42393498Y29422971D01*
X42492907Y29171891D01*
X42639192Y28944901D01*
X42816667Y28761120D01*
X41380000Y28761120D01*
X41297861Y28753066D01*
X41215667Y28745586D01*
X41212719Y28744718D01*
X41209656Y28744418D01*
X41130581Y28720544D01*
X41051470Y28697260D01*
X41048747Y28695836D01*
X41045801Y28694947D01*
X40972891Y28656180D01*
X40899787Y28617962D01*
X40897391Y28616036D01*
X40894676Y28614592D01*
X40830734Y28562442D01*
X40766395Y28510713D01*
X40764417Y28508356D01*
X40762036Y28506414D01*
X40709460Y28442860D01*
X40656375Y28379596D01*
X40654893Y28376900D01*
X40652934Y28374532D01*
X40613704Y28301977D01*
X40573918Y28229607D01*
X40572988Y28226674D01*
X40571526Y28223971D01*
X40547132Y28145167D01*
X40522165Y28066459D01*
X40521822Y28063402D01*
X40520913Y28060465D01*
X40517290Y28025996D01*
X39535224Y27043930D01*
X39535224Y27324840D01*
X39530437Y27384876D01*
X39498903Y27486703D01*
X39440249Y27575714D01*
X39359119Y27644860D01*
X39261938Y27688666D01*
X39156400Y27703664D01*
X39083400Y27703664D01*
X39083400Y27949918D01*
X39592082Y28458601D01*
X39618980Y28463344D01*
X39742761Y28511355D01*
X39854860Y28582495D01*
X39951006Y28674054D01*
X40027537Y28782543D01*
X40081538Y28903832D01*
X40110952Y29033299D01*
X40113069Y29184943D01*
X40087281Y29315181D01*
X40036688Y29437930D01*
X39963216Y29548514D01*
X39869664Y29642722D01*
X39759596Y29716964D01*
X39637203Y29768413D01*
X39507148Y29795109D01*
X39374385Y29796036D01*
X39243970Y29771158D01*
X39120871Y29721423D01*
X39009776Y29648725D01*
X38914918Y29555833D01*
X38839910Y29446285D01*
X38787607Y29324255D01*
X38777316Y29275837D01*
X38098399Y28596921D01*
X38064544Y28555705D01*
X38030310Y28514906D01*
X38028850Y28512250D01*
X38026922Y28509903D01*
X38001706Y28462876D01*
X37976059Y28416224D01*
X37975143Y28413336D01*
X37973707Y28410658D01*
X37958101Y28359613D01*
X37942009Y28308885D01*
X37941671Y28305875D01*
X37940783Y28302969D01*
X37935397Y28249938D01*
X37929456Y28196976D01*
X37929415Y28191040D01*
X37929404Y28190934D01*
X37929413Y28190835D01*
X37929400Y28188920D01*
X37929400Y27703664D01*
X37856400Y27703664D01*
X37796364Y27698877D01*
X37694537Y27667343D01*
X37605526Y27608689D01*
X37536380Y27527559D01*
X37492574Y27430378D01*
X37477576Y27324840D01*
X37477576Y26624840D01*
X37482363Y26564804D01*
X37513897Y26462977D01*
X37572551Y26373966D01*
X37653681Y26304820D01*
X37750862Y26261014D01*
X37856400Y26246016D01*
X38737310Y26246016D01*
X38436257Y25944963D01*
X38336056Y25935138D01*
X38172201Y25885667D01*
X38021076Y25805312D01*
X38019055Y25803664D01*
X37856400Y25803664D01*
X37796364Y25798877D01*
X37694537Y25767343D01*
X37605526Y25708689D01*
X37536380Y25627559D01*
X37492574Y25530378D01*
X37477576Y25424840D01*
X37477576Y24724840D01*
X37482363Y24664804D01*
X37513897Y24562977D01*
X37572551Y24473966D01*
X37653681Y24404820D01*
X37750862Y24361014D01*
X37856400Y24346016D01*
X38020381Y24346016D01*
X38160913Y24268758D01*
X38324061Y24217005D01*
X38494155Y24197925D01*
X38506400Y24197840D01*
X38806400Y24197840D01*
X38887000Y24205743D01*
X38967726Y24212805D01*
X38972156Y24214092D01*
X38976744Y24214542D01*
X39054287Y24237954D01*
X39132090Y24260558D01*
X39136183Y24262680D01*
X39140599Y24264013D01*
X39212140Y24302052D01*
X39284048Y24339326D01*
X39287651Y24342203D01*
X39291724Y24344368D01*
X39354498Y24395565D01*
X39417814Y24446109D01*
X39424234Y24452440D01*
X39424364Y24452546D01*
X39424463Y24452666D01*
X39426533Y24454707D01*
X41978946Y27007120D01*
X42471294Y27007120D01*
X46761027Y22717388D01*
X46823598Y22665991D01*
X46885684Y22613895D01*
X46889725Y22611673D01*
X46893289Y22608746D01*
X46964664Y22570476D01*
X47035673Y22531438D01*
X47040072Y22530043D01*
X47044133Y22527865D01*
X47121562Y22504193D01*
X47198821Y22479685D01*
X47203406Y22479171D01*
X47207814Y22477823D01*
X47288383Y22469639D01*
X47368915Y22460605D01*
X47377926Y22460542D01*
X47378098Y22460525D01*
X47378258Y22460540D01*
X47381160Y22460520D01*
X55093640Y22460520D01*
X55174240Y22468423D01*
X55254966Y22475485D01*
X55259396Y22476772D01*
X55263984Y22477222D01*
X55341527Y22500634D01*
X55419330Y22523238D01*
X55423423Y22525360D01*
X55427839Y22526693D01*
X55499380Y22564732D01*
X55571288Y22602006D01*
X55574891Y22604883D01*
X55578964Y22607048D01*
X55641738Y22658245D01*
X55705054Y22708789D01*
X55711474Y22715120D01*
X55711604Y22715226D01*
X55711703Y22715346D01*
X55713773Y22717387D01*
X56955466Y23959080D01*
X58242200Y23959080D01*
X58412544Y23975782D01*
X58576399Y24025253D01*
X58727524Y24105608D01*
X58729545Y24107256D01*
X58892200Y24107256D01*
X58952236Y24112043D01*
X59054063Y24143577D01*
X59143074Y24202231D01*
X59212220Y24283361D01*
X59256026Y24380542D01*
X59271024Y24486080D01*
X59271024Y25186080D01*
X59266237Y25246116D01*
X59234703Y25347943D01*
X59176049Y25436954D01*
X59094919Y25506100D01*
X59056700Y25523328D01*
X61251161Y25523328D01*
X61321150Y25141988D01*
X61463876Y24781505D01*
X61673901Y24455609D01*
X61943227Y24176714D01*
X62261595Y23955443D01*
X62616877Y23800223D01*
X62995543Y23716968D01*
X63383167Y23708849D01*
X63764987Y23776174D01*
X64126458Y23916379D01*
X64453812Y24124125D01*
X64734581Y24391497D01*
X64958069Y24708312D01*
X65115765Y25062502D01*
X65201661Y25440577D01*
X65207845Y25883415D01*
X65132538Y26263741D01*
X64984794Y26622196D01*
X64770238Y26945128D01*
X64497045Y27220235D01*
X64175619Y27437040D01*
X63818204Y27587284D01*
X63438413Y27665243D01*
X63050712Y27667950D01*
X62669870Y27595301D01*
X62310392Y27450062D01*
X61985970Y27237766D01*
X61708962Y26966500D01*
X61489919Y26646595D01*
X61337184Y26290238D01*
X61256574Y25911000D01*
X61251161Y25523328D01*
X59056700Y25523328D01*
X58997738Y25549906D01*
X58892200Y25564904D01*
X58728219Y25564904D01*
X58587687Y25642162D01*
X58424539Y25693915D01*
X58254445Y25712995D01*
X58242200Y25713080D01*
X56592200Y25713080D01*
X56511645Y25705182D01*
X56430874Y25698115D01*
X56426444Y25696828D01*
X56421856Y25696378D01*
X56344313Y25672966D01*
X56266510Y25650362D01*
X56262417Y25648240D01*
X56258001Y25646907D01*
X56186460Y25608868D01*
X56114552Y25571594D01*
X56110949Y25568717D01*
X56106876Y25566552D01*
X56044102Y25515355D01*
X55980786Y25464811D01*
X55974366Y25458480D01*
X55974236Y25458374D01*
X55974137Y25458254D01*
X55972067Y25456213D01*
X54730374Y24214520D01*
X47744425Y24214520D01*
X43519719Y28439227D01*
X43559729Y28430430D01*
X43829713Y28424775D01*
X44095654Y28471668D01*
X44347423Y28569322D01*
X44575428Y28714019D01*
X44770986Y28900246D01*
X44780967Y28914395D01*
X44943448Y29076876D01*
X56126670Y29076876D01*
X56150637Y28946291D01*
X56199511Y28822847D01*
X56271432Y28711248D01*
X56363660Y28615744D01*
X56472681Y28539972D01*
X56594343Y28486819D01*
X56647149Y28475209D01*
X57657454Y27464904D01*
X57592200Y27464904D01*
X57532164Y27460117D01*
X57430337Y27428583D01*
X57341326Y27369929D01*
X57272180Y27288799D01*
X57228374Y27191618D01*
X57213376Y27086080D01*
X57213376Y26386080D01*
X57218163Y26326044D01*
X57249697Y26224217D01*
X57308351Y26135206D01*
X57389481Y26066060D01*
X57486662Y26022254D01*
X57592200Y26007256D01*
X58892200Y26007256D01*
X58952236Y26012043D01*
X59054063Y26043577D01*
X59143074Y26102231D01*
X59212220Y26183361D01*
X59256026Y26280542D01*
X59271024Y26386080D01*
X59271024Y27086080D01*
X59266237Y27146116D01*
X59234703Y27247943D01*
X59176049Y27336954D01*
X59094919Y27406100D01*
X58997738Y27449906D01*
X58892200Y27464904D01*
X58819200Y27464904D01*
X58819200Y27696160D01*
X58813999Y27749203D01*
X58809353Y27802300D01*
X58808507Y27805211D01*
X58808211Y27808233D01*
X58795611Y27849968D01*
X91558441Y27849968D01*
X91628430Y27468628D01*
X91771156Y27108145D01*
X91981181Y26782249D01*
X92250507Y26503354D01*
X92568875Y26282083D01*
X92924157Y26126863D01*
X93302823Y26043608D01*
X93690447Y26035489D01*
X94072267Y26102814D01*
X94433738Y26243019D01*
X94761092Y26450765D01*
X95041861Y26718137D01*
X95265349Y27034952D01*
X95423045Y27389142D01*
X95508941Y27767217D01*
X95515125Y28210055D01*
X95439818Y28590381D01*
X95292074Y28948836D01*
X95077518Y29271768D01*
X94804325Y29546875D01*
X94482899Y29763680D01*
X94125484Y29913924D01*
X93745693Y29991883D01*
X93357992Y29994590D01*
X92977150Y29921941D01*
X92617672Y29776702D01*
X92293250Y29564406D01*
X92016242Y29293140D01*
X91797199Y28973235D01*
X91644464Y28616878D01*
X91563854Y28237640D01*
X91558441Y27849968D01*
X58795611Y27849968D01*
X58792798Y27859283D01*
X58777936Y27910440D01*
X58776540Y27913133D01*
X58775663Y27916038D01*
X58750635Y27963109D01*
X58726113Y28010417D01*
X58724221Y28012787D01*
X58722796Y28015467D01*
X58689114Y28056765D01*
X58655857Y28098425D01*
X58651689Y28102652D01*
X58651622Y28102734D01*
X58651547Y28102796D01*
X58650201Y28104161D01*
X57463667Y29290695D01*
X57455801Y29330421D01*
X57405208Y29453170D01*
X57331736Y29563754D01*
X57238184Y29657962D01*
X57128116Y29732204D01*
X57005723Y29783653D01*
X56875668Y29810349D01*
X56742905Y29811276D01*
X56612490Y29786398D01*
X56489391Y29736663D01*
X56378296Y29663965D01*
X56283438Y29571073D01*
X56208430Y29461525D01*
X56156127Y29339495D01*
X56128524Y29209630D01*
X56126670Y29076876D01*
X44943448Y29076876D01*
X46113549Y30246977D01*
X78664700Y30246977D01*
X78734356Y30061262D01*
X78929918Y29947322D01*
X79143952Y29873724D01*
X79368230Y29843296D01*
X79594136Y29857208D01*
X79812986Y29914924D01*
X80016372Y30014226D01*
X80086764Y30061262D01*
X80154919Y30242977D01*
X93904700Y30242977D01*
X93974356Y30057262D01*
X94169918Y29943322D01*
X94383952Y29869724D01*
X94608230Y29839296D01*
X94834136Y29853208D01*
X95052986Y29910924D01*
X95256372Y30010226D01*
X95326764Y30057262D01*
X95396420Y30242977D01*
X94650560Y30988837D01*
X93904700Y30242977D01*
X80154919Y30242977D01*
X80156420Y30246977D01*
X79410560Y30992837D01*
X78664700Y30246977D01*
X46113549Y30246977D01*
X47457498Y31590926D01*
X56638453Y31590926D01*
X56660157Y31352443D01*
X56727768Y31122718D01*
X56838713Y30910500D01*
X56988765Y30723873D01*
X57172208Y30569946D01*
X57382056Y30454581D01*
X57610315Y30382173D01*
X57848291Y30355480D01*
X57865423Y30355360D01*
X57877297Y30355360D01*
X58115623Y30378728D01*
X58344870Y30447942D01*
X58556308Y30560366D01*
X58741883Y30711717D01*
X58894526Y30896230D01*
X58971943Y31039410D01*
X78256776Y31039410D01*
X78270688Y30813504D01*
X78328404Y30594654D01*
X78427706Y30391268D01*
X78474742Y30320876D01*
X78660457Y30251220D01*
X79406317Y30997080D01*
X79414803Y30997080D01*
X80160663Y30251220D01*
X80346378Y30320876D01*
X80460318Y30516438D01*
X80533916Y30730472D01*
X80564344Y30954750D01*
X80559377Y31035410D01*
X93496776Y31035410D01*
X93510688Y30809504D01*
X93568404Y30590654D01*
X93667706Y30387268D01*
X93714742Y30316876D01*
X93900457Y30247220D01*
X94646317Y30993080D01*
X93900457Y31738940D01*
X93714742Y31669284D01*
X93600802Y31473722D01*
X93527204Y31259688D01*
X93496776Y31035410D01*
X80559377Y31035410D01*
X80550432Y31180656D01*
X80492716Y31399506D01*
X80393414Y31602892D01*
X80346378Y31673284D01*
X80160663Y31742940D01*
X79414803Y30997080D01*
X79406317Y30997080D01*
X78660457Y31742940D01*
X78474742Y31673284D01*
X78360802Y31477722D01*
X78287204Y31263688D01*
X78256776Y31039410D01*
X58971943Y31039410D01*
X59008423Y31106878D01*
X59079236Y31335637D01*
X59104267Y31573794D01*
X59088488Y31747183D01*
X78664700Y31747183D01*
X79410560Y31001323D01*
X80152420Y31743183D01*
X93904700Y31743183D01*
X94650560Y30997323D01*
X95396420Y31743183D01*
X95326764Y31928898D01*
X95131202Y32042838D01*
X94917168Y32116436D01*
X94692890Y32146864D01*
X94466984Y32132952D01*
X94248134Y32075236D01*
X94044748Y31975934D01*
X93974356Y31928898D01*
X93904700Y31743183D01*
X80152420Y31743183D01*
X80156420Y31747183D01*
X80086764Y31932898D01*
X79891202Y32046838D01*
X79677168Y32120436D01*
X79452890Y32150864D01*
X79226984Y32136952D01*
X79008134Y32079236D01*
X78804748Y31979934D01*
X78734356Y31932898D01*
X78664700Y31747183D01*
X59088488Y31747183D01*
X59082563Y31812277D01*
X59014952Y32042002D01*
X58904007Y32254220D01*
X58753955Y32440847D01*
X58570512Y32594774D01*
X58360664Y32710139D01*
X58132405Y32782547D01*
X57894429Y32809240D01*
X57877297Y32809360D01*
X57865423Y32809360D01*
X57627097Y32785992D01*
X57397850Y32716778D01*
X57186412Y32604354D01*
X57000837Y32453003D01*
X56848194Y32268490D01*
X56734297Y32057842D01*
X56663484Y31829083D01*
X56638453Y31590926D01*
X47457498Y31590926D01*
X47719846Y31853274D01*
X47800592Y31951576D01*
X47882341Y32049000D01*
X47885829Y32055344D01*
X47890426Y32060941D01*
X47950562Y32173094D01*
X48011809Y32284502D01*
X48013997Y32291399D01*
X48017421Y32297785D01*
X48054639Y32419520D01*
X48093069Y32540666D01*
X48093875Y32547856D01*
X48095994Y32554785D01*
X48108853Y32681385D01*
X48123026Y32807734D01*
X48123125Y32821883D01*
X48123152Y32822153D01*
X48123128Y32822404D01*
X48123160Y32826960D01*
X48123160Y33223200D01*
X48110744Y33349825D01*
X48099662Y33476500D01*
X48097642Y33483454D01*
X48096935Y33490661D01*
X48060167Y33612444D01*
X48024685Y33734573D01*
X48021353Y33741000D01*
X48019260Y33747934D01*
X47959523Y33860283D01*
X47901009Y33973168D01*
X47896494Y33978824D01*
X47893093Y33985220D01*
X47812685Y34083810D01*
X47733346Y34183196D01*
X47723408Y34193274D01*
X47723239Y34193481D01*
X47723048Y34193639D01*
X47719846Y34196886D01*
X47234160Y34682572D01*
X47234160Y34972360D01*
X56642536Y34972360D01*
X56642536Y33272360D01*
X56647323Y33212324D01*
X56678857Y33110497D01*
X56737511Y33021486D01*
X56818641Y32952340D01*
X56915822Y32908534D01*
X57021360Y32893536D01*
X58721360Y32893536D01*
X58781396Y32898323D01*
X58883223Y32929857D01*
X58972234Y32988511D01*
X59041380Y33069641D01*
X59085186Y33166822D01*
X59100184Y33272360D01*
X59100184Y34972360D01*
X59095397Y35032396D01*
X59063863Y35134223D01*
X59005209Y35223234D01*
X58924079Y35292380D01*
X58826898Y35336186D01*
X58721360Y35351184D01*
X57021360Y35351184D01*
X56961324Y35346397D01*
X56859497Y35314863D01*
X56770486Y35256209D01*
X56701340Y35175079D01*
X56657534Y35077898D01*
X56642536Y34972360D01*
X47234160Y34972360D01*
X47234160Y36413440D01*
X47221746Y36540042D01*
X47210662Y36666741D01*
X47208642Y36673696D01*
X47207935Y36680901D01*
X47171170Y36802672D01*
X47135685Y36924813D01*
X47132353Y36931240D01*
X47130260Y36938174D01*
X47070523Y37050523D01*
X47012009Y37163408D01*
X47007494Y37169064D01*
X47004093Y37175460D01*
X46923685Y37274050D01*
X46844346Y37373436D01*
X46834408Y37383514D01*
X46834239Y37383721D01*
X46834048Y37383879D01*
X46830846Y37387126D01*
X42676962Y41541010D01*
X45153560Y41541010D01*
X45153560Y40752644D01*
X45168432Y40677876D01*
X45197605Y40607447D01*
X45239958Y40544062D01*
X45293862Y40490157D01*
X45357247Y40447805D01*
X45427676Y40418632D01*
X45502444Y40403760D01*
X46290810Y40403760D01*
X46387560Y40500510D01*
X46387560Y41637760D01*
X46393560Y41637760D01*
X46393560Y40500510D01*
X46490310Y40403760D01*
X47278676Y40403760D01*
X47353444Y40418632D01*
X47423873Y40447805D01*
X47487258Y40490157D01*
X47541162Y40544062D01*
X47583515Y40607447D01*
X47612688Y40677876D01*
X47627560Y40752644D01*
X47627560Y41541010D01*
X47530810Y41637760D01*
X46393560Y41637760D01*
X46387560Y41637760D01*
X45250310Y41637760D01*
X45153560Y41541010D01*
X42676962Y41541010D01*
X41689096Y42528876D01*
X45153560Y42528876D01*
X45153560Y41740510D01*
X45250310Y41643760D01*
X46387560Y41643760D01*
X46387560Y42781010D01*
X46393560Y42781010D01*
X46393560Y41643760D01*
X47530810Y41643760D01*
X47627560Y41740510D01*
X47627560Y42528876D01*
X47612688Y42603644D01*
X47583515Y42674073D01*
X47541162Y42737458D01*
X47487258Y42791363D01*
X47423873Y42833715D01*
X47353444Y42862888D01*
X47278676Y42877760D01*
X46490310Y42877760D01*
X46393560Y42781010D01*
X46387560Y42781010D01*
X46290810Y42877760D01*
X45502444Y42877760D01*
X45427676Y42862888D01*
X45357247Y42833715D01*
X45293862Y42791363D01*
X45239958Y42737458D01*
X45197605Y42674073D01*
X45168432Y42603644D01*
X45153560Y42528876D01*
X41689096Y42528876D01*
X40426522Y43791450D01*
X51864240Y43791450D01*
X51864240Y43003084D01*
X51879112Y42928316D01*
X51908285Y42857887D01*
X51950637Y42794502D01*
X52004542Y42740598D01*
X52067927Y42698245D01*
X52138356Y42669072D01*
X52213124Y42654200D01*
X53001490Y42654200D01*
X53098240Y42750950D01*
X53098240Y43888200D01*
X53104240Y43888200D01*
X53104240Y42750950D01*
X53200990Y42654200D01*
X53989356Y42654200D01*
X54064124Y42669072D01*
X54134553Y42698245D01*
X54197938Y42740598D01*
X54251843Y42794502D01*
X54294195Y42857887D01*
X54323368Y42928316D01*
X54338240Y43003084D01*
X54338240Y43791450D01*
X54241490Y43888200D01*
X53104240Y43888200D01*
X53098240Y43888200D01*
X51960990Y43888200D01*
X51864240Y43791450D01*
X40426522Y43791450D01*
X40117080Y44100892D01*
X40117080Y44779316D01*
X51864240Y44779316D01*
X51864240Y43990950D01*
X51960990Y43894200D01*
X53098240Y43894200D01*
X53098240Y45031450D01*
X53104240Y45031450D01*
X53104240Y43894200D01*
X54241490Y43894200D01*
X54244427Y43897137D01*
X54414240Y43897137D01*
X54414240Y43885263D01*
X54437608Y43646937D01*
X54506822Y43417690D01*
X54619246Y43206252D01*
X54770597Y43020677D01*
X54955110Y42868034D01*
X55165758Y42754137D01*
X55394517Y42683324D01*
X55632674Y42658293D01*
X55871157Y42679997D01*
X56100882Y42747608D01*
X56313100Y42858553D01*
X56499727Y43008605D01*
X56653654Y43192048D01*
X56769019Y43401896D01*
X56841427Y43630155D01*
X56868120Y43868131D01*
X56868240Y43885263D01*
X56868240Y43897137D01*
X56844872Y44135463D01*
X56775658Y44364710D01*
X56663234Y44576148D01*
X56511883Y44761723D01*
X56327370Y44914366D01*
X56116722Y45028263D01*
X55887963Y45099076D01*
X55649806Y45124107D01*
X55411323Y45102403D01*
X55181598Y45034792D01*
X54969380Y44923847D01*
X54782753Y44773795D01*
X54628826Y44590352D01*
X54513461Y44380504D01*
X54441053Y44152245D01*
X54414360Y43914269D01*
X54414240Y43897137D01*
X54244427Y43897137D01*
X54338240Y43990950D01*
X54338240Y44779316D01*
X54323368Y44854084D01*
X54294195Y44924513D01*
X54251843Y44987898D01*
X54197938Y45041802D01*
X54134553Y45084155D01*
X54064124Y45113328D01*
X53989356Y45128200D01*
X53200990Y45128200D01*
X53104240Y45031450D01*
X53098240Y45031450D01*
X53001490Y45128200D01*
X52213124Y45128200D01*
X52138356Y45113328D01*
X52067927Y45084155D01*
X52004542Y45041802D01*
X51950637Y44987898D01*
X51908285Y44924513D01*
X51879112Y44854084D01*
X51864240Y44779316D01*
X40117080Y44779316D01*
X40117080Y50459911D01*
X49248114Y50459911D01*
X49346306Y50249823D01*
X49582315Y50112177D01*
X49840643Y50023219D01*
X50111362Y49986368D01*
X50384068Y50003039D01*
X50648282Y50072592D01*
X50893850Y50192355D01*
X50979854Y50249823D01*
X51078046Y50459911D01*
X50163080Y51374877D01*
X49248114Y50459911D01*
X40117080Y50459911D01*
X40117080Y51430838D01*
X48770328Y51430838D01*
X48786999Y51158132D01*
X48856552Y50893918D01*
X48976315Y50648350D01*
X49033783Y50562346D01*
X49243871Y50464154D01*
X50158837Y51379120D01*
X50167323Y51379120D01*
X51082289Y50464154D01*
X51292377Y50562346D01*
X51430023Y50798355D01*
X51518981Y51056683D01*
X51555832Y51327402D01*
X51539161Y51600108D01*
X51469608Y51864322D01*
X51349845Y52109890D01*
X51292377Y52195894D01*
X51082289Y52294086D01*
X50167323Y51379120D01*
X50158837Y51379120D01*
X49243871Y52294086D01*
X49033783Y52195894D01*
X48896137Y51959885D01*
X48807179Y51701557D01*
X48770328Y51430838D01*
X40117080Y51430838D01*
X40117080Y55818480D01*
X42836976Y55818480D01*
X42836976Y55118480D01*
X42841763Y55058444D01*
X42873297Y54956617D01*
X42931951Y54867606D01*
X42988800Y54819154D01*
X42988800Y54118480D01*
X42996703Y54037880D01*
X43003765Y53957154D01*
X43005052Y53952724D01*
X43005502Y53948136D01*
X43028914Y53870593D01*
X43051518Y53792790D01*
X43053640Y53788697D01*
X43054973Y53784281D01*
X43093012Y53712740D01*
X43130286Y53640832D01*
X43133163Y53637229D01*
X43135328Y53633156D01*
X43186525Y53570382D01*
X43237069Y53507066D01*
X43243400Y53500646D01*
X43243506Y53500516D01*
X43243626Y53500417D01*
X43245667Y53498347D01*
X43841268Y52902747D01*
X43903843Y52851347D01*
X43965924Y52799255D01*
X43969965Y52797033D01*
X43973529Y52794106D01*
X44044939Y52755816D01*
X44115913Y52716798D01*
X44120307Y52715404D01*
X44124373Y52713224D01*
X44201889Y52689525D01*
X44279061Y52665045D01*
X44283641Y52664531D01*
X44288054Y52663182D01*
X44368668Y52654993D01*
X44449155Y52645965D01*
X44458167Y52645902D01*
X44458339Y52645885D01*
X44458499Y52645900D01*
X44461400Y52645880D01*
X49596336Y52645880D01*
X49432310Y52565885D01*
X49346306Y52508417D01*
X49248114Y52298329D01*
X50163080Y51383363D01*
X51078046Y52298329D01*
X51040286Y52379120D01*
X56284256Y52379120D01*
X56284256Y50379120D01*
X56289043Y50319084D01*
X56320577Y50217257D01*
X56379231Y50128246D01*
X56460361Y50059100D01*
X56557542Y50015294D01*
X56663080Y50000296D01*
X56784652Y50000296D01*
X58917520Y47867428D01*
X58917520Y41840759D01*
X58929934Y41714153D01*
X58941018Y41587459D01*
X58943038Y41580505D01*
X58943745Y41573298D01*
X58980513Y41451515D01*
X59015995Y41329386D01*
X59019327Y41322959D01*
X59021420Y41316025D01*
X59081157Y41203676D01*
X59139671Y41090791D01*
X59144186Y41085135D01*
X59147587Y41078739D01*
X59227995Y40980149D01*
X59307334Y40880763D01*
X59317272Y40870685D01*
X59317441Y40870478D01*
X59317632Y40870320D01*
X59320834Y40867073D01*
X65494913Y34692994D01*
X65593188Y34612270D01*
X65690639Y34530499D01*
X65696987Y34527009D01*
X65702580Y34522415D01*
X65814659Y34462319D01*
X65926141Y34401031D01*
X65933043Y34398842D01*
X65939424Y34395420D01*
X66061072Y34358228D01*
X66182305Y34319771D01*
X66189500Y34318964D01*
X66196424Y34316847D01*
X66322930Y34303997D01*
X66449373Y34289814D01*
X66463533Y34289715D01*
X66463792Y34289689D01*
X66464033Y34289712D01*
X66468599Y34289680D01*
X67291838Y34289680D01*
X67197170Y34261098D01*
X66985732Y34148674D01*
X66800157Y33997323D01*
X66647514Y33812810D01*
X66533617Y33602162D01*
X66462804Y33373403D01*
X66437773Y33135246D01*
X66459477Y32896763D01*
X66527088Y32667038D01*
X66638033Y32454820D01*
X66788085Y32268193D01*
X66971528Y32114266D01*
X67181376Y31998901D01*
X67409635Y31926493D01*
X67647611Y31899800D01*
X67664743Y31899680D01*
X67676617Y31899680D01*
X67914943Y31923048D01*
X68144190Y31992262D01*
X68355628Y32104686D01*
X68541203Y32256037D01*
X68676363Y32419417D01*
X73227500Y32419417D01*
X73301713Y32229810D01*
X73503733Y32112086D01*
X73724837Y32036036D01*
X73956531Y32004583D01*
X74189908Y32018935D01*
X74416001Y32078541D01*
X74626121Y32181110D01*
X74699007Y32229810D01*
X74773220Y32419417D01*
X74000360Y33192277D01*
X73227500Y32419417D01*
X68676363Y32419417D01*
X68693846Y32440550D01*
X68807743Y32651198D01*
X68878556Y32879957D01*
X68903587Y33118114D01*
X68892463Y33240349D01*
X72808423Y33240349D01*
X72822775Y33006972D01*
X72882381Y32780879D01*
X72984950Y32570759D01*
X73033650Y32497873D01*
X73223257Y32423660D01*
X73996117Y33196520D01*
X74004603Y33196520D01*
X74777463Y32423660D01*
X74967070Y32497873D01*
X75084794Y32699893D01*
X75160844Y32920997D01*
X75192297Y33152691D01*
X75177945Y33386068D01*
X75118339Y33612161D01*
X75015770Y33822281D01*
X74967070Y33895167D01*
X74777463Y33969380D01*
X74004603Y33196520D01*
X73996117Y33196520D01*
X73223257Y33969380D01*
X73033650Y33895167D01*
X72915926Y33693147D01*
X72839876Y33472043D01*
X72808423Y33240349D01*
X68892463Y33240349D01*
X68881883Y33356597D01*
X68814272Y33586322D01*
X68703327Y33798540D01*
X68562557Y33973623D01*
X73227500Y33973623D01*
X74000360Y33200763D01*
X74773220Y33973623D01*
X74699007Y34163230D01*
X74496987Y34280954D01*
X74275883Y34357004D01*
X74044189Y34388457D01*
X73810812Y34374105D01*
X73584719Y34314499D01*
X73374599Y34211930D01*
X73301713Y34163230D01*
X73227500Y33973623D01*
X68562557Y33973623D01*
X68553275Y33985167D01*
X68369832Y34139094D01*
X68159984Y34254459D01*
X67952559Y34320258D01*
X68195414Y34393580D01*
X68432700Y34519747D01*
X68640961Y34689601D01*
X68812265Y34896671D01*
X68940086Y35133071D01*
X69019555Y35389796D01*
X69047646Y35657067D01*
X69023290Y35924704D01*
X68947412Y36182513D01*
X68822904Y36420675D01*
X68654509Y36630116D01*
X68448640Y36802861D01*
X68213138Y36932329D01*
X68069619Y36977856D01*
X68520680Y36977856D01*
X68580716Y36982643D01*
X68682543Y37014177D01*
X68771554Y37072831D01*
X68840700Y37153961D01*
X68884506Y37251142D01*
X68899504Y37356680D01*
X68899504Y39056680D01*
X68894717Y39116716D01*
X68863183Y39218543D01*
X68804529Y39307554D01*
X68723399Y39376700D01*
X68626218Y39420506D01*
X68520680Y39435504D01*
X66820680Y39435504D01*
X66760644Y39430717D01*
X66658817Y39399183D01*
X66569806Y39340529D01*
X66500660Y39259399D01*
X66456854Y39162218D01*
X66441856Y39056680D01*
X66441856Y37640795D01*
X61671520Y42411131D01*
X61671520Y48437800D01*
X61659106Y48564402D01*
X61648022Y48691101D01*
X61646002Y48698056D01*
X61645295Y48705261D01*
X61608530Y48827032D01*
X61573045Y48949173D01*
X61569713Y48955600D01*
X61567620Y48962534D01*
X61507883Y49074883D01*
X61449369Y49187768D01*
X61444854Y49193424D01*
X61441453Y49199820D01*
X61361064Y49298386D01*
X61281706Y49397797D01*
X61271766Y49407876D01*
X61271599Y49408081D01*
X61271409Y49408238D01*
X61268206Y49411486D01*
X59041904Y51637788D01*
X59041904Y52379120D01*
X59037117Y52439156D01*
X59005583Y52540983D01*
X58946929Y52629994D01*
X58865799Y52699140D01*
X58768618Y52742946D01*
X58663080Y52757944D01*
X56663080Y52757944D01*
X56603044Y52753157D01*
X56501217Y52721623D01*
X56412206Y52662969D01*
X56343060Y52581839D01*
X56299254Y52484658D01*
X56284256Y52379120D01*
X51040286Y52379120D01*
X50979854Y52508417D01*
X50743845Y52646063D01*
X50485517Y52735021D01*
X50368860Y52750901D01*
X50439208Y52787366D01*
X50442811Y52790243D01*
X50446884Y52792408D01*
X50509658Y52843605D01*
X50572974Y52894149D01*
X50579394Y52900480D01*
X50579524Y52900586D01*
X50579623Y52900706D01*
X50581693Y52902747D01*
X52305985Y54627040D01*
X53694343Y54627040D01*
X53745901Y54610685D01*
X53750481Y54610171D01*
X53754894Y54608822D01*
X53835512Y54600633D01*
X53915995Y54591605D01*
X53925006Y54591542D01*
X53925178Y54591525D01*
X53925338Y54591540D01*
X53928240Y54591520D01*
X58165094Y54591520D01*
X73123360Y39633255D01*
X73123360Y39365304D01*
X73038497Y39339023D01*
X72949486Y39280369D01*
X72880340Y39199239D01*
X72836534Y39102058D01*
X72821536Y38996520D01*
X72821536Y37396520D01*
X72826323Y37336484D01*
X72857857Y37234657D01*
X72916511Y37145646D01*
X72997641Y37076500D01*
X73094822Y37032694D01*
X73200360Y37017696D01*
X74800360Y37017696D01*
X74860396Y37022483D01*
X74962223Y37054017D01*
X75051234Y37112671D01*
X75120380Y37193801D01*
X75164186Y37290982D01*
X75179184Y37396520D01*
X75179184Y38996520D01*
X75174397Y39056556D01*
X75142863Y39158383D01*
X75084209Y39247394D01*
X75003079Y39316540D01*
X74905898Y39360346D01*
X74877360Y39364402D01*
X74877360Y39996520D01*
X74869452Y40077170D01*
X74862394Y40157846D01*
X74861108Y40162271D01*
X74860658Y40166864D01*
X74837234Y40244449D01*
X74814642Y40322210D01*
X74812520Y40326303D01*
X74811187Y40330719D01*
X74773148Y40402260D01*
X74735874Y40474168D01*
X74732997Y40477771D01*
X74730832Y40481844D01*
X74679635Y40544618D01*
X74629091Y40607934D01*
X74622763Y40614350D01*
X74622654Y40614484D01*
X74622530Y40614587D01*
X74620492Y40616653D01*
X59148493Y56088653D01*
X59085893Y56140074D01*
X59023836Y56192145D01*
X59019795Y56194367D01*
X59016231Y56197294D01*
X58944821Y56235584D01*
X58873847Y56274602D01*
X58869453Y56275996D01*
X58865387Y56278176D01*
X58787871Y56301875D01*
X58710699Y56326355D01*
X58706119Y56326869D01*
X58701706Y56328218D01*
X58621088Y56336407D01*
X58540605Y56345435D01*
X58531594Y56345498D01*
X58531422Y56345515D01*
X58531262Y56345500D01*
X58528360Y56345520D01*
X54126617Y56345520D01*
X54075059Y56361875D01*
X54070479Y56362389D01*
X54066066Y56363738D01*
X53985448Y56371927D01*
X53904965Y56380955D01*
X53895954Y56381018D01*
X53895782Y56381035D01*
X53895622Y56381020D01*
X53892720Y56381040D01*
X52035721Y56381040D01*
X52329897Y56675216D01*
X52892720Y56675216D01*
X52952756Y56680003D01*
X53054583Y56711537D01*
X53143594Y56770191D01*
X53212740Y56851321D01*
X53256546Y56948502D01*
X53271544Y57054040D01*
X53271544Y57754040D01*
X53266757Y57814076D01*
X53235223Y57915903D01*
X53176569Y58004914D01*
X53095439Y58074060D01*
X52998258Y58117866D01*
X52892720Y58132864D01*
X51592720Y58132864D01*
X51532684Y58128077D01*
X51430857Y58096543D01*
X51341846Y58037889D01*
X51272700Y57956759D01*
X51228894Y57859578D01*
X51213896Y57754040D01*
X51213896Y57191217D01*
X50441855Y56419177D01*
X50433347Y56424916D01*
X50269771Y56493677D01*
X50149837Y56518296D01*
X50321893Y56563794D01*
X50483771Y56642964D01*
X50538797Y56679732D01*
X50580373Y56841465D01*
X50000920Y57420917D01*
X49421467Y56841465D01*
X49463043Y56679732D01*
X49618804Y56589120D01*
X49789250Y56530637D01*
X49865080Y56520401D01*
X49744222Y56497346D01*
X49579702Y56430876D01*
X49431226Y56333716D01*
X49304450Y56209568D01*
X49204202Y56063159D01*
X49134301Y55900068D01*
X49097409Y55726505D01*
X49094932Y55549082D01*
X49126963Y55374557D01*
X49192283Y55209577D01*
X49288404Y55060427D01*
X49411664Y54932787D01*
X49557369Y54831519D01*
X49719969Y54760481D01*
X49893270Y54722379D01*
X49920229Y54721814D01*
X49598294Y54399880D01*
X44824665Y54399880D01*
X44742800Y54481746D01*
X44742800Y54818899D01*
X44766674Y54834631D01*
X44835820Y54915761D01*
X44879626Y55012942D01*
X44883679Y55041465D01*
X45421467Y55041465D01*
X45463043Y54879732D01*
X45618804Y54789120D01*
X45789250Y54730637D01*
X45967830Y54706531D01*
X46147682Y54717726D01*
X46321893Y54763794D01*
X46483771Y54842964D01*
X46538797Y54879732D01*
X46580373Y55041465D01*
X46000920Y55620917D01*
X45421467Y55041465D01*
X44883679Y55041465D01*
X44894624Y55118480D01*
X44894624Y55658250D01*
X45082291Y55658250D01*
X45093486Y55478398D01*
X45139554Y55304187D01*
X45218724Y55142309D01*
X45255492Y55087283D01*
X45417225Y55045707D01*
X45996677Y55625160D01*
X46005163Y55625160D01*
X46584615Y55045707D01*
X46746348Y55087283D01*
X46836960Y55243044D01*
X46895443Y55413490D01*
X46919549Y55592070D01*
X46908354Y55771922D01*
X46862286Y55946133D01*
X46783116Y56108011D01*
X46746348Y56163037D01*
X46584615Y56204613D01*
X46005163Y55625160D01*
X45996677Y55625160D01*
X45417225Y56204613D01*
X45255492Y56163037D01*
X45164880Y56007276D01*
X45106397Y55836830D01*
X45082291Y55658250D01*
X44894624Y55658250D01*
X44894624Y55818480D01*
X44889837Y55878516D01*
X44858303Y55980343D01*
X44799649Y56069354D01*
X44718519Y56138500D01*
X44621338Y56182306D01*
X44515800Y56197304D01*
X44352961Y56197304D01*
X44205651Y56276954D01*
X44042145Y56327567D01*
X43871923Y56345459D01*
X43701467Y56329946D01*
X43537270Y56281620D01*
X43385587Y56202322D01*
X43379346Y56197304D01*
X43215800Y56197304D01*
X43155764Y56192517D01*
X43053937Y56160983D01*
X42964926Y56102329D01*
X42895780Y56021199D01*
X42851974Y55924018D01*
X42836976Y55818480D01*
X40117080Y55818480D01*
X40117080Y57534668D01*
X40300892Y57718480D01*
X42836976Y57718480D01*
X42836976Y57018480D01*
X42841763Y56958444D01*
X42873297Y56856617D01*
X42931951Y56767606D01*
X43013081Y56698460D01*
X43110262Y56654654D01*
X43215800Y56639656D01*
X44515800Y56639656D01*
X44575836Y56644443D01*
X44677663Y56675977D01*
X44766674Y56734631D01*
X44835820Y56815761D01*
X44850424Y56848160D01*
X45300250Y56848160D01*
X45411664Y56732787D01*
X45557369Y56631519D01*
X45719969Y56560481D01*
X45850822Y56531712D01*
X45679947Y56486526D01*
X45518069Y56407356D01*
X45463043Y56370588D01*
X45421467Y56208855D01*
X46000920Y55629403D01*
X46580373Y56208855D01*
X46538797Y56370588D01*
X46383036Y56461200D01*
X46212590Y56519683D01*
X46135484Y56530091D01*
X46245416Y56549475D01*
X46410847Y56613642D01*
X46560665Y56708719D01*
X46689162Y56831085D01*
X46791445Y56976079D01*
X46863616Y57138179D01*
X46902928Y57311210D01*
X46904981Y57458250D01*
X49082291Y57458250D01*
X49093486Y57278398D01*
X49139554Y57104187D01*
X49218724Y56942309D01*
X49255492Y56887283D01*
X49417225Y56845707D01*
X49996677Y57425160D01*
X50005163Y57425160D01*
X50584615Y56845707D01*
X50746348Y56887283D01*
X50836960Y57043044D01*
X50895443Y57213490D01*
X50919549Y57392070D01*
X50908354Y57571922D01*
X50862286Y57746133D01*
X50783116Y57908011D01*
X50746348Y57963037D01*
X50584615Y58004613D01*
X50005163Y57425160D01*
X49996677Y57425160D01*
X49417225Y58004613D01*
X49255492Y57963037D01*
X49164880Y57807276D01*
X49106397Y57636830D01*
X49082291Y57458250D01*
X46904981Y57458250D01*
X46905758Y57513880D01*
X46871293Y57687941D01*
X46803676Y57851993D01*
X46705482Y57999787D01*
X46696478Y58008855D01*
X49421467Y58008855D01*
X50000920Y57429403D01*
X50580373Y58008855D01*
X50538797Y58170588D01*
X50383036Y58261200D01*
X50212590Y58319683D01*
X50034010Y58343789D01*
X49854158Y58332594D01*
X49679947Y58286526D01*
X49518069Y58207356D01*
X49463043Y58170588D01*
X49421467Y58008855D01*
X46696478Y58008855D01*
X46580451Y58125693D01*
X46433347Y58224916D01*
X46269771Y58293677D01*
X46095955Y58329356D01*
X45918519Y58330595D01*
X45744222Y58297346D01*
X45579702Y58230876D01*
X45431226Y58133716D01*
X45304450Y58009568D01*
X45299378Y58002160D01*
X44761157Y58002160D01*
X44718519Y58038500D01*
X44621338Y58082306D01*
X44515800Y58097304D01*
X43215800Y58097304D01*
X43155764Y58092517D01*
X43053937Y58060983D01*
X42964926Y58002329D01*
X42895780Y57921199D01*
X42851974Y57824018D01*
X42836976Y57718480D01*
X40300892Y57718480D01*
X41931732Y59349320D01*
X46426120Y59349320D01*
X46693581Y59375545D01*
X46950854Y59453220D01*
X47034125Y59497496D01*
X47276120Y59497496D01*
X47336156Y59502283D01*
X47437983Y59533817D01*
X47526994Y59592471D01*
X47596140Y59673601D01*
X47639946Y59770782D01*
X47654944Y59876320D01*
X47654944Y60117656D01*
X47695526Y60192711D01*
X47774995Y60449436D01*
X47803086Y60716707D01*
X47778730Y60984344D01*
X47702852Y61242153D01*
X47654944Y61333793D01*
X47654944Y61576320D01*
X47650157Y61636356D01*
X47633990Y61688560D01*
X87696040Y61688560D01*
X87749083Y61693761D01*
X87802180Y61698407D01*
X87805091Y61699253D01*
X87808113Y61699549D01*
X87859163Y61714962D01*
X87910320Y61729824D01*
X87913013Y61731220D01*
X87915918Y61732097D01*
X87962989Y61757125D01*
X88010297Y61781647D01*
X88012667Y61783539D01*
X88015347Y61784964D01*
X88056645Y61818646D01*
X88098305Y61851903D01*
X88102532Y61856071D01*
X88102614Y61856138D01*
X88102676Y61856213D01*
X88104041Y61857559D01*
X88795160Y62548679D01*
X88795160Y47551385D01*
X82257854Y41014080D01*
X80144926Y41014080D01*
X80140099Y41018941D01*
X79954917Y41143847D01*
X79749001Y41230407D01*
X79530194Y41275321D01*
X79306830Y41276881D01*
X79087417Y41235025D01*
X78880313Y41151350D01*
X78693405Y41029041D01*
X78533814Y40872757D01*
X78407617Y40688452D01*
X78319623Y40483146D01*
X78273182Y40264657D01*
X78270063Y40041310D01*
X78310385Y39821610D01*
X78392613Y39613926D01*
X78513614Y39426170D01*
X78668780Y39265491D01*
X78852199Y39138011D01*
X79056887Y39048585D01*
X79275045Y39000620D01*
X79498366Y38995942D01*
X79718342Y39034730D01*
X79926594Y39115506D01*
X80115191Y39235193D01*
X80141325Y39260080D01*
X82621120Y39260080D01*
X82701720Y39267983D01*
X82782446Y39275045D01*
X82786876Y39276332D01*
X82791464Y39276782D01*
X82869007Y39300194D01*
X82946810Y39322798D01*
X82950903Y39324920D01*
X82955319Y39326253D01*
X83026860Y39364292D01*
X83098768Y39401566D01*
X83102371Y39404443D01*
X83106444Y39406608D01*
X83169218Y39457805D01*
X83232534Y39508349D01*
X83238954Y39514680D01*
X83239084Y39514786D01*
X83239183Y39514906D01*
X83241253Y39516947D01*
X90035425Y46311120D01*
X92181680Y46311120D01*
X92262280Y46319023D01*
X92343006Y46326085D01*
X92347436Y46327372D01*
X92352024Y46327822D01*
X92429567Y46351234D01*
X92507370Y46373838D01*
X92511463Y46375960D01*
X92515879Y46377293D01*
X92587420Y46415332D01*
X92659328Y46452606D01*
X92662931Y46455483D01*
X92667004Y46457648D01*
X92729778Y46508845D01*
X92793094Y46559389D01*
X92799514Y46565720D01*
X92799644Y46565826D01*
X92799743Y46565946D01*
X92801813Y46567987D01*
X94203893Y47970068D01*
X94255293Y48032643D01*
X94307385Y48094724D01*
X94309607Y48098765D01*
X94312534Y48102329D01*
X94350824Y48173739D01*
X94389842Y48244713D01*
X94391236Y48249107D01*
X94393416Y48253173D01*
X94417111Y48330676D01*
X94441595Y48407861D01*
X94442109Y48412442D01*
X94443458Y48416855D01*
X94451646Y48497463D01*
X94460675Y48577955D01*
X94460738Y48586967D01*
X94460755Y48587139D01*
X94460740Y48587299D01*
X94460760Y48590200D01*
X94460760Y64135619D01*
X94484634Y64151351D01*
X94553780Y64232481D01*
X94597586Y64329662D01*
X94612584Y64435200D01*
X94612584Y65135200D01*
X94607797Y65195236D01*
X94576263Y65297063D01*
X94517609Y65386074D01*
X94436479Y65455220D01*
X94339298Y65499026D01*
X94233760Y65514024D01*
X94070921Y65514024D01*
X93923611Y65593674D01*
X93760105Y65644287D01*
X93589883Y65662179D01*
X93419427Y65646666D01*
X93255230Y65598340D01*
X93103547Y65519042D01*
X93097306Y65514024D01*
X92933760Y65514024D01*
X92873724Y65509237D01*
X92771897Y65477703D01*
X92682886Y65419049D01*
X92613740Y65337919D01*
X92569934Y65240738D01*
X92554936Y65135200D01*
X92554936Y64435200D01*
X92559723Y64375164D01*
X92591257Y64273337D01*
X92649911Y64184326D01*
X92706760Y64135874D01*
X92706760Y48953465D01*
X91818414Y48065120D01*
X90549160Y48065120D01*
X90549160Y64166059D01*
X90573034Y64181791D01*
X90642180Y64262921D01*
X90685986Y64360102D01*
X90700984Y64465640D01*
X90700984Y65165640D01*
X90696197Y65225676D01*
X90664663Y65327503D01*
X90606009Y65416514D01*
X90524879Y65485660D01*
X90427698Y65529466D01*
X90322160Y65544464D01*
X90159321Y65544464D01*
X90012011Y65624114D01*
X89848505Y65674727D01*
X89678283Y65692619D01*
X89507827Y65677106D01*
X89343630Y65628780D01*
X89191947Y65549482D01*
X89185706Y65544464D01*
X89022160Y65544464D01*
X89016538Y65544016D01*
X89459338Y65986816D01*
X90322160Y65986816D01*
X90382196Y65991603D01*
X90484023Y66023137D01*
X90573034Y66081791D01*
X90642180Y66162921D01*
X90685986Y66260102D01*
X90700984Y66365640D01*
X90700984Y67065640D01*
X90696197Y67125676D01*
X90664663Y67227503D01*
X90606009Y67316514D01*
X90524879Y67385660D01*
X90427698Y67429466D01*
X90322160Y67444464D01*
X90249160Y67444464D01*
X90249160Y67465640D01*
X90243964Y67518637D01*
X90239314Y67571779D01*
X90238467Y67574694D01*
X90238171Y67577713D01*
X90222763Y67628747D01*
X90207896Y67679919D01*
X90206501Y67682611D01*
X90205623Y67685518D01*
X90180574Y67732628D01*
X90156073Y67779896D01*
X90154182Y67782264D01*
X90152756Y67784947D01*
X90119061Y67826261D01*
X90085818Y67867904D01*
X90081652Y67872128D01*
X90081582Y67872214D01*
X90081502Y67872280D01*
X90080161Y67873640D01*
X89040120Y68913682D01*
X89040120Y70816608D01*
X89567081Y70816608D01*
X89637070Y70435268D01*
X89779796Y70074785D01*
X89989821Y69748889D01*
X90259147Y69469994D01*
X90577515Y69248723D01*
X90932797Y69093503D01*
X91311463Y69010248D01*
X91699087Y69002129D01*
X92080907Y69069454D01*
X92442378Y69209659D01*
X92769732Y69417405D01*
X93050501Y69684777D01*
X93273989Y70001592D01*
X93431685Y70355782D01*
X93517581Y70733857D01*
X93523765Y71176695D01*
X93448458Y71557021D01*
X93300714Y71915476D01*
X93086158Y72238408D01*
X92812965Y72513515D01*
X92491539Y72730320D01*
X92134124Y72880564D01*
X91754333Y72958523D01*
X91366632Y72961230D01*
X90985790Y72888581D01*
X90626312Y72743342D01*
X90301890Y72531046D01*
X90024882Y72259780D01*
X89805839Y71939875D01*
X89653104Y71583518D01*
X89572494Y71204280D01*
X89567081Y70816608D01*
X89040120Y70816608D01*
X89040120Y74654645D01*
X89069763Y74539332D01*
X89225524Y74448720D01*
X89395970Y74390237D01*
X89574550Y74366131D01*
X89754402Y74377326D01*
X89928613Y74423394D01*
X90090491Y74502564D01*
X90145517Y74539332D01*
X90187093Y74701065D01*
X89607640Y75280517D01*
X89593498Y75266375D01*
X89589255Y75270618D01*
X89603397Y75284760D01*
X89611883Y75284760D01*
X90191335Y74705307D01*
X90353068Y74746883D01*
X90443680Y74902644D01*
X90502163Y75073090D01*
X90526269Y75251670D01*
X90515074Y75431522D01*
X90469006Y75605733D01*
X90389836Y75767611D01*
X90353068Y75822637D01*
X90191335Y75864213D01*
X89611883Y75284760D01*
X89603397Y75284760D01*
X89589255Y75298902D01*
X89593498Y75303145D01*
X89607640Y75289003D01*
X90187093Y75868455D01*
X90145517Y76030188D01*
X89989756Y76120800D01*
X89819310Y76179283D01*
X89742204Y76189691D01*
X89852136Y76209075D01*
X90017567Y76273242D01*
X90167385Y76368319D01*
X90295882Y76490685D01*
X90398165Y76635679D01*
X90470336Y76797779D01*
X90509648Y76970810D01*
X90512478Y77173480D01*
X90478013Y77347541D01*
X90410396Y77511593D01*
X90366647Y77577441D01*
X92835920Y77577441D01*
X92771600Y77466876D01*
X92713117Y77296430D01*
X92689011Y77117850D01*
X92700206Y76937998D01*
X92746274Y76763787D01*
X92825444Y76601909D01*
X92862212Y76546883D01*
X93023945Y76505307D01*
X93603397Y77084760D01*
X93589255Y77098902D01*
X93593498Y77103145D01*
X93607640Y77089003D01*
X93621782Y77103145D01*
X93626025Y77098902D01*
X93611883Y77084760D01*
X94191335Y76505307D01*
X94353068Y76546883D01*
X94443680Y76702644D01*
X94502163Y76873090D01*
X94526269Y77051670D01*
X94515074Y77231522D01*
X94469006Y77405733D01*
X94389836Y77567611D01*
X94383268Y77577441D01*
X94613916Y77577441D01*
X94613916Y74348066D01*
X94283289Y74678693D01*
X94295882Y74690685D01*
X94398165Y74835679D01*
X94470336Y74997779D01*
X94509648Y75170810D01*
X94512478Y75373480D01*
X94478013Y75547541D01*
X94410396Y75711593D01*
X94312202Y75859387D01*
X94187171Y75985293D01*
X94040067Y76084516D01*
X93876491Y76153277D01*
X93756557Y76177896D01*
X93928613Y76223394D01*
X94090491Y76302564D01*
X94145517Y76339332D01*
X94187093Y76501065D01*
X93607640Y77080517D01*
X93028187Y76501065D01*
X93069763Y76339332D01*
X93225524Y76248720D01*
X93395970Y76190237D01*
X93471800Y76180001D01*
X93350942Y76156946D01*
X93186422Y76090476D01*
X93037946Y75993316D01*
X92911170Y75869168D01*
X92810922Y75722759D01*
X92741021Y75559668D01*
X92704129Y75386105D01*
X92701652Y75208682D01*
X92733683Y75034157D01*
X92799003Y74869177D01*
X92895124Y74720027D01*
X93018384Y74592387D01*
X93030640Y74583869D01*
X93030640Y74538340D01*
X93035841Y74485297D01*
X93040487Y74432200D01*
X93041333Y74429289D01*
X93041629Y74426267D01*
X93057042Y74375217D01*
X93071904Y74324060D01*
X93073300Y74321367D01*
X93074177Y74318462D01*
X93099205Y74271391D01*
X93123727Y74224083D01*
X93125619Y74221713D01*
X93127044Y74219033D01*
X93160726Y74177735D01*
X93193983Y74136075D01*
X93198151Y74131848D01*
X93198218Y74131766D01*
X93198293Y74131704D01*
X93199639Y74130339D01*
X93931320Y73398658D01*
X93931320Y68598761D01*
X93175759Y67843201D01*
X93141904Y67801985D01*
X93107670Y67761186D01*
X93106210Y67758530D01*
X93104282Y67756183D01*
X93079066Y67709156D01*
X93053419Y67662504D01*
X93052503Y67659616D01*
X93051067Y67656938D01*
X93035461Y67605893D01*
X93019369Y67555165D01*
X93019031Y67552155D01*
X93018143Y67549249D01*
X93012757Y67496218D01*
X93006816Y67443256D01*
X93006775Y67437320D01*
X93006764Y67437214D01*
X93006773Y67437115D01*
X93006760Y67435200D01*
X93006760Y67414024D01*
X92933760Y67414024D01*
X92873724Y67409237D01*
X92771897Y67377703D01*
X92682886Y67319049D01*
X92613740Y67237919D01*
X92569934Y67140738D01*
X92554936Y67035200D01*
X92554936Y66335200D01*
X92559723Y66275164D01*
X92591257Y66173337D01*
X92649911Y66084326D01*
X92731041Y66015180D01*
X92828222Y65971374D01*
X92933760Y65956376D01*
X94233760Y65956376D01*
X94293796Y65961163D01*
X94395623Y65992697D01*
X94484634Y66051351D01*
X94553780Y66132481D01*
X94597586Y66229662D01*
X94612584Y66335200D01*
X94612584Y67035200D01*
X94607797Y67095236D01*
X94576263Y67197063D01*
X94517609Y67286074D01*
X94436479Y67355220D01*
X94356041Y67391479D01*
X94613916Y67649355D01*
X94613916Y63004441D01*
X94617833Y62964493D01*
X94621479Y62924429D01*
X94621902Y62922992D01*
X94622048Y62921503D01*
X94633644Y62883094D01*
X94645008Y62844484D01*
X94645703Y62843154D01*
X94646135Y62841724D01*
X94664987Y62806270D01*
X94683618Y62770632D01*
X94684556Y62769466D01*
X94685259Y62768143D01*
X94710680Y62736974D01*
X94735836Y62705685D01*
X94736981Y62704724D01*
X94737929Y62703562D01*
X94768918Y62677926D01*
X94799675Y62652118D01*
X94800987Y62651397D01*
X94802141Y62650442D01*
X94837510Y62631318D01*
X94872703Y62611970D01*
X94874129Y62611518D01*
X94875447Y62610805D01*
X94913877Y62598909D01*
X94952138Y62586772D01*
X94953624Y62586605D01*
X94955056Y62586162D01*
X94995103Y62581953D01*
X95034954Y62577483D01*
X95037823Y62577463D01*
X95037935Y62577451D01*
X95038047Y62577461D01*
X95040916Y62577441D01*
X95613916Y62577441D01*
X95613916Y40745417D01*
X95537492Y40860444D01*
X95380099Y41018941D01*
X95194917Y41143847D01*
X94989001Y41230407D01*
X94770194Y41275321D01*
X94546830Y41276881D01*
X94327417Y41235025D01*
X94120313Y41151350D01*
X93933405Y41029041D01*
X93773814Y40872757D01*
X93647617Y40688452D01*
X93559623Y40483146D01*
X93513182Y40264657D01*
X93510063Y40041310D01*
X93550385Y39821610D01*
X93632613Y39613926D01*
X93753614Y39426170D01*
X93908780Y39265491D01*
X94092199Y39138011D01*
X94296887Y39048585D01*
X94515045Y39000620D01*
X94738366Y38995942D01*
X94958342Y39034730D01*
X95166594Y39115506D01*
X95355191Y39235193D01*
X95516949Y39389233D01*
X95613916Y39526692D01*
X95613916Y31628072D01*
X95586378Y31669284D01*
X95400663Y31738940D01*
X94654803Y30993080D01*
X95400663Y30247220D01*
X95586378Y30316876D01*
X95613916Y30364141D01*
X95613916Y25931441D01*
X76793969Y25931441D01*
X76754021Y25927524D01*
X76713957Y25923878D01*
X76712520Y25923455D01*
X76711031Y25923309D01*
X76672622Y25911713D01*
X76634012Y25900349D01*
X76632682Y25899654D01*
X76631252Y25899222D01*
X76595798Y25880370D01*
X76560160Y25861739D01*
X76558994Y25860801D01*
X76557671Y25860098D01*
X76526502Y25834677D01*
X76495213Y25809521D01*
X76494252Y25808376D01*
X76493090Y25807428D01*
X76467454Y25776439D01*
X76451848Y25757840D01*
X74359190Y25757840D01*
X74262440Y25661090D01*
X74262440Y21507131D01*
X74256440Y21507131D01*
X74256440Y25661090D01*
X74159690Y25757840D01*
X71971324Y25757840D01*
X71896556Y25742968D01*
X71826127Y25713795D01*
X71762742Y25671442D01*
X71708837Y25617538D01*
X71666485Y25554153D01*
X71637312Y25483724D01*
X71622440Y25408956D01*
X71622440Y21507131D01*
X50317473Y21507131D01*
X50277565Y21503218D01*
X50237492Y21499574D01*
X50236039Y21499146D01*
X50234535Y21498999D01*
X50196163Y21487414D01*
X50157545Y21476051D01*
X50156200Y21475348D01*
X50154756Y21474912D01*
X50119328Y21456075D01*
X50083690Y21437446D01*
X50082512Y21436499D01*
X50081175Y21435788D01*
X50050036Y21410392D01*
X50018739Y21385233D01*
X50017767Y21384074D01*
X50016594Y21383118D01*
X49990977Y21352152D01*
X49965168Y21321398D01*
X49964439Y21320073D01*
X49963474Y21318906D01*
X49944365Y21283566D01*
X49925014Y21248373D01*
X49924556Y21246930D01*
X49923837Y21245600D01*
X49911967Y21207253D01*
X49899810Y21168940D01*
X49899641Y21167435D01*
X49899194Y21165991D01*
X49894994Y21126027D01*
X49890515Y21086124D01*
X49890495Y21083222D01*
X49890483Y21083112D01*
X49890493Y21083002D01*
X49890473Y21080162D01*
X49890400Y20081271D01*
X49898526Y19998333D01*
X49922607Y19918552D01*
X49961726Y19844968D01*
X50014391Y19780383D01*
X50078599Y19727258D01*
X50151902Y19687616D01*
X50231509Y19662967D01*
X50314388Y19654250D01*
X50343431Y19656891D01*
X68844512Y19656891D01*
X68708599Y19458395D01*
X68555864Y19102038D01*
X68475254Y18722800D01*
X68469841Y18335128D01*
X68539830Y17953788D01*
X68682556Y17593305D01*
X68892581Y17267409D01*
X69161907Y16988514D01*
X69480275Y16767243D01*
X69835557Y16612023D01*
X70214223Y16528768D01*
X70601847Y16520649D01*
X70983667Y16587974D01*
X71345138Y16728179D01*
X71622440Y16904161D01*
X71622440Y15332724D01*
X71637312Y15257956D01*
X71666485Y15187527D01*
X71708837Y15124142D01*
X71762742Y15070238D01*
X71826127Y15027885D01*
X71896556Y14998712D01*
X71971324Y14983840D01*
X74159690Y14983840D01*
X74256440Y15080590D01*
X74256440Y19656891D01*
X74262440Y19656891D01*
X74262440Y15080590D01*
X74359190Y14983840D01*
X76366969Y14983840D01*
X76366969Y110891D01*
X71664371Y110891D01*
X71672492Y116045D01*
X71953261Y383417D01*
X72176749Y700232D01*
X72334445Y1054422D01*
X72420341Y1432497D01*
X72426525Y1875335D01*
X72351218Y2255661D01*
X72203474Y2614116D01*
X71988918Y2937048D01*
X71715725Y3212155D01*
X71394299Y3428960D01*
X71036884Y3579204D01*
X70657093Y3657163D01*
X70269392Y3659870D01*
X69888550Y3587221D01*
X69529072Y3441982D01*
X69204650Y3229686D01*
X68927642Y2958420D01*
X68708599Y2638515D01*
X68555864Y2282158D01*
X68475254Y1902920D01*
X68469841Y1515248D01*
X68539830Y1133908D01*
X68682556Y773425D01*
X68892581Y447529D01*
X69161907Y168634D01*
X69244988Y110891D01*
X56576771Y110891D01*
X56584892Y116045D01*
X56865661Y383417D01*
X57089149Y700232D01*
X57246845Y1054422D01*
X57332741Y1432497D01*
X57338925Y1875335D01*
X57263618Y2255661D01*
X57115874Y2614116D01*
X56901318Y2937048D01*
X56628125Y3212155D01*
X56306699Y3428960D01*
X55949284Y3579204D01*
X55569493Y3657163D01*
X55181792Y3659870D01*
X54800950Y3587221D01*
X54441472Y3441982D01*
X54117050Y3229686D01*
X53840042Y2958420D01*
X53620999Y2638515D01*
X53468264Y2282158D01*
X53387654Y1902920D01*
X53382241Y1515248D01*
X53452230Y1133908D01*
X53594956Y773425D01*
X53804981Y447529D01*
X54074307Y168634D01*
X54157388Y110891D01*
X41481166Y110891D01*
X41497292Y121125D01*
X41778061Y388497D01*
X42001549Y705312D01*
X42159245Y1059502D01*
X42245141Y1437577D01*
X42251325Y1880415D01*
X42176018Y2260741D01*
X42028274Y2619196D01*
X41813718Y2942128D01*
X41540525Y3217235D01*
X41219099Y3434040D01*
X40861684Y3584284D01*
X40481893Y3662243D01*
X40094192Y3664950D01*
X39713350Y3592301D01*
X39353872Y3447062D01*
X39029450Y3234766D01*
X38752442Y2963500D01*
X38533399Y2643595D01*
X38380664Y2287238D01*
X38300054Y1908000D01*
X38294641Y1520328D01*
X38364630Y1138988D01*
X38507356Y778505D01*
X38717381Y452609D01*
X38986707Y173714D01*
X39077098Y110891D01*
X26393566Y110891D01*
X26409692Y121125D01*
X26690461Y388497D01*
X26913949Y705312D01*
X27071645Y1059502D01*
X27157541Y1437577D01*
X27163725Y1880415D01*
X27088418Y2260741D01*
X26940674Y2619196D01*
X26726118Y2942128D01*
X26452925Y3217235D01*
X26131499Y3434040D01*
X25774084Y3584284D01*
X25394293Y3662243D01*
X25006592Y3664950D01*
X24625750Y3592301D01*
X24266272Y3447062D01*
X23941850Y3234766D01*
X23664842Y2963500D01*
X23445799Y2643595D01*
X23293064Y2287238D01*
X23212454Y1908000D01*
X23207041Y1520328D01*
X23277030Y1138988D01*
X23419756Y778505D01*
X23629781Y452609D01*
X23899107Y173714D01*
X23989498Y110891D01*
X19267977Y110891D01*
X19267977Y14978760D01*
X21266730Y14978760D01*
X21363480Y15075510D01*
X21363480Y19656891D01*
X21369480Y19656891D01*
X21369480Y15075510D01*
X21466230Y14978760D01*
X23654596Y14978760D01*
X23729364Y14993632D01*
X23799793Y15022805D01*
X23863178Y15065158D01*
X23917083Y15119062D01*
X23959435Y15182447D01*
X23988608Y15252876D01*
X24003480Y15327644D01*
X24003480Y16914424D01*
X24222555Y16762163D01*
X24577837Y16606943D01*
X24956503Y16523688D01*
X25344127Y16515569D01*
X25725947Y16582894D01*
X26087418Y16723099D01*
X26414772Y16930845D01*
X26695541Y17198217D01*
X26919029Y17515032D01*
X27076725Y17869222D01*
X27162621Y18247297D01*
X27168805Y18690135D01*
X27093498Y19070461D01*
X26945754Y19428916D01*
X26794287Y19656891D01*
X45317473Y19656891D01*
X45400411Y19665023D01*
X45480190Y19689110D01*
X45553771Y19728234D01*
X45618352Y19780904D01*
X45671472Y19845116D01*
X45711109Y19918422D01*
X45735752Y19998031D01*
X45744463Y20080910D01*
X45740742Y20121799D01*
X45744470Y21078467D01*
X45740633Y21119233D01*
X45736910Y21160143D01*
X45736723Y21160779D01*
X45736661Y21161436D01*
X45724999Y21200614D01*
X45713381Y21240088D01*
X45713073Y21240677D01*
X45712885Y21241309D01*
X45693771Y21277598D01*
X45674771Y21313940D01*
X45674358Y21314454D01*
X45674048Y21315042D01*
X45648173Y21347021D01*
X45622553Y21378887D01*
X45622047Y21379312D01*
X45621630Y21379827D01*
X45590050Y21406160D01*
X45558714Y21432454D01*
X45558136Y21432772D01*
X45557626Y21433197D01*
X45521413Y21452961D01*
X45485686Y21472602D01*
X45485061Y21472800D01*
X45484475Y21473120D01*
X45445019Y21485502D01*
X45406251Y21497800D01*
X45405599Y21497873D01*
X45404962Y21498073D01*
X45363749Y21502567D01*
X45323435Y21507089D01*
X45322204Y21507098D01*
X45322118Y21507107D01*
X45322025Y21507099D01*
X45317473Y21507131D01*
X24003480Y21507131D01*
X24003480Y25403876D01*
X23988608Y25478644D01*
X23974308Y25513168D01*
X31335041Y25513168D01*
X31405030Y25131828D01*
X31547756Y24771345D01*
X31757781Y24445449D01*
X32027107Y24166554D01*
X32345475Y23945283D01*
X32700757Y23790063D01*
X33079423Y23706808D01*
X33467047Y23698689D01*
X33848867Y23766014D01*
X34210338Y23906219D01*
X34537692Y24113965D01*
X34818461Y24381337D01*
X35041949Y24698152D01*
X35199645Y25052342D01*
X35285541Y25430417D01*
X35291725Y25873255D01*
X35216418Y26253581D01*
X35068674Y26612036D01*
X34854118Y26934968D01*
X34580925Y27210075D01*
X34259499Y27426880D01*
X33902084Y27577124D01*
X33522293Y27655083D01*
X33134592Y27657790D01*
X32753750Y27585141D01*
X32394272Y27439902D01*
X32069850Y27227606D01*
X31792842Y26956340D01*
X31573799Y26636435D01*
X31421064Y26280078D01*
X31340454Y25900840D01*
X31335041Y25513168D01*
X23974308Y25513168D01*
X23959435Y25549073D01*
X23917083Y25612458D01*
X23863178Y25666362D01*
X23799793Y25708715D01*
X23729364Y25737888D01*
X23654596Y25752760D01*
X21466230Y25752760D01*
X21369480Y25656010D01*
X21369480Y21507131D01*
X21363480Y21507131D01*
X21363480Y25656010D01*
X21266730Y25752760D01*
X19186830Y25752760D01*
X19171213Y25771908D01*
X19146057Y25803197D01*
X19144912Y25804158D01*
X19143964Y25805320D01*
X19112975Y25830956D01*
X19082218Y25856764D01*
X19080906Y25857485D01*
X19079752Y25858440D01*
X19044383Y25877564D01*
X19009190Y25896912D01*
X19007764Y25897364D01*
X19006446Y25898077D01*
X18968016Y25909973D01*
X18929755Y25922110D01*
X18928269Y25922277D01*
X18926837Y25922720D01*
X18886790Y25926929D01*
X18846939Y25931399D01*
X18844070Y25931419D01*
X18843958Y25931431D01*
X18843846Y25931421D01*
X18840977Y25931441D01*
X467916Y25931441D01*
X467916Y27844888D01*
X575641Y27844888D01*
X645630Y27463548D01*
X788356Y27103065D01*
X998381Y26777169D01*
X1267707Y26498274D01*
X1586075Y26277003D01*
X1941357Y26121783D01*
X2320023Y26038528D01*
X2707647Y26030409D01*
X3089467Y26097734D01*
X3450938Y26237939D01*
X3778292Y26445685D01*
X4059061Y26713057D01*
X4282549Y27029872D01*
X4440245Y27384062D01*
X4526141Y27762137D01*
X4532325Y28204975D01*
X4457018Y28585301D01*
X4309274Y28943756D01*
X4094718Y29266688D01*
X3821525Y29541795D01*
X3500099Y29758600D01*
X3142684Y29908844D01*
X2762893Y29986803D01*
X2375192Y29989510D01*
X1994350Y29916861D01*
X1634872Y29771622D01*
X1310450Y29559326D01*
X1033442Y29288060D01*
X814399Y28968155D01*
X661664Y28611798D01*
X581054Y28232560D01*
X575641Y27844888D01*
X467916Y27844888D01*
X467916Y32516606D01*
X15325590Y32516606D01*
X15349557Y32386021D01*
X15398431Y32262577D01*
X15470352Y32150978D01*
X15562580Y32055474D01*
X15671601Y31979702D01*
X15793263Y31926549D01*
X15922933Y31898039D01*
X16055670Y31895259D01*
X16186420Y31918314D01*
X16219600Y31931183D01*
X16218190Y31830236D01*
X16242157Y31699651D01*
X16291031Y31576207D01*
X16362952Y31464608D01*
X16455180Y31369104D01*
X16564201Y31293332D01*
X16685863Y31240179D01*
X16752161Y31225602D01*
X16773294Y31207870D01*
X16775950Y31206410D01*
X16778297Y31204482D01*
X16825289Y31179285D01*
X16871976Y31153619D01*
X16874869Y31152701D01*
X16877542Y31151268D01*
X16928541Y31135675D01*
X16979315Y31119569D01*
X16982326Y31119231D01*
X16985231Y31118343D01*
X17038262Y31112957D01*
X17091224Y31107016D01*
X17097160Y31106975D01*
X17097266Y31106964D01*
X17097365Y31106973D01*
X17099280Y31106960D01*
X18904895Y31106960D01*
X19045775Y30966080D01*
X19086935Y30932271D01*
X19127790Y30897990D01*
X19130450Y30896528D01*
X19132793Y30894603D01*
X19179747Y30869427D01*
X19226472Y30843739D01*
X19229365Y30842821D01*
X19232038Y30841388D01*
X19282996Y30825808D01*
X19333811Y30809689D01*
X19336827Y30809351D01*
X19339727Y30808464D01*
X19392708Y30803082D01*
X19445720Y30797136D01*
X19451656Y30797095D01*
X19451762Y30797084D01*
X19451861Y30797093D01*
X19453776Y30797080D01*
X19521949Y30797080D01*
X19546161Y30780252D01*
X19667823Y30727099D01*
X19797493Y30698589D01*
X19930230Y30695809D01*
X20060980Y30718864D01*
X20184761Y30766875D01*
X20296860Y30838015D01*
X20393006Y30929574D01*
X20469537Y31038063D01*
X20523538Y31159352D01*
X20552952Y31288819D01*
X20555069Y31440463D01*
X20529281Y31570701D01*
X20520945Y31590926D01*
X37405573Y31590926D01*
X37427277Y31352443D01*
X37494888Y31122718D01*
X37605833Y30910500D01*
X37755885Y30723873D01*
X37939328Y30569946D01*
X38149176Y30454581D01*
X38377435Y30382173D01*
X38615411Y30355480D01*
X38632543Y30355360D01*
X38644417Y30355360D01*
X38882743Y30378728D01*
X39111990Y30447942D01*
X39323428Y30560366D01*
X39509003Y30711717D01*
X39661646Y30896230D01*
X39775543Y31106878D01*
X39846356Y31335637D01*
X39871387Y31573794D01*
X39849683Y31812277D01*
X39782072Y32042002D01*
X39671127Y32254220D01*
X39521075Y32440847D01*
X39337632Y32594774D01*
X39127784Y32710139D01*
X38899525Y32782547D01*
X38661549Y32809240D01*
X38644417Y32809360D01*
X38632543Y32809360D01*
X38394217Y32785992D01*
X38164970Y32716778D01*
X37953532Y32604354D01*
X37767957Y32453003D01*
X37615314Y32268490D01*
X37501417Y32057842D01*
X37430604Y31829083D01*
X37405573Y31590926D01*
X20520945Y31590926D01*
X20491245Y31662984D01*
X20585550Y31661009D01*
X20716300Y31684064D01*
X20840081Y31732075D01*
X20952180Y31803215D01*
X21048326Y31894774D01*
X21124857Y32003263D01*
X21178858Y32124552D01*
X21208272Y32254019D01*
X21210389Y32405663D01*
X21184601Y32535901D01*
X21134008Y32658650D01*
X21060536Y32769234D01*
X20966984Y32863442D01*
X20856916Y32937684D01*
X20734523Y32989133D01*
X20690465Y32998177D01*
X20641362Y33047280D01*
X20600146Y33081135D01*
X20559347Y33115369D01*
X20556691Y33116829D01*
X20554344Y33118757D01*
X20507317Y33143973D01*
X20460665Y33169620D01*
X20457777Y33170536D01*
X20455099Y33171972D01*
X20404054Y33187578D01*
X20353326Y33203670D01*
X20350316Y33204008D01*
X20347410Y33204896D01*
X20294379Y33210282D01*
X20241417Y33216223D01*
X20235481Y33216264D01*
X20235375Y33216275D01*
X20235276Y33216266D01*
X20233361Y33216279D01*
X17882447Y33216279D01*
X17884105Y33217331D01*
X33783851Y33217331D01*
X33836894Y33222532D01*
X33889991Y33227178D01*
X33892902Y33228024D01*
X33895924Y33228320D01*
X33946974Y33243733D01*
X33998131Y33258595D01*
X34000824Y33259991D01*
X34003729Y33260868D01*
X34050800Y33285896D01*
X34098108Y33310418D01*
X34100478Y33312310D01*
X34103158Y33313735D01*
X34144456Y33347417D01*
X34186116Y33380674D01*
X34190343Y33384842D01*
X34190425Y33384909D01*
X34190487Y33384984D01*
X34191852Y33386330D01*
X35267419Y34461897D01*
X35332133Y34447669D01*
X35464870Y34444889D01*
X35595620Y34467944D01*
X35719401Y34515955D01*
X35831500Y34587095D01*
X35927646Y34678654D01*
X36004177Y34787143D01*
X36058178Y34908432D01*
X36072701Y34972360D01*
X37409656Y34972360D01*
X37409656Y33272360D01*
X37414443Y33212324D01*
X37445977Y33110497D01*
X37504631Y33021486D01*
X37585761Y32952340D01*
X37682942Y32908534D01*
X37788480Y32893536D01*
X39488480Y32893536D01*
X39548516Y32898323D01*
X39650343Y32929857D01*
X39739354Y32988511D01*
X39808500Y33069641D01*
X39852306Y33166822D01*
X39867304Y33272360D01*
X39867304Y34972360D01*
X39862517Y35032396D01*
X39830983Y35134223D01*
X39772329Y35223234D01*
X39691199Y35292380D01*
X39594018Y35336186D01*
X39488480Y35351184D01*
X37788480Y35351184D01*
X37728444Y35346397D01*
X37626617Y35314863D01*
X37537606Y35256209D01*
X37468460Y35175079D01*
X37424654Y35077898D01*
X37409656Y34972360D01*
X36072701Y34972360D01*
X36087592Y35037899D01*
X36089709Y35189543D01*
X36063921Y35319781D01*
X36013328Y35442530D01*
X35939856Y35553114D01*
X35846304Y35647322D01*
X35736236Y35721564D01*
X35613843Y35773013D01*
X35483788Y35799709D01*
X35351025Y35800636D01*
X35220610Y35775758D01*
X35097511Y35726023D01*
X35048559Y35693990D01*
X35006540Y35690313D01*
X35003629Y35689467D01*
X35000607Y35689171D01*
X34949557Y35673758D01*
X34898400Y35658896D01*
X34895707Y35657500D01*
X34892802Y35656623D01*
X34870985Y35645023D01*
X38403363Y39177401D01*
X38430260Y39182144D01*
X38554041Y39230155D01*
X38666140Y39301295D01*
X38762286Y39392854D01*
X38838817Y39501343D01*
X38892818Y39622632D01*
X38922232Y39752099D01*
X38924349Y39903743D01*
X38898561Y40033981D01*
X38847968Y40156730D01*
X38774496Y40267314D01*
X38680944Y40361522D01*
X38570876Y40435764D01*
X38448483Y40487213D01*
X38318428Y40513909D01*
X38185665Y40514836D01*
X38055250Y40489958D01*
X37932151Y40440223D01*
X37821056Y40367525D01*
X37726198Y40274633D01*
X37651190Y40165085D01*
X37598887Y40043055D01*
X37588596Y39994638D01*
X33312325Y35718367D01*
X33213028Y35738749D01*
X33080265Y35739676D01*
X32949850Y35714798D01*
X32826751Y35665063D01*
X32787228Y35639200D01*
X30773138Y35639200D01*
X34825687Y39691750D01*
X34857023Y39678059D01*
X34986693Y39649549D01*
X35119430Y39646769D01*
X35250180Y39669824D01*
X35373961Y39717835D01*
X35486060Y39788975D01*
X35582206Y39880534D01*
X35658737Y39989023D01*
X35712738Y40110312D01*
X35742152Y40239779D01*
X35744269Y40391423D01*
X35718481Y40521661D01*
X35667888Y40644410D01*
X35594416Y40754994D01*
X35500864Y40849202D01*
X35390796Y40923444D01*
X35268403Y40974893D01*
X35138348Y41001589D01*
X35005585Y41002516D01*
X34875170Y40977638D01*
X34752071Y40927903D01*
X34712548Y40902040D01*
X34642976Y40902040D01*
X34589979Y40896844D01*
X34536837Y40892194D01*
X34533922Y40891347D01*
X34530903Y40891051D01*
X34479869Y40875643D01*
X34428697Y40860776D01*
X34426005Y40859381D01*
X34423098Y40858503D01*
X34375988Y40833454D01*
X34328720Y40808953D01*
X34326352Y40807062D01*
X34323669Y40805636D01*
X34282355Y40771941D01*
X34240712Y40738698D01*
X34236488Y40734532D01*
X34236402Y40734462D01*
X34236336Y40734382D01*
X34234976Y40733041D01*
X29801494Y36299560D01*
X19471299Y36299560D01*
X19453144Y36317842D01*
X19343076Y36392084D01*
X19220683Y36443533D01*
X19090628Y36470229D01*
X18957865Y36471156D01*
X18827450Y36446278D01*
X18704351Y36396543D01*
X18593256Y36323845D01*
X18498398Y36230953D01*
X18423390Y36121405D01*
X18371087Y35999375D01*
X18343484Y35869510D01*
X18341630Y35736756D01*
X18359535Y35639200D01*
X17387256Y35639200D01*
X17334213Y35633999D01*
X17281116Y35629353D01*
X17278205Y35628507D01*
X17275183Y35628211D01*
X17224133Y35612798D01*
X17172976Y35597936D01*
X17170283Y35596540D01*
X17167378Y35595663D01*
X17120307Y35570635D01*
X17072999Y35546113D01*
X17070629Y35544221D01*
X17067949Y35542796D01*
X17026651Y35509114D01*
X16984991Y35475857D01*
X16980768Y35471692D01*
X16980682Y35471622D01*
X16980616Y35471542D01*
X16979255Y35470200D01*
X16633073Y35124019D01*
X16633068Y35124013D01*
X16584429Y35075375D01*
X16549005Y35068617D01*
X16425906Y35018882D01*
X16314811Y34946184D01*
X16219953Y34853292D01*
X16144945Y34743744D01*
X16092642Y34621714D01*
X16065039Y34491849D01*
X16063185Y34359095D01*
X16087152Y34228510D01*
X16136026Y34105066D01*
X16207947Y33993467D01*
X16300175Y33897963D01*
X16409196Y33822191D01*
X16530858Y33769038D01*
X16660528Y33740528D01*
X16793265Y33737748D01*
X16852048Y33748113D01*
X16851898Y33737407D01*
X16875865Y33606822D01*
X16924739Y33483378D01*
X16996660Y33371779D01*
X17088888Y33276275D01*
X17175210Y33216279D01*
X16221543Y33216279D01*
X16204643Y33223383D01*
X16074588Y33250079D01*
X15941825Y33251006D01*
X15811410Y33226128D01*
X15688311Y33176393D01*
X15577216Y33103695D01*
X15482358Y33010803D01*
X15407350Y32901255D01*
X15355047Y32779225D01*
X15327444Y32649360D01*
X15325590Y32516606D01*
X467916Y32516606D01*
X467916Y41591810D01*
X988040Y41591810D01*
X988040Y40803444D01*
X1002912Y40728676D01*
X1032085Y40658247D01*
X1074438Y40594862D01*
X1128342Y40540957D01*
X1191727Y40498605D01*
X1262156Y40469432D01*
X1336924Y40454560D01*
X2125290Y40454560D01*
X2222040Y40551310D01*
X2222040Y41688560D01*
X2228040Y41688560D01*
X2228040Y40551310D01*
X2324790Y40454560D01*
X3113156Y40454560D01*
X3187924Y40469432D01*
X3258353Y40498605D01*
X3321738Y40540957D01*
X3375642Y40594862D01*
X3417995Y40658247D01*
X3447168Y40728676D01*
X3462040Y40803444D01*
X3462040Y41591810D01*
X3365290Y41688560D01*
X2228040Y41688560D01*
X2222040Y41688560D01*
X1084790Y41688560D01*
X988040Y41591810D01*
X467916Y41591810D01*
X467916Y42579676D01*
X988040Y42579676D01*
X988040Y41791310D01*
X1084790Y41694560D01*
X2222040Y41694560D01*
X2222040Y42831810D01*
X2228040Y42831810D01*
X2228040Y41694560D01*
X3365290Y41694560D01*
X3462040Y41791310D01*
X3462040Y42579676D01*
X3447168Y42654444D01*
X3417995Y42724873D01*
X3375642Y42788258D01*
X3321738Y42842163D01*
X3258353Y42884515D01*
X3187924Y42913688D01*
X3113156Y42928560D01*
X2324790Y42928560D01*
X2228040Y42831810D01*
X2222040Y42831810D01*
X2125290Y42928560D01*
X1336924Y42928560D01*
X1262156Y42913688D01*
X1191727Y42884515D01*
X1128342Y42842163D01*
X1074438Y42788258D01*
X1032085Y42724873D01*
X1002912Y42654444D01*
X988040Y42579676D01*
X467916Y42579676D01*
X467916Y62577441D01*
X1040916Y62577441D01*
X1080864Y62581358D01*
X1120928Y62585004D01*
X1122365Y62585427D01*
X1123854Y62585573D01*
X1162263Y62597169D01*
X1200873Y62608533D01*
X1202203Y62609228D01*
X1203633Y62609660D01*
X1239087Y62628512D01*
X1274725Y62647143D01*
X1275891Y62648081D01*
X1277214Y62648784D01*
X1308383Y62674205D01*
X1339672Y62699361D01*
X1340633Y62700506D01*
X1341795Y62701454D01*
X1367431Y62732443D01*
X1393239Y62763200D01*
X1393960Y62764512D01*
X1394915Y62765666D01*
X1414039Y62801035D01*
X1433387Y62836228D01*
X1433839Y62837654D01*
X1434552Y62838972D01*
X1446448Y62877402D01*
X1458585Y62915663D01*
X1458752Y62917149D01*
X1459195Y62918581D01*
X1463404Y62958628D01*
X1467874Y62998479D01*
X1467894Y63001348D01*
X1467906Y63001460D01*
X1467896Y63001572D01*
X1467916Y63004441D01*
X1467916Y63100762D01*
X2542414Y62026264D01*
X1395360Y62026264D01*
X1335324Y62021477D01*
X1233497Y61989943D01*
X1144486Y61931289D01*
X1075340Y61850159D01*
X1031534Y61752978D01*
X1016536Y61647440D01*
X1016536Y59947440D01*
X1021323Y59887404D01*
X1052857Y59785577D01*
X1111511Y59696566D01*
X1192641Y59627420D01*
X1289822Y59583614D01*
X1395360Y59568616D01*
X3095360Y59568616D01*
X3155396Y59573403D01*
X3257223Y59604937D01*
X3346234Y59663591D01*
X3415380Y59744721D01*
X3459186Y59841902D01*
X3474184Y59947440D01*
X3474184Y61094495D01*
X5005069Y59563610D01*
X5005069Y41651771D01*
X5010270Y41598728D01*
X5014916Y41545631D01*
X5015762Y41542720D01*
X5016058Y41539698D01*
X5031471Y41488648D01*
X5046333Y41437491D01*
X5047729Y41434798D01*
X5048606Y41431893D01*
X5073634Y41384822D01*
X5098156Y41337514D01*
X5100048Y41335144D01*
X5101473Y41332464D01*
X5135155Y41291166D01*
X5168412Y41249506D01*
X5172580Y41245279D01*
X5172647Y41245197D01*
X5172722Y41245135D01*
X5174068Y41243770D01*
X11443289Y34974550D01*
X11443360Y34974478D01*
X11491720Y34926118D01*
X11497437Y34894971D01*
X11546311Y34771527D01*
X11618232Y34659928D01*
X11710460Y34564424D01*
X11819481Y34488652D01*
X11941143Y34435499D01*
X12070813Y34406989D01*
X12203550Y34404209D01*
X12334300Y34427264D01*
X12458081Y34475275D01*
X12570180Y34546415D01*
X12666326Y34637974D01*
X12742857Y34746463D01*
X12796858Y34867752D01*
X12826272Y34997219D01*
X12828389Y35148863D01*
X12802601Y35279101D01*
X12752008Y35401850D01*
X12678536Y35512434D01*
X12584984Y35606642D01*
X12474916Y35680884D01*
X12352523Y35732333D01*
X12308465Y35741377D01*
X12259362Y35790480D01*
X12259356Y35790485D01*
X10394400Y37655441D01*
X10542166Y37699492D01*
X10693571Y37779319D01*
X10826588Y37887033D01*
X10936149Y38018533D01*
X11018082Y38168809D01*
X11069266Y38332137D01*
X11087752Y38502296D01*
X11072834Y38672806D01*
X11025082Y38837170D01*
X10946314Y38989128D01*
X10839531Y39122894D01*
X10830932Y39131613D01*
X7359080Y42603466D01*
X7359080Y64318499D01*
X7382954Y64334231D01*
X7452100Y64415361D01*
X7495906Y64512542D01*
X7510904Y64618080D01*
X7510904Y65318080D01*
X7506117Y65378116D01*
X7474583Y65479943D01*
X7415929Y65568954D01*
X7334799Y65638100D01*
X7237618Y65681906D01*
X7132080Y65696904D01*
X6983144Y65696904D01*
X6978653Y65700594D01*
X6916596Y65752665D01*
X6912555Y65754887D01*
X6908991Y65757814D01*
X6837581Y65796104D01*
X6766607Y65835122D01*
X6762213Y65836516D01*
X6758147Y65838696D01*
X6680631Y65862395D01*
X6603459Y65886875D01*
X6598879Y65887389D01*
X6594466Y65888738D01*
X6513848Y65896927D01*
X6433365Y65905955D01*
X6424354Y65906018D01*
X6424182Y65906035D01*
X6424022Y65906020D01*
X6421120Y65906040D01*
X2743200Y65906040D01*
X2572856Y65889338D01*
X2409001Y65839867D01*
X2270200Y65766065D01*
X2270200Y65940038D01*
X2530377Y66200216D01*
X3393200Y66200216D01*
X3453236Y66205003D01*
X3555063Y66236537D01*
X3644074Y66295191D01*
X3713220Y66376321D01*
X3757026Y66473502D01*
X3772024Y66579040D01*
X3772024Y67279040D01*
X3767237Y67339076D01*
X3735703Y67440903D01*
X3677049Y67529914D01*
X3595919Y67599060D01*
X3498738Y67642866D01*
X3393200Y67657864D01*
X3320200Y67657864D01*
X3320200Y67679040D01*
X3314995Y67732129D01*
X3310353Y67785180D01*
X3309507Y67788091D01*
X3309211Y67791113D01*
X3293798Y67842163D01*
X3278936Y67893320D01*
X3277540Y67896013D01*
X3276663Y67898918D01*
X3251614Y67946028D01*
X3227112Y67993297D01*
X3225223Y67995664D01*
X3223796Y67998347D01*
X3190091Y68039672D01*
X3156857Y68081305D01*
X3152692Y68085528D01*
X3152622Y68085614D01*
X3152542Y68085680D01*
X3151200Y68087041D01*
X2129760Y69108482D01*
X2129760Y70801368D01*
X2567001Y70801368D01*
X2636990Y70420028D01*
X2779716Y70059545D01*
X2989741Y69733649D01*
X3259067Y69454754D01*
X3577435Y69233483D01*
X3932717Y69078263D01*
X4311383Y68995008D01*
X4699007Y68986889D01*
X5080827Y69054214D01*
X5442298Y69194419D01*
X5769652Y69402165D01*
X6050421Y69669537D01*
X6273909Y69986352D01*
X6431605Y70340542D01*
X6517501Y70718617D01*
X6523685Y71161455D01*
X6448378Y71541781D01*
X6300634Y71900236D01*
X6086078Y72223168D01*
X5812885Y72498275D01*
X5491459Y72715080D01*
X5134044Y72865324D01*
X4754253Y72943283D01*
X4366552Y72945990D01*
X3985710Y72873341D01*
X3626232Y72728102D01*
X3301810Y72515806D01*
X3024802Y72244540D01*
X2805759Y71924635D01*
X2653024Y71568278D01*
X2572414Y71189040D01*
X2567001Y70801368D01*
X2129760Y70801368D01*
X2129760Y74437975D01*
X2268890Y74390237D01*
X2447470Y74366131D01*
X2627322Y74377326D01*
X2801533Y74423394D01*
X2963411Y74502564D01*
X3018437Y74539332D01*
X3060013Y74701065D01*
X2480560Y75280517D01*
X2466418Y75266375D01*
X2462175Y75270618D01*
X2476317Y75284760D01*
X2484803Y75284760D01*
X3064255Y74705307D01*
X3225988Y74746883D01*
X3316600Y74902644D01*
X3375083Y75073090D01*
X3399189Y75251670D01*
X3387994Y75431522D01*
X3341926Y75605733D01*
X3262756Y75767611D01*
X3225988Y75822637D01*
X3064255Y75864213D01*
X2484803Y75284760D01*
X2476317Y75284760D01*
X2462175Y75298902D01*
X2466418Y75303145D01*
X2480560Y75289003D01*
X3060013Y75868455D01*
X3018437Y76030188D01*
X2862676Y76120800D01*
X2692230Y76179283D01*
X2615124Y76189691D01*
X2725056Y76209075D01*
X2890487Y76273242D01*
X3040305Y76368319D01*
X3168802Y76490685D01*
X3271085Y76635679D01*
X3343256Y76797779D01*
X3382568Y76970810D01*
X3385398Y77173480D01*
X3350933Y77347541D01*
X3283316Y77511593D01*
X3239567Y77577441D01*
X5708840Y77577441D01*
X5644520Y77466876D01*
M02*
