G04 #@! TF.FileFunction,Profile,NP*
%FSLAX46Y46*%
G04 Gerber Fmt 4.6, Leading zero omitted, Abs format (unit mm)*
G04 Created by KiCad (PCBNEW 4.0.7) date 11/25/18 15:18:33*
%MOMM*%
%LPD*%
G01*
G04 APERTURE LIST*
%ADD10C,0.100000*%
G04 APERTURE END LIST*
D10*
X51540916Y63004441D02*
X88040916Y63004441D01*
X88040916Y63004441D02*
X88040916Y78004441D01*
X40916Y63004441D02*
X1040916Y63004441D01*
X50317400Y20081240D02*
X50317473Y21080131D01*
X8040916Y78004441D02*
X8040916Y63004441D01*
X44540916Y70004441D02*
X51540916Y70004441D01*
X50317473Y20083891D02*
X76793969Y20083891D01*
X40916Y25504441D02*
X18840977Y25504441D01*
X96040916Y25504441D02*
X76793969Y25504441D01*
X88040916Y78004441D02*
X95040916Y78004441D01*
X18840977Y21080131D02*
X18840977Y25504441D01*
X95040916Y78004441D02*
X95040916Y63004441D01*
X18840977Y20083891D02*
X45317473Y20083891D01*
X18840977Y-316109D02*
X18840977Y20083891D01*
X45317473Y21080131D02*
X18840977Y21080131D01*
X40916Y25504441D02*
X40916Y63004441D01*
X1040916Y63004441D02*
X1040916Y78004441D01*
X95040916Y63004441D02*
X96040916Y63004441D01*
X45313600Y20086320D02*
X45317473Y21080131D01*
X44540916Y63004441D02*
X44540916Y70004441D01*
X18840977Y-316109D02*
X76793969Y-316109D01*
X51540916Y63004441D02*
X51540916Y70004441D01*
X76793969Y25504441D02*
X76793969Y21080131D01*
X8040916Y63004441D02*
X44540916Y63004441D01*
X96040916Y63004441D02*
X96040916Y25504441D01*
X76793969Y-316109D02*
X76793969Y20083891D01*
X1040916Y78004441D02*
X8040916Y78004441D01*
X76793969Y21080131D02*
X50317473Y21080131D01*
M02*
