G04 #@! TF.FileFunction,Profile,NP*
%FSLAX46Y46*%
G04 Gerber Fmt 4.6, Leading zero omitted, Abs format (unit mm)*
G04 Created by KiCad (PCBNEW 4.0.7) date 11/19/18 15:24:20*
%MOMM*%
%LPD*%
G01*
G04 APERTURE LIST*
%ADD10C,0.100000*%
G04 APERTURE END LIST*
D10*
X61637263Y4929373D02*
X64496763Y6624314D01*
X82082253Y11450622D02*
X79370003Y11368426D01*
X76914253Y11133175D02*
X74686503Y10761875D01*
X65223532Y29662033D02*
X65223532Y39562033D01*
X55623532Y29662033D02*
X65223532Y29662033D01*
X72658253Y10271533D02*
X70801003Y9679154D01*
X69086253Y9001744D02*
X67485503Y8256310D01*
X23652503Y6629394D02*
X26512003Y4934453D01*
X82042586Y41161710D02*
X88082253Y31572482D01*
X79370003Y11368426D02*
X76914253Y11133175D01*
X88082253Y31572482D02*
X88082253Y11450622D01*
X74686503Y10761875D02*
X72658253Y10271533D01*
X70801003Y9679154D02*
X69086253Y9001744D01*
X65223532Y39562033D02*
X55623532Y39562033D01*
X82082253Y11450622D02*
X88082253Y11450622D01*
X55623532Y39562033D02*
X55623532Y29662033D01*
X8794503Y11368426D02*
X11250253Y11133175D01*
X38914253Y430671D02*
X41370003Y195420D01*
X32801003Y1884692D02*
X34658253Y1292313D01*
X19078253Y9001744D02*
X20679003Y8256310D01*
X17363503Y9679154D02*
X19078253Y9001744D01*
X82253Y11450622D02*
X6082253Y11450622D01*
X31086253Y2562102D02*
X32801003Y1884692D01*
X27970253Y4103988D02*
X29485503Y3307536D01*
X11250253Y11133175D02*
X13478003Y10761875D01*
X20679003Y8256310D02*
X22194253Y7459858D01*
X13478003Y10761875D02*
X15506253Y10271533D01*
X6082253Y11450622D02*
X8794503Y11368426D01*
X16882237Y41161710D02*
X6121394Y41161710D01*
X16882284Y44161773D02*
X16882237Y41161710D01*
X6121374Y49661668D02*
X6121420Y44161731D01*
X6121374Y49661668D02*
X82042581Y49661664D01*
X82042581Y49661664D02*
X82042592Y44161785D01*
X71282237Y41161710D02*
X82042586Y41161710D01*
X71282248Y44161776D02*
X71282237Y41161710D01*
X82253Y11450622D02*
X82253Y31573166D01*
X82253Y31573166D02*
X6121394Y41161710D01*
X67485503Y8256310D02*
X65970253Y7459858D01*
X65970253Y7459858D02*
X64495680Y6624320D01*
X16882284Y44161773D02*
X6121420Y44161731D01*
X61637263Y4929373D02*
X60179013Y4098908D01*
X57078253Y2562102D02*
X55363503Y1884692D01*
X41370003Y195420D02*
X44082253Y113224D01*
X22194253Y7459858D02*
X23652503Y6629394D01*
X60179013Y4098908D02*
X58679080Y3307080D01*
X58679003Y3307536D02*
X57078253Y2562102D01*
X55363503Y1884692D02*
X53506253Y1292313D01*
X29485503Y3307536D02*
X31086253Y2562102D01*
X53506253Y1292313D02*
X51478003Y801971D01*
X71282248Y44161776D02*
X82042592Y44161785D01*
X34658253Y1292313D02*
X36686503Y801971D01*
X51478003Y801971D02*
X49250253Y430671D01*
X26512003Y4934453D02*
X27970253Y4103988D01*
X49250253Y430671D02*
X46794503Y195420D01*
X46794503Y195420D02*
X44082253Y113224D01*
X36686503Y801971D02*
X38914253Y430671D01*
X15506253Y10271533D02*
X17363503Y9679154D01*
M02*
