M48
;DRILL file {KiCad 4.0.7} date 11/19/18 15:24:37
;FORMAT={-:-/ absolute / inch / decimal}
FMAT,2
INCH,TZ
T1C0.016
T2C0.020
T3C0.030
T4C0.031
T5C0.035
T6C0.039
T7C0.126
%
G90
G05
M72
T1
X1.091Y0.7974
X1.5504Y0.3564
X1.933Y1.6702
X2.1834Y0.5556
X2.1994Y0.7518
X2.4816Y1.6506
X2.6574Y0.9196
T2
X0.0761Y1.0022
X0.1038Y1.069
X0.1038Y0.9354
X0.1706Y1.0967
X0.1706Y0.9077
X0.2374Y1.069
X0.2374Y0.9354
X0.2651Y1.0022
X3.2067Y0.9998
X3.2344Y1.0666
X3.2344Y0.933
X3.3012Y1.0943
X3.3012Y0.9053
X3.368Y1.0666
X3.368Y0.933
X3.3957Y0.9998
T3
X0.9202Y1.6722
X0.9202Y1.0722
X1.28Y1.0722
X1.2802Y1.6722
T4
X0.2212Y1.3216
X0.3708Y1.3216
X1.4326Y1.6054
X1.4326Y1.5054
X1.4326Y1.4054
X1.4326Y1.3054
X1.4326Y1.2054
X1.4326Y1.1054
X1.4326Y1.0054
X1.4326Y0.9054
X1.4326Y0.8054
X1.4326Y0.7054
X1.4326Y0.6054
X1.4326Y0.5054
X1.4326Y0.4054
X1.4326Y0.3054
X1.4326Y0.2054
X2.0326Y1.6054
X2.0326Y1.5054
X2.0326Y1.4054
X2.0326Y1.3054
X2.0326Y1.2054
X2.0326Y1.1054
X2.0326Y1.0054
X2.0326Y0.9054
X2.0326Y0.8054
X2.0326Y0.7054
X2.0326Y0.6054
X2.0326Y0.5054
X2.0326Y0.4054
X2.0326Y0.3054
X2.0326Y0.2054
T5
X1.1744Y0.851
X1.1744Y0.6602
X1.1746Y0.4714
X1.2744Y0.851
X1.2744Y0.6602
X1.2746Y0.4714
X2.6036Y0.6824
X2.7036Y0.6824
T6
X0.1434Y0.578
X0.2434Y0.578
X0.3434Y0.578
X0.3636Y1.8494
X0.4636Y1.8494
X0.5636Y1.8494
X0.7758Y1.4596
X0.7758Y1.3596
X0.7758Y1.2596
X0.9156Y1.8174
X1.0156Y1.8174
X1.3068Y1.8554
X1.4068Y1.8554
X1.5068Y1.8554
X1.6474Y1.856
X1.7474Y1.856
X1.8474Y1.856
X1.9886Y1.8556
X2.0886Y1.8556
X2.1886Y1.8556
X2.9156Y1.8472
X3.0156Y1.8472
X3.1156Y1.8472
X3.1462Y0.5678
X3.2462Y0.5678
X3.3462Y0.5678
T7
X0.1706Y1.0022
X3.3012Y0.9998
T0
M30
