G04 #@! TF.FileFunction,Legend,Top*
%FSLAX46Y46*%
G04 Gerber Fmt 4.6, Leading zero omitted, Abs format (unit mm)*
G04 Created by KiCad (PCBNEW 4.0.7) date 11/19/18 15:24:20*
%MOMM*%
%LPD*%
G01*
G04 APERTURE LIST*
%ADD10C,0.100000*%
%ADD11C,0.200000*%
%ADD12C,0.120000*%
%ADD13C,0.150000*%
%ADD14C,0.010000*%
%ADD15R,1.520000X2.840000*%
%ADD16C,6.800000*%
%ADD17C,1.000000*%
%ADD18C,1.974800*%
%ADD19R,2.100000X2.100000*%
%ADD20O,2.100000X2.100000*%
%ADD21R,2.000000X2.000000*%
%ADD22C,2.000000*%
%ADD23R,2.200000X2.200000*%
%ADD24C,2.200000*%
%ADD25R,1.700000X1.100000*%
%ADD26C,1.924000*%
G04 APERTURE END LIST*
D10*
D11*
X25882600Y33715960D02*
X27711400Y31663640D01*
X27746960Y31663640D02*
X29611320Y33715960D01*
X27670760Y37861240D02*
X27746960Y31663640D01*
D10*
X61637263Y4929373D02*
X64496763Y6624314D01*
X82082253Y11450622D02*
X79370003Y11368426D01*
X76914253Y11133175D02*
X74686503Y10761875D01*
X65223532Y29662033D02*
X65223532Y39562033D01*
X55623532Y29662033D02*
X65223532Y29662033D01*
X72658253Y10271533D02*
X70801003Y9679154D01*
X69086253Y9001744D02*
X67485503Y8256310D01*
X23652503Y6629394D02*
X26512003Y4934453D01*
X82042586Y41161710D02*
X88082253Y31572482D01*
X79370003Y11368426D02*
X76914253Y11133175D01*
X88082253Y31572482D02*
X88082253Y11450622D01*
X74686503Y10761875D02*
X72658253Y10271533D01*
X70801003Y9679154D02*
X69086253Y9001744D01*
X65223532Y39562033D02*
X55623532Y39562033D01*
X82082253Y11450622D02*
X88082253Y11450622D01*
X55623532Y39562033D02*
X55623532Y29662033D01*
X8794503Y11368426D02*
X11250253Y11133175D01*
X38914253Y430671D02*
X41370003Y195420D01*
X32801003Y1884692D02*
X34658253Y1292313D01*
X19078253Y9001744D02*
X20679003Y8256310D01*
X17363503Y9679154D02*
X19078253Y9001744D01*
X82253Y11450622D02*
X6082253Y11450622D01*
X31086253Y2562102D02*
X32801003Y1884692D01*
X27970253Y4103988D02*
X29485503Y3307536D01*
X11250253Y11133175D02*
X13478003Y10761875D01*
X20679003Y8256310D02*
X22194253Y7459858D01*
X13478003Y10761875D02*
X15506253Y10271533D01*
X6082253Y11450622D02*
X8794503Y11368426D01*
X16882237Y41161710D02*
X6121394Y41161710D01*
X16882284Y44161773D02*
X16882237Y41161710D01*
X6121374Y49661668D02*
X6121420Y44161731D01*
X6121374Y49661668D02*
X82042581Y49661664D01*
X82042581Y49661664D02*
X82042592Y44161785D01*
X71282237Y41161710D02*
X82042586Y41161710D01*
X71282248Y44161776D02*
X71282237Y41161710D01*
X82253Y11450622D02*
X82253Y31573166D01*
X82253Y31573166D02*
X6121394Y41161710D01*
X67485503Y8256310D02*
X65970253Y7459858D01*
X65970253Y7459858D02*
X64495680Y6624320D01*
X16882284Y44161773D02*
X6121420Y44161731D01*
X61637263Y4929373D02*
X60179013Y4098908D01*
X57078253Y2562102D02*
X55363503Y1884692D01*
X41370003Y195420D02*
X44082253Y113224D01*
X22194253Y7459858D02*
X23652503Y6629394D01*
X60179013Y4098908D02*
X58679080Y3307080D01*
X58679003Y3307536D02*
X57078253Y2562102D01*
X55363503Y1884692D02*
X53506253Y1292313D01*
X29485503Y3307536D02*
X31086253Y2562102D01*
X53506253Y1292313D02*
X51478003Y801971D01*
X71282248Y44161776D02*
X82042592Y44161785D01*
X34658253Y1292313D02*
X36686503Y801971D01*
X51478003Y801971D02*
X49250253Y430671D01*
X26512003Y4934453D02*
X27970253Y4103988D01*
X49250253Y430671D02*
X46794503Y195420D01*
X46794503Y195420D02*
X44082253Y113224D01*
X36686503Y801971D02*
X38914253Y430671D01*
X15506253Y10271533D02*
X17363503Y9679154D01*
D12*
X14705760Y15163600D02*
X14705760Y20853600D01*
X14705760Y20853600D02*
X24125760Y20853600D01*
X24125760Y20853600D02*
X24125760Y15163600D01*
X24125760Y15163600D02*
X18145760Y15163600D01*
X16240760Y16198600D02*
X17510760Y16198600D01*
X17510760Y16198600D02*
X17510760Y19818600D01*
X17510760Y19818600D02*
X16240760Y19818600D01*
X16240760Y19818600D02*
X16240760Y16198600D01*
X16240760Y18008600D02*
X17510760Y18008600D01*
X18780760Y16198600D02*
X20050760Y16198600D01*
X20050760Y16198600D02*
X20050760Y19818600D01*
X20050760Y19818600D02*
X18780760Y19818600D01*
X18780760Y19818600D02*
X18780760Y16198600D01*
X18780760Y18008600D02*
X20050760Y18008600D01*
X21320760Y16198600D02*
X22590760Y16198600D01*
X22590760Y16198600D02*
X22590760Y19818600D01*
X22590760Y19818600D02*
X21320760Y19818600D01*
X21320760Y19818600D02*
X21320760Y16198600D01*
X21320760Y18008600D02*
X22590760Y18008600D01*
D13*
X41468040Y1407160D02*
X35118040Y1407160D01*
X52898040Y1407160D02*
X46548040Y1407160D01*
X46548040Y137160D02*
X41468040Y137160D01*
X41468040Y137160D02*
X41468040Y6487160D01*
X41468040Y6487160D02*
X46548040Y6487160D01*
X46548040Y6487160D02*
X46548040Y137160D01*
X44643040Y43317160D02*
G75*
G03X44643040Y43317160I-635000J0D01*
G01*
X42103040Y43317160D02*
G75*
G03X42103040Y43317160I-635000J0D01*
G01*
X42103040Y40777160D02*
G75*
G03X42103040Y40777160I-635000J0D01*
G01*
X44643040Y40777160D02*
G75*
G03X44643040Y40777160I-635000J0D01*
G01*
X47183040Y40777160D02*
G75*
G03X47183040Y40777160I-635000J0D01*
G01*
X47183040Y43317160D02*
G75*
G03X47183040Y43317160I-635000J0D01*
G01*
X37023040Y2677160D02*
G75*
G03X37023040Y2677160I-635000J0D01*
G01*
X52263040Y2677160D02*
G75*
G03X52263040Y2677160I-635000J0D01*
G01*
X37023040Y43317160D02*
G75*
G03X37023040Y43317160I-635000J0D01*
G01*
X52263040Y43317160D02*
G75*
G03X52263040Y43317160I-635000J0D01*
G01*
X47818040Y42047160D02*
X45278040Y42047160D01*
X45278040Y42047160D02*
X45278040Y44587160D01*
X47818040Y39507160D02*
X47818040Y44587160D01*
X40198040Y44587160D02*
X40198040Y39507160D01*
X40198040Y39507160D02*
X47818040Y39507160D01*
X52898040Y44587160D02*
X35118040Y44587160D01*
X35118040Y44587160D02*
X35118040Y1407160D01*
X52898040Y1407160D02*
X52898040Y44587160D01*
D12*
X56920440Y45802240D02*
X56920440Y48462240D01*
X51780440Y45802240D02*
X56920440Y45802240D01*
X51780440Y48462240D02*
X56920440Y48462240D01*
X51780440Y45802240D02*
X51780440Y48462240D01*
X50510440Y45802240D02*
X49180440Y45802240D01*
X49180440Y45802240D02*
X49180440Y47132240D01*
X11608480Y33568640D02*
G75*
G03X11608480Y33568640I-4090000J0D01*
G01*
X7518480Y29518640D02*
X7518480Y37618640D01*
X7478480Y29518640D02*
X7478480Y37618640D01*
X7438480Y29518640D02*
X7438480Y37618640D01*
X7398480Y29519640D02*
X7398480Y37617640D01*
X7358480Y29521640D02*
X7358480Y37615640D01*
X7318480Y29522640D02*
X7318480Y37614640D01*
X7278480Y29525640D02*
X7278480Y37611640D01*
X7238480Y29527640D02*
X7238480Y37609640D01*
X7198480Y29530640D02*
X7198480Y37606640D01*
X7158480Y29533640D02*
X7158480Y37603640D01*
X7118480Y29537640D02*
X7118480Y37599640D01*
X7078480Y29541640D02*
X7078480Y37595640D01*
X7038480Y29546640D02*
X7038480Y37590640D01*
X6998480Y29551640D02*
X6998480Y37585640D01*
X6958480Y29556640D02*
X6958480Y37580640D01*
X6918480Y29562640D02*
X6918480Y37574640D01*
X6878480Y29568640D02*
X6878480Y37568640D01*
X6838480Y29574640D02*
X6838480Y37562640D01*
X6797480Y29581640D02*
X6797480Y37555640D01*
X6757480Y29589640D02*
X6757480Y37547640D01*
X6717480Y29597640D02*
X6717480Y37539640D01*
X6677480Y29605640D02*
X6677480Y37531640D01*
X6637480Y29613640D02*
X6637480Y37523640D01*
X6597480Y29622640D02*
X6597480Y32588640D01*
X6597480Y34548640D02*
X6597480Y37514640D01*
X6557480Y29632640D02*
X6557480Y32588640D01*
X6557480Y34548640D02*
X6557480Y37504640D01*
X6517480Y29642640D02*
X6517480Y32588640D01*
X6517480Y34548640D02*
X6517480Y37494640D01*
X6477480Y29652640D02*
X6477480Y32588640D01*
X6477480Y34548640D02*
X6477480Y37484640D01*
X6437480Y29663640D02*
X6437480Y32588640D01*
X6437480Y34548640D02*
X6437480Y37473640D01*
X6397480Y29674640D02*
X6397480Y32588640D01*
X6397480Y34548640D02*
X6397480Y37462640D01*
X6357480Y29685640D02*
X6357480Y32588640D01*
X6357480Y34548640D02*
X6357480Y37451640D01*
X6317480Y29698640D02*
X6317480Y32588640D01*
X6317480Y34548640D02*
X6317480Y37438640D01*
X6277480Y29710640D02*
X6277480Y32588640D01*
X6277480Y34548640D02*
X6277480Y37426640D01*
X6237480Y29723640D02*
X6237480Y32588640D01*
X6237480Y34548640D02*
X6237480Y37413640D01*
X6197480Y29736640D02*
X6197480Y32588640D01*
X6197480Y34548640D02*
X6197480Y37400640D01*
X6157480Y29750640D02*
X6157480Y32588640D01*
X6157480Y34548640D02*
X6157480Y37386640D01*
X6117480Y29765640D02*
X6117480Y32588640D01*
X6117480Y34548640D02*
X6117480Y37371640D01*
X6077480Y29779640D02*
X6077480Y32588640D01*
X6077480Y34548640D02*
X6077480Y37357640D01*
X6037480Y29795640D02*
X6037480Y32588640D01*
X6037480Y34548640D02*
X6037480Y37341640D01*
X5997480Y29810640D02*
X5997480Y32588640D01*
X5997480Y34548640D02*
X5997480Y37326640D01*
X5957480Y29827640D02*
X5957480Y32588640D01*
X5957480Y34548640D02*
X5957480Y37309640D01*
X5917480Y29843640D02*
X5917480Y32588640D01*
X5917480Y34548640D02*
X5917480Y37293640D01*
X5877480Y29861640D02*
X5877480Y32588640D01*
X5877480Y34548640D02*
X5877480Y37275640D01*
X5837480Y29878640D02*
X5837480Y32588640D01*
X5837480Y34548640D02*
X5837480Y37258640D01*
X5797480Y29897640D02*
X5797480Y32588640D01*
X5797480Y34548640D02*
X5797480Y37239640D01*
X5757480Y29916640D02*
X5757480Y32588640D01*
X5757480Y34548640D02*
X5757480Y37220640D01*
X5717480Y29935640D02*
X5717480Y32588640D01*
X5717480Y34548640D02*
X5717480Y37201640D01*
X5677480Y29955640D02*
X5677480Y32588640D01*
X5677480Y34548640D02*
X5677480Y37181640D01*
X5637480Y29975640D02*
X5637480Y32588640D01*
X5637480Y34548640D02*
X5637480Y37161640D01*
X5597480Y29996640D02*
X5597480Y32588640D01*
X5597480Y34548640D02*
X5597480Y37140640D01*
X5557480Y30018640D02*
X5557480Y32588640D01*
X5557480Y34548640D02*
X5557480Y37118640D01*
X5517480Y30040640D02*
X5517480Y32588640D01*
X5517480Y34548640D02*
X5517480Y37096640D01*
X5477480Y30063640D02*
X5477480Y32588640D01*
X5477480Y34548640D02*
X5477480Y37073640D01*
X5437480Y30086640D02*
X5437480Y32588640D01*
X5437480Y34548640D02*
X5437480Y37050640D01*
X5397480Y30110640D02*
X5397480Y32588640D01*
X5397480Y34548640D02*
X5397480Y37026640D01*
X5357480Y30134640D02*
X5357480Y32588640D01*
X5357480Y34548640D02*
X5357480Y37002640D01*
X5317480Y30160640D02*
X5317480Y32588640D01*
X5317480Y34548640D02*
X5317480Y36976640D01*
X5277480Y30185640D02*
X5277480Y32588640D01*
X5277480Y34548640D02*
X5277480Y36951640D01*
X5237480Y30212640D02*
X5237480Y32588640D01*
X5237480Y34548640D02*
X5237480Y36924640D01*
X5197480Y30239640D02*
X5197480Y32588640D01*
X5197480Y34548640D02*
X5197480Y36897640D01*
X5157480Y30267640D02*
X5157480Y32588640D01*
X5157480Y34548640D02*
X5157480Y36869640D01*
X5117480Y30296640D02*
X5117480Y32588640D01*
X5117480Y34548640D02*
X5117480Y36840640D01*
X5077480Y30325640D02*
X5077480Y32588640D01*
X5077480Y34548640D02*
X5077480Y36811640D01*
X5037480Y30355640D02*
X5037480Y32588640D01*
X5037480Y34548640D02*
X5037480Y36781640D01*
X4997480Y30386640D02*
X4997480Y32588640D01*
X4997480Y34548640D02*
X4997480Y36750640D01*
X4957480Y30418640D02*
X4957480Y32588640D01*
X4957480Y34548640D02*
X4957480Y36718640D01*
X4917480Y30450640D02*
X4917480Y32588640D01*
X4917480Y34548640D02*
X4917480Y36686640D01*
X4877480Y30484640D02*
X4877480Y32588640D01*
X4877480Y34548640D02*
X4877480Y36652640D01*
X4837480Y30518640D02*
X4837480Y32588640D01*
X4837480Y34548640D02*
X4837480Y36618640D01*
X4797480Y30553640D02*
X4797480Y32588640D01*
X4797480Y34548640D02*
X4797480Y36583640D01*
X4757480Y30589640D02*
X4757480Y32588640D01*
X4757480Y34548640D02*
X4757480Y36547640D01*
X4717480Y30626640D02*
X4717480Y32588640D01*
X4717480Y34548640D02*
X4717480Y36510640D01*
X4677480Y30664640D02*
X4677480Y32588640D01*
X4677480Y34548640D02*
X4677480Y36472640D01*
X4637480Y30703640D02*
X4637480Y36433640D01*
X4597480Y30744640D02*
X4597480Y36392640D01*
X4557480Y30785640D02*
X4557480Y36351640D01*
X4517480Y30828640D02*
X4517480Y36308640D01*
X4477480Y30871640D02*
X4477480Y36265640D01*
X4437480Y30916640D02*
X4437480Y36220640D01*
X4397480Y30963640D02*
X4397480Y36173640D01*
X4357480Y31011640D02*
X4357480Y36125640D01*
X4317480Y31060640D02*
X4317480Y36076640D01*
X4277480Y31111640D02*
X4277480Y36025640D01*
X4237480Y31164640D02*
X4237480Y35972640D01*
X4197480Y31219640D02*
X4197480Y35917640D01*
X4157480Y31275640D02*
X4157480Y35861640D01*
X4117480Y31334640D02*
X4117480Y35802640D01*
X4077480Y31395640D02*
X4077480Y35741640D01*
X4037480Y31459640D02*
X4037480Y35677640D01*
X3997480Y31525640D02*
X3997480Y35611640D01*
X3957480Y31594640D02*
X3957480Y35542640D01*
X3917480Y31666640D02*
X3917480Y35470640D01*
X3877480Y31742640D02*
X3877480Y35394640D01*
X3837480Y31823640D02*
X3837480Y35313640D01*
X3797480Y31908640D02*
X3797480Y35228640D01*
X3757480Y31998640D02*
X3757480Y35138640D01*
X3717480Y32095640D02*
X3717480Y35041640D01*
X3677480Y32199640D02*
X3677480Y34937640D01*
X3637480Y32314640D02*
X3637480Y34822640D01*
X3597480Y32441640D02*
X3597480Y34695640D01*
X3557480Y32585640D02*
X3557480Y34551640D01*
X3517480Y32754640D02*
X3517480Y34382640D01*
X3477480Y32970640D02*
X3477480Y34166640D01*
X3437480Y33322640D02*
X3437480Y33814640D01*
X11618480Y33568640D02*
X10418480Y33568640D01*
X11018480Y32918640D02*
X11018480Y34218640D01*
X32772095Y22694008D02*
G75*
G03X29539760Y22850916I-1672335J-1078608D01*
G01*
X32772095Y20536792D02*
G75*
G02X29539760Y20379884I-1672335J1078608D01*
G01*
X32140890Y22695237D02*
G75*
G03X30058799Y22695400I-1041130J-1079837D01*
G01*
X32140890Y20535563D02*
G75*
G02X30058799Y20535400I-1041130J1079837D01*
G01*
X29539760Y22851400D02*
X29539760Y22695400D01*
X29539760Y20535400D02*
X29539760Y20379400D01*
X32772095Y17847688D02*
G75*
G03X29539760Y18004596I-1672335J-1078608D01*
G01*
X32772095Y15690472D02*
G75*
G02X29539760Y15533564I-1672335J1078608D01*
G01*
X32140890Y17848917D02*
G75*
G03X30058799Y17849080I-1041130J-1079837D01*
G01*
X32140890Y15689243D02*
G75*
G02X30058799Y15689080I-1041130J1079837D01*
G01*
X29539760Y18005080D02*
X29539760Y17849080D01*
X29539760Y15689080D02*
X29539760Y15533080D01*
X32777175Y13052168D02*
G75*
G03X29544840Y13209076I-1672335J-1078608D01*
G01*
X32777175Y10894952D02*
G75*
G02X29544840Y10738044I-1672335J1078608D01*
G01*
X32145970Y13053397D02*
G75*
G03X30063879Y13053560I-1041130J-1079837D01*
G01*
X32145970Y10893723D02*
G75*
G02X30063879Y10893560I-1041130J1079837D01*
G01*
X29544840Y13209560D02*
X29544840Y13053560D01*
X29544840Y10893560D02*
X29544840Y10737560D01*
X69073775Y18411568D02*
G75*
G03X65841440Y18568476I-1672335J-1078608D01*
G01*
X69073775Y16254352D02*
G75*
G02X65841440Y16097444I-1672335J1078608D01*
G01*
X68442570Y18412797D02*
G75*
G03X66360479Y18412960I-1041130J-1079837D01*
G01*
X68442570Y16253123D02*
G75*
G02X66360479Y16252960I-1041130J1079837D01*
G01*
X65841440Y18568960D02*
X65841440Y18412960D01*
X65841440Y16252960D02*
X65841440Y16096960D01*
X15645440Y45644760D02*
X15645440Y48304760D01*
X10505440Y45644760D02*
X15645440Y45644760D01*
X10505440Y48304760D02*
X15645440Y48304760D01*
X10505440Y45644760D02*
X10505440Y48304760D01*
X9235440Y45644760D02*
X7905440Y45644760D01*
X7905440Y45644760D02*
X7905440Y46974760D01*
X28591400Y21803920D02*
X28591400Y20603920D01*
X26831400Y20603920D02*
X26831400Y21803920D01*
X26760280Y17119000D02*
X26760280Y18319000D01*
X28520280Y18319000D02*
X28520280Y17119000D01*
X26719640Y12272760D02*
X26719640Y13472760D01*
X28479640Y13472760D02*
X28479640Y12272760D01*
X62945120Y17312080D02*
X62945120Y18512080D01*
X64705120Y18512080D02*
X64705120Y17312080D01*
X57027240Y14589560D02*
X57027240Y20279560D01*
X57027240Y20279560D02*
X61367240Y20279560D01*
X61367240Y20279560D02*
X61367240Y14589560D01*
X61367240Y14589560D02*
X60467240Y14589560D01*
X58562240Y15624560D02*
X59832240Y15624560D01*
X59832240Y15624560D02*
X59832240Y19244560D01*
X59832240Y19244560D02*
X58562240Y19244560D01*
X58562240Y19244560D02*
X58562240Y15624560D01*
X58562240Y17434560D02*
X59832240Y17434560D01*
X80466240Y45588880D02*
X80466240Y48248880D01*
X75326240Y45588880D02*
X80466240Y45588880D01*
X75326240Y48248880D02*
X80466240Y48248880D01*
X75326240Y45588880D02*
X75326240Y48248880D01*
X74056240Y45588880D02*
X72726240Y45588880D01*
X72726240Y45588880D02*
X72726240Y46918880D01*
X27126240Y44831960D02*
X27126240Y47491960D01*
X24526240Y44831960D02*
X27126240Y44831960D01*
X24526240Y47491960D02*
X27126240Y47491960D01*
X24526240Y44831960D02*
X24526240Y47491960D01*
X23256240Y44831960D02*
X21926240Y44831960D01*
X21926240Y44831960D02*
X21926240Y46161960D01*
X10052360Y13351200D02*
X10052360Y16011200D01*
X4912360Y13351200D02*
X10052360Y13351200D01*
X4912360Y16011200D02*
X10052360Y16011200D01*
X4912360Y13351200D02*
X4912360Y16011200D01*
X3642360Y13351200D02*
X2312360Y13351200D01*
X2312360Y13351200D02*
X2312360Y14681200D01*
X18375320Y30663840D02*
X21035320Y30663840D01*
X18375320Y35803840D02*
X18375320Y30663840D01*
X21035320Y35803840D02*
X21035320Y30663840D01*
X18375320Y35803840D02*
X21035320Y35803840D01*
X18375320Y37073840D02*
X18375320Y38403840D01*
X18375320Y38403840D02*
X19705320Y38403840D01*
X86323480Y13092120D02*
X86323480Y15752120D01*
X81183480Y13092120D02*
X86323480Y13092120D01*
X81183480Y15752120D02*
X86323480Y15752120D01*
X81183480Y13092120D02*
X81183480Y15752120D01*
X79913480Y13092120D02*
X78583480Y13092120D01*
X78583480Y13092120D02*
X78583480Y14422120D01*
X39602720Y45797160D02*
X39602720Y48457160D01*
X34462720Y45797160D02*
X39602720Y45797160D01*
X34462720Y48457160D02*
X39602720Y48457160D01*
X34462720Y45797160D02*
X34462720Y48457160D01*
X33192720Y45797160D02*
X31862720Y45797160D01*
X31862720Y45797160D02*
X31862720Y47127160D01*
X48253960Y45812400D02*
X48253960Y48472400D01*
X43113960Y45812400D02*
X48253960Y45812400D01*
X43113960Y48472400D02*
X48253960Y48472400D01*
X43113960Y45812400D02*
X43113960Y48472400D01*
X41843960Y45812400D02*
X40513960Y45812400D01*
X40513960Y45812400D02*
X40513960Y47142400D01*
D13*
X23373080Y41203880D02*
G75*
G03X24643080Y42473880I0J1270000D01*
G01*
X30993080Y42473880D02*
G75*
G03X32263080Y41203880I1270000J0D01*
G01*
X32263080Y28503880D02*
G75*
G03X30993080Y27233880I0J-1270000D01*
G01*
X24643080Y27233880D02*
G75*
G03X23373080Y28503880I-1270000J0D01*
G01*
X23373080Y41203880D02*
X23373080Y28503880D01*
X30993080Y27233880D02*
X24643080Y27233880D01*
X32263080Y41203880D02*
X32263080Y28503880D01*
X30993080Y42473880D02*
X24643080Y42473880D01*
D14*
G36*
X74957859Y40770471D02*
X75332929Y40743435D01*
X75558469Y40715794D01*
X75867883Y40661968D01*
X76214342Y40588808D01*
X76574811Y40502091D01*
X76926259Y40407598D01*
X77245649Y40311105D01*
X77447691Y40241857D01*
X77689080Y40145860D01*
X77971182Y40021637D01*
X78274296Y39878873D01*
X78578723Y39727252D01*
X78864760Y39576459D01*
X79112709Y39436177D01*
X79220133Y39370547D01*
X79848930Y38931116D01*
X80444043Y38432028D01*
X80997357Y37881542D01*
X81500752Y37287921D01*
X81946114Y36659424D01*
X82055077Y36485285D01*
X82387168Y35886952D01*
X82677129Y35256668D01*
X82922309Y34604652D01*
X83120058Y33941122D01*
X83267723Y33276296D01*
X83362655Y32620392D01*
X83402202Y31983628D01*
X83383712Y31376222D01*
X83382961Y31367163D01*
X83279921Y30548138D01*
X83111135Y29752288D01*
X82878614Y28983003D01*
X82584367Y28243672D01*
X82230403Y27537684D01*
X81818733Y26868426D01*
X81351364Y26239288D01*
X80830308Y25653659D01*
X80257573Y25114928D01*
X79635169Y24626482D01*
X79220133Y24347166D01*
X78999801Y24216187D01*
X78731128Y24069656D01*
X78433813Y23917257D01*
X78127558Y23768674D01*
X77832062Y23633594D01*
X77567025Y23521699D01*
X77447691Y23475857D01*
X77167918Y23381966D01*
X76839776Y23285928D01*
X76487017Y23193694D01*
X76133388Y23111217D01*
X75802639Y23044448D01*
X75578830Y23007532D01*
X75281907Y22973038D01*
X74951876Y22948325D01*
X74611073Y22934086D01*
X74281835Y22931013D01*
X73986498Y22939799D01*
X73816755Y22952867D01*
X72999604Y23073862D01*
X72199193Y23264775D01*
X71419309Y23524118D01*
X70663740Y23850402D01*
X69936275Y24242138D01*
X69240702Y24697838D01*
X69084662Y24812264D01*
X68849592Y25001540D01*
X68587382Y25235148D01*
X68312809Y25498177D01*
X68040650Y25775718D01*
X67785682Y26052861D01*
X67562682Y26314697D01*
X67441271Y26470428D01*
X66970012Y27160714D01*
X66567621Y27873055D01*
X66233396Y28609307D01*
X65966638Y29371326D01*
X65766647Y30160966D01*
X65632723Y30980082D01*
X65595510Y31343809D01*
X66010315Y31343809D01*
X66013091Y31219841D01*
X66072560Y31107268D01*
X66174341Y31032171D01*
X66184167Y31028463D01*
X66229830Y31019766D01*
X66286284Y31027804D01*
X66364906Y31057277D01*
X66477073Y31112889D01*
X66634164Y31199344D01*
X66731646Y31254769D01*
X66894657Y31347147D01*
X67034933Y31425010D01*
X67140650Y31481922D01*
X67199985Y31511444D01*
X67208000Y31514142D01*
X67219192Y31480868D01*
X67227541Y31393071D01*
X67231433Y31268790D01*
X67231528Y31251071D01*
X67262391Y30885841D01*
X67348803Y30505620D01*
X67484015Y30132639D01*
X67661275Y29789129D01*
X67688752Y29745142D01*
X67845137Y29532709D01*
X68043950Y29309891D01*
X68262953Y29099249D01*
X68479912Y28923340D01*
X68539867Y28881650D01*
X68796118Y28733794D01*
X69091225Y28599668D01*
X69391473Y28493514D01*
X69567686Y28447497D01*
X69774208Y28416785D01*
X70023719Y28401116D01*
X70288210Y28400526D01*
X70539666Y28415050D01*
X70750077Y28444725D01*
X70756110Y28445987D01*
X71031529Y28521329D01*
X71322080Y28629630D01*
X71595236Y28757720D01*
X71757612Y28851425D01*
X72049491Y29070708D01*
X72325778Y29339724D01*
X72571234Y29640571D01*
X72770620Y29955348D01*
X72866002Y30153428D01*
X72952921Y30371182D01*
X73014395Y30555826D01*
X73054650Y30729562D01*
X73077912Y30914588D01*
X73088405Y31133107D01*
X73090438Y31332714D01*
X73084366Y31628107D01*
X73061763Y31875142D01*
X73017033Y32097008D01*
X72944582Y32316894D01*
X72838812Y32557990D01*
X72753318Y32729714D01*
X72658300Y32901635D01*
X72557568Y33051403D01*
X72434595Y33200953D01*
X72272855Y33372226D01*
X72257808Y33387460D01*
X72104142Y33534578D01*
X71947972Y33670209D01*
X71807562Y33779120D01*
X71719681Y33836312D01*
X71615150Y33901439D01*
X71544408Y33958359D01*
X71522881Y33994237D01*
X71557934Y34027183D01*
X71643424Y34087074D01*
X71766481Y34165377D01*
X71913190Y34252957D01*
X71944249Y34271857D01*
X73316789Y34271857D01*
X73339090Y34083555D01*
X73405146Y33820775D01*
X73534016Y33571372D01*
X73715944Y33348479D01*
X73941172Y33165230D01*
X74080210Y33085981D01*
X74149211Y33053020D01*
X74211852Y33027793D01*
X74279209Y33009004D01*
X74362357Y32995362D01*
X74472370Y32985572D01*
X74620324Y32978342D01*
X74817293Y32972379D01*
X75074353Y32966390D01*
X75111433Y32965571D01*
X75378957Y32959241D01*
X75583857Y32952905D01*
X75736074Y32945565D01*
X75845550Y32936221D01*
X75922226Y32923872D01*
X75976042Y32907519D01*
X76016939Y32886163D01*
X76036719Y32872515D01*
X76166290Y32738978D01*
X76237054Y32580108D01*
X76246490Y32411191D01*
X76192077Y32247510D01*
X76150137Y32184712D01*
X76107855Y32134330D01*
X76063094Y32093254D01*
X76008368Y32060537D01*
X75936188Y32035230D01*
X75839067Y32016384D01*
X75709516Y32003052D01*
X75540049Y31994285D01*
X75323177Y31989135D01*
X75051413Y31986653D01*
X74717269Y31985892D01*
X74579920Y31985857D01*
X73326897Y31985857D01*
X73326897Y30739767D01*
X73327328Y30375980D01*
X73329356Y30076437D01*
X73334084Y29832811D01*
X73342616Y29636776D01*
X73356055Y29480005D01*
X73375503Y29354172D01*
X73402065Y29250951D01*
X73436843Y29162015D01*
X73480941Y29079039D01*
X73535462Y28993695D01*
X73563745Y28952220D01*
X73728756Y28761669D01*
X73933774Y28600436D01*
X74160347Y28479315D01*
X74390023Y28409098D01*
X74514738Y28395998D01*
X74632149Y28393571D01*
X74641738Y29527500D01*
X74651326Y30661428D01*
X75413326Y30682415D01*
X75648796Y30690600D01*
X75866171Y30701335D01*
X76052588Y30713731D01*
X76195180Y30726904D01*
X76281084Y30739967D01*
X76291609Y30742910D01*
X76571525Y30868528D01*
X76841558Y31045985D01*
X77082914Y31260152D01*
X77276798Y31495901D01*
X77327822Y31577001D01*
X77463980Y31875719D01*
X77487388Y31967714D01*
X77735612Y31967714D01*
X77735612Y30715857D01*
X77736027Y30352528D01*
X77738111Y30053391D01*
X77743123Y29810068D01*
X77752321Y29614181D01*
X77766964Y29457352D01*
X77788309Y29331203D01*
X77817616Y29227355D01*
X77856142Y29137430D01*
X77905146Y29053050D01*
X77965887Y28965838D01*
X78006699Y28911042D01*
X78162688Y28742738D01*
X78352365Y28598175D01*
X78557762Y28487179D01*
X78760915Y28419580D01*
X78933040Y28404335D01*
X79041897Y28411714D01*
X79051534Y29436785D01*
X79054892Y29701079D01*
X79059605Y29940105D01*
X79065358Y30144725D01*
X79071835Y30305799D01*
X79078722Y30414186D01*
X79085702Y30460746D01*
X79086913Y30461857D01*
X79117644Y30437116D01*
X79193692Y30366718D01*
X79309142Y30256404D01*
X79458076Y30111914D01*
X79634576Y29938986D01*
X79832725Y29743360D01*
X80038848Y29538511D01*
X80311381Y29267679D01*
X80539719Y29044073D01*
X80730553Y28863176D01*
X80890575Y28720473D01*
X81026479Y28611450D01*
X81144957Y28531590D01*
X81252699Y28476379D01*
X81356399Y28441301D01*
X81462749Y28421841D01*
X81578441Y28413484D01*
X81708897Y28411714D01*
X81880996Y28418081D01*
X82033224Y28435224D01*
X82140052Y28460202D01*
X82144326Y28461833D01*
X82251699Y28512110D01*
X82369816Y28579288D01*
X82481137Y28651726D01*
X82568120Y28717783D01*
X82613226Y28765819D01*
X82615970Y28774838D01*
X82591168Y28808041D01*
X82520570Y28886334D01*
X82409934Y29003730D01*
X82265022Y29154247D01*
X82091593Y29331898D01*
X81895407Y29530699D01*
X81690755Y29736143D01*
X81478054Y29949850D01*
X81282584Y30148420D01*
X81110111Y30325828D01*
X80966401Y30476049D01*
X80857220Y30593057D01*
X80788336Y30670828D01*
X80765469Y30702969D01*
X80796106Y30742924D01*
X80870164Y30781519D01*
X80873553Y30782722D01*
X80938436Y30798845D01*
X80997689Y30790164D01*
X81072383Y30749241D01*
X81171934Y30677414D01*
X81278277Y30603551D01*
X81367948Y30551939D01*
X81417635Y30534526D01*
X81473713Y30557012D01*
X81561068Y30615025D01*
X81634512Y30673865D01*
X81795983Y30813105D01*
X81716155Y31021710D01*
X81662480Y31175079D01*
X81641717Y31280266D01*
X81654157Y31353916D01*
X81700093Y31412676D01*
X81723349Y31432184D01*
X81787396Y31471096D01*
X81864000Y31486078D01*
X81978646Y31480871D01*
X82022706Y31476112D01*
X82144735Y31468186D01*
X82239510Y31473206D01*
X82277752Y31485113D01*
X82314705Y31539635D01*
X82358538Y31637786D01*
X82399360Y31752589D01*
X82427275Y31857067D01*
X82433829Y31910678D01*
X82405678Y31959427D01*
X82332692Y32032033D01*
X82232526Y32111385D01*
X82124434Y32192974D01*
X82065337Y32252955D01*
X82042671Y32308152D01*
X82042808Y32365385D01*
X82057754Y32429623D01*
X82097842Y32482674D01*
X82177868Y32538876D01*
X82280398Y32595644D01*
X82392760Y32662272D01*
X82473880Y32724121D01*
X82507079Y32768363D01*
X82507183Y32770076D01*
X82496998Y32854732D01*
X82471536Y32970153D01*
X82438442Y33087940D01*
X82405360Y33179694D01*
X82388646Y33210500D01*
X82331695Y33237632D01*
X82224618Y33253493D01*
X82155640Y33255857D01*
X81976262Y33267225D01*
X81862932Y33305111D01*
X81812352Y33375182D01*
X81821224Y33483108D01*
X81886250Y33634558D01*
X81909944Y33678189D01*
X82039610Y33910054D01*
X81856982Y34100027D01*
X81674355Y34290000D01*
X81458337Y34172071D01*
X81323143Y34101314D01*
X81232662Y34065567D01*
X81169597Y34062143D01*
X81116647Y34088353D01*
X81085826Y34114195D01*
X81045753Y34171094D01*
X81025129Y34261818D01*
X81019469Y34400038D01*
X81011990Y34540900D01*
X80991360Y34634538D01*
X80974112Y34661320D01*
X80911724Y34690710D01*
X80806207Y34724712D01*
X80685960Y34755684D01*
X80579381Y34775982D01*
X80533688Y34779857D01*
X80490822Y34749866D01*
X80429623Y34671014D01*
X80362921Y34559979D01*
X80359256Y34553097D01*
X80286048Y34425500D01*
X80225191Y34350330D01*
X80162743Y34312372D01*
X80130469Y34303390D01*
X80067799Y34297544D01*
X79942427Y34291969D01*
X79764225Y34286881D01*
X79543062Y34282499D01*
X79288808Y34279039D01*
X79011335Y34276719D01*
X78893731Y34276150D01*
X78614888Y34274512D01*
X78359931Y34271907D01*
X78137768Y34268514D01*
X77957306Y34264511D01*
X77827452Y34260077D01*
X77757112Y34255391D01*
X77747164Y34253171D01*
X77738019Y34201797D01*
X77748976Y34102874D01*
X77775564Y33977137D01*
X77813308Y33845319D01*
X77857734Y33728157D01*
X77862833Y33717062D01*
X78022032Y33461978D01*
X78236596Y33250234D01*
X78471393Y33102976D01*
X78713498Y32983714D01*
X79530840Y32965571D01*
X79819771Y32958241D01*
X80045428Y32949131D01*
X80217110Y32936010D01*
X80344113Y32916647D01*
X80435734Y32888811D01*
X80501271Y32850269D01*
X80550020Y32798790D01*
X80591279Y32732143D01*
X80604038Y32707985D01*
X80654261Y32539034D01*
X80643403Y32364347D01*
X80576372Y32204140D01*
X80458077Y32078625D01*
X80449824Y32072888D01*
X80418543Y32054665D01*
X80378785Y32039740D01*
X80323032Y32027646D01*
X80243767Y32017921D01*
X80133472Y32010099D01*
X79984630Y32003715D01*
X79789722Y31998306D01*
X79541232Y31993405D01*
X79231643Y31988548D01*
X79041897Y31985857D01*
X77735612Y31967714D01*
X77487388Y31967714D01*
X77546338Y32199387D01*
X77572144Y32529001D01*
X77538641Y32845554D01*
X77521884Y32915918D01*
X77404234Y33227055D01*
X77227303Y33518644D01*
X77002705Y33775939D01*
X76742055Y33984194D01*
X76626981Y34052236D01*
X76524403Y34105608D01*
X76430359Y34149518D01*
X76336609Y34184891D01*
X76234915Y34212650D01*
X76117040Y34233721D01*
X75974746Y34249027D01*
X75799793Y34259493D01*
X75583944Y34266043D01*
X75318961Y34269602D01*
X74996605Y34271094D01*
X74673486Y34271426D01*
X73316789Y34271857D01*
X71944249Y34271857D01*
X72114435Y34375418D01*
X72254705Y34476548D01*
X72339846Y34563329D01*
X72375701Y34642748D01*
X72368115Y34721789D01*
X72346061Y34770306D01*
X72274762Y34853737D01*
X72194694Y34903309D01*
X72148953Y34912493D01*
X72093502Y34905470D01*
X72016883Y34877546D01*
X71907640Y34824026D01*
X71754315Y34740215D01*
X71643325Y34677388D01*
X71187772Y34417771D01*
X70941977Y34662685D01*
X70628292Y34925290D01*
X70277171Y35126237D01*
X69891142Y35264448D01*
X69472732Y35338843D01*
X69335469Y35348847D01*
X68923084Y35340757D01*
X68541454Y35271945D01*
X68180420Y35139125D01*
X67829826Y34939009D01*
X67638831Y34799903D01*
X67339964Y34525251D01*
X67100795Y34213813D01*
X66917704Y33859929D01*
X66791111Y33474131D01*
X66741553Y33191167D01*
X66725831Y32887506D01*
X66743151Y32587485D01*
X66792718Y32315440D01*
X66833131Y32187365D01*
X66866790Y32101634D01*
X66887333Y32037902D01*
X66887478Y31987105D01*
X66859946Y31940182D01*
X66797456Y31888070D01*
X66692728Y31821708D01*
X66538482Y31732032D01*
X66405966Y31655644D01*
X66235125Y31553339D01*
X66119632Y31474962D01*
X66049573Y31412699D01*
X66015032Y31358736D01*
X66010315Y31343809D01*
X65595510Y31343809D01*
X65593120Y31367163D01*
X65573717Y31974038D01*
X65612391Y32610427D01*
X65706491Y33266114D01*
X65853366Y33930881D01*
X66050364Y34594508D01*
X66294835Y35246778D01*
X66584127Y35877474D01*
X66915590Y36476376D01*
X66921004Y36485285D01*
X67349350Y37121762D01*
X67837917Y37725587D01*
X68378586Y38288501D01*
X68963242Y38802243D01*
X69583767Y39258552D01*
X69755948Y39370547D01*
X69976279Y39501527D01*
X70244953Y39648058D01*
X70542267Y39800457D01*
X70848523Y39949039D01*
X71144019Y40084120D01*
X71409055Y40196015D01*
X71528390Y40241857D01*
X71809261Y40336112D01*
X72139221Y40432640D01*
X72495237Y40525665D01*
X72854276Y40609406D01*
X73193303Y40678086D01*
X73417612Y40715794D01*
X73758856Y40753886D01*
X74145916Y40775696D01*
X74553886Y40781224D01*
X74957859Y40770471D01*
X74957859Y40770471D01*
G37*
X74957859Y40770471D02*
X75332929Y40743435D01*
X75558469Y40715794D01*
X75867883Y40661968D01*
X76214342Y40588808D01*
X76574811Y40502091D01*
X76926259Y40407598D01*
X77245649Y40311105D01*
X77447691Y40241857D01*
X77689080Y40145860D01*
X77971182Y40021637D01*
X78274296Y39878873D01*
X78578723Y39727252D01*
X78864760Y39576459D01*
X79112709Y39436177D01*
X79220133Y39370547D01*
X79848930Y38931116D01*
X80444043Y38432028D01*
X80997357Y37881542D01*
X81500752Y37287921D01*
X81946114Y36659424D01*
X82055077Y36485285D01*
X82387168Y35886952D01*
X82677129Y35256668D01*
X82922309Y34604652D01*
X83120058Y33941122D01*
X83267723Y33276296D01*
X83362655Y32620392D01*
X83402202Y31983628D01*
X83383712Y31376222D01*
X83382961Y31367163D01*
X83279921Y30548138D01*
X83111135Y29752288D01*
X82878614Y28983003D01*
X82584367Y28243672D01*
X82230403Y27537684D01*
X81818733Y26868426D01*
X81351364Y26239288D01*
X80830308Y25653659D01*
X80257573Y25114928D01*
X79635169Y24626482D01*
X79220133Y24347166D01*
X78999801Y24216187D01*
X78731128Y24069656D01*
X78433813Y23917257D01*
X78127558Y23768674D01*
X77832062Y23633594D01*
X77567025Y23521699D01*
X77447691Y23475857D01*
X77167918Y23381966D01*
X76839776Y23285928D01*
X76487017Y23193694D01*
X76133388Y23111217D01*
X75802639Y23044448D01*
X75578830Y23007532D01*
X75281907Y22973038D01*
X74951876Y22948325D01*
X74611073Y22934086D01*
X74281835Y22931013D01*
X73986498Y22939799D01*
X73816755Y22952867D01*
X72999604Y23073862D01*
X72199193Y23264775D01*
X71419309Y23524118D01*
X70663740Y23850402D01*
X69936275Y24242138D01*
X69240702Y24697838D01*
X69084662Y24812264D01*
X68849592Y25001540D01*
X68587382Y25235148D01*
X68312809Y25498177D01*
X68040650Y25775718D01*
X67785682Y26052861D01*
X67562682Y26314697D01*
X67441271Y26470428D01*
X66970012Y27160714D01*
X66567621Y27873055D01*
X66233396Y28609307D01*
X65966638Y29371326D01*
X65766647Y30160966D01*
X65632723Y30980082D01*
X65595510Y31343809D01*
X66010315Y31343809D01*
X66013091Y31219841D01*
X66072560Y31107268D01*
X66174341Y31032171D01*
X66184167Y31028463D01*
X66229830Y31019766D01*
X66286284Y31027804D01*
X66364906Y31057277D01*
X66477073Y31112889D01*
X66634164Y31199344D01*
X66731646Y31254769D01*
X66894657Y31347147D01*
X67034933Y31425010D01*
X67140650Y31481922D01*
X67199985Y31511444D01*
X67208000Y31514142D01*
X67219192Y31480868D01*
X67227541Y31393071D01*
X67231433Y31268790D01*
X67231528Y31251071D01*
X67262391Y30885841D01*
X67348803Y30505620D01*
X67484015Y30132639D01*
X67661275Y29789129D01*
X67688752Y29745142D01*
X67845137Y29532709D01*
X68043950Y29309891D01*
X68262953Y29099249D01*
X68479912Y28923340D01*
X68539867Y28881650D01*
X68796118Y28733794D01*
X69091225Y28599668D01*
X69391473Y28493514D01*
X69567686Y28447497D01*
X69774208Y28416785D01*
X70023719Y28401116D01*
X70288210Y28400526D01*
X70539666Y28415050D01*
X70750077Y28444725D01*
X70756110Y28445987D01*
X71031529Y28521329D01*
X71322080Y28629630D01*
X71595236Y28757720D01*
X71757612Y28851425D01*
X72049491Y29070708D01*
X72325778Y29339724D01*
X72571234Y29640571D01*
X72770620Y29955348D01*
X72866002Y30153428D01*
X72952921Y30371182D01*
X73014395Y30555826D01*
X73054650Y30729562D01*
X73077912Y30914588D01*
X73088405Y31133107D01*
X73090438Y31332714D01*
X73084366Y31628107D01*
X73061763Y31875142D01*
X73017033Y32097008D01*
X72944582Y32316894D01*
X72838812Y32557990D01*
X72753318Y32729714D01*
X72658300Y32901635D01*
X72557568Y33051403D01*
X72434595Y33200953D01*
X72272855Y33372226D01*
X72257808Y33387460D01*
X72104142Y33534578D01*
X71947972Y33670209D01*
X71807562Y33779120D01*
X71719681Y33836312D01*
X71615150Y33901439D01*
X71544408Y33958359D01*
X71522881Y33994237D01*
X71557934Y34027183D01*
X71643424Y34087074D01*
X71766481Y34165377D01*
X71913190Y34252957D01*
X71944249Y34271857D01*
X73316789Y34271857D01*
X73339090Y34083555D01*
X73405146Y33820775D01*
X73534016Y33571372D01*
X73715944Y33348479D01*
X73941172Y33165230D01*
X74080210Y33085981D01*
X74149211Y33053020D01*
X74211852Y33027793D01*
X74279209Y33009004D01*
X74362357Y32995362D01*
X74472370Y32985572D01*
X74620324Y32978342D01*
X74817293Y32972379D01*
X75074353Y32966390D01*
X75111433Y32965571D01*
X75378957Y32959241D01*
X75583857Y32952905D01*
X75736074Y32945565D01*
X75845550Y32936221D01*
X75922226Y32923872D01*
X75976042Y32907519D01*
X76016939Y32886163D01*
X76036719Y32872515D01*
X76166290Y32738978D01*
X76237054Y32580108D01*
X76246490Y32411191D01*
X76192077Y32247510D01*
X76150137Y32184712D01*
X76107855Y32134330D01*
X76063094Y32093254D01*
X76008368Y32060537D01*
X75936188Y32035230D01*
X75839067Y32016384D01*
X75709516Y32003052D01*
X75540049Y31994285D01*
X75323177Y31989135D01*
X75051413Y31986653D01*
X74717269Y31985892D01*
X74579920Y31985857D01*
X73326897Y31985857D01*
X73326897Y30739767D01*
X73327328Y30375980D01*
X73329356Y30076437D01*
X73334084Y29832811D01*
X73342616Y29636776D01*
X73356055Y29480005D01*
X73375503Y29354172D01*
X73402065Y29250951D01*
X73436843Y29162015D01*
X73480941Y29079039D01*
X73535462Y28993695D01*
X73563745Y28952220D01*
X73728756Y28761669D01*
X73933774Y28600436D01*
X74160347Y28479315D01*
X74390023Y28409098D01*
X74514738Y28395998D01*
X74632149Y28393571D01*
X74641738Y29527500D01*
X74651326Y30661428D01*
X75413326Y30682415D01*
X75648796Y30690600D01*
X75866171Y30701335D01*
X76052588Y30713731D01*
X76195180Y30726904D01*
X76281084Y30739967D01*
X76291609Y30742910D01*
X76571525Y30868528D01*
X76841558Y31045985D01*
X77082914Y31260152D01*
X77276798Y31495901D01*
X77327822Y31577001D01*
X77463980Y31875719D01*
X77487388Y31967714D01*
X77735612Y31967714D01*
X77735612Y30715857D01*
X77736027Y30352528D01*
X77738111Y30053391D01*
X77743123Y29810068D01*
X77752321Y29614181D01*
X77766964Y29457352D01*
X77788309Y29331203D01*
X77817616Y29227355D01*
X77856142Y29137430D01*
X77905146Y29053050D01*
X77965887Y28965838D01*
X78006699Y28911042D01*
X78162688Y28742738D01*
X78352365Y28598175D01*
X78557762Y28487179D01*
X78760915Y28419580D01*
X78933040Y28404335D01*
X79041897Y28411714D01*
X79051534Y29436785D01*
X79054892Y29701079D01*
X79059605Y29940105D01*
X79065358Y30144725D01*
X79071835Y30305799D01*
X79078722Y30414186D01*
X79085702Y30460746D01*
X79086913Y30461857D01*
X79117644Y30437116D01*
X79193692Y30366718D01*
X79309142Y30256404D01*
X79458076Y30111914D01*
X79634576Y29938986D01*
X79832725Y29743360D01*
X80038848Y29538511D01*
X80311381Y29267679D01*
X80539719Y29044073D01*
X80730553Y28863176D01*
X80890575Y28720473D01*
X81026479Y28611450D01*
X81144957Y28531590D01*
X81252699Y28476379D01*
X81356399Y28441301D01*
X81462749Y28421841D01*
X81578441Y28413484D01*
X81708897Y28411714D01*
X81880996Y28418081D01*
X82033224Y28435224D01*
X82140052Y28460202D01*
X82144326Y28461833D01*
X82251699Y28512110D01*
X82369816Y28579288D01*
X82481137Y28651726D01*
X82568120Y28717783D01*
X82613226Y28765819D01*
X82615970Y28774838D01*
X82591168Y28808041D01*
X82520570Y28886334D01*
X82409934Y29003730D01*
X82265022Y29154247D01*
X82091593Y29331898D01*
X81895407Y29530699D01*
X81690755Y29736143D01*
X81478054Y29949850D01*
X81282584Y30148420D01*
X81110111Y30325828D01*
X80966401Y30476049D01*
X80857220Y30593057D01*
X80788336Y30670828D01*
X80765469Y30702969D01*
X80796106Y30742924D01*
X80870164Y30781519D01*
X80873553Y30782722D01*
X80938436Y30798845D01*
X80997689Y30790164D01*
X81072383Y30749241D01*
X81171934Y30677414D01*
X81278277Y30603551D01*
X81367948Y30551939D01*
X81417635Y30534526D01*
X81473713Y30557012D01*
X81561068Y30615025D01*
X81634512Y30673865D01*
X81795983Y30813105D01*
X81716155Y31021710D01*
X81662480Y31175079D01*
X81641717Y31280266D01*
X81654157Y31353916D01*
X81700093Y31412676D01*
X81723349Y31432184D01*
X81787396Y31471096D01*
X81864000Y31486078D01*
X81978646Y31480871D01*
X82022706Y31476112D01*
X82144735Y31468186D01*
X82239510Y31473206D01*
X82277752Y31485113D01*
X82314705Y31539635D01*
X82358538Y31637786D01*
X82399360Y31752589D01*
X82427275Y31857067D01*
X82433829Y31910678D01*
X82405678Y31959427D01*
X82332692Y32032033D01*
X82232526Y32111385D01*
X82124434Y32192974D01*
X82065337Y32252955D01*
X82042671Y32308152D01*
X82042808Y32365385D01*
X82057754Y32429623D01*
X82097842Y32482674D01*
X82177868Y32538876D01*
X82280398Y32595644D01*
X82392760Y32662272D01*
X82473880Y32724121D01*
X82507079Y32768363D01*
X82507183Y32770076D01*
X82496998Y32854732D01*
X82471536Y32970153D01*
X82438442Y33087940D01*
X82405360Y33179694D01*
X82388646Y33210500D01*
X82331695Y33237632D01*
X82224618Y33253493D01*
X82155640Y33255857D01*
X81976262Y33267225D01*
X81862932Y33305111D01*
X81812352Y33375182D01*
X81821224Y33483108D01*
X81886250Y33634558D01*
X81909944Y33678189D01*
X82039610Y33910054D01*
X81856982Y34100027D01*
X81674355Y34290000D01*
X81458337Y34172071D01*
X81323143Y34101314D01*
X81232662Y34065567D01*
X81169597Y34062143D01*
X81116647Y34088353D01*
X81085826Y34114195D01*
X81045753Y34171094D01*
X81025129Y34261818D01*
X81019469Y34400038D01*
X81011990Y34540900D01*
X80991360Y34634538D01*
X80974112Y34661320D01*
X80911724Y34690710D01*
X80806207Y34724712D01*
X80685960Y34755684D01*
X80579381Y34775982D01*
X80533688Y34779857D01*
X80490822Y34749866D01*
X80429623Y34671014D01*
X80362921Y34559979D01*
X80359256Y34553097D01*
X80286048Y34425500D01*
X80225191Y34350330D01*
X80162743Y34312372D01*
X80130469Y34303390D01*
X80067799Y34297544D01*
X79942427Y34291969D01*
X79764225Y34286881D01*
X79543062Y34282499D01*
X79288808Y34279039D01*
X79011335Y34276719D01*
X78893731Y34276150D01*
X78614888Y34274512D01*
X78359931Y34271907D01*
X78137768Y34268514D01*
X77957306Y34264511D01*
X77827452Y34260077D01*
X77757112Y34255391D01*
X77747164Y34253171D01*
X77738019Y34201797D01*
X77748976Y34102874D01*
X77775564Y33977137D01*
X77813308Y33845319D01*
X77857734Y33728157D01*
X77862833Y33717062D01*
X78022032Y33461978D01*
X78236596Y33250234D01*
X78471393Y33102976D01*
X78713498Y32983714D01*
X79530840Y32965571D01*
X79819771Y32958241D01*
X80045428Y32949131D01*
X80217110Y32936010D01*
X80344113Y32916647D01*
X80435734Y32888811D01*
X80501271Y32850269D01*
X80550020Y32798790D01*
X80591279Y32732143D01*
X80604038Y32707985D01*
X80654261Y32539034D01*
X80643403Y32364347D01*
X80576372Y32204140D01*
X80458077Y32078625D01*
X80449824Y32072888D01*
X80418543Y32054665D01*
X80378785Y32039740D01*
X80323032Y32027646D01*
X80243767Y32017921D01*
X80133472Y32010099D01*
X79984630Y32003715D01*
X79789722Y31998306D01*
X79541232Y31993405D01*
X79231643Y31988548D01*
X79041897Y31985857D01*
X77735612Y31967714D01*
X77487388Y31967714D01*
X77546338Y32199387D01*
X77572144Y32529001D01*
X77538641Y32845554D01*
X77521884Y32915918D01*
X77404234Y33227055D01*
X77227303Y33518644D01*
X77002705Y33775939D01*
X76742055Y33984194D01*
X76626981Y34052236D01*
X76524403Y34105608D01*
X76430359Y34149518D01*
X76336609Y34184891D01*
X76234915Y34212650D01*
X76117040Y34233721D01*
X75974746Y34249027D01*
X75799793Y34259493D01*
X75583944Y34266043D01*
X75318961Y34269602D01*
X74996605Y34271094D01*
X74673486Y34271426D01*
X73316789Y34271857D01*
X71944249Y34271857D01*
X72114435Y34375418D01*
X72254705Y34476548D01*
X72339846Y34563329D01*
X72375701Y34642748D01*
X72368115Y34721789D01*
X72346061Y34770306D01*
X72274762Y34853737D01*
X72194694Y34903309D01*
X72148953Y34912493D01*
X72093502Y34905470D01*
X72016883Y34877546D01*
X71907640Y34824026D01*
X71754315Y34740215D01*
X71643325Y34677388D01*
X71187772Y34417771D01*
X70941977Y34662685D01*
X70628292Y34925290D01*
X70277171Y35126237D01*
X69891142Y35264448D01*
X69472732Y35338843D01*
X69335469Y35348847D01*
X68923084Y35340757D01*
X68541454Y35271945D01*
X68180420Y35139125D01*
X67829826Y34939009D01*
X67638831Y34799903D01*
X67339964Y34525251D01*
X67100795Y34213813D01*
X66917704Y33859929D01*
X66791111Y33474131D01*
X66741553Y33191167D01*
X66725831Y32887506D01*
X66743151Y32587485D01*
X66792718Y32315440D01*
X66833131Y32187365D01*
X66866790Y32101634D01*
X66887333Y32037902D01*
X66887478Y31987105D01*
X66859946Y31940182D01*
X66797456Y31888070D01*
X66692728Y31821708D01*
X66538482Y31732032D01*
X66405966Y31655644D01*
X66235125Y31553339D01*
X66119632Y31474962D01*
X66049573Y31412699D01*
X66015032Y31358736D01*
X66010315Y31343809D01*
X65595510Y31343809D01*
X65593120Y31367163D01*
X65573717Y31974038D01*
X65612391Y32610427D01*
X65706491Y33266114D01*
X65853366Y33930881D01*
X66050364Y34594508D01*
X66294835Y35246778D01*
X66584127Y35877474D01*
X66915590Y36476376D01*
X66921004Y36485285D01*
X67349350Y37121762D01*
X67837917Y37725587D01*
X68378586Y38288501D01*
X68963242Y38802243D01*
X69583767Y39258552D01*
X69755948Y39370547D01*
X69976279Y39501527D01*
X70244953Y39648058D01*
X70542267Y39800457D01*
X70848523Y39949039D01*
X71144019Y40084120D01*
X71409055Y40196015D01*
X71528390Y40241857D01*
X71809261Y40336112D01*
X72139221Y40432640D01*
X72495237Y40525665D01*
X72854276Y40609406D01*
X73193303Y40678086D01*
X73417612Y40715794D01*
X73758856Y40753886D01*
X74145916Y40775696D01*
X74553886Y40781224D01*
X74957859Y40770471D01*
G36*
X70414969Y32931800D02*
X70736054Y32843895D01*
X71025387Y32698289D01*
X71277077Y32503006D01*
X71485229Y32266070D01*
X71643952Y31995507D01*
X71747353Y31699341D01*
X71789538Y31385596D01*
X71769126Y31087785D01*
X71678852Y30756087D01*
X71528874Y30458611D01*
X71325467Y30201988D01*
X71074902Y29992850D01*
X70783455Y29837829D01*
X70506786Y29753251D01*
X70320620Y29718746D01*
X70170465Y29706450D01*
X70023232Y29716388D01*
X69845835Y29748584D01*
X69821763Y29753768D01*
X69499454Y29859187D01*
X69214445Y30023840D01*
X68972485Y30241609D01*
X68779321Y30506372D01*
X68640702Y30812012D01*
X68572653Y31083550D01*
X68552591Y31405672D01*
X68597909Y31715108D01*
X68701810Y32005037D01*
X68857495Y32268638D01*
X69058164Y32499092D01*
X69297020Y32689577D01*
X69567263Y32833273D01*
X69862096Y32923359D01*
X70174718Y32953014D01*
X70414969Y32931800D01*
X70414969Y32931800D01*
G37*
X70414969Y32931800D02*
X70736054Y32843895D01*
X71025387Y32698289D01*
X71277077Y32503006D01*
X71485229Y32266070D01*
X71643952Y31995507D01*
X71747353Y31699341D01*
X71789538Y31385596D01*
X71769126Y31087785D01*
X71678852Y30756087D01*
X71528874Y30458611D01*
X71325467Y30201988D01*
X71074902Y29992850D01*
X70783455Y29837829D01*
X70506786Y29753251D01*
X70320620Y29718746D01*
X70170465Y29706450D01*
X70023232Y29716388D01*
X69845835Y29748584D01*
X69821763Y29753768D01*
X69499454Y29859187D01*
X69214445Y30023840D01*
X68972485Y30241609D01*
X68779321Y30506372D01*
X68640702Y30812012D01*
X68572653Y31083550D01*
X68552591Y31405672D01*
X68597909Y31715108D01*
X68701810Y32005037D01*
X68857495Y32268638D01*
X69058164Y32499092D01*
X69297020Y32689577D01*
X69567263Y32833273D01*
X69862096Y32923359D01*
X70174718Y32953014D01*
X70414969Y32931800D01*
G36*
X72177680Y34695174D02*
X72193777Y34652486D01*
X72187284Y34635285D01*
X72161871Y34608748D01*
X72114064Y34570779D01*
X72040390Y34519279D01*
X71937376Y34452152D01*
X71801550Y34367299D01*
X71629437Y34262624D01*
X71417566Y34136029D01*
X71162464Y33985417D01*
X70860657Y33808691D01*
X70508673Y33603752D01*
X70103038Y33368504D01*
X69640280Y33100849D01*
X69280353Y32893000D01*
X68856505Y32648536D01*
X68450103Y32414475D01*
X68065598Y32193362D01*
X67707446Y31987742D01*
X67380098Y31800161D01*
X67088008Y31633164D01*
X66835628Y31489297D01*
X66627413Y31371104D01*
X66467816Y31281132D01*
X66361288Y31221925D01*
X66312285Y31196029D01*
X66309851Y31195086D01*
X66250487Y31211231D01*
X66214678Y31242265D01*
X66185346Y31297831D01*
X66215578Y31348437D01*
X66218015Y31350869D01*
X66261827Y31381407D01*
X66362500Y31444052D01*
X66514673Y31535732D01*
X66712986Y31653374D01*
X66952077Y31793906D01*
X67226589Y31954254D01*
X67531158Y32131347D01*
X67860427Y32322111D01*
X68209034Y32523474D01*
X68571619Y32732364D01*
X68942823Y32945708D01*
X69317283Y33160433D01*
X69689642Y33373466D01*
X70054537Y33581736D01*
X70406610Y33782169D01*
X70740499Y33971693D01*
X71050844Y34147235D01*
X71332286Y34305723D01*
X71579464Y34444084D01*
X71787017Y34559245D01*
X71949586Y34648135D01*
X72061810Y34707679D01*
X72118329Y34734806D01*
X72123734Y34736147D01*
X72177680Y34695174D01*
X72177680Y34695174D01*
G37*
X72177680Y34695174D02*
X72193777Y34652486D01*
X72187284Y34635285D01*
X72161871Y34608748D01*
X72114064Y34570779D01*
X72040390Y34519279D01*
X71937376Y34452152D01*
X71801550Y34367299D01*
X71629437Y34262624D01*
X71417566Y34136029D01*
X71162464Y33985417D01*
X70860657Y33808691D01*
X70508673Y33603752D01*
X70103038Y33368504D01*
X69640280Y33100849D01*
X69280353Y32893000D01*
X68856505Y32648536D01*
X68450103Y32414475D01*
X68065598Y32193362D01*
X67707446Y31987742D01*
X67380098Y31800161D01*
X67088008Y31633164D01*
X66835628Y31489297D01*
X66627413Y31371104D01*
X66467816Y31281132D01*
X66361288Y31221925D01*
X66312285Y31196029D01*
X66309851Y31195086D01*
X66250487Y31211231D01*
X66214678Y31242265D01*
X66185346Y31297831D01*
X66215578Y31348437D01*
X66218015Y31350869D01*
X66261827Y31381407D01*
X66362500Y31444052D01*
X66514673Y31535732D01*
X66712986Y31653374D01*
X66952077Y31793906D01*
X67226589Y31954254D01*
X67531158Y32131347D01*
X67860427Y32322111D01*
X68209034Y32523474D01*
X68571619Y32732364D01*
X68942823Y32945708D01*
X69317283Y33160433D01*
X69689642Y33373466D01*
X70054537Y33581736D01*
X70406610Y33782169D01*
X70740499Y33971693D01*
X71050844Y34147235D01*
X71332286Y34305723D01*
X71579464Y34444084D01*
X71787017Y34559245D01*
X71949586Y34648135D01*
X72061810Y34707679D01*
X72118329Y34734806D01*
X72123734Y34736147D01*
X72177680Y34695174D01*
G36*
X69421664Y35167685D02*
X69643166Y35139620D01*
X69717917Y35123172D01*
X69834039Y35087929D01*
X69970311Y35038805D01*
X70110095Y34982878D01*
X70236749Y34927226D01*
X70333636Y34878926D01*
X70384116Y34845057D01*
X70387755Y34838248D01*
X70359450Y34810888D01*
X70287428Y34761454D01*
X70237568Y34730695D01*
X70087381Y34641135D01*
X70005001Y34739038D01*
X69922109Y34813154D01*
X69808352Y34885408D01*
X69685583Y34945206D01*
X69575655Y34981952D01*
X69500419Y34985053D01*
X69498796Y34984465D01*
X69449919Y34942152D01*
X69467177Y34881615D01*
X69547671Y34807013D01*
X69677439Y34728284D01*
X69788493Y34665388D01*
X69870464Y34610850D01*
X69904896Y34577433D01*
X69883855Y34538919D01*
X69816229Y34485040D01*
X69775699Y34460344D01*
X69671939Y34404694D01*
X69615782Y34384994D01*
X69593071Y34399084D01*
X69589469Y34431917D01*
X69561727Y34489119D01*
X69494330Y34561083D01*
X69411015Y34627249D01*
X69335523Y34667058D01*
X69313403Y34671000D01*
X69249243Y34648957D01*
X69237669Y34590756D01*
X69276878Y34508284D01*
X69350489Y34426415D01*
X69425339Y34353992D01*
X69469181Y34304011D01*
X69474441Y34291191D01*
X69441111Y34270952D01*
X69353145Y34219248D01*
X69218777Y34140871D01*
X69046238Y34040612D01*
X68843759Y33923261D01*
X68619572Y33793610D01*
X68609755Y33787939D01*
X67757040Y33295344D01*
X67746446Y33544446D01*
X67733294Y33673464D01*
X67847755Y33673464D01*
X67868168Y33592829D01*
X67915431Y33528482D01*
X67956612Y33509857D01*
X67997955Y33532201D01*
X68021926Y33553400D01*
X68059735Y33634924D01*
X68058784Y33738394D01*
X68021045Y33825692D01*
X68007114Y33839687D01*
X67955566Y33867336D01*
X67911951Y33836929D01*
X67898257Y33819052D01*
X67857132Y33730571D01*
X67847755Y33673464D01*
X67733294Y33673464D01*
X67730127Y33704531D01*
X67698343Y33798620D01*
X67652300Y33824844D01*
X67593669Y33781896D01*
X67565876Y33710173D01*
X67550955Y33596063D01*
X67549260Y33467845D01*
X67561141Y33353800D01*
X67586952Y33282206D01*
X67587442Y33281606D01*
X67600103Y33250511D01*
X67579599Y33214465D01*
X67516599Y33164863D01*
X67401775Y33093098D01*
X67349890Y33062482D01*
X67182562Y32964777D01*
X67068386Y32902599D01*
X66997248Y32875923D01*
X66959032Y32884724D01*
X66943623Y32928977D01*
X66940908Y33008657D01*
X66941148Y33061475D01*
X66968652Y33334976D01*
X67194814Y33334976D01*
X67197281Y33223433D01*
X67209862Y33167692D01*
X67239869Y33151040D01*
X67274189Y33153547D01*
X67314762Y33167516D01*
X67344271Y33205046D01*
X67368674Y33280595D01*
X67393931Y33408624D01*
X67404128Y33468818D01*
X67428231Y33647015D01*
X67429328Y33762717D01*
X67405931Y33822737D01*
X67356552Y33833890D01*
X67326310Y33825109D01*
X67275651Y33771010D01*
X67233938Y33660760D01*
X67205538Y33510633D01*
X67194817Y33336904D01*
X67194814Y33334976D01*
X66968652Y33334976D01*
X66977373Y33421685D01*
X67080495Y33769663D01*
X67244938Y34096958D01*
X67465128Y34395119D01*
X67735489Y34655695D01*
X68050445Y34870234D01*
X68178403Y34936848D01*
X68345820Y35011887D01*
X68513085Y35077929D01*
X68654844Y35125324D01*
X68711326Y35139658D01*
X68925445Y35168201D01*
X69172323Y35177378D01*
X69421664Y35167685D01*
X69421664Y35167685D01*
G37*
X69421664Y35167685D02*
X69643166Y35139620D01*
X69717917Y35123172D01*
X69834039Y35087929D01*
X69970311Y35038805D01*
X70110095Y34982878D01*
X70236749Y34927226D01*
X70333636Y34878926D01*
X70384116Y34845057D01*
X70387755Y34838248D01*
X70359450Y34810888D01*
X70287428Y34761454D01*
X70237568Y34730695D01*
X70087381Y34641135D01*
X70005001Y34739038D01*
X69922109Y34813154D01*
X69808352Y34885408D01*
X69685583Y34945206D01*
X69575655Y34981952D01*
X69500419Y34985053D01*
X69498796Y34984465D01*
X69449919Y34942152D01*
X69467177Y34881615D01*
X69547671Y34807013D01*
X69677439Y34728284D01*
X69788493Y34665388D01*
X69870464Y34610850D01*
X69904896Y34577433D01*
X69883855Y34538919D01*
X69816229Y34485040D01*
X69775699Y34460344D01*
X69671939Y34404694D01*
X69615782Y34384994D01*
X69593071Y34399084D01*
X69589469Y34431917D01*
X69561727Y34489119D01*
X69494330Y34561083D01*
X69411015Y34627249D01*
X69335523Y34667058D01*
X69313403Y34671000D01*
X69249243Y34648957D01*
X69237669Y34590756D01*
X69276878Y34508284D01*
X69350489Y34426415D01*
X69425339Y34353992D01*
X69469181Y34304011D01*
X69474441Y34291191D01*
X69441111Y34270952D01*
X69353145Y34219248D01*
X69218777Y34140871D01*
X69046238Y34040612D01*
X68843759Y33923261D01*
X68619572Y33793610D01*
X68609755Y33787939D01*
X67757040Y33295344D01*
X67746446Y33544446D01*
X67733294Y33673464D01*
X67847755Y33673464D01*
X67868168Y33592829D01*
X67915431Y33528482D01*
X67956612Y33509857D01*
X67997955Y33532201D01*
X68021926Y33553400D01*
X68059735Y33634924D01*
X68058784Y33738394D01*
X68021045Y33825692D01*
X68007114Y33839687D01*
X67955566Y33867336D01*
X67911951Y33836929D01*
X67898257Y33819052D01*
X67857132Y33730571D01*
X67847755Y33673464D01*
X67733294Y33673464D01*
X67730127Y33704531D01*
X67698343Y33798620D01*
X67652300Y33824844D01*
X67593669Y33781896D01*
X67565876Y33710173D01*
X67550955Y33596063D01*
X67549260Y33467845D01*
X67561141Y33353800D01*
X67586952Y33282206D01*
X67587442Y33281606D01*
X67600103Y33250511D01*
X67579599Y33214465D01*
X67516599Y33164863D01*
X67401775Y33093098D01*
X67349890Y33062482D01*
X67182562Y32964777D01*
X67068386Y32902599D01*
X66997248Y32875923D01*
X66959032Y32884724D01*
X66943623Y32928977D01*
X66940908Y33008657D01*
X66941148Y33061475D01*
X66968652Y33334976D01*
X67194814Y33334976D01*
X67197281Y33223433D01*
X67209862Y33167692D01*
X67239869Y33151040D01*
X67274189Y33153547D01*
X67314762Y33167516D01*
X67344271Y33205046D01*
X67368674Y33280595D01*
X67393931Y33408624D01*
X67404128Y33468818D01*
X67428231Y33647015D01*
X67429328Y33762717D01*
X67405931Y33822737D01*
X67356552Y33833890D01*
X67326310Y33825109D01*
X67275651Y33771010D01*
X67233938Y33660760D01*
X67205538Y33510633D01*
X67194817Y33336904D01*
X67194814Y33334976D01*
X66968652Y33334976D01*
X66977373Y33421685D01*
X67080495Y33769663D01*
X67244938Y34096958D01*
X67465128Y34395119D01*
X67735489Y34655695D01*
X68050445Y34870234D01*
X68178403Y34936848D01*
X68345820Y35011887D01*
X68513085Y35077929D01*
X68654844Y35125324D01*
X68711326Y35139658D01*
X68925445Y35168201D01*
X69172323Y35177378D01*
X69421664Y35167685D01*
D13*
X15949562Y16482227D02*
X15997181Y16625084D01*
X15997181Y16863180D01*
X15949562Y16958418D01*
X15901943Y17006037D01*
X15806705Y17053656D01*
X15711467Y17053656D01*
X15616229Y17006037D01*
X15568610Y16958418D01*
X15520990Y16863180D01*
X15473371Y16672703D01*
X15425752Y16577465D01*
X15378133Y16529846D01*
X15282895Y16482227D01*
X15187657Y16482227D01*
X15092419Y16529846D01*
X15044800Y16577465D01*
X14997181Y16672703D01*
X14997181Y16910799D01*
X15044800Y17053656D01*
X14997181Y17386989D02*
X15997181Y17625084D01*
X15282895Y17815561D01*
X15997181Y18006037D01*
X14997181Y18244132D01*
X15092419Y18577465D02*
X15044800Y18625084D01*
X14997181Y18720322D01*
X14997181Y18958418D01*
X15044800Y19053656D01*
X15092419Y19101275D01*
X15187657Y19148894D01*
X15282895Y19148894D01*
X15425752Y19101275D01*
X15997181Y18529846D01*
X15997181Y19148894D01*
X43115337Y3259480D02*
X43686766Y3259480D01*
X43001052Y2916623D02*
X43401052Y4116623D01*
X43801052Y2916623D01*
X44829623Y2916623D02*
X44143908Y2916623D01*
X44486766Y2916623D02*
X44486766Y4116623D01*
X44372480Y3945194D01*
X44258194Y3830909D01*
X44143908Y3773766D01*
X47632821Y46798907D02*
X48347107Y46798907D01*
X48489964Y46751287D01*
X48585202Y46656049D01*
X48632821Y46513192D01*
X48632821Y46417954D01*
X48061392Y47417954D02*
X48013773Y47322716D01*
X47966154Y47275097D01*
X47870916Y47227478D01*
X47823297Y47227478D01*
X47728059Y47275097D01*
X47680440Y47322716D01*
X47632821Y47417954D01*
X47632821Y47608431D01*
X47680440Y47703669D01*
X47728059Y47751288D01*
X47823297Y47798907D01*
X47870916Y47798907D01*
X47966154Y47751288D01*
X48013773Y47703669D01*
X48061392Y47608431D01*
X48061392Y47417954D01*
X48109011Y47322716D01*
X48156630Y47275097D01*
X48251869Y47227478D01*
X48442345Y47227478D01*
X48537583Y47275097D01*
X48585202Y47322716D01*
X48632821Y47417954D01*
X48632821Y47608431D01*
X48585202Y47703669D01*
X48537583Y47751288D01*
X48442345Y47798907D01*
X48251869Y47798907D01*
X48156630Y47751288D01*
X48109011Y47703669D01*
X48061392Y47608431D01*
X8708254Y31022017D02*
X8660635Y30974398D01*
X8517778Y30926779D01*
X8422540Y30926779D01*
X8279682Y30974398D01*
X8184444Y31069636D01*
X8136825Y31164874D01*
X8089206Y31355350D01*
X8089206Y31498208D01*
X8136825Y31688684D01*
X8184444Y31783922D01*
X8279682Y31879160D01*
X8422540Y31926779D01*
X8517778Y31926779D01*
X8660635Y31879160D01*
X8708254Y31831541D01*
X9660635Y30926779D02*
X9089206Y30926779D01*
X9374920Y30926779D02*
X9374920Y31926779D01*
X9279682Y31783922D01*
X9184444Y31688684D01*
X9089206Y31641065D01*
X32693385Y18724619D02*
X32693385Y19724619D01*
X32931480Y19724619D01*
X33074338Y19677000D01*
X33169576Y19581762D01*
X33217195Y19486524D01*
X33264814Y19296048D01*
X33264814Y19153190D01*
X33217195Y18962714D01*
X33169576Y18867476D01*
X33074338Y18772238D01*
X32931480Y18724619D01*
X32693385Y18724619D01*
X34217195Y18724619D02*
X33645766Y18724619D01*
X33931480Y18724619D02*
X33931480Y19724619D01*
X33836242Y19581762D01*
X33741004Y19486524D01*
X33645766Y19438905D01*
X32825465Y13812259D02*
X32825465Y14812259D01*
X33063560Y14812259D01*
X33206418Y14764640D01*
X33301656Y14669402D01*
X33349275Y14574164D01*
X33396894Y14383688D01*
X33396894Y14240830D01*
X33349275Y14050354D01*
X33301656Y13955116D01*
X33206418Y13859878D01*
X33063560Y13812259D01*
X32825465Y13812259D01*
X33777846Y14717021D02*
X33825465Y14764640D01*
X33920703Y14812259D01*
X34158799Y14812259D01*
X34254037Y14764640D01*
X34301656Y14717021D01*
X34349275Y14621783D01*
X34349275Y14526545D01*
X34301656Y14383688D01*
X33730227Y13812259D01*
X34349275Y13812259D01*
X32764505Y8706859D02*
X32764505Y9706859D01*
X33002600Y9706859D01*
X33145458Y9659240D01*
X33240696Y9564002D01*
X33288315Y9468764D01*
X33335934Y9278288D01*
X33335934Y9135430D01*
X33288315Y8944954D01*
X33240696Y8849716D01*
X33145458Y8754478D01*
X33002600Y8706859D01*
X32764505Y8706859D01*
X33669267Y9706859D02*
X34288315Y9706859D01*
X33954981Y9325907D01*
X34097839Y9325907D01*
X34193077Y9278288D01*
X34240696Y9230669D01*
X34288315Y9135430D01*
X34288315Y8897335D01*
X34240696Y8802097D01*
X34193077Y8754478D01*
X34097839Y8706859D01*
X33812124Y8706859D01*
X33716886Y8754478D01*
X33669267Y8802097D01*
X63244505Y15183859D02*
X63244505Y16183859D01*
X63482600Y16183859D01*
X63625458Y16136240D01*
X63720696Y16041002D01*
X63768315Y15945764D01*
X63815934Y15755288D01*
X63815934Y15612430D01*
X63768315Y15421954D01*
X63720696Y15326716D01*
X63625458Y15231478D01*
X63482600Y15183859D01*
X63244505Y15183859D01*
X64673077Y15850526D02*
X64673077Y15183859D01*
X64434981Y16231478D02*
X64196886Y15517192D01*
X64815934Y15517192D01*
X6357821Y46641427D02*
X7072107Y46641427D01*
X7214964Y46593807D01*
X7310202Y46498569D01*
X7357821Y46355712D01*
X7357821Y46260474D01*
X7357821Y47641427D02*
X7357821Y47069998D01*
X7357821Y47355712D02*
X6357821Y47355712D01*
X6500678Y47260474D01*
X6595916Y47165236D01*
X6643535Y47069998D01*
X27605694Y20726139D02*
X27272360Y21202330D01*
X27034265Y20726139D02*
X27034265Y21726139D01*
X27415218Y21726139D01*
X27510456Y21678520D01*
X27558075Y21630901D01*
X27605694Y21535663D01*
X27605694Y21392806D01*
X27558075Y21297568D01*
X27510456Y21249949D01*
X27415218Y21202330D01*
X27034265Y21202330D01*
X28558075Y20726139D02*
X27986646Y20726139D01*
X28272360Y20726139D02*
X28272360Y21726139D01*
X28177122Y21583282D01*
X28081884Y21488044D01*
X27986646Y21440425D01*
X27519334Y17276819D02*
X27186000Y17753010D01*
X26947905Y17276819D02*
X26947905Y18276819D01*
X27328858Y18276819D01*
X27424096Y18229200D01*
X27471715Y18181581D01*
X27519334Y18086343D01*
X27519334Y17943486D01*
X27471715Y17848248D01*
X27424096Y17800629D01*
X27328858Y17753010D01*
X26947905Y17753010D01*
X27900286Y18181581D02*
X27947905Y18229200D01*
X28043143Y18276819D01*
X28281239Y18276819D01*
X28376477Y18229200D01*
X28424096Y18181581D01*
X28471715Y18086343D01*
X28471715Y17991105D01*
X28424096Y17848248D01*
X27852667Y17276819D01*
X28471715Y17276819D01*
X27483774Y12364459D02*
X27150440Y12840650D01*
X26912345Y12364459D02*
X26912345Y13364459D01*
X27293298Y13364459D01*
X27388536Y13316840D01*
X27436155Y13269221D01*
X27483774Y13173983D01*
X27483774Y13031126D01*
X27436155Y12935888D01*
X27388536Y12888269D01*
X27293298Y12840650D01*
X26912345Y12840650D01*
X27817107Y13364459D02*
X28436155Y13364459D01*
X28102821Y12983507D01*
X28245679Y12983507D01*
X28340917Y12935888D01*
X28388536Y12888269D01*
X28436155Y12793030D01*
X28436155Y12554935D01*
X28388536Y12459697D01*
X28340917Y12412078D01*
X28245679Y12364459D01*
X27959964Y12364459D01*
X27864726Y12412078D01*
X27817107Y12459697D01*
X63688934Y17464779D02*
X63355600Y17940970D01*
X63117505Y17464779D02*
X63117505Y18464779D01*
X63498458Y18464779D01*
X63593696Y18417160D01*
X63641315Y18369541D01*
X63688934Y18274303D01*
X63688934Y18131446D01*
X63641315Y18036208D01*
X63593696Y17988589D01*
X63498458Y17940970D01*
X63117505Y17940970D01*
X64546077Y18131446D02*
X64546077Y17464779D01*
X64307981Y18512398D02*
X64069886Y17798112D01*
X64688934Y17798112D01*
X58250722Y16294267D02*
X58298341Y16437124D01*
X58298341Y16675220D01*
X58250722Y16770458D01*
X58203103Y16818077D01*
X58107865Y16865696D01*
X58012627Y16865696D01*
X57917389Y16818077D01*
X57869770Y16770458D01*
X57822150Y16675220D01*
X57774531Y16484743D01*
X57726912Y16389505D01*
X57679293Y16341886D01*
X57584055Y16294267D01*
X57488817Y16294267D01*
X57393579Y16341886D01*
X57345960Y16389505D01*
X57298341Y16484743D01*
X57298341Y16722839D01*
X57345960Y16865696D01*
X57298341Y17199029D02*
X58298341Y17437124D01*
X57584055Y17627601D01*
X58298341Y17818077D01*
X57298341Y18056172D01*
X58298341Y18960934D02*
X58298341Y18389505D01*
X58298341Y18675219D02*
X57298341Y18675219D01*
X57441198Y18579981D01*
X57536436Y18484743D01*
X57584055Y18389505D01*
X71178621Y46585547D02*
X71892907Y46585547D01*
X72035764Y46537927D01*
X72131002Y46442689D01*
X72178621Y46299832D01*
X72178621Y46204594D01*
X71273859Y47014118D02*
X71226240Y47061737D01*
X71178621Y47156975D01*
X71178621Y47395071D01*
X71226240Y47490309D01*
X71273859Y47537928D01*
X71369097Y47585547D01*
X71464335Y47585547D01*
X71607192Y47537928D01*
X72178621Y46966499D01*
X72178621Y47585547D01*
X20378621Y45828627D02*
X21092907Y45828627D01*
X21235764Y45781007D01*
X21331002Y45685769D01*
X21378621Y45542912D01*
X21378621Y45447674D01*
X20711954Y46733389D02*
X21378621Y46733389D01*
X20331002Y46495293D02*
X21045288Y46257198D01*
X21045288Y46876246D01*
X764741Y14347867D02*
X1479027Y14347867D01*
X1621884Y14300247D01*
X1717122Y14205009D01*
X1764741Y14062152D01*
X1764741Y13966914D01*
X764741Y15300248D02*
X764741Y14824057D01*
X1240931Y14776438D01*
X1193312Y14824057D01*
X1145693Y14919295D01*
X1145693Y15157391D01*
X1193312Y15252629D01*
X1240931Y15300248D01*
X1336170Y15347867D01*
X1574265Y15347867D01*
X1669503Y15300248D01*
X1717122Y15252629D01*
X1764741Y15157391D01*
X1764741Y14919295D01*
X1717122Y14824057D01*
X1669503Y14776438D01*
X16409421Y34276707D02*
X17123707Y34276707D01*
X17266564Y34229087D01*
X17361802Y34133849D01*
X17409421Y33990992D01*
X17409421Y33895754D01*
X16409421Y35181469D02*
X16409421Y34990992D01*
X16457040Y34895754D01*
X16504659Y34848135D01*
X16647516Y34752897D01*
X16837992Y34705278D01*
X17218945Y34705278D01*
X17314183Y34752897D01*
X17361802Y34800516D01*
X17409421Y34895754D01*
X17409421Y35086231D01*
X17361802Y35181469D01*
X17314183Y35229088D01*
X17218945Y35276707D01*
X16980850Y35276707D01*
X16885611Y35229088D01*
X16837992Y35181469D01*
X16790373Y35086231D01*
X16790373Y34895754D01*
X16837992Y34800516D01*
X16885611Y34752897D01*
X16980850Y34705278D01*
X77035861Y14088787D02*
X77750147Y14088787D01*
X77893004Y14041167D01*
X77988242Y13945929D01*
X78035861Y13803072D01*
X78035861Y13707834D01*
X77035861Y14469739D02*
X77035861Y15136406D01*
X78035861Y14707834D01*
X30315101Y46793827D02*
X31029387Y46793827D01*
X31172244Y46746207D01*
X31267482Y46650969D01*
X31315101Y46508112D01*
X31315101Y46412874D01*
X31315101Y47317636D02*
X31315101Y47508112D01*
X31267482Y47603351D01*
X31219863Y47650970D01*
X31077006Y47746208D01*
X30886530Y47793827D01*
X30505577Y47793827D01*
X30410339Y47746208D01*
X30362720Y47698589D01*
X30315101Y47603351D01*
X30315101Y47412874D01*
X30362720Y47317636D01*
X30410339Y47270017D01*
X30505577Y47222398D01*
X30743672Y47222398D01*
X30838910Y47270017D01*
X30886530Y47317636D01*
X30934149Y47412874D01*
X30934149Y47603351D01*
X30886530Y47698589D01*
X30838910Y47746208D01*
X30743672Y47793827D01*
X38966341Y46332877D02*
X39680627Y46332877D01*
X39823484Y46285257D01*
X39918722Y46190019D01*
X39966341Y46047162D01*
X39966341Y45951924D01*
X39966341Y47332877D02*
X39966341Y46761448D01*
X39966341Y47047162D02*
X38966341Y47047162D01*
X39109198Y46951924D01*
X39204436Y46856686D01*
X39252055Y46761448D01*
X38966341Y47951924D02*
X38966341Y48047163D01*
X39013960Y48142401D01*
X39061579Y48190020D01*
X39156817Y48237639D01*
X39347293Y48285258D01*
X39585389Y48285258D01*
X39775865Y48237639D01*
X39871103Y48190020D01*
X39918722Y48142401D01*
X39966341Y48047163D01*
X39966341Y47951924D01*
X39918722Y47856686D01*
X39871103Y47809067D01*
X39775865Y47761448D01*
X39585389Y47713829D01*
X39347293Y47713829D01*
X39156817Y47761448D01*
X39061579Y47809067D01*
X39013960Y47856686D01*
X38966341Y47951924D01*
X27020615Y40125899D02*
X27020615Y39316375D01*
X27068234Y39221137D01*
X27115853Y39173518D01*
X27211091Y39125899D01*
X27401568Y39125899D01*
X27496806Y39173518D01*
X27544425Y39221137D01*
X27592044Y39316375D01*
X27592044Y40125899D01*
X28592044Y39125899D02*
X28020615Y39125899D01*
X28306329Y39125899D02*
X28306329Y40125899D01*
X28211091Y39983042D01*
X28115853Y39887804D01*
X28020615Y39840185D01*
%LPC*%
D15*
X16875760Y13703600D03*
X21955760Y22313600D03*
X19415760Y13703600D03*
X19415760Y22313600D03*
X21955760Y13703600D03*
X16875760Y22313600D03*
D16*
X4333240Y25455880D03*
D17*
X6733240Y25455880D03*
X6030296Y23758824D03*
X4333240Y23055880D03*
X2636184Y23758824D03*
X1933240Y25455880D03*
X2636184Y27152936D03*
X4333240Y27855880D03*
X6030296Y27152936D03*
D18*
X51628040Y40777160D03*
X36388040Y40777160D03*
X51628040Y38237160D03*
X36388040Y38237160D03*
X51628040Y35697160D03*
X36388040Y35697160D03*
X51628040Y33157160D03*
X36388040Y33157160D03*
X51628040Y30617160D03*
X36388040Y30617160D03*
X51628040Y28077160D03*
X36388040Y28077160D03*
X51628040Y25537160D03*
X36388040Y25537160D03*
X51628040Y22997160D03*
X36388040Y22997160D03*
X51628040Y20457160D03*
X36388040Y20457160D03*
X51628040Y17917160D03*
X36388040Y17917160D03*
X51628040Y15377160D03*
X36388040Y15377160D03*
X51628040Y12837160D03*
X36388040Y12837160D03*
X51628040Y10297160D03*
X36388040Y10297160D03*
X51628040Y7757160D03*
X36388040Y7757160D03*
X51628040Y5217160D03*
X36388040Y5217160D03*
D19*
X50510440Y47132240D03*
D20*
X53050440Y47132240D03*
X55590440Y47132240D03*
D21*
X9418480Y33568640D03*
D22*
X5618480Y33568640D03*
D23*
X29829760Y21615400D03*
D24*
X32369760Y21615400D03*
D23*
X29829760Y16769080D03*
D24*
X32369760Y16769080D03*
D23*
X29834840Y11973560D03*
D24*
X32374840Y11973560D03*
D23*
X66131440Y17332960D03*
D24*
X68671440Y17332960D03*
D19*
X9235440Y46974760D03*
D20*
X11775440Y46974760D03*
X14315440Y46974760D03*
D25*
X27711400Y20253920D03*
X27711400Y22153920D03*
X27640280Y18669000D03*
X27640280Y16769000D03*
X27599640Y13822760D03*
X27599640Y11922760D03*
X63825120Y18862080D03*
X63825120Y16962080D03*
D15*
X59197240Y13129560D03*
X59197240Y21739560D03*
D19*
X74056240Y46918880D03*
D20*
X76596240Y46918880D03*
X79136240Y46918880D03*
D19*
X23256240Y46161960D03*
D20*
X25796240Y46161960D03*
D19*
X3642360Y14681200D03*
D20*
X6182360Y14681200D03*
X8722360Y14681200D03*
D19*
X19705320Y37073840D03*
D20*
X19705320Y34533840D03*
X19705320Y31993840D03*
D19*
X79913480Y14422120D03*
D20*
X82453480Y14422120D03*
X84993480Y14422120D03*
D19*
X33192720Y47127160D03*
D20*
X35732720Y47127160D03*
X38272720Y47127160D03*
D19*
X41843960Y47142400D03*
D20*
X44383960Y47142400D03*
X46923960Y47142400D03*
D26*
X23373080Y42473880D03*
X32517080Y42473880D03*
X23373080Y27233880D03*
X32513080Y27233880D03*
D16*
X83850480Y25394920D03*
D17*
X86250480Y25394920D03*
X85547536Y23697864D03*
X83850480Y22994920D03*
X82153424Y23697864D03*
X81450480Y25394920D03*
X82153424Y27091976D03*
X83850480Y27794920D03*
X85547536Y27091976D03*
M02*
